<svg width="16" height="16" viewBox="0 0 16 16" fill="none" xmlns="http://www.w3.org/2000/svg">
<path d="M11.4217 1.09026L10.9868 1.50362L10.9868 1.50362L11.4217 1.09026ZM12.5003 2.1498L12.9004 1.70266V1.70266L12.5003 2.1498ZM13.6028 3.24115L13.1709 3.65758V3.65758L13.6028 3.24115ZM13.8503 3.85818L13.2503 3.85816V3.85818H13.8503ZM2.15012 2.59979L1.55012 2.59979V2.59979H2.15012ZM0.800049 9.6498C0.468678 9.6498 0.200049 9.91843 0.200049 10.2498C0.200049 10.5812 0.468678 10.8498 0.800049 10.8498V9.6498ZM15.2 10.8498C15.5314 10.8498 15.8 10.5812 15.8 10.2498C15.8 9.91843 15.5314 9.6498 15.2 9.6498V10.8498ZM1.55012 6.6498C1.55012 6.98117 1.81875 7.2498 2.15012 7.2498C2.48149 7.2498 2.75012 6.98117 2.75012 6.6498H1.55012ZM13.2503 6.6498C13.2503 6.98117 13.5189 7.2498 13.8503 7.2498C14.1817 7.2498 14.4503 6.98117 14.4503 6.6498H13.2503ZM2.75033 13.3998C2.75033 13.0684 2.4817 12.7998 2.15033 12.7998C1.81896 12.7998 1.55033 13.0684 1.55033 13.3998H2.75033ZM1.55033 15.1998C1.55033 15.5312 1.81896 15.7998 2.15033 15.7998C2.4817 15.7998 2.75033 15.5312 2.75033 15.1998H1.55033ZM9.05033 13.3998C9.05033 13.0684 8.7817 12.7998 8.45033 12.7998C8.11896 12.7998 7.85033 13.0684 7.85033 13.3998H9.05033ZM7.85033 15.1998C7.85033 15.5312 8.11896 15.7998 8.45033 15.7998C8.7817 15.7998 9.05033 15.5312 9.05033 15.1998H7.85033ZM15.3503 13.3998C15.3503 13.0684 15.0817 12.7998 14.7503 12.7998C14.419 12.7998 14.1503 13.0684 14.1503 13.3998H15.3503ZM14.1503 15.1998C14.1503 15.5312 14.419 15.7998 14.7503 15.7998C15.0817 15.7998 15.3503 15.5312 15.3503 15.1998H14.1503ZM5.90033 13.3998C5.90033 13.0684 5.6317 12.7998 5.30033 12.7998C4.96896 12.7998 4.70033 13.0684 4.70033 13.3998H5.90033ZM4.70033 14.2998C4.70033 14.6312 4.96896 14.8998 5.30033 14.8998C5.6317 14.8998 5.90033 14.6312 5.90033 14.2998H4.70033ZM12.2003 13.3998C12.2003 13.0684 11.9317 12.7998 11.6003 12.7998C11.269 12.7998 11.0003 13.0684 11.0003 13.3998H12.2003ZM11.0003 14.2998C11.0003 14.6312 11.269 14.8998 11.6003 14.8998C11.9317 14.8998 12.2003 14.6312 12.2003 14.2998H11.0003ZM3.95012 1.3998H10.2503V0.199805H3.95012V1.3998ZM10.2503 1.3998H10.7524V0.199805H10.2503V1.3998ZM10.9868 1.50362C11.2529 1.78356 11.6816 2.22238 12.1003 2.59695L12.9004 1.70266C12.5179 1.36044 12.1153 0.949111 11.8566 0.676905L10.9868 1.50362ZM12.1003 2.59695C12.3949 2.86059 12.8729 3.34849 13.1709 3.65758L14.0348 2.82473C13.742 2.52108 13.2336 2.0008 12.9004 1.70266L12.1003 2.59695ZM14.4503 3.85819C14.4503 3.47536 14.3041 3.10411 14.0348 2.82473L13.1709 3.65758C13.221 3.70955 13.2503 3.78074 13.2503 3.85816L14.4503 3.85819ZM10.7524 1.3998C10.8363 1.3998 10.9219 1.43531 10.9868 1.50362L11.8566 0.676905C11.5723 0.377802 11.1754 0.199805 10.7524 0.199805V1.3998ZM3.95012 0.199805C2.62464 0.199805 1.55013 1.27431 1.55012 2.59979L2.75012 2.5998C2.75012 1.93706 3.28738 1.3998 3.95012 1.3998V0.199805ZM9.65033 0.799805V3.4998H10.8503V0.799805H9.65033ZM11.1503 4.9998H13.8503V3.7998H11.1503V4.9998ZM9.65033 3.4998C9.65033 4.32823 10.3219 4.9998 11.1503 4.9998V3.7998C10.9846 3.7998 10.8503 3.66549 10.8503 3.4998H9.65033ZM0.800049 10.8498H15.2V9.6498H0.800049V10.8498ZM1.55012 2.59979V6.6498H2.75012V2.59979H1.55012ZM13.2503 3.85818V4.3998H14.4503V3.85818H13.2503ZM13.2503 4.3998V6.6498H14.4503V4.3998H13.2503ZM1.55033 13.3998V15.1998H2.75033V13.3998H1.55033ZM7.85033 13.3998V15.1998H9.05033V13.3998H7.85033ZM14.1503 13.3998V15.1998H15.3503V13.3998H14.1503ZM4.70033 13.3998V14.2998H5.90033V13.3998H4.70033ZM11.0003 13.3998V14.2998H12.2003V13.3998H11.0003Z" fill="#6B7281"/>
</svg>
