<svg width="18" height="18" viewBox="0 0 18 18" fill="none" xmlns="http://www.w3.org/2000/svg">
<path d="M14.6843 7.8628V5.83122C14.6843 5.27893 14.2365 4.83122 13.6843 4.83122H9.03531C8.7701 4.83122 8.51574 4.72586 8.32821 4.53833L7.3982 3.60832C7.21067 3.42079 6.95631 3.31543 6.6911 3.31543H2.80005C2.24776 3.31543 1.80005 3.76315 1.80005 4.31543V13.6839C1.80005 14.2361 2.24776 14.6839 2.80005 14.6839H3.43217C3.7865 14.6839 4.07373 14.3966 4.07373 14.0423V14.0423C4.07373 13.9654 4.08757 13.8891 4.11458 13.817L6.10409 8.51168C6.25045 8.12137 6.62357 7.8628 7.04042 7.8628H14.8126C15.4952 7.8628 15.9771 8.5315 15.7613 9.17903L14.1543 14.0001C14.0182 14.4084 13.636 14.6839 13.2056 14.6839H3.31584" stroke="#181A1E" stroke-width="1.2" stroke-linecap="round" stroke-linejoin="round"/>
</svg>
