<svg width="18" height="18" viewBox="0 0 18 18" fill="none" xmlns="http://www.w3.org/2000/svg">
<path d="M1.20362 11.9924C1.1663 12.3217 1.40296 12.6189 1.73223 12.6562C2.06149 12.6935 2.35866 12.4568 2.39599 12.1276L1.20362 11.9924ZM2.6398 4.64935L2.25418 4.18968C2.13633 4.28855 2.06095 4.42892 2.04362 4.58177L2.6398 4.64935ZM4.70542 3.69966C4.95929 3.48669 4.99245 3.10824 4.77947 2.85437C4.5665 2.6005 4.18805 2.56735 3.93418 2.78032L4.70542 3.69966ZM15.6036 12.1276C15.6409 12.4568 15.9381 12.6935 16.2674 12.6562C16.5966 12.6189 16.8333 12.3217 16.796 11.9924L15.6036 12.1276ZM15.3598 4.64935L15.956 4.58177C15.9387 4.42892 15.8633 4.28855 15.7454 4.18968L15.3598 4.64935ZM14.0654 2.78032C13.8116 2.56735 13.4331 2.6005 13.2201 2.85437C13.0072 3.10824 13.0403 3.48669 13.2942 3.69966L14.0654 2.78032ZM6.2398 12.24C6.2398 13.3004 5.38019 14.16 4.3198 14.16V15.36C6.04293 15.36 7.4398 13.9631 7.4398 12.24H6.2398ZM4.3198 14.16C3.25942 14.16 2.3998 13.3004 2.3998 12.24H1.1998C1.1998 13.9631 2.59668 15.36 4.3198 15.36V14.16ZM2.3998 12.24C2.3998 11.1796 3.25942 10.32 4.3198 10.32V9.11999C2.59668 9.11999 1.1998 10.5169 1.1998 12.24H2.3998ZM4.3198 10.32C5.38019 10.32 6.2398 11.1796 6.2398 12.24H7.4398C7.4398 10.5169 6.04293 9.11999 4.3198 9.11999V10.32ZM7.33632 12.0004C7.6692 11.425 8.28991 11.04 8.99982 11.04V9.83999C7.84423 9.83999 6.83615 10.4686 6.29759 11.3996L7.33632 12.0004ZM8.99982 11.04C9.70974 11.04 10.3304 11.425 10.6633 12.0004L11.7021 11.3996C11.1635 10.4686 10.1554 9.83999 8.99982 9.83999V11.04ZM15.5998 12.24C15.5998 13.3004 14.7402 14.16 13.6798 14.16V15.36C15.4029 15.36 16.7998 13.9631 16.7998 12.24H15.5998ZM13.6798 14.16C12.6194 14.16 11.7598 13.3004 11.7598 12.24H10.5598C10.5598 13.9631 11.9567 15.36 13.6798 15.36V14.16ZM11.7598 12.24C11.7598 11.1796 12.6194 10.32 13.6798 10.32V9.11999C11.9567 9.11999 10.5598 10.5169 10.5598 12.24H11.7598ZM13.6798 10.32C14.7402 10.32 15.5998 11.1796 15.5998 12.24H16.7998C16.7998 10.5169 15.4029 9.11999 13.6798 9.11999V10.32ZM2.39599 12.1276L3.23599 4.71693L2.04362 4.58177L1.20362 11.9924L2.39599 12.1276ZM3.02542 5.10902L4.70542 3.69966L3.93418 2.78032L2.25418 4.18968L3.02542 5.10902ZM16.796 11.9924L15.956 4.58177L14.7636 4.71693L15.6036 12.1276L16.796 11.9924ZM15.7454 4.18968L14.0654 2.78032L13.2942 3.69966L14.9742 5.10902L15.7454 4.18968Z" fill="#181A1E"/>
</svg>
