<svg width="18" height="18" viewBox="0 0 18 18" fill="none" xmlns="http://www.w3.org/2000/svg">
<g id="Menu Icons">
<path id="Icon" d="M4.04975 3.99707V2.64707C4.04975 2.15001 4.45269 1.74707 4.94975 1.74707H13.4997C13.9968 1.74707 14.3997 2.15001 14.3997 2.64707V6.24707M1.80045 14.4528L1.80052 7.60958C1.80052 6.92414 1.80027 5.94784 1.80005 5.24093C1.7999 4.74374 2.2029 4.34116 2.70008 4.34116H6.98875L9.06252 6.55639H15.2997C15.7968 6.55639 16.1997 6.95935 16.1997 7.45642L16.1995 14.4529C16.1995 15.447 15.3936 16.2529 14.3995 16.2529L3.60045 16.2528C2.60633 16.2528 1.80044 15.4469 1.80045 14.4528Z" stroke="#6B7281" stroke-width="1.2" stroke-linecap="round" stroke-linejoin="round"/>
</g>
</svg>
