<svg width="18" height="18" viewBox="0 0 18 18" fill="none" xmlns="http://www.w3.org/2000/svg">
<g id="Menu Icons">
<path id="Icon" d="M8.10005 16.1998H3.60004C2.60593 16.1998 1.80004 15.3939 1.80005 14.3998L1.80012 3.59979C1.80012 2.60569 2.60601 1.7998 3.60012 1.7998H11.7003C12.6944 1.7998 13.5003 2.60569 13.5003 3.5998V7.1998M13.05 13.0115V12.9642M4.95033 5.3998H10.3503M4.95033 8.0998H10.3503M4.95033 10.7998H7.65033M16.2 13.0498C16.2 13.0498 15.4529 15.2546 13.05 15.216C10.6472 15.1775 9.90005 13.0498 9.90005 13.0498C9.90005 13.0498 10.6169 10.8065 13.05 10.8065C15.4832 10.8065 16.2 13.0498 16.2 13.0498Z" stroke="#6B7281" stroke-width="1.2" stroke-linecap="round" stroke-linejoin="round"/>
</g>
</svg>
