<svg width="14" height="14" viewBox="0 0 14 14" fill="none" xmlns="http://www.w3.org/2000/svg">
<g id="Menu Icons">
<path id="Vector" d="M9.25186 2.74732C9.38321 2.61597 9.53915 2.51177 9.71077 2.44068C9.8824 2.3696 10.0663 2.33301 10.2521 2.33301C10.4379 2.33301 10.6218 2.3696 10.7934 2.44068C10.9651 2.51177 11.121 2.61597 11.2524 2.74732C11.3837 2.87868 11.4879 3.03462 11.559 3.20624C11.6301 3.37786 11.6667 3.56181 11.6667 3.74757C11.6667 3.93333 11.6301 4.11728 11.559 4.2889C11.4879 4.46052 11.3837 4.61646 11.2524 4.74782L4.50068 11.4995L1.75 12.2497L2.50019 9.49899L9.25186 2.74732Z" stroke="#9BA5B9" stroke-width="1.2" stroke-linecap="round" stroke-linejoin="round"/>
</g>
</svg>
