<svg width="12" height="14" viewBox="0 0 12 14" fill="none" xmlns="http://www.w3.org/2000/svg">
<g id="Group 4620">
<path id="Vector" d="M0.75 3.5H1.91667H11.25" stroke="#9BA5B9" stroke-width="1.2" stroke-linecap="round" stroke-linejoin="round"/>
<path id="Vector_2" d="M3.66666 3.50033V2.33366C3.66666 2.02424 3.78957 1.72749 4.00837 1.5087C4.22716 1.28991 4.5239 1.16699 4.83332 1.16699H7.16666C7.47608 1.16699 7.77282 1.28991 7.99161 1.5087C8.21041 1.72749 8.33332 2.02424 8.33332 2.33366V3.50033M10.0833 3.50033V11.667C10.0833 11.9764 9.96041 12.2732 9.74161 12.4919C9.52282 12.7107 9.22608 12.8337 8.91666 12.8337H3.08332C2.7739 12.8337 2.47716 12.7107 2.25837 12.4919C2.03957 12.2732 1.91666 11.9764 1.91666 11.667V3.50033H10.0833Z" stroke="#9BA5B9" stroke-width="1.2" stroke-linecap="round" stroke-linejoin="round"/>
</g>
</svg>
