<svg width="162" height="67" viewBox="0 0 162 67" fill="none" xmlns="http://www.w3.org/2000/svg">
<path d="M28.48 52.36H0.8V40.04L26.24 2.6H42.16V40.28H50.64V44.12H38.32V6.44H28.32L4.64 41.24V48.52H32.32V65H28.48V52.36ZM10.72 39.32L27.2 15H32.32V44.12H10.72V39.32ZM14.56 40.28H28.48V19.72L14.56 40.28ZM38.32 48.52H50.64V52.36H42.16V65H38.32V48.52ZM80.8344 66.6C72.3544 66.6 66.1944 63.7733 62.3544 58.12C58.5144 52.4667 56.5944 44.3333 56.5944 33.72C56.5944 27.4267 57.421 21.8267 59.0744 16.92C60.781 11.96 63.421 8.06667 66.9944 5.24C70.5677 2.36 75.181 0.919995 80.8344 0.919995C86.4877 0.919995 91.101 2.33333 94.6744 5.16C98.2477 7.93333 100.888 11.8 102.594 16.76C104.301 21.6667 105.154 27.32 105.154 33.72C105.154 40.44 104.301 46.2533 102.594 51.16C100.888 56.0667 98.2477 59.88 94.6744 62.6C91.101 65.2667 86.4877 66.6 80.8344 66.6ZM80.8344 62.84C85.741 62.84 89.6877 61.64 92.6744 59.24C95.661 56.7867 97.8477 53.3733 99.2344 49C100.621 44.6267 101.314 39.5333 101.314 33.72C101.314 28.1733 100.621 23.2133 99.2344 18.84C97.8477 14.4667 95.661 11.0267 92.6744 8.52C89.6877 6.01333 85.741 4.76 80.8344 4.76C75.9277 4.76 71.981 6.04 68.9944 8.6C66.0077 11.16 63.821 14.6267 62.4344 19C61.101 23.32 60.4344 28.2267 60.4344 33.72C60.4344 39.8533 61.101 45.1067 62.4344 49.48C63.821 53.8 66.0077 57.1067 68.9944 59.4C71.981 61.6933 75.9277 62.84 80.8344 62.84ZM80.8344 58.28C76.8877 58.28 73.6344 56.28 71.0744 52.28C68.5677 48.2267 67.3144 42.04 67.3144 33.72C67.3144 25.7733 68.541 19.7467 70.9944 15.64C73.501 11.48 76.781 9.4 80.8344 9.4C84.8877 9.4 88.141 11.5067 90.5944 15.72C93.101 19.9333 94.3544 25.9333 94.3544 33.72C94.3544 42.04 93.0744 48.2267 90.5144 52.28C88.0077 56.28 84.781 58.28 80.8344 58.28ZM80.8344 54.44C84.0344 54.44 86.4344 52.68 88.0344 49.16C89.6877 45.64 90.5144 40.4933 90.5144 33.72C90.5144 27.3733 89.7144 22.3867 88.1144 18.76C86.5677 15.08 84.141 13.24 80.8344 13.24C77.581 13.24 75.1544 15.0533 73.5544 18.68C71.9544 22.2533 71.1544 27.2667 71.1544 33.72C71.1544 40.4933 71.9544 45.64 73.5544 49.16C75.1544 52.68 77.581 54.44 80.8344 54.44ZM138.949 52.36H111.269V40.04L136.709 2.6H152.629V40.28H161.109V44.12H148.789V6.44H138.789L115.109 41.24V48.52H142.789V65H138.949V52.36ZM121.189 39.32L137.669 15H142.789V44.12H121.189V39.32ZM125.029 40.28H138.949V19.72L125.029 40.28ZM148.789 48.52H161.109V52.36H152.629V65H148.789V48.52Z" fill="#EE316B"/>
</svg>
