<svg width="160" height="67" viewBox="0 0 160 67" fill="none" xmlns="http://www.w3.org/2000/svg">
<path d="M14.04 46.44C14.68 49 15.96 51 17.88 52.44C19.8533 53.88 22.12 54.6 24.68 54.6C27.2933 54.6 29.56 53.72 31.48 51.96C33.4533 50.1467 34.44 47.56 34.44 44.2C34.44 40.5733 33.48 37.9067 31.56 36.2C29.64 34.4933 27.3467 33.64 24.68 33.64C22.76 33.64 20.92 34.2267 19.16 35.4C17.4 36.52 16.1467 37.88 15.4 39.48L2.04 36.76L4.68 2.6H44.52V6.44H8.28L6.12 33.64L13.64 35.16C14.92 33.6133 16.5467 32.3333 18.52 31.32C20.5467 30.3067 22.6 29.8 24.68 29.8C27.1333 29.8 29.3733 30.3067 31.4 31.32C33.48 32.3333 35.1333 33.9067 36.36 36.04C37.64 38.1733 38.28 40.8933 38.28 44.2C38.28 47.2933 37.64 49.9067 36.36 52.04C35.1333 54.12 33.48 55.72 31.4 56.84C29.32 57.9067 27.08 58.44 24.68 58.44C21.2667 58.44 18.3067 57.5333 15.8 55.72C13.2933 53.8533 11.4533 51.1333 10.28 47.56L14.04 46.44ZM15.96 26.84L16.2 26.92C17.1067 25.7467 18.5733 24.76 20.6 23.96C22.6267 23.1067 24.84 22.68 27.24 22.68C31.1333 22.68 34.7067 23.4533 37.96 25C41.2133 26.4933 43.8 28.8133 45.72 31.96C47.6933 35.1067 48.68 39.1867 48.68 44.2C48.68 48.9467 47.6667 53 45.64 56.36C43.6133 59.6667 40.7867 62.2 37.16 63.96C33.5333 65.72 29.3467 66.6 24.6 66.6C18.2 66.6 12.9467 65.1867 8.84 62.36C4.78667 59.48 2.04 55.5333 0.6 50.52L4.12 49.48C5.66667 54.12 8.2 57.5067 11.72 59.64C15.2933 61.7733 19.5867 62.84 24.6 62.84C28.6 62.84 32.12 62.12 35.16 60.68C38.2 59.24 40.5733 57.1333 42.28 54.36C43.9867 51.5333 44.84 48.1467 44.84 44.2C44.84 40.0933 44.04 36.7333 42.44 34.12C40.84 31.5067 38.7067 29.5867 36.04 28.36C33.3733 27.08 30.44 26.44 27.24 26.44C25.5333 26.44 23.6933 26.76 21.72 27.4C19.8 27.9867 18.12 29.24 16.68 31.16L11.96 29.56L13.8 11H44.52V14.84H17.24L15.96 26.84ZM79.8344 66.6C71.3544 66.6 65.1944 63.7733 61.3544 58.12C57.5144 52.4667 55.5944 44.3333 55.5944 33.72C55.5944 27.4267 56.421 21.8267 58.0744 16.92C59.781 11.96 62.421 8.06667 65.9944 5.24C69.5677 2.36 74.181 0.919995 79.8344 0.919995C85.4877 0.919995 90.101 2.33333 93.6744 5.16C97.2477 7.93333 99.8877 11.8 101.594 16.76C103.301 21.6667 104.154 27.32 104.154 33.72C104.154 40.44 103.301 46.2533 101.594 51.16C99.8877 56.0667 97.2477 59.88 93.6744 62.6C90.101 65.2667 85.4877 66.6 79.8344 66.6ZM79.8344 62.84C84.741 62.84 88.6877 61.64 91.6744 59.24C94.661 56.7867 96.8477 53.3733 98.2344 49C99.621 44.6267 100.314 39.5333 100.314 33.72C100.314 28.1733 99.621 23.2133 98.2344 18.84C96.8477 14.4667 94.661 11.0267 91.6744 8.52C88.6877 6.01333 84.741 4.76 79.8344 4.76C74.9277 4.76 70.981 6.04 67.9944 8.6C65.0077 11.16 62.821 14.6267 61.4344 19C60.101 23.32 59.4344 28.2267 59.4344 33.72C59.4344 39.8533 60.101 45.1067 61.4344 49.48C62.821 53.8 65.0077 57.1067 67.9944 59.4C70.981 61.6933 74.9277 62.84 79.8344 62.84ZM79.8344 58.28C75.8877 58.28 72.6344 56.28 70.0744 52.28C67.5677 48.2267 66.3144 42.04 66.3144 33.72C66.3144 25.7733 67.541 19.7467 69.9944 15.64C72.501 11.48 75.781 9.4 79.8344 9.4C83.8877 9.4 87.141 11.5067 89.5944 15.72C92.101 19.9333 93.3544 25.9333 93.3544 33.72C93.3544 42.04 92.0744 48.2267 89.5144 52.28C87.0077 56.28 83.781 58.28 79.8344 58.28ZM79.8344 54.44C83.0344 54.44 85.4344 52.68 87.0344 49.16C88.6877 45.64 89.5144 40.4933 89.5144 33.72C89.5144 27.3733 88.7144 22.3867 87.1144 18.76C85.5677 15.08 83.141 13.24 79.8344 13.24C76.581 13.24 74.1544 15.0533 72.5544 18.68C70.9544 22.2533 70.1544 27.2667 70.1544 33.72C70.1544 40.4933 70.9544 45.64 72.5544 49.16C74.1544 52.68 76.581 54.44 79.8344 54.44ZM135.069 66.6C126.589 66.6 120.429 63.7733 116.589 58.12C112.749 52.4667 110.829 44.3333 110.829 33.72C110.829 27.4267 111.655 21.8267 113.309 16.92C115.015 11.96 117.655 8.06667 121.229 5.24C124.802 2.36 129.415 0.919995 135.069 0.919995C140.722 0.919995 145.335 2.33333 148.909 5.16C152.482 7.93333 155.122 11.8 156.829 16.76C158.535 21.6667 159.389 27.32 159.389 33.72C159.389 40.44 158.535 46.2533 156.829 51.16C155.122 56.0667 152.482 59.88 148.909 62.6C145.335 65.2667 140.722 66.6 135.069 66.6ZM135.069 62.84C139.975 62.84 143.922 61.64 146.909 59.24C149.895 56.7867 152.082 53.3733 153.469 49C154.855 44.6267 155.549 39.5333 155.549 33.72C155.549 28.1733 154.855 23.2133 153.469 18.84C152.082 14.4667 149.895 11.0267 146.909 8.52C143.922 6.01333 139.975 4.76 135.069 4.76C130.162 4.76 126.215 6.04 123.229 8.6C120.242 11.16 118.055 14.6267 116.669 19C115.335 23.32 114.669 28.2267 114.669 33.72C114.669 39.8533 115.335 45.1067 116.669 49.48C118.055 53.8 120.242 57.1067 123.229 59.4C126.215 61.6933 130.162 62.84 135.069 62.84ZM135.069 58.28C131.122 58.28 127.869 56.28 125.309 52.28C122.802 48.2267 121.549 42.04 121.549 33.72C121.549 25.7733 122.775 19.7467 125.229 15.64C127.735 11.48 131.015 9.4 135.069 9.4C139.122 9.4 142.375 11.5067 144.829 15.72C147.335 19.9333 148.589 25.9333 148.589 33.72C148.589 42.04 147.309 48.2267 144.749 52.28C142.242 56.28 139.015 58.28 135.069 58.28ZM135.069 54.44C138.269 54.44 140.669 52.68 142.269 49.16C143.922 45.64 144.749 40.4933 144.749 33.72C144.749 27.3733 143.949 22.3867 142.349 18.76C140.802 15.08 138.375 13.24 135.069 13.24C131.815 13.24 129.389 15.0533 127.789 18.68C126.189 22.2533 125.389 27.2667 125.389 33.72C125.389 40.4933 126.189 45.64 127.789 49.16C129.389 52.68 131.815 54.44 135.069 54.44Z" fill="#EE316B"/>
</svg>
