<svg width="333" height="338" viewBox="0 0 333 338" fill="none" xmlns="http://www.w3.org/2000/svg">
<path d="M52.2394 89.6045H287.36C289.072 89.6045 290.714 90.2846 291.925 91.4953C293.136 92.706 293.816 94.348 293.816 96.0602V259.565H45.7837V96.0703C45.7824 95.2216 45.9484 94.3811 46.2722 93.5967C46.5961 92.8123 47.0714 92.0994 47.671 91.4989C48.2706 90.8983 48.9827 90.4219 49.7666 90.0969C50.5505 89.7718 51.3908 89.6045 52.2394 89.6045Z" fill="#6D6BAF"/>
<path d="M294.328 260.068H45.2805V96.0711C45.2805 94.2246 46.0133 92.4537 47.318 91.1471C48.6227 89.8406 50.3926 89.1052 52.239 89.1025H287.36C289.207 89.1052 290.978 89.8402 292.284 91.1465C293.59 92.4528 294.326 94.2237 294.328 96.0711V260.068ZM46.2861 259.063H293.323V96.0711C293.32 94.4904 292.691 92.9753 291.573 91.8576C290.455 90.7399 288.94 90.1108 287.36 90.1081H52.239C50.6593 90.1108 49.1451 90.7402 48.029 91.8582C46.9129 92.9762 46.2861 94.4913 46.2861 96.0711V259.063Z" fill="#6D6BAF"/>
<path d="M323.65 337.497H15.9483C12.5495 337.497 9.68362 332.62 11.192 329.573L45.7833 262.371H293.825L328.598 329.342C330.116 332.378 327.1 337.497 323.65 337.497Z" fill="#6D6BAF"/>
<path d="M323.651 338H15.9484C14.9952 337.94 14.073 337.638 13.269 337.122C12.465 336.607 11.8055 335.895 11.353 335.054C10.7825 334.231 10.4258 333.279 10.3152 332.283C10.2046 331.288 10.3436 330.281 10.7195 329.352L45.4516 261.869H294.127L294.268 262.131L329.04 329.111C329.414 330.061 329.545 331.088 329.423 332.101C329.3 333.114 328.926 334.081 328.336 334.913C327.872 335.776 327.201 336.509 326.383 337.048C325.565 337.587 324.626 337.914 323.651 338ZM46.1153 262.875L11.6345 329.825C11.3368 330.599 11.2351 331.435 11.3387 332.258C11.4422 333.08 11.7476 333.865 12.2278 334.541C12.5937 335.23 13.1255 335.817 13.7751 336.249C14.4246 336.681 15.1716 336.944 15.9484 337.015H323.651C324.455 336.929 325.226 336.645 325.895 336.189C326.563 335.733 327.108 335.118 327.482 334.4C327.977 333.713 328.297 332.914 328.413 332.075C328.528 331.235 328.437 330.38 328.145 329.584L293.514 262.875H46.1153Z" fill="#6D6BAF"/>
<path d="M323.651 334.69H15.9487C15.1699 334.691 14.404 334.492 13.7233 334.114C13.0426 333.736 12.4697 333.19 12.0589 332.528C11.648 331.867 11.4129 331.111 11.3756 330.334C11.3383 329.556 11.5002 328.781 11.846 328.083L45.7837 259.564H293.826L327.753 328.083C328.099 328.781 328.261 329.556 328.224 330.334C328.187 331.111 327.951 331.867 327.541 332.528C327.13 333.19 326.557 333.736 325.876 334.114C325.196 334.492 324.43 334.691 323.651 334.69Z" fill="white"/>
<path d="M323.651 335.193H15.9488C15.0812 335.2 14.2262 334.986 13.4652 334.569C12.7043 334.152 12.0628 333.547 11.6019 332.812C11.1411 332.077 10.8763 331.236 10.8328 330.37C10.7893 329.503 10.9685 328.64 11.3534 327.862L45.2911 259.343C45.3306 259.257 45.3945 259.184 45.475 259.134C45.5555 259.084 45.6489 259.059 45.7436 259.062H293.826C293.919 259.06 294.011 259.085 294.09 259.135C294.169 259.186 294.231 259.258 294.268 259.343L328.206 327.862C328.59 328.637 328.769 329.496 328.727 330.36C328.685 331.223 328.424 332.061 327.968 332.795C327.512 333.529 326.876 334.134 326.121 334.554C325.365 334.974 324.515 335.194 323.651 335.193ZM46.1157 260.067L12.2986 328.305C11.9905 328.926 11.846 329.615 11.8789 330.308C11.9117 331 12.1208 331.673 12.4864 332.262C12.8519 332.851 13.3618 333.337 13.9677 333.674C14.5736 334.011 15.2555 334.188 15.9488 334.187H323.651C324.344 334.188 325.026 334.011 325.632 333.674C326.238 333.337 326.748 332.851 327.113 332.262C327.479 331.673 327.688 331 327.721 330.308C327.754 329.615 327.609 328.926 327.301 328.305L293.514 260.067H46.1157Z" fill="#6D6BAF"/>
<path d="M278.803 103.06H60.8066V246.101H278.803V103.06Z" fill="white"/>
<path d="M279.295 246.603H60.3035V102.566H279.295V246.603ZM61.309 245.598H278.289V103.572H61.309V245.598Z" fill="#6D6BAF"/>
<path d="M273.936 168.25H66.4683V240.952H273.936V168.25Z" fill="#EE316B"/>
<path opacity="0.46" d="M92.9848 211.972V210.162C92.9848 209.895 92.8789 209.64 92.6903 209.451C92.5017 209.262 92.2459 209.157 91.9793 209.157H90.5916C90.3806 208.234 90.0169 207.354 89.5156 206.552L90.5212 205.547C90.6965 205.36 90.7942 205.114 90.7942 204.858C90.7942 204.602 90.6965 204.355 90.5212 204.169L89.224 202.872C89.037 202.693 88.7886 202.594 88.5302 202.594C88.2718 202.594 88.0234 202.693 87.8363 202.872L86.8308 203.877C86.0259 203.374 85.1421 203.011 84.2163 202.801V201.383C84.2163 201.117 84.1104 200.861 83.9218 200.672C83.7332 200.484 83.4775 200.378 83.2108 200.378H81.3806C81.1139 200.378 80.8582 200.484 80.6696 200.672C80.481 200.861 80.3751 201.117 80.3751 201.383V202.801C79.453 203.012 78.5728 203.376 77.7707 203.877L76.7651 202.872C76.5786 202.696 76.3323 202.599 76.0763 202.599C75.8203 202.599 75.574 202.696 75.3875 202.872L74.1406 204.129C73.9652 204.315 73.8676 204.562 73.8676 204.817C73.8676 205.073 73.9652 205.32 74.1406 205.506L75.1461 206.512C74.6449 207.314 74.2812 208.194 74.0702 209.116H72.6926C72.4259 209.116 72.1701 209.222 71.9815 209.411C71.793 209.599 71.687 209.855 71.687 210.122V211.952C71.687 212.219 71.793 212.474 71.9815 212.663C72.1701 212.852 72.4259 212.958 72.6926 212.958H74.1104C74.3196 213.883 74.6834 214.767 75.1864 215.572L74.1808 216.578C74.0055 216.764 73.9078 217.01 73.9078 217.266C73.9078 217.522 74.0055 217.769 74.1808 217.955L75.478 219.252C75.6645 219.428 75.9108 219.525 76.1668 219.525C76.4228 219.525 76.6691 219.428 76.8556 219.252L77.8612 218.247C78.6633 218.748 79.5435 219.112 80.4656 219.323V220.741C80.4656 221.007 80.5715 221.263 80.7601 221.452C80.9487 221.64 81.2044 221.746 81.4711 221.746H83.3013C83.568 221.746 83.8237 221.64 84.0123 221.452C84.2009 221.263 84.3068 221.007 84.3068 220.741V219.323C85.2326 219.114 86.1164 218.75 86.9213 218.247L87.9268 219.252C88.1139 219.431 88.3623 219.53 88.6207 219.53C88.8791 219.53 89.1275 219.431 89.3145 219.252L90.6117 217.955C90.7871 217.769 90.8847 217.522 90.8847 217.266C90.8847 217.01 90.7871 216.764 90.6117 216.578L89.6061 215.572C90.1091 214.767 90.4729 213.883 90.6821 212.958H92.0999C92.3418 212.928 92.5648 212.812 92.7275 212.631C92.8903 212.45 92.9817 212.216 92.9848 211.972ZM82.7482 215.19C81.8893 215.277 81.0245 215.096 80.2725 214.672C79.5205 214.248 78.9181 213.602 78.5479 212.822C78.1777 212.042 78.0579 211.166 78.205 210.316C78.352 209.465 78.7586 208.681 79.3691 208.07C79.9795 207.46 80.7639 207.053 81.6146 206.906C82.4653 206.759 83.3407 206.879 84.1206 207.249C84.9005 207.619 85.5468 208.221 85.9708 208.973C86.3949 209.725 86.5758 210.59 86.4889 211.449C86.3918 212.408 85.9665 213.304 85.2849 213.986C84.6033 214.668 83.7072 215.093 82.7482 215.19Z" fill="white"/>
<path opacity="0.46" d="M110.25 224.793V222.963C110.25 222.696 110.144 222.44 109.956 222.252C109.767 222.063 109.512 221.957 109.245 221.957H107.887C107.675 221.031 107.308 220.147 106.801 219.343L107.807 218.337C107.985 218.15 108.085 217.902 108.085 217.643C108.085 217.385 107.985 217.137 107.807 216.95L106.51 215.652C106.323 215.474 106.074 215.375 105.816 215.375C105.558 215.375 105.309 215.474 105.122 215.652L104.116 216.658C103.311 216.157 102.427 215.793 101.502 215.582V214.184C101.502 213.918 101.396 213.662 101.207 213.473C101.019 213.285 100.763 213.179 100.496 213.179H98.6563C98.3896 213.179 98.1338 213.285 97.9452 213.473C97.7567 213.662 97.6507 213.918 97.6507 214.184V215.602C96.7256 215.813 95.842 216.177 95.0363 216.678L94.0307 215.673C93.8437 215.494 93.5952 215.395 93.3369 215.395C93.0785 215.395 92.83 215.494 92.643 215.673L91.3458 216.97C91.1676 217.157 91.0681 217.405 91.0681 217.664C91.0681 217.922 91.1676 218.17 91.3458 218.357L92.3514 219.363C91.841 220.165 91.4736 221.05 91.2654 221.977H89.8576C89.5909 221.977 89.3352 222.083 89.1466 222.272C88.958 222.46 88.8521 222.716 88.8521 222.983V224.813C88.8521 225.08 88.958 225.336 89.1466 225.524C89.3352 225.713 89.5909 225.819 89.8576 225.819H91.2654C91.4737 226.743 91.8412 227.624 92.3514 228.423L91.3458 229.429C91.1676 229.616 91.0681 229.864 91.0681 230.122C91.0681 230.381 91.1676 230.629 91.3458 230.816L92.643 232.103C92.83 232.282 93.0785 232.381 93.3369 232.381C93.5952 232.381 93.8437 232.282 94.0307 232.103L95.0363 231.098C95.842 231.599 96.7256 231.963 97.6507 232.174V233.592C97.6507 233.858 97.7567 234.114 97.9452 234.303C98.1338 234.491 98.3896 234.597 98.6563 234.597H100.496C100.763 234.597 101.019 234.491 101.207 234.303C101.396 234.114 101.502 233.858 101.502 233.592V232.174C102.427 231.963 103.311 231.599 104.116 231.098L105.122 232.103C105.309 232.282 105.558 232.381 105.816 232.381C106.074 232.381 106.323 232.282 106.51 232.103L107.807 230.816C107.985 230.629 108.085 230.381 108.085 230.122C108.085 229.864 107.985 229.616 107.807 229.429L106.801 228.423C107.307 227.622 107.675 226.742 107.887 225.819H109.295C109.557 225.806 109.803 225.691 109.981 225.5C110.159 225.308 110.256 225.055 110.25 224.793ZM100.014 228.051C99.1523 228.14 98.2844 227.96 97.5293 227.536C96.7743 227.111 96.1691 226.464 95.797 225.682C95.4249 224.899 95.3041 224.021 95.4511 223.168C95.5982 222.314 96.006 221.527 96.6184 220.915C97.2308 220.302 98.0178 219.895 98.8713 219.748C99.7249 219.601 100.603 219.721 101.385 220.093C102.167 220.466 102.815 221.071 103.239 221.826C103.663 222.581 103.843 223.449 103.754 224.31C103.656 225.269 103.23 226.164 102.548 226.845C101.867 227.526 100.972 227.952 100.014 228.051Z" fill="white"/>
<path d="M112.211 175.249H74.6028C74.4881 175.249 74.3781 175.203 74.2971 175.122C74.216 175.041 74.1704 174.931 74.1704 174.816C74.1704 174.701 74.2156 174.59 74.2964 174.507C74.3772 174.424 74.4872 174.377 74.6028 174.374H112.211C112.328 174.374 112.441 174.421 112.524 174.504C112.607 174.587 112.653 174.699 112.653 174.816C112.651 174.932 112.603 175.042 112.52 175.123C112.438 175.204 112.326 175.249 112.211 175.249Z" fill="#6D6BAF"/>
<path d="M112.211 180.679H74.6028C74.4872 180.676 74.3772 180.628 74.2964 180.545C74.2156 180.463 74.1704 180.352 74.1704 180.236C74.1704 180.121 74.216 180.011 74.2971 179.93C74.3781 179.849 74.4881 179.804 74.6028 179.804H112.211C112.326 179.804 112.438 179.849 112.52 179.93C112.603 180.011 112.651 180.121 112.653 180.236C112.653 180.353 112.607 180.466 112.524 180.549C112.441 180.632 112.328 180.679 112.211 180.679Z" fill="#6D6BAF"/>
<path d="M112.211 186.099H74.6028C74.4881 186.099 74.3781 186.054 74.2971 185.973C74.216 185.892 74.1704 185.782 74.1704 185.667C74.1704 185.551 74.2156 185.44 74.2964 185.358C74.3772 185.275 74.4872 185.227 74.6028 185.225H112.211C112.328 185.225 112.441 185.271 112.524 185.354C112.607 185.437 112.653 185.55 112.653 185.667C112.651 185.783 112.603 185.893 112.52 185.973C112.438 186.054 112.326 186.099 112.211 186.099Z" fill="#6D6BAF"/>
<path d="M112.211 191.529H74.6028C74.4872 191.527 74.3772 191.479 74.2964 191.396C74.2156 191.313 74.1704 191.202 74.1704 191.087C74.1704 190.972 74.216 190.862 74.2971 190.781C74.3781 190.7 74.4881 190.654 74.6028 190.654H112.211C112.326 190.654 112.438 190.699 112.52 190.78C112.603 190.861 112.651 190.971 112.653 191.087C112.653 191.204 112.607 191.317 112.524 191.4C112.441 191.483 112.328 191.529 112.211 191.529Z" fill="#6D6BAF"/>
<path d="M269.954 109.808H70.4503C68.2511 109.808 66.4683 111.59 66.4683 113.79V114.242C66.4683 116.441 68.2511 118.224 70.4503 118.224H269.954C272.153 118.224 273.936 116.441 273.936 114.242V113.79C273.936 111.59 272.153 109.808 269.954 109.808Z" fill="#EE316B"/>
<path d="M269.954 137.561H70.4503C68.2511 137.561 66.4683 139.343 66.4683 141.543V141.995C66.4683 144.194 68.2511 145.977 70.4503 145.977H269.954C272.153 145.977 273.936 144.194 273.936 141.995V141.543C273.936 139.343 272.153 137.561 269.954 137.561Z" fill="#EE316B"/>
<path d="M159.452 283.346L159.885 274.186H146.782L145.907 283.346H159.452Z" fill="#6D6BAF"/>
<path d="M159.935 283.849H145.355L146.36 273.683H160.438L159.935 283.849ZM146.461 282.843H158.97L159.362 274.688H147.235L146.461 282.843Z" fill="white"/>
<path d="M186.542 283.346L186.1 274.186H172.987L172.997 283.346H186.542Z" fill="#6D6BAF"/>
<path d="M187.075 283.849H172.494V273.683H186.572L187.075 283.849ZM173.5 282.843H186.009L185.617 274.688H173.49L173.5 282.843Z" fill="white"/>
<path d="M257.082 293.131H271.1L267.812 283.347H254.267L257.082 293.131Z" fill="#6D6BAF"/>
<path d="M271.794 293.625H256.71L253.593 282.835H268.174L271.794 293.625ZM257.464 292.619H270.396L267.45 283.841H254.93L257.464 292.619Z" fill="white"/>
<path d="M145.907 283.346L146.782 274.186H133.67L132.362 283.346H145.907Z" fill="#6D6BAF"/>
<path d="M146.37 283.849H131.79L133.238 273.683H147.315L146.37 283.849ZM132.946 282.843H145.455L146.229 274.688H134.163L132.946 282.843Z" fill="white"/>
<path d="M118.818 283.346L120.568 274.186H107.455L105.273 283.346H118.818Z" fill="#6D6BAF"/>
<path d="M119.24 283.849H104.639L107.062 273.683H121.14L119.24 283.849ZM105.916 282.843H118.405L119.954 274.688H107.887L105.916 282.843Z" fill="white"/>
<path d="M240.722 283.346L238.52 274.186H225.417L227.177 283.346H240.722Z" fill="#6D6BAF"/>
<path d="M241.356 283.849H226.755L224.804 273.683H238.882L241.356 283.849ZM227.589 282.843H240.078L238.128 274.688H226.061L227.589 282.843Z" fill="white"/>
<path d="M254.267 283.346L251.622 274.186H238.52L240.722 283.346H254.267Z" fill="#6D6BAF"/>
<path d="M254.931 283.849H240.32L237.886 273.683H251.964L254.931 283.849ZM241.114 282.843H253.593L251.25 274.688H239.184L241.114 282.843Z" fill="white"/>
<path d="M105.273 283.346L107.455 274.186H94.3523L91.7278 283.346H105.273Z" fill="#6D6BAF"/>
<path d="M105.675 283.849H91.0637L93.9698 273.683H108.098L105.675 283.849ZM92.4011 282.843H104.87L106.811 274.688H94.7441L92.4011 282.843Z" fill="white"/>
<path d="M200.087 283.346L199.202 274.186H186.1L186.542 283.346H200.087Z" fill="#6D6BAF"/>
<path d="M200.64 283.849H186.06L185.567 273.683H199.645L200.64 283.849ZM187.025 282.843H199.534L198.75 274.688H186.623L187.025 282.843Z" fill="white"/>
<path d="M267.812 283.346L264.735 274.186H251.622L254.267 283.346H267.812Z" fill="#6D6BAF"/>
<path d="M268.505 283.849H253.884L250.958 273.683H265.096L268.505 283.849ZM254.639 282.843H267.108L264.372 274.688H252.306L254.639 282.843Z" fill="white"/>
<path d="M227.177 283.346L225.417 274.186H212.305L213.632 283.346H227.177Z" fill="#6D6BAF"/>
<path d="M227.78 283.849H213.2L211.731 273.683H225.809L227.78 283.849ZM214.064 282.843H226.543L224.975 274.688H212.908L214.064 282.843Z" fill="white"/>
<path d="M213.632 283.346L212.304 274.186H199.202L200.087 283.346H213.632Z" fill="#6D6BAF"/>
<path d="M214.215 283.849H199.634L198.629 273.683H212.707L214.215 283.849ZM200.539 282.843H213.049L211.872 274.688H199.755L200.539 282.843Z" fill="white"/>
<path d="M172.997 283.346L172.987 274.186H159.885L159.452 283.346H172.997Z" fill="#6D6BAF"/>
<path d="M173.5 283.849H158.929L159.402 273.683H173.48L173.5 283.849ZM159.985 282.843H172.494V274.688H160.367L159.985 282.843Z" fill="white"/>
<path d="M78.1926 283.347H64.6477L60.907 293.131H74.9145L78.1926 283.347Z" fill="#6D6BAF"/>
<path d="M75.2768 293.625H60.1934L64.3162 282.835H78.9069L75.2768 293.625ZM61.6313 292.619H74.5528L77.489 283.841H64.9899L61.6313 292.619Z" fill="white"/>
<path d="M81.2495 274.186H68.137L64.6477 283.346H78.1926L81.2495 274.186Z" fill="#6D6BAF"/>
<path d="M78.5448 283.849H63.9138L67.7953 273.683H81.9435L78.5448 283.849ZM65.3719 282.843H77.8207L80.5458 274.688H68.4791L65.3719 282.843Z" fill="white"/>
<path d="M91.728 283.346L94.3525 274.186H81.25L78.1931 283.346H91.728Z" fill="#6D6BAF"/>
<path d="M92.1096 283.849H77.4888L80.8876 273.683H94.9654L92.1096 283.849ZM78.8865 282.843H91.3555L93.6884 274.688H81.6216L78.8865 282.843Z" fill="white"/>
<path d="M56.8954 303.619L52.5916 314.891H67.6448L71.4157 303.619H56.8954Z" fill="#6D6BAF"/>
<path d="M68.0065 315.394H51.8572L56.6034 303.116H72.1595L68.0065 315.394ZM53.3152 314.389H67.2825L70.6813 304.122H57.247L53.3152 314.389Z" fill="white"/>
<path d="M74.9145 293.131H60.907L56.8948 303.619H71.4151L74.9145 293.131Z" fill="#6D6BAF"/>
<path d="M71.7773 304.121H56.1609L60.5552 292.617H75.6386L71.7773 304.121ZM57.629 303.115H71.0533L74.2208 293.633H61.249L57.629 303.115Z" fill="white"/>
<path d="M71.4154 303.619L67.6445 314.891H82.6978L85.9257 303.619H71.4154Z" fill="#6D6BAF"/>
<path d="M83.08 315.394H66.991L71.0937 303.116H86.6296L83.08 315.394ZM68.3384 314.389H82.3157L85.262 304.122H71.7774L68.3384 314.389Z" fill="white"/>
<path d="M132.362 283.346L133.67 274.186H120.567L118.817 283.346H132.362Z" fill="#6D6BAF"/>
<path d="M132.805 283.849H118.214L120.145 273.683H134.223L132.805 283.849ZM119.431 282.843H131.93L133.087 274.688H120.96L119.431 282.843Z" fill="white"/>
<path d="M130.965 293.131L132.362 283.347H118.818L116.957 293.131H130.965Z" fill="#6D6BAF"/>
<path d="M131.407 293.625H116.324L118.385 282.835H132.926L131.407 293.625ZM117.561 292.619H130.533L131.79 283.841H119.24L117.561 292.619Z" fill="white"/>
<path d="M116.957 293.131L118.818 283.347H105.273L102.94 293.131H116.957Z" fill="#6D6BAF"/>
<path d="M117.37 293.623H102.286L104.87 282.844H119.421L117.37 293.623ZM103.583 292.618H116.535L118.214 283.839H105.675L103.583 292.618Z" fill="white"/>
<path d="M144.982 293.131L145.907 283.347H132.362L130.964 293.131H144.982Z" fill="#6D6BAF"/>
<path d="M145.435 293.625H130.351L131.89 282.835H146.42L145.435 293.625ZM131.548 292.619H144.52L145.354 283.841H132.805L131.548 292.619Z" fill="white"/>
<path d="M91.7278 283.347H78.1929L74.9148 293.131H88.9323L91.7278 283.347Z" fill="#6D6BAF"/>
<path d="M89.3041 293.625H74.2207L77.8206 282.835H92.4013L89.3041 293.625ZM75.6184 292.619H88.55L91.0639 283.841H78.5446L75.6184 292.619Z" fill="white"/>
<path d="M260.109 303.619H274.619L271.1 293.131H257.082L260.109 303.619Z" fill="#6D6BAF"/>
<path d="M275.323 304.121H259.727L256.419 292.617H271.502L275.323 304.121ZM260.481 303.115H273.926L270.788 293.623H257.716L260.481 303.115Z" fill="white"/>
<path d="M102.94 293.131L105.273 283.347H91.7276L88.9321 293.131H102.94Z" fill="#6D6BAF"/>
<path d="M103.342 293.625H88.2583L91.3554 282.835H105.876L103.342 293.625ZM89.5957 292.619H102.547L104.639 283.841H92.1096L89.5957 292.619Z" fill="white"/>
<path d="M74.9147 293.131L71.4153 303.619H85.9256L88.9322 293.131H74.9147Z" fill="#6D6BAF"/>
<path d="M86.3078 304.121H70.6814L74.5528 292.617H89.6363L86.3078 304.121ZM72.1093 303.115H85.5436L88.2586 293.633H75.2768L72.1093 303.115Z" fill="white"/>
<path d="M229.057 293.131L227.177 283.347H213.632L215.05 293.131H229.057Z" fill="#6D6BAF"/>
<path d="M229.67 293.625H214.587L213.028 282.835H227.549L229.67 293.625ZM215.482 292.619H228.454L226.754 283.841H214.215L215.482 292.619Z" fill="white"/>
<path d="M215.05 293.131L213.632 283.347H200.087L201.033 293.131H215.05Z" fill="#6D6BAF"/>
<path d="M215.623 293.625H200.54L199.534 282.835H214.065L215.623 293.625ZM201.485 292.619H214.477L213.21 283.841H200.64L201.485 292.619Z" fill="white"/>
<path d="M257.082 293.131L254.267 283.347H240.722L243.075 293.131H257.082Z" fill="#6D6BAF"/>
<path d="M257.716 293.625H242.633L240.038 282.835H254.599L257.716 293.625ZM243.427 292.619H256.379L253.845 283.841H241.356L243.427 292.619Z" fill="white"/>
<path d="M173.007 293.131L172.997 283.347H159.452L158.99 293.131H173.007Z" fill="#6D6BAF"/>
<path d="M173.51 293.625H158.427L158.929 282.835H173.46L173.51 293.625ZM159.523 292.619H172.504V283.841H159.935L159.523 292.619Z" fill="white"/>
<path d="M201.033 293.131L200.087 283.347H186.542L187.015 293.131H201.033Z" fill="#6D6BAF"/>
<path d="M201.585 293.625H186.502L185.969 282.835H200.499L201.585 293.625ZM187.508 292.619H200.489L199.645 283.841H187.075L187.508 292.619Z" fill="white"/>
<path d="M187.015 293.131L186.542 283.347H172.997L173.007 293.131H187.015Z" fill="#6D6BAF"/>
<path d="M187.548 293.623H172.464V282.844H187.025L187.548 293.623ZM173.47 292.618H186.452L186.019 283.839H173.5L173.47 292.618Z" fill="white"/>
<path d="M158.99 293.131L159.452 283.347H145.908L144.982 293.131H158.99Z" fill="#6D6BAF"/>
<path d="M159.472 293.625H144.389L145.394 282.835H159.925L159.472 293.625ZM145.535 292.619H158.517L158.929 283.841H146.37L145.535 292.619Z" fill="white"/>
<path d="M201.032 293.131L202.048 303.619H216.558L215.05 293.131H201.032Z" fill="#6D6BAF"/>
<path d="M217.141 304.121H201.585L200.479 292.617H215.482L217.141 304.121ZM202.5 303.115H215.985L214.607 293.623H201.585L202.5 303.115Z" fill="white"/>
<path d="M215.05 293.131L216.558 303.619H231.078L229.057 293.131H215.05Z" fill="#6D6BAF"/>
<path d="M231.681 304.121H216.125L214.476 292.617H229.479L231.681 304.121ZM217 303.115H230.465L228.645 293.623H215.623L217 303.115Z" fill="white"/>
<path d="M88.9326 293.131L85.926 303.619H100.436L102.94 293.131H88.9326Z" fill="#6D6BAF"/>
<path d="M100.848 304.121H85.262L88.5502 292.617H103.583L100.848 304.121ZM86.5994 303.115H100.044L102.306 293.633H89.3043L86.5994 303.115Z" fill="white"/>
<path d="M229.058 293.131L231.079 303.619H245.589L243.075 293.131H229.058Z" fill="#6D6BAF"/>
<path d="M246.232 304.121H230.666L228.454 292.617H243.467L246.232 304.121ZM231.491 303.115H244.955L242.633 293.623H229.671L231.491 303.115Z" fill="white"/>
<path d="M173.007 293.131L173.017 303.619H187.527L187.015 293.131H173.007Z" fill="#6D6BAF"/>
<path d="M188.06 304.121H172.514V292.617H187.507L188.06 304.121ZM173.52 303.115H187.005L186.542 293.633H173.47L173.52 303.115Z" fill="white"/>
<path d="M243.075 293.131L245.589 303.619H260.109L257.082 293.131H243.075Z" fill="#6D6BAF"/>
<path d="M260.732 304.121H245.196L242.431 292.617H257.464L260.732 304.121ZM245.951 303.115H259.395L256.71 293.623H243.708L245.951 303.115Z" fill="white"/>
<path d="M187.015 293.131L187.528 303.619H202.048L201.032 293.131H187.015Z" fill="#6D6BAF"/>
<path d="M202.601 304.121H187.055L186.492 292.617H201.485L202.601 304.121ZM188.01 303.115H201.495L200.58 293.633H187.507L188.01 303.115Z" fill="white"/>
<path d="M116.957 293.131L114.956 303.619H129.476L130.965 293.131H116.957Z" fill="#6D6BAF"/>
<path d="M129.909 304.121H114.353L116.535 292.617H131.548L129.909 304.121ZM115.559 303.115H129.004L130.361 293.633H117.369L115.559 303.115Z" fill="white"/>
<path d="M102.939 293.131L100.436 303.619H114.956L116.957 293.131H102.939Z" fill="#6D6BAF"/>
<path d="M115.368 304.121H99.8425L102.547 292.617H117.561L115.368 304.121ZM101.079 303.115H114.544L116.344 293.633H103.342L101.079 303.115Z" fill="white"/>
<path d="M158.99 293.131L158.507 303.619H173.017L173.007 293.131H158.99Z" fill="#6D6BAF"/>
<path d="M173.52 304.122H157.974L158.517 292.628H173.51L173.52 304.122ZM159.029 303.116H172.514V293.623H159.442L159.029 303.116Z" fill="white"/>
<path d="M144.982 293.131L143.987 303.619H158.507L158.99 293.131H144.982Z" fill="#6D6BAF"/>
<path d="M158.98 304.121H143.434L144.52 292.617H159.523L158.98 304.121ZM144.54 303.115H158.024L158.467 293.633H145.394L144.54 303.115Z" fill="white"/>
<path d="M130.965 293.131L129.477 303.619H143.987L144.982 293.131H130.965Z" fill="#6D6BAF"/>
<path d="M144.439 304.121H128.893L130.532 292.617H145.535L144.439 304.121ZM130.05 303.115H143.524L144.429 293.633H131.357L130.05 303.115Z" fill="white"/>
<path d="M243.075 293.131L240.722 283.347H227.177L229.057 293.131H243.075Z" fill="#6D6BAF"/>
<path d="M243.708 293.623H228.625L226.543 282.844H241.094L243.708 293.623ZM229.47 292.618H242.431L240.32 283.839H227.78L229.47 292.618Z" fill="white"/>
<path d="M81.2497 274.186L84.377 264.814H71.717L68.1372 274.186H81.2497Z" fill="#6D6BAF"/>
<path d="M81.6119 274.689H67.4133L71.3752 264.312H85.0811L81.6119 274.689ZM68.8714 273.683H80.9381L83.7336 265.317H72.0691L68.8714 273.683Z" fill="white"/>
<path d="M68.1372 274.186H56.0403L52.1387 283.346H64.6479L68.1372 274.186Z" fill="#6D6BAF"/>
<path d="M64.99 283.849H51.3848L55.7087 273.683H68.8715L64.99 283.849ZM52.9233 282.843H64.3163L67.4335 274.688H56.3724L52.9233 282.843Z" fill="white"/>
<path d="M71.717 264.814H60.0324L56.0403 274.186H68.1372L71.717 264.814Z" fill="#6D6BAF"/>
<path d="M68.4894 274.689H55.2864L59.7008 264.312H72.4513L68.4894 274.689ZM56.8048 273.683H67.7956L70.9933 265.317H60.3745L56.8048 273.683Z" fill="white"/>
<path d="M64.6483 283.347H52.1391L47.9661 293.131H60.9076L64.6483 283.347Z" fill="#6D6BAF"/>
<path d="M61.2488 293.625H47.1709L51.7663 282.835H65.3313L61.2488 293.625ZM48.7295 292.619H60.5549L63.9135 283.841H52.4702L48.7295 292.619Z" fill="white"/>
<path d="M60.907 293.131H47.9654L43.5007 303.619H56.8948L60.907 293.131Z" fill="#6D6BAF"/>
<path d="M57.2473 304.121H42.7371L47.6342 292.617H61.6316L57.2473 304.121ZM44.2555 303.115H56.6038L60.2238 293.633H48.2978L44.2555 303.115Z" fill="white"/>
<path d="M56.8948 303.619H43.5007L38.6941 314.891H52.591L56.8948 303.619Z" fill="#6D6BAF"/>
<path d="M52.9332 315.394H37.9302L43.1692 303.116H57.609L52.9332 315.394ZM39.4586 314.389H52.2393L56.161 304.122H43.8328L39.4586 314.389Z" fill="white"/>
<path d="M281.356 283.347L285.107 293.131H297.506L293.333 283.347H281.356Z" fill="#6D6BAF"/>
<path d="M298.27 293.625H284.765L280.623 282.835H293.695L298.27 293.625ZM285.459 292.619H296.742L293.001 283.841H282.081L285.459 292.619Z" fill="white"/>
<path d="M289.14 303.619H301.981L297.506 293.131H285.107L289.14 303.619Z" fill="#6D6BAF"/>
<path d="M302.735 304.121H288.788L284.383 292.617H297.838L302.735 304.121ZM289.482 303.115H301.216L297.194 293.633H285.872L289.482 303.115Z" fill="white"/>
<path d="M293.464 314.891H306.777L301.981 303.619H289.14L293.464 314.891Z" fill="#6D6BAF"/>
<path d="M307.541 315.394H293.122L288.406 303.116H302.312L307.541 315.394ZM293.805 314.389H305.983L301.609 304.122H289.894L293.805 314.389Z" fill="white"/>
<path d="M186.1 274.186L185.637 264.814H172.977L172.987 274.186H186.1Z" fill="#6D6BAF"/>
<path d="M186.623 274.689H172.484V264.312H186.12L186.623 274.689ZM173.49 273.683H185.557L185.144 265.317H173.48L173.49 273.683Z" fill="white"/>
<path d="M281.357 283.346H293.333L289.431 274.186H277.837L281.357 283.346Z" fill="#6D6BAF"/>
<path d="M294.097 283.849H281.025L277.123 273.683H289.783L294.097 283.849ZM281.698 282.843H292.569L289.099 274.688H278.571L281.698 282.843Z" fill="white"/>
<path d="M274.619 303.619H289.139L285.107 293.131H271.1L274.619 303.619Z" fill="#6D6BAF"/>
<path d="M289.894 304.121H274.257L270.396 292.617H285.479L289.894 304.121ZM275.001 303.115H288.426L284.765 293.623H271.793L275.001 303.115Z" fill="white"/>
<path d="M94.352 274.186L97.0369 264.814H84.3768L81.2495 274.186H94.352Z" fill="#6D6BAF"/>
<path d="M94.7344 274.689H80.5459L84.0151 264.312H97.7008L94.7344 274.689ZM81.9436 273.683H94.0104L96.4137 265.317H84.7592L81.9436 273.683Z" fill="white"/>
<path d="M264.735 274.186L267.812 283.346H281.357L277.837 274.186H264.735Z" fill="#6D6BAF"/>
<path d="M282.081 283.849H267.45L264.031 273.683H278.179L282.081 283.849ZM268.174 282.843H280.623L277.495 274.688H265.429L268.174 282.843Z" fill="white"/>
<path d="M289.431 274.186L285.439 264.814H274.237L277.837 274.186H289.431Z" fill="#6D6BAF"/>
<path d="M290.195 274.689H277.495L273.473 264.312H285.771L290.195 274.689ZM278.179 273.683H288.667L285.107 265.317H274.971L278.179 273.683Z" fill="white"/>
<path d="M277.837 274.186L274.237 264.814H261.587L264.735 274.186H277.837Z" fill="#6D6BAF"/>
<path d="M278.571 274.689H264.373L260.883 264.312H274.589L278.571 274.689ZM265.097 273.683H277.103L273.895 265.317H262.281L265.097 273.683Z" fill="white"/>
<path d="M231.078 303.619L233.25 314.891H248.304L245.589 303.619H231.078Z" fill="#6D6BAF"/>
<path d="M248.937 315.394H232.848L230.485 303.116H246.011L248.937 315.394ZM233.663 314.389H247.66L245.197 304.122H231.682L233.663 314.389Z" fill="white"/>
<path d="M278.41 314.891H293.464L289.14 303.619H274.619L278.41 314.891Z" fill="#6D6BAF"/>
<path d="M294.198 315.394H278.049L273.926 303.116H289.482L294.198 315.394ZM278.773 314.389H292.73L288.788 304.122H275.324L278.773 314.389Z" fill="white"/>
<path d="M264.734 274.186L261.587 264.814H248.927L251.622 274.186H264.734Z" fill="#6D6BAF"/>
<path d="M265.428 274.689H251.25L248.233 264.312H261.929L265.428 274.689ZM252.004 273.683H264.071L261.265 265.317H249.591L252.004 273.683Z" fill="white"/>
<path d="M260.109 303.619L263.357 314.891H278.41L274.619 303.619H260.109Z" fill="#6D6BAF"/>
<path d="M279.104 315.394H263.015L259.476 303.116H275.022L279.104 315.394ZM263.729 314.389H277.706L274.257 304.122H260.733L263.729 314.389Z" fill="white"/>
<path d="M245.589 303.619L248.304 314.891H263.357L260.109 303.619H245.589Z" fill="#6D6BAF"/>
<path d="M264.02 315.394H247.931L244.985 303.116H260.511L264.02 315.394ZM248.696 314.389H262.683L259.727 304.122H246.232L248.696 314.389Z" fill="white"/>
<path d="M271.1 293.131H285.107L281.357 283.347H267.812L271.1 293.131Z" fill="#6D6BAF"/>
<path d="M285.872 293.625H270.788L267.158 282.835H281.749L285.872 293.625ZM271.492 292.619H284.414L281.035 283.841H268.506L271.492 292.619Z" fill="white"/>
<path d="M146.782 274.186L147.667 264.814H135.007L133.669 274.186H146.782Z" fill="#6D6BAF"/>
<path d="M147.235 274.689H133.086L134.575 264.312H148.22L147.235 274.689ZM134.253 273.683H146.32L147.114 265.317H135.45L134.253 273.683Z" fill="white"/>
<path d="M251.622 274.186L248.927 264.814H236.267L238.52 274.186H251.622Z" fill="#6D6BAF"/>
<path d="M252.296 274.689H238.127L235.593 264.312H249.259L252.296 274.689ZM238.912 273.683H250.978L248.565 265.317H236.911L238.912 273.683Z" fill="white"/>
<path d="M133.67 274.186L135.007 264.814H122.347L120.567 274.186H133.67Z" fill="#6D6BAF"/>
<path d="M134.112 274.689H119.954L121.965 264.312H135.621L134.112 274.689ZM121.171 273.683H133.237L134.434 265.317H122.769L121.171 273.683Z" fill="white"/>
<path d="M172.987 274.186L172.977 264.814H160.327L159.885 274.186H172.987Z" fill="#6D6BAF"/>
<path d="M173.49 274.689H159.362L159.844 264.312H173.48L173.49 274.689ZM160.418 273.683H172.484V265.317H160.8L160.418 273.683Z" fill="white"/>
<path d="M120.567 274.186L122.347 264.814H109.697L107.455 274.186H120.567Z" fill="#6D6BAF"/>
<path d="M120.959 274.689H106.821L109.295 264.312H122.971L120.959 274.689ZM108.078 273.683H120.145L121.744 265.317H110.089L108.078 273.683Z" fill="white"/>
<path d="M107.455 274.186L109.697 264.814H97.0369L94.3521 274.186H107.455Z" fill="#6D6BAF"/>
<path d="M107.887 274.689H93.6882L96.7049 264.312H110.381L107.887 274.689ZM95.0457 273.683H107.112L109.124 265.317H97.4189L95.0457 273.683Z" fill="white"/>
<path d="M159.884 274.186L160.327 264.814H147.667L146.782 274.186H159.884Z" fill="#6D6BAF"/>
<path d="M160.367 274.689H146.229L147.235 264.312H160.88L160.367 274.689ZM147.295 273.683H159.362L159.754 265.317H148.11L147.295 273.683Z" fill="white"/>
<path d="M238.519 274.186L236.267 264.814H223.607L225.417 274.186H238.519Z" fill="#6D6BAF"/>
<path d="M239.153 274.689H224.995L222.984 264.312H236.649L239.153 274.689ZM225.83 273.683H237.896L235.885 265.317H224.221L225.83 273.683Z" fill="white"/>
<path d="M225.417 274.186L223.607 264.814H210.957L212.305 274.186H225.417Z" fill="#6D6BAF"/>
<path d="M226.021 274.689H211.872L210.374 264.312H224.03L226.021 274.689ZM212.747 273.683H224.814L223.205 265.317H211.54L212.747 273.683Z" fill="white"/>
<path d="M199.202 274.186L198.297 264.814H185.637L186.1 274.186H199.202Z" fill="#6D6BAF"/>
<path d="M199.755 274.689H185.617L185.115 264.312H198.75L199.755 274.689ZM186.573 273.683H198.639L197.825 265.317H186.16L186.573 273.683Z" fill="white"/>
<path d="M231.079 303.619H216.558H202.048H187.528H173.017H158.507H143.987H129.477H114.956H100.436H85.9256L82.6978 314.891H97.751H112.804H127.868H142.921H157.974H173.027H188.081H203.134H218.187H233.251L231.079 303.619Z" fill="#6D6BAF"/>
<path d="M233.854 315.394H82.0139L85.5233 303.116H231.491L233.854 315.394ZM83.3614 314.389H232.637L230.626 304.122H86.3077L83.3614 314.389Z" fill="white"/>
<path d="M212.305 274.186L210.957 264.814H198.297L199.202 274.186H212.305Z" fill="#6D6BAF"/>
<path d="M212.888 274.689H198.75L197.744 264.312H211.39L212.888 274.689ZM199.655 273.683H211.721L210.505 265.317H198.84L199.655 273.683Z" fill="white"/>
<mask id="mask0_56_1928" style="mask-type:luminance" maskUnits="userSpaceOnUse" x="83" y="62" width="178" height="184">
<path d="M260.662 62.4355H83.4216V245.589H260.662V62.4355Z" fill="white"/>
</mask>
<g mask="url(#mask0_56_1928)">
<path d="M189.458 185.204C204.269 185.204 216.276 169.92 216.276 151.066C216.276 132.211 204.269 116.927 189.458 116.927C174.646 116.927 162.639 132.211 162.639 151.066C162.639 169.92 174.646 185.204 189.458 185.204Z" fill="#6D6BAF"/>
<path d="M189.458 185.697C174.375 185.697 162.127 170.161 162.127 151.065C162.127 131.97 174.385 116.424 189.458 116.424C204.532 116.424 216.779 131.96 216.779 151.065C216.779 170.171 204.521 185.697 189.458 185.697ZM189.458 117.429C174.938 117.429 163.133 132.513 163.133 151.065C163.133 169.618 174.938 184.691 189.458 184.691C203.978 184.691 215.774 169.608 215.774 151.065C215.774 132.523 203.968 117.429 189.458 117.429Z" fill="#6D6BAF"/>
<path d="M129.004 238.006C126.54 238.006 123.745 235.824 122.256 234.477C120.165 232.576 118.003 229.912 118.003 228.725C118.003 227.026 138.114 166.38 140.437 159.492C140.463 159.412 140.509 159.339 140.57 159.281C140.632 159.223 140.707 159.181 140.789 159.16C140.869 159.14 140.953 159.139 141.034 159.159C141.114 159.178 141.189 159.216 141.252 159.271L148.864 166.219C148.923 166.273 148.969 166.341 148.997 166.416C149.025 166.491 149.034 166.572 149.025 166.652L141.523 232.536C141.514 232.612 141.487 232.686 141.446 232.75C141.404 232.815 141.348 232.869 141.282 232.908C140.97 233.099 133.629 237.564 129.396 237.986L129.004 238.006ZM141.151 160.578C134.816 179.684 119.179 226.945 119.029 228.785C119.029 229.358 120.557 231.601 122.95 233.763C125.344 235.925 127.727 237.172 129.316 237.021C132.946 236.659 139.371 232.948 140.568 232.214L148.019 166.853L141.151 160.578Z" fill="#6D6BAF"/>
<path d="M185.365 150.744L140.879 159.643L147.999 247.288H234.758L246.322 156.084L193.37 150.302L185.365 150.744Z" fill="#EE316B"/>
<path d="M234.758 247.791H147.998C147.872 247.791 147.751 247.743 147.66 247.657C147.568 247.571 147.513 247.454 147.505 247.328L140.376 159.684C140.366 159.561 140.402 159.439 140.476 159.341C140.55 159.242 140.657 159.175 140.778 159.151L185.314 150.251L193.359 149.799L246.382 155.591C246.515 155.605 246.638 155.67 246.724 155.772C246.765 155.826 246.795 155.887 246.813 155.953C246.83 156.018 246.834 156.087 246.825 156.154L235.261 247.369C235.242 247.488 235.18 247.596 235.088 247.673C234.996 247.751 234.879 247.792 234.758 247.791ZM148.471 246.785H234.316L245.759 156.536L193.359 150.835L185.465 151.277L141.452 160.086L148.471 246.785Z" fill="#6D6BAF"/>
<mask id="mask1_56_1928" style="mask-type:luminance" maskUnits="userSpaceOnUse" x="140" y="150" width="107" height="98">
<mask id="mask2_56_1928" style="mask-type:luminance" maskUnits="userSpaceOnUse" x="140" y="150" width="107" height="98">
<path d="M185.365 150.744L140.879 159.643L147.999 247.288H234.758L246.322 156.084L193.37 150.302L185.365 150.744Z" fill="white"/>
</mask>
<g mask="url(#mask2_56_1928)">
<path d="M234.758 247.792H147.998C147.872 247.792 147.751 247.744 147.66 247.658C147.568 247.572 147.513 247.455 147.505 247.329L140.376 159.684C140.366 159.562 140.401 159.44 140.475 159.342C140.55 159.243 140.657 159.176 140.778 159.152L185.314 150.252L193.359 149.8L246.382 155.592C246.515 155.606 246.637 155.671 246.724 155.773C246.765 155.827 246.795 155.888 246.812 155.954C246.83 156.019 246.834 156.088 246.825 156.155L235.261 247.37C235.241 247.489 235.18 247.597 235.088 247.674C234.995 247.752 234.878 247.793 234.758 247.792ZM148.47 246.786H234.315L245.759 156.537L193.359 150.836L185.465 151.278L141.452 160.087L148.47 246.786Z" fill="white"/>
</g>
</mask>
<g mask="url(#mask1_56_1928)">
<path opacity="0.3" d="M147.998 247.29H234.758L236.94 230.125L236.779 229.29L215.843 233.855L224.974 195.423L174.736 217.495L162.558 229.672H170.171L147.767 244.414L147.998 247.29Z" fill="black"/>
</g>
<path d="M180.639 145.807C180.639 145.807 173.419 149.759 171.589 153.308C169.759 156.858 162.187 183.224 162.187 183.224L174.646 185.898L162.64 191.68L180.81 243.728L209.73 241.948L228.554 187.226L216.98 182.339L227.217 177.884C227.217 177.884 217.433 159.201 212.133 151.196C206.834 143.192 180.639 145.807 180.639 145.807Z" fill="#EE316B"/>
<path d="M180.85 244.231C180.747 244.231 180.646 244.199 180.562 244.14C180.477 244.08 180.413 243.996 180.378 243.899L162.187 191.841C162.148 191.725 162.153 191.598 162.201 191.485C162.25 191.372 162.337 191.28 162.448 191.228L173.138 186.079L162.076 183.716C162.009 183.702 161.944 183.674 161.887 183.634C161.83 183.594 161.782 183.544 161.745 183.485C161.709 183.425 161.687 183.358 161.678 183.289C161.669 183.22 161.675 183.15 161.694 183.083C162.006 182.007 169.357 156.646 171.137 153.087C172.916 149.527 180.046 145.535 180.348 145.364C180.406 145.332 180.472 145.315 180.539 145.314C181.615 145.203 206.985 142.75 212.425 150.915C217.724 158.849 227.508 177.472 227.579 177.653C227.608 177.716 227.624 177.784 227.624 177.854C227.624 177.923 227.608 177.992 227.579 178.055C227.558 178.121 227.523 178.181 227.476 178.231C227.429 178.282 227.371 178.321 227.307 178.346L218.147 182.369L228.635 186.803C228.752 186.854 228.847 186.948 228.899 187.065C228.951 187.183 228.957 187.315 228.916 187.437L210.162 242.159C210.129 242.252 210.07 242.333 209.991 242.392C209.912 242.451 209.818 242.485 209.72 242.491L180.8 244.271L180.85 244.231ZM163.293 191.942L181.202 243.225L209.358 241.496L227.85 187.527L216.719 182.821C216.627 182.784 216.548 182.719 216.493 182.637C216.437 182.555 216.407 182.458 216.407 182.359C216.408 182.261 216.437 182.165 216.49 182.083C216.544 182.001 216.619 181.936 216.709 181.896L226.453 177.663C224.884 174.646 216.397 158.678 211.6 151.518C206.653 144.097 182.53 146.189 180.75 146.349C179.925 146.812 173.63 150.372 172.042 153.59C170.453 156.807 163.907 179.191 162.821 182.902L174.757 185.456C174.859 185.478 174.952 185.532 175.022 185.609C175.092 185.687 175.137 185.784 175.149 185.888C175.158 185.992 175.137 186.096 175.086 186.188C175.036 186.279 174.96 186.353 174.867 186.401L163.293 191.942Z" fill="#6D6BAF"/>
<path d="M179.513 248.182L179.141 156.535L203.164 154.303L210.213 247.287L179.513 248.182Z" fill="white"/>
<path d="M179.513 248.686C179.382 248.685 179.256 248.635 179.161 248.545C179.066 248.448 179.012 248.319 179.01 248.183L178.638 156.536C178.635 156.411 178.68 156.288 178.764 156.195C178.848 156.102 178.965 156.044 179.09 156.034L203.113 153.851C203.18 153.842 203.247 153.847 203.311 153.866C203.376 153.885 203.435 153.918 203.485 153.962C203.589 154.051 203.654 154.178 203.666 154.314L210.705 247.298C210.709 247.366 210.699 247.434 210.677 247.497C210.655 247.561 210.62 247.62 210.575 247.67C210.529 247.721 210.473 247.762 210.411 247.79C210.348 247.817 210.281 247.832 210.213 247.831L179.523 248.726L179.513 248.686ZM179.643 156.989L180.015 247.66L209.67 246.806L202.701 154.857L179.643 156.989Z" fill="#6D6BAF"/>
<path d="M175.581 132.503C175.581 132.503 178.688 149.859 179.141 154.304C179.593 158.748 191.077 190.353 194.516 185.194C198.267 179.573 202.721 161.875 203.566 157.863C204.411 153.851 204.461 136.515 204.461 136.515C204.461 136.515 192.927 144.519 175.581 132.503Z" fill="white"/>
<path d="M193.611 186.27C193.482 186.267 193.354 186.25 193.228 186.22C188.502 185.043 179.07 158.647 178.638 154.353C178.205 150.06 175.118 132.774 175.078 132.593C175.06 132.495 175.071 132.393 175.111 132.301C175.151 132.209 175.217 132.132 175.301 132.078C175.385 132.024 175.484 131.996 175.584 131.998C175.684 132 175.781 132.032 175.862 132.09C192.736 143.775 204.099 136.173 204.209 136.112C204.288 136.066 204.379 136.041 204.471 136.041C204.563 136.041 204.653 136.066 204.732 136.112C204.813 136.157 204.881 136.222 204.929 136.302C204.977 136.381 205.003 136.472 205.004 136.565C205.004 137.269 205.004 154.011 204.099 158.024C203.093 162.388 198.739 179.824 194.938 185.526C194.797 185.752 194.602 185.938 194.37 186.068C194.138 186.198 193.877 186.268 193.611 186.27ZM176.265 133.588C176.969 137.611 179.281 150.462 179.613 154.253C180.046 158.587 189.578 184.279 193.45 185.244C193.631 185.244 193.842 185.244 194.083 184.922C197.754 179.402 202.198 161.794 203.133 157.772C203.887 154.383 203.998 140.959 204.008 137.4C201.112 138.878 190.654 143.031 176.265 133.588Z" fill="#6D6BAF"/>
<mask id="mask3_56_1928" style="mask-type:luminance" maskUnits="userSpaceOnUse" x="175" y="132" width="30" height="54">
<mask id="mask4_56_1928" style="mask-type:luminance" maskUnits="userSpaceOnUse" x="175" y="132" width="30" height="54">
<path d="M175.581 132.503C175.581 132.503 178.688 149.859 179.14 154.304C179.593 158.748 191.077 190.353 194.516 185.194C198.266 179.573 202.721 161.875 203.566 157.863C204.41 153.851 204.461 136.515 204.461 136.515C204.461 136.515 192.927 144.519 175.581 132.503Z" fill="white"/>
</mask>
<g mask="url(#mask4_56_1928)">
<path d="M193.611 186.27C193.482 186.267 193.354 186.25 193.228 186.22C188.502 185.043 179.07 158.647 178.638 154.353C178.205 150.06 175.118 132.774 175.078 132.593C175.06 132.495 175.071 132.393 175.111 132.301C175.151 132.209 175.217 132.132 175.301 132.078C175.385 132.024 175.484 131.996 175.584 131.998C175.684 132 175.781 132.032 175.862 132.09C192.736 143.775 204.099 136.173 204.209 136.112C204.288 136.066 204.379 136.041 204.471 136.041C204.563 136.041 204.653 136.066 204.732 136.112C204.813 136.157 204.881 136.222 204.929 136.302C204.977 136.381 205.003 136.472 205.004 136.565C205.004 137.269 205.004 154.011 204.099 158.024C203.093 162.388 198.739 179.824 194.938 185.526C194.797 185.752 194.602 185.938 194.37 186.068C194.138 186.198 193.877 186.268 193.611 186.27ZM176.265 133.588C176.969 137.611 179.281 150.462 179.613 154.253C180.046 158.587 189.578 184.279 193.45 185.244C193.631 185.244 193.842 185.244 194.083 184.922C197.754 179.402 202.198 161.794 203.133 157.772C203.887 154.383 203.998 140.959 204.008 137.4C201.112 138.878 190.654 143.031 176.265 133.588Z" fill="white"/>
</g>
</mask>
<g mask="url(#mask3_56_1928)">
<path d="M204.32 148.049C204.501 142.358 204.501 136.515 204.501 136.515C204.501 136.515 192.927 144.56 175.581 132.493C175.581 132.493 176.858 139.643 177.894 145.938C180.267 148.954 184.782 153.751 190.353 154.646C196.074 155.571 200.7 152.534 204.32 148.049Z" fill="#EE316B"/>
<path opacity="0.5" d="M204.32 148.049C204.501 142.358 204.501 136.515 204.501 136.515C204.501 136.515 192.927 144.56 175.581 132.493C175.581 132.493 176.858 139.643 177.894 145.938C180.267 148.954 184.782 153.751 190.353 154.646C196.074 155.571 200.7 152.534 204.32 148.049Z" fill="white"/>
</g>
<path d="M213.843 115.156C213.843 115.156 218.73 108.922 218.73 116.041C218.73 123.16 213.843 124.085 213.843 124.085V115.156Z" fill="white"/>
<path d="M213.842 124.558C213.724 124.56 213.609 124.516 213.521 124.437C213.462 124.393 213.415 124.335 213.384 124.268C213.352 124.202 213.337 124.129 213.34 124.055V115.156C213.337 115.044 213.373 114.934 213.44 114.844C213.873 114.301 216.085 111.626 217.774 112.21C218.78 112.552 219.232 113.808 219.232 116.041C219.232 123.492 213.983 124.538 213.933 124.548L213.842 124.558ZM214.345 115.327V123.371C215.562 122.889 218.227 121.23 218.227 116.041C218.227 113.688 217.684 113.245 217.452 113.165C216.708 112.914 215.21 114.271 214.345 115.327Z" fill="#6D6BAF"/>
<path d="M165.344 100.475C165.344 100.475 171.126 126.69 171.126 130.28C171.126 137.831 185.365 146.298 191.589 148.078C197.814 149.858 212.948 136.062 213.843 132.502C214.737 128.942 215.17 97.7999 213.39 91.5755C211.61 85.3511 201.404 81.3389 194.707 81.3389C188.01 81.3389 168.461 84.8986 165.344 100.475Z" fill="white"/>
<path d="M192.816 148.744C192.358 148.748 191.901 148.687 191.459 148.563C185.426 146.833 170.624 138.286 170.624 130.281C170.624 126.792 164.912 100.849 164.852 100.587C164.842 100.517 164.842 100.446 164.852 100.376C168.039 84.4278 187.98 80.8379 194.707 80.8379C201.434 80.8379 212.003 84.8601 213.873 91.4365C215.743 98.0129 215.2 129.135 214.325 132.665C213.672 135.289 206.341 142.539 199.745 146.35C196.949 147.929 194.626 148.744 192.816 148.744ZM165.857 100.477C166.31 102.538 171.629 126.772 171.629 130.291C171.629 137.491 185.597 145.848 191.741 147.607C193.4 148.08 195.994 147.336 199.252 145.455C205.788 141.684 212.817 134.555 213.33 132.383C214.165 129.034 214.667 97.9325 212.888 91.7181C211.168 85.6847 200.962 81.8435 194.687 81.8435C188.201 81.8435 168.985 85.2724 165.857 100.466V100.477Z" fill="#6D6BAF"/>
<mask id="mask5_56_1928" style="mask-type:luminance" maskUnits="userSpaceOnUse" x="165" y="81" width="50" height="68">
<mask id="mask6_56_1928" style="mask-type:luminance" maskUnits="userSpaceOnUse" x="165" y="81" width="50" height="68">
<path d="M165.344 100.475C165.344 100.475 171.126 126.69 171.126 130.28C171.126 137.831 185.365 146.298 191.59 148.078C197.814 149.858 212.948 136.062 213.843 132.502C214.738 128.942 215.17 97.7999 213.39 91.5755C211.61 85.3511 201.404 81.3389 194.707 81.3389C188.01 81.3389 168.462 84.8986 165.344 100.475Z" fill="white"/>
</mask>
<g mask="url(#mask6_56_1928)">
<path d="M192.816 148.742C192.357 148.746 191.9 148.685 191.459 148.561C185.425 146.831 170.623 138.284 170.623 130.279C170.623 126.79 164.912 100.847 164.852 100.585C164.841 100.515 164.841 100.444 164.852 100.374C168.039 84.4258 187.979 80.8359 194.707 80.8359C201.434 80.8359 212.002 84.8582 213.873 91.4346C215.743 98.0109 215.2 129.133 214.325 132.663C213.672 135.287 206.341 142.537 199.745 146.348C196.949 147.927 194.626 148.742 192.816 148.742ZM165.857 100.475C166.31 102.536 171.629 126.77 171.629 130.29C171.629 137.489 185.596 145.846 191.74 147.605C193.399 148.078 195.994 147.334 199.252 145.453C205.788 141.683 212.817 134.553 213.33 132.381C214.164 129.033 214.667 97.9305 212.887 91.7161C211.168 85.6828 200.961 81.8415 194.687 81.8415C188.201 81.8415 168.984 85.2705 165.857 100.465V100.475Z" fill="white"/>
</g>
</mask>
<g mask="url(#mask5_56_1928)">
<path d="M194.707 81.3389C188.04 81.3389 168.462 84.8986 165.345 100.445C165.345 100.445 168.804 116.131 170.373 124.9C170.373 120.878 171.076 113.175 175.4 109.816C181.373 105.171 191.339 104.497 196.98 101.842C202.621 99.1876 203.948 92.2191 203.948 92.2191C203.948 92.2191 204.28 104.497 206.965 107.494C209.65 110.49 212.284 112.521 212.616 117.78C212.948 123.04 213.944 128.399 211.289 132.723C208.634 137.047 197.674 145.333 192.696 146.992C191.932 147.253 191.188 147.475 190.484 147.686C190.876 147.827 191.258 147.957 191.61 148.058C197.845 149.838 212.968 136.041 213.863 132.482C214.758 128.922 215.19 97.7798 213.411 91.5554C211.631 85.331 201.404 81.3389 194.707 81.3389Z" fill="#EE316B"/>
<path d="M185.466 145.444C183.043 143 176.416 136.233 173.399 132.744C172.528 131.75 171.747 130.679 171.066 129.546C171.066 129.838 171.066 130.099 171.066 130.28C171.127 135.861 178.89 141.934 185.466 145.444Z" fill="#EE316B"/>
<g opacity="0.5">
<path d="M194.707 81.3389C188.041 81.3389 168.462 84.8986 165.345 100.445C165.345 100.445 168.804 116.131 170.373 124.9C170.373 120.878 171.077 113.175 175.401 109.816C181.374 105.171 191.339 104.497 196.98 101.842C202.621 99.1876 203.949 92.2191 203.949 92.2191C203.949 92.2191 204.28 104.497 206.965 107.494C209.65 110.49 212.285 112.521 212.616 117.78C212.948 123.04 213.944 128.399 211.289 132.723C208.634 137.047 197.674 145.333 192.696 146.992C191.932 147.253 191.188 147.475 190.484 147.686C190.876 147.827 191.258 147.957 191.61 148.058C197.845 149.838 212.968 136.041 213.863 132.482C214.758 128.922 215.191 97.7798 213.411 91.5554C211.631 85.331 201.404 81.3389 194.707 81.3389Z" fill="white"/>
<path d="M185.466 145.444C183.043 143 176.416 136.233 173.4 132.744C172.528 131.75 171.747 130.679 171.067 129.546C171.067 129.838 171.067 130.099 171.067 130.28C171.127 135.861 178.89 141.934 185.466 145.444Z" fill="white"/>
</g>
</g>
<path d="M188.382 116.575C188.382 117.822 187.829 118.827 187.135 118.827C186.441 118.827 185.878 117.822 185.878 116.575C185.878 115.328 186.441 114.322 187.135 114.322C187.829 114.322 188.382 115.328 188.382 116.575Z" fill="#6D6BAF"/>
<path d="M203.033 116.575C203.033 117.822 202.47 118.827 201.776 118.827C201.082 118.827 200.519 117.822 200.519 116.575C200.519 115.328 201.082 114.322 201.776 114.322C202.47 114.322 203.033 115.328 203.033 116.575Z" fill="#6D6BAF"/>
<path d="M196.225 126.098C196.124 126.099 196.025 126.069 195.942 126.011C195.859 125.954 195.796 125.871 195.763 125.776C195.713 125.653 195.713 125.516 195.764 125.393C195.815 125.271 195.912 125.174 196.034 125.122C198.045 124.338 200.881 122.789 201.062 121.824C201.143 121.452 200.992 121.321 199.715 121.04C198.787 120.913 197.913 120.53 197.191 119.934C195.692 118.435 196.919 114.232 197.07 113.76C197.109 113.626 197.199 113.514 197.32 113.447C197.381 113.414 197.447 113.393 197.515 113.385C197.583 113.377 197.653 113.383 197.719 113.403C197.785 113.422 197.846 113.454 197.9 113.497C197.954 113.54 197.998 113.593 198.031 113.653C198.065 113.713 198.086 113.779 198.093 113.848C198.101 113.916 198.095 113.985 198.076 114.051C197.593 115.62 197.13 118.415 197.945 119.23C198.533 119.673 199.226 119.957 199.956 120.054C200.962 120.286 202.359 120.597 202.068 122.065C201.706 123.916 197.301 125.756 196.426 126.088C196.361 126.106 196.292 126.109 196.225 126.098Z" fill="#6D6BAF"/>
<path d="M191.771 132.795C190.739 132.855 189.708 132.65 188.779 132.197C187.849 131.744 187.051 131.061 186.462 130.211C186.424 130.156 186.398 130.095 186.385 130.03C186.372 129.966 186.372 129.899 186.385 129.834C186.398 129.769 186.424 129.708 186.462 129.654C186.499 129.599 186.547 129.553 186.602 129.517C186.713 129.444 186.848 129.418 186.978 129.445C187.108 129.471 187.223 129.548 187.296 129.658C189.71 133.288 195.341 131.156 195.341 131.136C195.465 131.087 195.603 131.089 195.726 131.141C195.849 131.194 195.945 131.294 195.994 131.418C196.044 131.542 196.042 131.68 195.989 131.803C195.936 131.925 195.837 132.022 195.713 132.071C194.448 132.528 193.116 132.773 191.771 132.795Z" fill="#6D6BAF"/>
<path d="M182.54 113.076C182.48 113.085 182.419 113.085 182.359 113.076C182.297 113.052 182.24 113.017 182.191 112.971C182.143 112.925 182.104 112.871 182.077 112.81C182.049 112.749 182.035 112.683 182.033 112.617C182.032 112.55 182.043 112.484 182.067 112.422C182.588 111.191 183.549 110.198 184.762 109.637C185.506 109.348 186.3 109.214 187.097 109.242C187.893 109.269 188.676 109.459 189.398 109.798C189.522 109.847 189.621 109.943 189.674 110.066C189.727 110.189 189.729 110.327 189.68 110.451C189.63 110.575 189.534 110.675 189.411 110.727C189.288 110.78 189.15 110.782 189.026 110.733C188.428 110.444 187.777 110.279 187.114 110.248C186.45 110.217 185.787 110.32 185.165 110.552C184.2 111.013 183.433 111.805 183.003 112.784C182.964 112.874 182.899 112.95 182.817 113.002C182.734 113.054 182.638 113.08 182.54 113.076Z" fill="#6D6BAF"/>
<path d="M204.028 111.426C203.952 111.425 203.876 111.407 203.806 111.374C203.737 111.341 203.675 111.294 203.626 111.235C202.621 109.978 201.706 109.364 200.801 109.405C200.363 109.479 199.947 109.644 199.577 109.89C199.208 110.136 198.895 110.457 198.659 110.833C198.586 110.944 198.474 111.023 198.344 111.053C198.215 111.083 198.079 111.062 197.965 110.993C197.908 110.959 197.858 110.914 197.818 110.861C197.779 110.807 197.751 110.746 197.736 110.681C197.721 110.616 197.719 110.549 197.731 110.483C197.743 110.418 197.768 110.355 197.804 110.3C198.124 109.786 198.552 109.35 199.06 109.022C199.567 108.693 200.141 108.481 200.74 108.399C202.027 108.329 203.244 109.083 204.421 110.621C204.502 110.727 204.538 110.86 204.521 110.992C204.504 111.124 204.435 111.244 204.33 111.325C204.243 111.391 204.137 111.427 204.028 111.426Z" fill="#6D6BAF"/>
<path d="M215.622 84.8994C211.218 79.8716 206.572 80.1733 203.797 81.2593C200.036 74.9243 187.608 69.8965 171.619 76.0002C152.936 83.1196 155.158 102.255 156.053 105.815C156.948 109.375 163.172 118.717 167.174 119.159C167.174 119.159 170.734 116.042 170.734 112.935C170.734 109.827 179.191 103.593 187.638 100.918C192.957 99.2388 198.799 96.1517 202.178 92.2099C202.116 94.7982 202.781 97.352 204.099 99.5807C206.774 103.603 210.776 105.815 210.776 107.153C210.776 108.49 212.998 113.377 214.798 113.377C216.598 113.377 216.578 106.258 217.02 103.14C217.463 100.023 221.847 92.0188 215.622 84.8994Z" fill="#6D6BAF"/>
<path d="M167.124 119.662H167.064C162.69 119.169 156.415 109.516 155.51 105.936C155.46 105.715 150.542 83.482 171.398 75.5381C186.793 69.6656 199.554 73.7582 204.008 80.6463C206.281 79.8821 211.248 79.138 215.995 84.568C221.193 90.5109 219.222 97.037 218.006 100.949C217.76 101.689 217.562 102.445 217.412 103.211C217.302 103.965 217.221 104.981 217.131 106.047C216.749 110.783 216.367 113.88 214.687 113.88C212.475 113.88 210.182 108.571 210.182 107.153C210.182 106.731 209.177 105.785 208.171 104.88C206.449 103.398 204.916 101.71 203.606 99.8526C202.397 97.9217 201.704 95.7126 201.595 93.4371C198.397 96.685 193.299 99.6112 187.658 101.391C179.131 104.086 171.106 110.17 171.106 112.925C171.106 116.223 167.526 119.391 167.376 119.531C167.306 119.598 167.219 119.644 167.124 119.662ZM185.566 73.7582C180.834 73.8156 176.152 74.7356 171.75 76.4732C151.709 84.1155 156.435 105.474 156.485 105.695C157.37 109.234 163.283 117.902 166.963 118.626C167.647 117.983 170.181 115.409 170.181 112.935C170.181 109.446 178.889 103.141 187.437 100.436C193.42 98.5554 198.769 95.3476 201.746 91.8785C201.814 91.8009 201.905 91.7459 202.005 91.7207C202.106 91.6956 202.212 91.7015 202.309 91.7377C202.404 91.7744 202.486 91.8394 202.543 91.9238C202.601 92.0082 202.631 92.1082 202.631 92.2103C202.567 94.7023 203.205 97.1621 204.471 99.3096C205.738 101.094 207.22 102.716 208.885 104.136C210.293 105.433 211.228 106.288 211.228 107.153C211.228 108.45 213.4 112.875 214.728 112.875C215.612 112.875 216.005 108.038 216.176 105.966C216.256 104.88 216.347 103.855 216.457 103.07C216.611 102.253 216.819 101.447 217.081 100.657C218.267 96.7152 220.097 90.7522 215.24 85.2317C210.776 80.1335 206.271 80.8474 203.978 81.7323C203.866 81.7744 203.743 81.7752 203.631 81.7347C203.518 81.6941 203.424 81.6149 203.365 81.5111C201.002 77.5492 194.576 73.7582 185.566 73.7582Z" fill="#6D6BAF"/>
<path d="M163.383 108.047H163.293C163.162 108.023 163.047 107.948 162.971 107.838C162.896 107.729 162.867 107.595 162.891 107.464C163.182 105.905 164.278 104.578 166.249 103.381C166.364 103.316 166.499 103.298 166.627 103.332C166.754 103.366 166.863 103.448 166.93 103.562C166.998 103.675 167.018 103.81 166.986 103.938C166.955 104.066 166.874 104.177 166.762 104.246C165.063 105.252 164.117 106.388 163.876 107.655C163.853 107.768 163.79 107.868 163.7 107.94C163.61 108.012 163.498 108.05 163.383 108.047Z" fill="white"/>
<path d="M169.749 102.768C169.647 102.767 169.548 102.736 169.464 102.679C169.38 102.622 169.314 102.541 169.276 102.446C169.231 102.322 169.236 102.185 169.29 102.065C169.345 101.944 169.445 101.85 169.568 101.803C173.058 100.565 176.625 99.5574 180.247 98.786C182.942 98.1626 185.496 97.5592 187.618 96.8855C195.582 94.3515 200.047 87.4131 200.097 87.3528C200.131 87.2955 200.176 87.2457 200.23 87.2064C200.284 87.1671 200.345 87.1391 200.41 87.1241C200.474 87.109 200.542 87.1073 200.607 87.1189C200.673 87.1306 200.735 87.1554 200.791 87.1919C200.903 87.264 200.981 87.3776 201.01 87.5076C201.038 87.6377 201.013 87.7737 200.942 87.8857C197.769 92.5265 193.185 96.0209 187.869 97.8509C185.717 98.5346 183.143 99.138 180.428 99.7715C176.853 100.515 173.329 101.489 169.88 102.688C169.84 102.72 169.796 102.747 169.749 102.768Z" fill="white"/>
<path d="M161.885 93.7991C161.784 93.7999 161.685 93.7682 161.604 93.7086C161.493 93.6349 161.417 93.5207 161.39 93.3907C161.364 93.2608 161.39 93.1256 161.463 93.0148C162.468 91.4562 165.183 91.5668 169.236 91.7277C172.522 91.9118 175.817 91.8916 179.1 91.6673C188.241 90.9333 196.406 85.4329 196.487 85.3725C196.597 85.2998 196.733 85.2737 196.863 85.3001C196.992 85.3264 197.107 85.4031 197.18 85.5133C197.218 85.5671 197.245 85.628 197.259 85.6924C197.273 85.7567 197.274 85.8231 197.262 85.8878C197.249 85.9525 197.224 86.0141 197.188 86.0689C197.152 86.1238 197.105 86.1707 197.05 86.2071C196.708 86.4384 188.583 91.9187 179.181 92.6729C175.857 92.9022 172.522 92.9224 169.196 92.7332C165.616 92.5925 163.032 92.4818 162.297 93.5779C162.252 93.6461 162.191 93.702 162.119 93.7406C162.047 93.7792 161.967 93.7993 161.885 93.7991Z" fill="white"/>
<path d="M215.904 99.0484C215.838 99.0458 215.773 99.0302 215.713 99.0025C215.653 98.9749 215.599 98.9356 215.554 98.887C215.509 98.8385 215.475 98.7816 215.452 98.7195C215.429 98.6575 215.419 98.5916 215.421 98.5255C215.467 97.2825 215.376 96.0382 215.15 94.815C215.135 94.7502 215.134 94.6831 215.146 94.6178C215.158 94.5524 215.183 94.4901 215.219 94.4347C215.256 94.3793 215.303 94.3319 215.359 94.2953C215.414 94.2587 215.477 94.2336 215.542 94.2217C215.607 94.2086 215.675 94.2087 215.74 94.2218C215.806 94.235 215.868 94.2611 215.923 94.2985C215.978 94.336 216.025 94.384 216.062 94.4399C216.098 94.4958 216.123 94.5583 216.135 94.6239C216.373 95.9237 216.471 97.2452 216.427 98.5657C216.424 98.6318 216.409 98.6967 216.381 98.7567C216.353 98.8167 216.314 98.8707 216.265 98.9155C216.217 98.9603 216.16 98.9951 216.098 99.0179C216.036 99.0407 215.97 99.0511 215.904 99.0484Z" fill="white"/>
<path d="M215.08 93.206C214.975 93.2068 214.872 93.174 214.787 93.1125C214.702 93.051 214.639 92.964 214.607 92.8641C213.958 91.075 212.916 89.4538 211.559 88.1193C210.202 86.7847 208.564 85.7707 206.764 85.1515C206.635 85.114 206.527 85.0278 206.461 84.9113C206.395 84.7949 206.378 84.6573 206.412 84.528C206.43 84.4646 206.461 84.4055 206.502 84.354C206.544 84.3025 206.595 84.2597 206.653 84.228C206.711 84.1962 206.774 84.1762 206.84 84.169C206.906 84.1618 206.972 84.1676 207.035 84.1861C208.998 84.8352 210.785 85.9249 212.262 87.3715C213.738 88.8182 214.864 90.5835 215.552 92.5323C215.575 92.595 215.584 92.6615 215.58 92.7279C215.577 92.7943 215.56 92.8593 215.531 92.9192C215.502 92.979 215.461 93.0325 215.412 93.0766C215.362 93.1207 215.304 93.1544 215.241 93.1759C215.189 93.1956 215.135 93.2058 215.08 93.206Z" fill="white"/>
<path d="M182.741 138.848C181.432 138.899 180.131 138.63 178.95 138.063C175.118 136.052 168.311 127.002 168.029 126.58C167.949 126.473 167.915 126.339 167.934 126.207C167.953 126.075 168.023 125.956 168.13 125.876C168.237 125.796 168.371 125.762 168.503 125.78C168.635 125.799 168.754 125.87 168.834 125.977C168.904 126.067 175.782 135.258 179.422 137.178C183.062 139.099 189.89 136.424 189.961 136.394C190.023 136.37 190.089 136.359 190.155 136.361C190.222 136.363 190.287 136.377 190.348 136.405C190.408 136.432 190.463 136.47 190.509 136.519C190.555 136.567 190.59 136.624 190.614 136.686C190.638 136.748 190.649 136.814 190.647 136.88C190.646 136.947 190.631 137.012 190.604 137.073C190.577 137.134 190.538 137.188 190.49 137.234C190.441 137.28 190.385 137.316 190.323 137.339C187.89 138.238 185.332 138.747 182.741 138.848Z" fill="#6D6BAF"/>
<path d="M192.635 136.948C192.635 137.863 191.509 138.617 190.132 138.617C188.754 138.617 187.628 137.863 187.628 136.948C187.628 136.032 188.744 135.278 190.132 135.278C191.519 135.278 192.635 136.022 192.635 136.948Z" fill="#6D6BAF"/>
<path d="M164.51 113.548C164.51 113.548 156.254 92.1695 164.51 79.4189C164.51 79.4189 151.749 92.5415 163.012 116.554L164.51 113.548Z" fill="white"/>
<path d="M170.232 120.476C170.986 125.504 169.618 129.848 167.165 130.22C164.711 130.592 162.137 126.821 161.373 121.803C160.608 116.786 161.996 112.432 164.439 112.06C166.883 111.687 169.518 115.458 170.232 120.476Z" fill="white"/>
<path d="M166.863 130.723C164.239 130.723 161.675 126.972 160.91 121.864C160.518 119.583 160.638 117.244 161.262 115.016C161.896 113.005 163.012 111.748 164.4 111.547C167.155 111.134 169.96 115.006 170.765 120.376C171.152 122.656 171.032 124.994 170.413 127.223C169.769 129.235 168.663 130.491 167.276 130.693C167.139 130.713 167.001 130.723 166.863 130.723ZM164.852 112.522C164.762 112.512 164.671 112.512 164.581 112.522C163.575 112.663 162.771 113.678 162.258 115.297C161.683 117.38 161.576 119.564 161.946 121.693C162.64 126.339 165.023 130.009 167.165 129.677C168.171 129.536 168.985 128.521 169.498 126.902C170.068 124.818 170.175 122.635 169.81 120.506C169.096 116.082 166.873 112.542 164.812 112.542L164.852 112.522Z" fill="#6D6BAF"/>
<path d="M165.796 130.07C167.971 129.743 169.122 125.414 168.369 120.4C167.615 115.386 165.241 111.586 163.066 111.913C160.891 112.24 159.739 116.57 160.493 121.584C161.247 126.598 163.621 130.397 165.796 130.07Z" fill="white"/>
<path d="M165.516 130.602C164.369 130.602 163.193 129.727 162.177 128.108C161.024 126.131 160.279 123.942 159.985 121.673C159.171 116.293 160.498 111.798 163.002 111.426C165.506 111.054 168.03 114.965 168.884 120.335C169.266 122.592 169.197 124.902 168.683 127.133C168.14 129.144 167.145 130.391 165.878 130.582L165.516 130.602ZM163.303 112.401H163.132C161.503 112.643 160.216 116.423 160.981 121.451C161.249 123.575 161.932 125.625 162.992 127.485C163.877 128.882 164.842 129.616 165.677 129.496C166.511 129.375 167.235 128.38 167.688 126.781C168.17 124.685 168.231 122.515 167.869 120.395C167.135 115.639 164.922 112.401 163.303 112.401Z" fill="#6D6BAF"/>
<path d="M246.323 156.084L257.917 247.741L234.759 247.289L246.323 156.084Z" fill="#EE316B"/>
<path d="M257.916 248.243L234.788 247.79C234.718 247.789 234.648 247.774 234.584 247.744C234.52 247.715 234.463 247.672 234.416 247.619C234.371 247.565 234.338 247.502 234.319 247.435C234.3 247.367 234.296 247.297 234.306 247.227L245.86 156.023C245.874 155.9 245.934 155.787 246.027 155.705C246.119 155.624 246.239 155.579 246.362 155.58C246.484 155.582 246.601 155.627 246.692 155.709C246.782 155.79 246.84 155.902 246.855 156.023L258.449 247.669C258.461 247.741 258.456 247.815 258.435 247.884C258.414 247.954 258.378 248.018 258.328 248.072C258.278 248.13 258.214 248.176 258.142 248.205C258.071 248.235 257.993 248.248 257.916 248.243ZM235.331 246.795L257.343 247.227L246.282 160.085L235.331 246.795Z" fill="#6D6BAF"/>
<mask id="mask7_56_1928" style="mask-type:luminance" maskUnits="userSpaceOnUse" x="234" y="156" width="24" height="92">
<mask id="mask8_56_1928" style="mask-type:luminance" maskUnits="userSpaceOnUse" x="234" y="156" width="24" height="92">
<path d="M246.322 156.082L257.916 247.739L234.758 247.287L246.322 156.082Z" fill="white"/>
</mask>
<g mask="url(#mask8_56_1928)">
<path d="M257.916 248.242L234.788 247.789C234.718 247.788 234.648 247.773 234.584 247.743C234.52 247.714 234.463 247.671 234.416 247.618C234.371 247.564 234.338 247.501 234.319 247.434C234.3 247.366 234.295 247.296 234.305 247.226L245.859 156.022C245.874 155.899 245.934 155.786 246.026 155.704C246.119 155.623 246.239 155.578 246.362 155.579C246.484 155.581 246.601 155.626 246.692 155.708C246.782 155.789 246.84 155.901 246.855 156.022L258.449 247.669C258.46 247.74 258.456 247.814 258.435 247.883C258.414 247.953 258.377 248.017 258.328 248.071C258.277 248.129 258.214 248.175 258.142 248.204C258.071 248.234 257.993 248.247 257.916 248.242ZM235.331 246.794L257.343 247.226L246.282 160.084L235.331 246.794Z" fill="white"/>
</g>
</mask>
<g mask="url(#mask7_56_1928)">
<path opacity="0.3" d="M252.637 206.07L240.58 213.31L240.781 199.765L234.758 247.288L257.916 247.74L256.016 232.767L245.91 233.099L254.879 223.777L254.809 223.164L242.481 227.387L253.632 213.883L252.637 206.07Z" fill="black"/>
</g>
<path d="M163.474 129.054C163.474 129.054 166.893 127.858 167.637 129.175C168.381 130.492 169.246 136.214 169.226 137.029C169.206 137.843 168.924 138.587 167.376 138.034C165.827 137.481 163.354 132.443 163.354 132.443L163.474 129.054Z" fill="white"/>
<path d="M168.291 138.768C167.919 138.758 167.551 138.683 167.205 138.546C165.556 137.933 163.344 133.579 162.921 132.704C162.906 132.628 162.906 132.549 162.921 132.473L163.022 129.094C163.024 128.993 163.057 128.894 163.116 128.811C163.175 128.729 163.258 128.666 163.354 128.632C163.997 128.41 167.215 127.375 168.12 128.984C168.914 130.381 169.809 136.254 169.779 137.098C169.793 137.37 169.745 137.641 169.636 137.891C169.528 138.14 169.364 138.361 169.156 138.536C168.899 138.702 168.596 138.783 168.291 138.768ZM163.877 132.372C164.812 134.253 166.582 137.239 167.547 137.601C168.241 137.853 168.482 137.742 168.552 137.702C168.623 137.662 168.733 137.41 168.744 137.068C168.744 136.374 167.909 130.713 167.215 129.476C166.883 128.873 165.204 129.104 163.987 129.476L163.877 132.372Z" fill="#6D6BAF"/>
<path d="M148.511 147.195C148.511 147.195 151.679 126.832 151.749 124.62C151.82 122.408 154.766 120.598 156.174 120.055C157.582 119.512 165.626 119.773 166.481 119.803C167.336 119.833 170.775 119.652 170.744 120.809C170.714 121.965 170.413 122.458 167.537 122.92C164.661 123.383 157.783 123.745 157.783 123.745L155.983 126.46L164.52 128.089C164.52 128.089 166.531 128.974 166.169 130.351C165.807 131.729 164.812 137.773 164.791 138.597C164.771 139.422 163.886 139.955 161.845 141.282C160.627 142.07 159.256 142.594 157.823 142.82C157.823 142.82 157.984 146.973 156.817 147.486L153.911 148.783L153.509 172.545L140.386 171.057L148.511 147.195Z" fill="white"/>
<path d="M153.499 172.957H153.439L140.367 171.469C140.291 171.46 140.219 171.435 140.155 171.395C140.09 171.355 140.036 171.301 139.995 171.238C139.962 171.17 139.946 171.096 139.946 171.022C139.946 170.947 139.962 170.873 139.995 170.805L148.12 147.034C148.28 146.028 151.277 126.671 151.337 124.57C151.408 122.036 154.636 120.055 156.094 119.542C157.552 119.029 163.897 119.18 166.582 119.26H167.034C168.703 119.26 170.383 119.311 171.056 119.994C171.152 120.091 171.227 120.205 171.277 120.332C171.328 120.458 171.352 120.593 171.348 120.728C171.348 122.317 170.524 122.87 167.718 123.333C165.124 123.755 159.452 124.077 158.165 124.147L156.928 126.018L164.721 127.506H164.832C164.923 127.506 167.185 128.582 166.763 130.342C166.411 131.82 165.415 137.763 165.395 138.497C165.395 139.502 164.46 140.136 162.489 141.413L162.228 141.584C161.063 142.327 159.771 142.849 158.417 143.122C158.417 144.49 158.316 147.285 157.109 147.828L154.505 148.995L154.103 172.434C154.101 172.505 154.085 172.574 154.055 172.638C154.026 172.702 153.984 172.759 153.932 172.807C153.877 172.864 153.809 172.908 153.734 172.934C153.659 172.96 153.578 172.968 153.499 172.957ZM141.071 170.584L153.007 171.952L153.399 148.743C153.402 148.649 153.432 148.557 153.486 148.479C153.539 148.4 153.614 148.339 153.7 148.301L156.597 147.004C157.099 146.773 157.371 144.611 157.3 142.811C157.294 142.684 157.337 142.559 157.419 142.462C157.501 142.365 157.617 142.303 157.743 142.288C159.108 142.076 160.414 141.58 161.574 140.83L161.846 140.659C163.565 139.532 164.269 139.06 164.289 138.557C164.289 137.632 165.385 131.518 165.687 130.201C165.888 129.356 164.681 128.672 164.369 128.542L155.893 126.923C155.811 126.906 155.734 126.871 155.669 126.818C155.604 126.765 155.553 126.698 155.521 126.621C155.483 126.548 155.464 126.467 155.464 126.385C155.464 126.303 155.483 126.222 155.521 126.148L157.31 123.433C157.357 123.369 157.417 123.316 157.487 123.277C157.556 123.239 157.633 123.217 157.713 123.212C157.773 123.212 164.591 122.86 167.406 122.398C170.222 121.935 170.172 121.503 170.192 120.759C170.101 120.608 169.558 120.326 166.954 120.326H166.411C162.389 120.206 157.29 120.195 156.295 120.547C154.937 121.03 152.273 122.78 152.202 124.66C152.132 126.872 149.095 146.461 148.964 147.295C148.964 147.295 148.964 147.356 148.964 147.376L141.071 170.584Z" fill="#6D6BAF"/>
<path d="M165.485 131.961H165.395L155.037 130.101C154.904 130.077 154.786 130.001 154.708 129.889C154.631 129.778 154.601 129.641 154.625 129.507C154.649 129.374 154.725 129.256 154.836 129.178C154.948 129.101 155.085 129.071 155.218 129.095L165.576 130.965C165.709 130.977 165.832 131.042 165.918 131.145C166.004 131.247 166.045 131.38 166.033 131.513C166.021 131.647 165.957 131.77 165.854 131.856C165.751 131.941 165.618 131.983 165.485 131.971V131.961Z" fill="#6D6BAF"/>
<path d="M164.309 136.606H164.198L155.671 134.534C155.537 134.504 155.422 134.421 155.349 134.305C155.277 134.189 155.253 134.049 155.284 133.916C155.314 133.783 155.397 133.667 155.513 133.594C155.629 133.522 155.769 133.498 155.902 133.529L164.439 135.6C164.504 135.614 164.565 135.641 164.618 135.68C164.672 135.718 164.717 135.767 164.751 135.824C164.785 135.88 164.807 135.943 164.815 136.008C164.824 136.074 164.819 136.14 164.801 136.204C164.78 136.318 164.719 136.421 164.629 136.495C164.538 136.568 164.425 136.608 164.309 136.606Z" fill="#6D6BAF"/>
<path d="M157.803 143.273C157.718 143.275 157.635 143.254 157.561 143.214C157.486 143.173 157.424 143.114 157.38 143.042C157.018 142.478 156.204 141.101 156.475 140.347C156.518 140.227 156.589 140.118 156.681 140.031C156.774 139.944 156.886 139.879 157.008 139.844C157.803 139.603 159.653 139.13 159.653 139.13L159.904 140.135C159.904 140.135 158.255 140.558 157.421 140.799C157.587 141.418 157.86 142.003 158.225 142.529C158.297 142.641 158.321 142.777 158.293 142.907C158.265 143.037 158.186 143.15 158.074 143.223C157.989 143.262 157.896 143.279 157.803 143.273Z" fill="#6D6BAF"/>
<path d="M141.563 158.748L155.742 164.098C155.742 164.098 145.867 226.081 143.494 230.947C141.121 235.814 135.57 241.466 128.41 242.149C121.251 242.833 116.072 235.11 115.861 226.996C115.65 218.881 141.563 158.748 141.563 158.748Z" fill="#EE316B"/>
<path d="M127.495 242.692C125.021 242.668 122.645 241.725 120.828 240.048C117.57 237.152 115.458 232.164 115.327 226.975C115.106 218.881 140.044 160.97 141.1 158.507C141.153 158.389 141.249 158.296 141.369 158.247C141.489 158.198 141.623 158.198 141.744 158.245L155.922 163.585C156.031 163.623 156.122 163.699 156.181 163.798C156.24 163.897 156.262 164.014 156.244 164.128C155.842 166.662 146.329 226.251 143.936 231.118C141.382 236.347 135.589 241.928 128.42 242.612C128.118 242.682 127.806 242.692 127.495 242.692ZM141.834 159.392C139.481 164.882 116.132 219.474 116.333 226.985C116.454 231.862 118.435 236.579 121.502 239.294C122.409 240.145 123.487 240.795 124.664 241.201C125.84 241.607 127.09 241.758 128.329 241.647C135.107 241.003 140.597 235.694 143.041 230.726C145.263 226.191 154.323 169.789 155.188 164.419L141.834 159.392Z" fill="#6D6BAF"/>
<mask id="mask9_56_1928" style="mask-type:luminance" maskUnits="userSpaceOnUse" x="115" y="158" width="41" height="85">
<mask id="mask10_56_1928" style="mask-type:luminance" maskUnits="userSpaceOnUse" x="115" y="158" width="41" height="85">
<path d="M141.563 158.75L155.742 164.1C155.742 164.1 145.867 226.082 143.494 230.949C141.121 235.816 135.57 241.468 128.41 242.151C121.251 242.835 116.072 235.112 115.861 226.998C115.65 218.883 141.563 158.75 141.563 158.75Z" fill="white"/>
</mask>
<g mask="url(#mask10_56_1928)">
<path d="M127.495 242.693C125.022 242.669 122.646 241.726 120.828 240.049C117.57 237.153 115.459 232.165 115.328 226.976C115.107 218.882 140.045 160.971 141.1 158.508C141.153 158.39 141.25 158.297 141.37 158.248C141.49 158.199 141.624 158.199 141.744 158.246L155.922 163.586C156.031 163.624 156.123 163.7 156.182 163.799C156.24 163.898 156.263 164.015 156.244 164.129C155.842 166.663 146.329 226.252 143.936 231.119C141.382 236.348 135.59 241.929 128.42 242.613C128.119 242.683 127.807 242.693 127.495 242.693ZM141.835 159.393C139.481 164.883 116.132 219.475 116.333 226.986C116.454 231.863 118.435 236.58 121.502 239.295C122.41 240.146 123.487 240.796 124.664 241.202C125.841 241.608 127.09 241.759 128.33 241.648C135.107 241.004 140.598 235.695 143.041 230.727C145.263 226.192 154.324 169.79 155.188 164.42L141.835 159.393Z" fill="white"/>
</g>
</mask>
<g mask="url(#mask9_56_1928)">
<path opacity="0.3" d="M129.828 210.646C126.369 212.41 122.758 213.857 119.038 214.97C117.761 218.68 116.786 221.828 116.263 224.08L122.97 223.235C127.749 222.685 132.463 221.675 137.048 220.219C137.048 220.219 125.987 227.067 116.122 228.213H115.891C116.544 235.835 121.532 242.834 128.37 242.18C135.56 241.496 141.1 235.835 143.453 230.978C144.62 228.585 147.596 212.436 150.321 196.618C144.004 202.004 137.135 206.706 129.828 210.646Z" fill="black"/>
</g>
</g>
<path d="M281.578 52.2888V49.5336C281.578 49.1442 281.423 48.7708 281.148 48.4955C280.872 48.2201 280.499 48.0655 280.11 48.0655H277.988C277.665 46.6772 277.115 45.3519 276.359 44.1438L277.857 42.6354C278.132 42.3586 278.286 41.9845 278.286 41.5947C278.286 41.2048 278.132 40.8307 277.857 40.5539L275.916 38.6132C275.64 38.3387 275.266 38.1847 274.876 38.1847C274.486 38.1847 274.112 38.3387 273.835 38.6132L272.327 40.1115C271.118 39.3554 269.793 38.8049 268.405 38.4824V36.3607C268.405 35.9713 268.25 35.5979 267.975 35.3226C267.7 35.0473 267.326 34.8926 266.937 34.8926H264.182C263.792 34.8926 263.419 35.0473 263.143 35.3226C262.868 35.5979 262.713 35.9713 262.713 36.3607V38.4824C261.325 38.8049 260 39.3554 258.792 40.1115L257.283 38.6132C257.007 38.3387 256.632 38.1847 256.243 38.1847C255.853 38.1847 255.479 38.3387 255.202 38.6132L253.261 40.5539C252.987 40.8307 252.833 41.2048 252.833 41.5947C252.833 41.9845 252.987 42.3586 253.261 42.6354L254.759 44.1438C254.002 45.3503 253.455 46.6763 253.14 48.0655H251.009C250.619 48.0655 250.246 48.2201 249.971 48.4955C249.695 48.7708 249.541 49.1442 249.541 49.5336V52.2888C249.541 52.6782 249.695 53.0516 249.971 53.3269C250.246 53.6023 250.619 53.7569 251.009 53.7569H253.14C253.455 55.1461 254.002 56.472 254.759 57.6786L253.261 59.187C252.987 59.4638 252.833 59.8379 252.833 60.2277C252.833 60.6176 252.987 60.9916 253.261 61.2685L255.202 63.2092C255.479 63.4837 255.853 63.6377 256.243 63.6377C256.632 63.6377 257.007 63.4837 257.283 63.2092L258.792 61.7109C260.006 62.478 261.343 63.0324 262.744 63.35V65.4818C262.744 65.8712 262.898 66.2446 263.174 66.5199C263.449 66.7952 263.822 66.9499 264.212 66.9499H266.967C267.356 66.9499 267.73 66.7952 268.005 66.5199C268.28 66.2446 268.435 65.8712 268.435 65.4818V63.35C269.824 63.0353 271.15 62.488 272.357 61.731L273.865 63.2293C274.142 63.5038 274.516 63.6578 274.906 63.6578C275.296 63.6578 275.67 63.5038 275.947 63.2293L277.827 61.3389C278.101 61.062 278.255 60.688 278.255 60.2981C278.255 59.9083 278.101 59.5342 277.827 59.2574L276.329 57.749C277.085 56.5408 277.635 55.2156 277.958 53.8273H280.079C280.281 53.8317 280.481 53.7946 280.667 53.7183C280.854 53.642 281.023 53.5281 281.163 53.3838C281.304 53.2395 281.413 53.0678 281.484 52.8795C281.556 52.6911 281.587 52.49 281.578 52.2888ZM266.203 57.1758C264.908 57.3141 263.602 57.0474 262.465 56.4126C261.329 55.7778 260.417 54.8061 259.855 53.6313C259.293 52.4565 259.11 51.1365 259.33 49.8531C259.55 48.5698 260.163 47.3862 261.083 46.4655C262.004 45.5448 263.188 44.9322 264.471 44.7123C265.754 44.4923 267.074 44.6757 268.249 45.2372C269.424 45.7988 270.396 46.7108 271.03 47.8476C271.665 48.9845 271.932 50.2902 271.794 51.5849C271.646 53.0202 271.01 54.3612 269.992 55.3842C268.975 56.4072 267.637 57.0502 266.203 57.206V57.1758Z" fill="#6D6BAF"/>
<path d="M24.1536 172.414V170.343C24.1536 170.047 24.036 169.763 23.8267 169.554C23.6174 169.344 23.3335 169.227 23.0374 169.227H21.4084C21.1663 168.18 20.7517 167.181 20.1816 166.27L21.3179 165.144C21.4213 165.041 21.5033 164.919 21.5593 164.784C21.6153 164.65 21.6441 164.506 21.6441 164.36C21.6441 164.214 21.6153 164.07 21.5593 163.935C21.5033 163.8 21.4213 163.678 21.3179 163.575L19.8498 162.107C19.747 162.004 19.6248 161.922 19.4902 161.866C19.3556 161.81 19.2112 161.781 19.0655 161.781C18.9197 161.781 18.7753 161.81 18.6407 161.866C18.5061 161.922 18.3839 162.004 18.2811 162.107L17.1448 163.234C16.2355 162.663 15.2358 162.252 14.1885 162.017V160.408C14.1885 160.115 14.072 159.833 13.8645 159.626C13.6571 159.418 13.3757 159.302 13.0824 159.302H11.0411C10.7468 159.302 10.4644 159.418 10.2554 159.625C10.0463 159.832 9.92756 160.114 9.9249 160.408V162.017C8.87758 162.252 7.87786 162.663 6.96855 163.234L5.83227 162.107C5.72947 162.004 5.60726 161.922 5.47266 161.866C5.33805 161.81 5.19371 161.781 5.04793 161.781C4.90215 161.781 4.7578 161.81 4.62319 161.866C4.48859 161.922 4.36638 162.004 4.26358 162.107L2.80552 163.575C2.70092 163.677 2.61781 163.799 2.56106 163.934C2.50431 164.069 2.47507 164.214 2.47507 164.36C2.47507 164.506 2.50431 164.651 2.56106 164.785C2.61781 164.92 2.70092 165.042 2.80552 165.144L3.93175 166.27C3.36166 167.181 2.94707 168.18 2.70497 169.227H1.10612C0.811835 169.229 0.530514 169.348 0.32336 169.557C0.116207 169.766 -1.19421e-05 170.049 9.20384e-10 170.343V172.414C9.20384e-10 172.708 0.116536 172.989 0.323974 173.196C0.531411 173.404 0.812756 173.52 1.10612 173.52H2.70497C2.94342 174.568 3.35826 175.568 3.93175 176.477L2.80552 177.613C2.70092 177.715 2.61781 177.837 2.56106 177.972C2.50431 178.107 2.47507 178.251 2.47507 178.397C2.47507 178.544 2.50431 178.688 2.56106 178.823C2.61781 178.958 2.70092 179.08 2.80552 179.182L4.31386 180.65C4.41666 180.753 4.53887 180.835 4.67347 180.891C4.80808 180.947 4.95242 180.976 5.0982 180.976C5.24398 180.976 5.38832 180.947 5.52293 180.891C5.65754 180.835 5.77975 180.753 5.88254 180.65L7.01883 179.514C7.92765 180.087 8.92733 180.502 9.97518 180.74V182.339C9.97518 182.635 10.0928 182.919 10.3021 183.128C10.5114 183.338 10.7953 183.455 11.0914 183.455H13.1628C13.4571 183.453 13.7384 183.334 13.9456 183.125C14.1527 182.916 14.2689 182.633 14.2689 182.339V180.74C15.3168 180.502 16.3165 180.087 17.2253 179.514L18.3616 180.65C18.4644 180.753 18.5866 180.835 18.7212 180.891C18.8558 180.947 19.0001 180.976 19.1459 180.976C19.2917 180.976 19.436 180.947 19.5706 180.891C19.7052 180.835 19.8275 180.753 19.9303 180.65L21.3984 179.182C21.5017 179.079 21.5838 178.957 21.6398 178.822C21.6957 178.688 21.7245 178.543 21.7245 178.397C21.7245 178.252 21.6957 178.107 21.6398 177.973C21.5838 177.838 21.5017 177.716 21.3984 177.613L20.2621 176.477C20.8356 175.568 21.2504 174.568 21.4889 173.52H23.0877C23.3732 173.508 23.6429 173.386 23.8412 173.18C24.0395 172.974 24.1513 172.7 24.1536 172.414ZM12.5595 176.095C11.5843 176.195 10.6018 175.992 9.74712 175.512C8.89239 175.031 8.20732 174.298 7.78604 173.413C7.36477 172.528 7.22796 171.534 7.39442 170.568C7.56088 169.602 8.02243 168.711 8.71566 168.017C9.40888 167.324 10.2998 166.863 11.2659 166.696C12.232 166.53 13.226 166.667 14.1113 167.088C14.9965 167.509 15.7296 168.194 16.2098 169.049C16.6899 169.904 16.8936 170.886 16.7929 171.861C16.6809 172.946 16.1988 173.959 15.4279 174.73C14.6569 175.501 13.644 175.983 12.5595 176.095Z" fill="#6D6BAF"/>
<path d="M332.449 144.801V142.729C332.449 142.433 332.331 142.149 332.122 141.94C331.913 141.731 331.629 141.613 331.333 141.613H329.734C329.496 140.565 329.081 139.566 328.507 138.657L329.644 137.531C329.747 137.428 329.829 137.306 329.885 137.171C329.941 137.036 329.97 136.892 329.97 136.746C329.97 136.6 329.941 136.456 329.885 136.322C329.829 136.187 329.747 136.065 329.644 135.962L328.175 134.494C328.073 134.39 327.95 134.308 327.816 134.252C327.681 134.196 327.537 134.168 327.391 134.168C327.245 134.168 327.101 134.196 326.966 134.252C326.832 134.308 326.71 134.39 326.607 134.494L325.47 135.62C324.56 135.051 323.561 134.636 322.514 134.393V132.734C322.514 132.589 322.485 132.445 322.43 132.311C322.374 132.177 322.293 132.055 322.19 131.952C322.087 131.849 321.965 131.768 321.831 131.712C321.697 131.657 321.553 131.628 321.408 131.628H319.326C319.033 131.628 318.752 131.744 318.544 131.952C318.337 132.159 318.22 132.441 318.22 132.734V134.333C317.174 134.576 316.175 134.99 315.264 135.56L314.128 134.433C314.025 134.33 313.903 134.248 313.768 134.192C313.633 134.136 313.489 134.107 313.343 134.107C313.198 134.107 313.053 134.136 312.919 134.192C312.784 134.248 312.662 134.33 312.559 134.433L311.101 135.902C310.996 136.004 310.913 136.126 310.856 136.26C310.8 136.395 310.77 136.54 310.77 136.686C310.77 136.832 310.8 136.977 310.856 137.111C310.913 137.246 310.996 137.368 311.101 137.47L312.227 138.596C311.654 139.505 311.239 140.505 311 141.553H309.402C309.107 141.555 308.826 141.674 308.619 141.883C308.412 142.092 308.295 142.375 308.295 142.669V144.801C308.295 145.094 308.412 145.376 308.619 145.583C308.827 145.79 309.108 145.907 309.402 145.907H311.01C311.249 146.955 311.664 147.954 312.237 148.863L311.111 150C311.006 150.102 310.923 150.224 310.867 150.358C310.81 150.493 310.781 150.638 310.781 150.784C310.781 150.93 310.81 151.075 310.867 151.209C310.923 151.344 311.006 151.466 311.111 151.568L312.569 153.036C312.672 153.14 312.794 153.222 312.929 153.278C313.063 153.334 313.208 153.363 313.353 153.363C313.499 153.363 313.644 153.334 313.778 153.278C313.913 153.222 314.035 153.14 314.138 153.036L315.274 151.9C316.183 152.474 317.183 152.888 318.23 153.127V154.726C318.23 155.02 318.347 155.302 318.554 155.511C318.761 155.72 319.042 155.839 319.336 155.842H321.418C321.712 155.839 321.994 155.72 322.201 155.511C322.408 155.302 322.524 155.02 322.524 154.726V153.127C323.572 152.888 324.572 152.474 325.481 151.9L326.617 153.036C326.72 153.14 326.842 153.222 326.976 153.278C327.111 153.334 327.255 153.363 327.401 153.363C327.547 153.363 327.691 153.334 327.826 153.278C327.96 153.222 328.083 153.14 328.185 153.036L329.654 151.568C329.757 151.465 329.839 151.343 329.895 151.209C329.951 151.074 329.98 150.93 329.98 150.784C329.98 150.638 329.951 150.494 329.895 150.359C329.839 150.225 329.757 150.102 329.654 150L328.507 148.823C329.081 147.914 329.496 146.915 329.734 145.867H331.333C331.62 145.867 331.897 145.756 332.105 145.558C332.313 145.359 332.436 145.088 332.449 144.801ZM320.855 148.481C319.88 148.582 318.897 148.378 318.043 147.898C317.188 147.418 316.503 146.685 316.081 145.8C315.66 144.914 315.523 143.92 315.69 142.954C315.856 141.988 316.318 141.097 317.011 140.404C317.704 139.711 318.595 139.249 319.561 139.083C320.527 138.916 321.521 139.053 322.407 139.474C323.292 139.896 324.025 140.581 324.505 141.435C324.985 142.29 325.189 143.273 325.088 144.248C324.972 145.329 324.488 146.337 323.717 147.104C322.947 147.871 321.936 148.35 320.855 148.461V148.481Z" fill="#6D6BAF"/>
<path d="M162.981 9.85485V8.78895C162.981 8.71415 162.966 8.64009 162.937 8.57111C162.908 8.50213 162.866 8.43959 162.813 8.38717C162.759 8.33475 162.696 8.29348 162.627 8.26578C162.557 8.23808 162.483 8.2245 162.408 8.22584H161.594C161.467 7.68835 161.253 7.17535 160.96 6.70744L161.543 6.13427C161.649 6.02704 161.708 5.88256 161.708 5.73204C161.708 5.58152 161.649 5.43705 161.543 5.32982L160.789 4.57565C160.684 4.47065 160.541 4.4117 160.392 4.4117C160.243 4.4117 160.1 4.47065 159.995 4.57565L159.411 5.15887C158.944 4.86576 158.431 4.65173 157.893 4.52537V3.71087C157.893 3.56058 157.834 3.41629 157.729 3.30908C157.623 3.20188 157.48 3.14033 157.33 3.1377H156.264C156.114 3.14033 155.971 3.20188 155.865 3.30908C155.76 3.41629 155.701 3.56058 155.701 3.71087V4.52537C155.163 4.65049 154.65 4.8646 154.183 5.15887L153.599 4.57565C153.492 4.47002 153.348 4.41081 153.197 4.41081C153.047 4.41081 152.902 4.47002 152.795 4.57565L152.051 5.32982C151.945 5.43705 151.886 5.58152 151.886 5.73204C151.886 5.88256 151.945 6.02704 152.051 6.13427L152.624 6.70744C152.334 7.176 152.124 7.68897 152 8.22584H151.176C151.027 8.22584 150.883 8.28516 150.778 8.39077C150.672 8.49637 150.613 8.6396 150.613 8.78895V9.85485C150.613 10.0051 150.672 10.1494 150.777 10.2566C150.882 10.3638 151.026 10.4254 151.176 10.428H152C152.122 10.9623 152.333 11.4722 152.624 11.9364L152.051 12.5196C151.945 12.6268 151.886 12.7713 151.886 12.9218C151.886 13.0723 151.945 13.2168 152.051 13.324L152.795 14.0782C152.902 14.1838 153.047 14.243 153.197 14.243C153.348 14.243 153.492 14.1838 153.599 14.0782L154.183 13.495C154.648 13.7903 155.162 14.0014 155.701 14.1184V14.943C155.701 15.0923 155.76 15.2356 155.866 15.3412C155.971 15.4468 156.115 15.5061 156.264 15.5061H157.33C157.479 15.5061 157.623 15.4468 157.728 15.3412C157.834 15.2356 157.893 15.0923 157.893 14.943V14.0782C158.431 13.9592 158.945 13.7483 159.411 13.4548L159.995 14.038C160.1 14.143 160.243 14.2019 160.392 14.2019C160.541 14.2019 160.684 14.143 160.789 14.038L161.543 13.2838C161.649 13.1766 161.708 13.0321 161.708 12.8816C161.708 12.7311 161.649 12.5866 161.543 12.4794L160.96 11.8961C161.254 11.4324 161.468 10.9225 161.594 10.3878H162.408C162.553 10.3882 162.693 10.3333 162.8 10.2344C162.906 10.1354 162.971 9.99979 162.981 9.85485ZM157.048 11.7453C156.548 11.8074 156.04 11.7124 155.596 11.4734C155.152 11.2344 154.793 10.8632 154.569 10.4113C154.345 9.95929 154.266 9.44885 154.345 8.95056C154.424 8.45227 154.656 7.99077 155.008 7.62991C155.361 7.26904 155.817 7.02665 156.313 6.93627C156.809 6.84589 157.321 6.91198 157.778 7.12541C158.235 7.33885 158.615 7.68907 158.864 8.12761C159.114 8.56615 159.22 9.07134 159.17 9.57329C159.113 10.1216 158.873 10.6345 158.488 11.0289C158.102 11.4232 157.595 11.6757 157.048 11.7453Z" fill="#6D6BAF"/>
<path d="M33.6262 80.2646H26.7883V87.1025H33.6262V80.2646ZM28.176 81.6523H32.1983V85.7248H28.176V81.6523Z" fill="#6D6BAF"/>
<path d="M309.834 213.893H302.966V220.73H309.804L309.834 213.893ZM304.374 215.28H308.446V219.353H304.374V215.28Z" fill="#6D6BAF"/>
<path d="M207.247 18.0195H200.399V24.8574H207.236L207.247 18.0195ZM201.786 19.3972H205.859V23.4194H201.786V19.3972Z" fill="#6D6BAF"/>
<path d="M29.6035 189.458H22.7656V196.306H29.6035V189.458ZM24.1432 190.846H28.1655V194.868H24.1432V190.846Z" fill="#6D6BAF"/>
<path opacity="0.9" d="M229.258 65.3623C228.444 65.3603 227.648 65.5998 226.971 66.0505C226.293 66.5012 225.764 67.1429 225.451 67.8942C225.139 68.6455 225.056 69.4728 225.213 70.2712C225.371 71.0697 225.762 71.8035 226.337 72.3797C226.911 72.9558 227.644 73.3485 228.442 73.508C229.24 73.6675 230.068 73.5867 230.82 73.2757C231.572 72.9647 232.215 72.4376 232.667 71.761C233.12 71.0845 233.361 70.2889 233.361 69.4751C233.361 68.386 232.929 67.3415 232.16 66.5705C231.391 65.7995 230.347 65.365 229.258 65.3623ZM229.258 71.9387C228.771 71.9387 228.295 71.7942 227.89 71.5235C227.484 71.2528 227.169 70.868 226.982 70.4179C226.796 69.9677 226.747 69.4723 226.842 68.9944C226.937 68.5165 227.172 68.0776 227.516 67.733C227.861 67.3885 228.3 67.1538 228.778 67.0588C229.256 66.9637 229.751 67.0125 230.201 67.199C230.651 67.3854 231.036 67.7012 231.307 68.1063C231.577 68.5115 231.722 68.9878 231.722 69.4751C231.711 70.1215 231.447 70.7378 230.986 71.1912C230.525 71.6445 229.905 71.8986 229.258 71.8985V71.9387Z" fill="#6D6BAF"/>
<path d="M156.154 84.6477L146.943 71.8971C148.632 71.8918 150.251 71.2184 151.445 70.024C152.64 68.8296 153.313 67.2111 153.318 65.5219V30.8098C153.311 29.1215 152.636 27.5045 151.442 26.3106C150.249 25.1167 148.632 24.4425 146.943 24.4346H66.9004C65.2112 24.4399 63.5927 25.1133 62.3983 26.3077C61.2038 27.5021 60.5305 29.1206 60.5251 30.8098V65.5219C60.5278 67.2119 61.2003 68.8319 62.3954 70.0269C63.5904 71.2219 65.2104 71.8945 66.9004 71.8971H136.113L156.154 84.6477Z" fill="#6D6BAF"/>
<path d="M87.122 46.7483C87.122 45.9766 86.8932 45.2223 86.4645 44.5807C86.0358 43.939 85.4264 43.439 84.7135 43.1437C84.0006 42.8484 83.2161 42.7711 82.4593 42.9216C81.7024 43.0722 81.0072 43.4438 80.4616 43.9894C79.916 44.5351 79.5444 45.2303 79.3938 45.9871C79.2433 46.7439 79.3205 47.5284 79.6158 48.2413C79.9111 48.9543 80.4112 49.5636 81.0528 49.9923C81.6944 50.421 82.4488 50.6498 83.2204 50.6498C83.7328 50.6498 84.2402 50.5489 84.7135 50.3528C85.1869 50.1568 85.617 49.8694 85.9793 49.5071C86.3416 49.1448 86.629 48.7147 86.825 48.2413C87.0211 47.768 87.122 47.2606 87.122 46.7483Z" fill="#EE316B"/>
<path d="M110.14 46.7482C110.14 45.9762 109.911 45.2214 109.481 44.5796C109.052 43.9378 108.442 43.4377 107.729 43.1427C107.015 42.8477 106.23 42.771 105.473 42.9224C104.716 43.0737 104.021 43.4463 103.476 43.993C102.93 44.5396 102.56 45.2358 102.41 45.9933C102.261 46.7508 102.339 47.5356 102.636 48.2483C102.933 48.961 103.435 49.5697 104.078 49.9972C104.721 50.4247 105.476 50.6518 106.248 50.6498C106.76 50.6498 107.267 50.5488 107.74 50.3527C108.212 50.1565 108.642 49.8689 109.003 49.5065C109.365 49.1441 109.651 48.7139 109.846 48.2406C110.041 47.7673 110.141 47.2601 110.14 46.7482Z" fill="#EE316B"/>
<path d="M133.167 46.7483C133.167 45.9766 132.938 45.2223 132.51 44.5807C132.081 43.939 131.472 43.439 130.759 43.1437C130.046 42.8484 129.261 42.7711 128.504 42.9216C127.748 43.0722 127.052 43.4438 126.507 43.9894C125.961 44.5351 125.59 45.2303 125.439 45.9871C125.288 46.7439 125.366 47.5284 125.661 48.2413C125.956 48.9543 126.456 49.5636 127.098 49.9923C127.74 50.421 128.494 50.6498 129.266 50.6498C129.778 50.6498 130.285 50.5489 130.759 50.3528C131.232 50.1568 131.662 49.8694 132.024 49.5071C132.387 49.1448 132.674 48.7147 132.87 48.2413C133.066 47.768 133.167 47.2606 133.167 46.7483Z" fill="#EE316B"/>
</svg>
