<svg width="162" height="164" viewBox="0 0 162 164" fill="none" xmlns="http://www.w3.org/2000/svg">
<path d="M25.3471 43.4738H139.429C140.26 43.4738 141.057 43.8038 141.644 44.3912C142.232 44.9786 142.562 45.7754 142.562 46.6061V125.94H22.2147V46.611C22.2141 46.1992 22.2946 45.7914 22.4517 45.4108C22.6089 45.0302 22.8395 44.6843 23.1304 44.3929C23.4213 44.1015 23.7669 43.8704 24.1472 43.7127C24.5276 43.5549 24.9353 43.4738 25.3471 43.4738Z" fill="#0A5CFF"/>
<path d="M142.81 126.185H21.9702V46.6124C21.9702 45.7165 22.3257 44.8572 22.9588 44.2233C23.5918 43.5893 24.4506 43.2325 25.3465 43.2312H139.429C140.325 43.2325 141.184 43.5891 141.818 44.223C142.452 44.8568 142.809 45.716 142.81 46.6124V126.185ZM22.4581 125.697H142.322V46.6124C142.321 45.8454 142.016 45.1103 141.473 44.568C140.931 44.0256 140.196 43.7204 139.429 43.7191H25.3465C24.58 43.7204 23.8453 44.0258 23.3038 44.5683C22.7622 45.1107 22.4581 45.8459 22.4581 46.6124V125.697Z" fill="#0A5CFF"/>
<path d="M157.038 163.754H7.73844C6.08932 163.754 4.69878 161.388 5.43064 159.91L22.2146 127.303H142.567L159.438 159.797C160.175 161.271 158.711 163.754 157.038 163.754Z" fill="#0A5CFF"/>
<path d="M157.038 163.998H7.73813C7.27563 163.969 6.8282 163.822 6.43807 163.572C6.04795 163.322 5.72799 162.976 5.50839 162.568C5.23158 162.169 5.05854 161.707 5.00487 161.224C4.95121 160.741 5.01862 160.252 5.20101 159.802L22.0533 127.058H142.713L142.781 127.185L159.653 159.685C159.834 160.145 159.898 160.644 159.838 161.135C159.779 161.627 159.597 162.096 159.311 162.5C159.086 162.918 158.76 163.274 158.363 163.536C157.967 163.797 157.511 163.956 157.038 163.998ZM22.3753 127.546L5.64501 160.031C5.50054 160.407 5.45122 160.812 5.50145 161.211C5.55168 161.611 5.69989 161.991 5.93287 162.319C6.11042 162.654 6.36843 162.938 6.68361 163.148C6.99879 163.357 7.36121 163.485 7.73813 163.52H157.038C157.428 163.478 157.802 163.34 158.126 163.119C158.451 162.897 158.715 162.599 158.897 162.251C159.137 161.917 159.292 161.53 159.348 161.123C159.404 160.715 159.36 160.3 159.219 159.914L142.415 127.546H22.3753Z" fill="#0A5CFF"/>
<path d="M157.038 162.392H7.73815C7.3603 162.392 6.98865 162.296 6.65837 162.112C6.32809 161.929 6.05012 161.664 5.85079 161.343C5.65145 161.022 5.53734 160.655 5.51927 160.278C5.50119 159.901 5.57974 159.525 5.74749 159.186L22.2143 125.94H142.566L159.028 159.186C159.196 159.525 159.275 159.901 159.256 160.278C159.238 160.655 159.124 161.022 158.925 161.343C158.726 161.664 158.448 161.929 158.117 162.112C157.787 162.296 157.415 162.392 157.038 162.392Z" fill="white"/>
<path d="M157.038 162.637H7.7387C7.31774 162.641 6.90286 162.536 6.53364 162.334C6.16441 162.132 5.85316 161.839 5.62956 161.482C5.40596 161.125 5.27748 160.717 5.25637 160.297C5.23525 159.876 5.32222 159.457 5.50896 159.08L21.9758 125.834C21.995 125.792 22.026 125.757 22.065 125.733C22.1041 125.709 22.1494 125.696 22.1954 125.698H142.567C142.612 125.697 142.657 125.709 142.695 125.733C142.733 125.758 142.763 125.793 142.782 125.834L159.248 159.08C159.434 159.456 159.521 159.873 159.501 160.292C159.481 160.711 159.354 161.117 159.133 161.474C158.912 161.83 158.603 162.123 158.236 162.327C157.87 162.531 157.457 162.637 157.038 162.637ZM22.3759 126.186L5.9676 159.295C5.81809 159.596 5.74799 159.931 5.76393 160.267C5.77987 160.603 5.88132 160.929 6.05869 161.215C6.23605 161.501 6.48345 161.737 6.77745 161.9C7.07144 162.064 7.40231 162.149 7.7387 162.149H157.038C157.375 162.149 157.705 162.064 157.999 161.9C158.293 161.737 158.541 161.501 158.718 161.215C158.896 160.929 158.997 160.603 159.013 160.267C159.029 159.931 158.959 159.596 158.809 159.295L142.416 126.186H22.3759Z" fill="#0A5CFF"/>
<path d="M135.277 50.0033H29.5032V119.408H135.277V50.0033Z" fill="white"/>
<path d="M135.516 119.652H29.2596V49.7644H135.516V119.652ZM29.7476 119.164H135.028V50.2523H29.7476V119.164Z" fill="#0A5CFF"/>
<path d="M132.915 81.6346H32.2505V116.91H132.915V81.6346Z" fill="#B5CDFF"/>
<path opacity="0.46" d="M45.1166 102.849V101.971C45.1166 101.842 45.0652 101.718 44.9737 101.626C44.8822 101.535 44.7581 101.483 44.6287 101.483H43.9554C43.853 101.036 43.6765 100.609 43.4333 100.22L43.9212 99.7317C44.0063 99.6412 44.0536 99.5217 44.0536 99.3975C44.0536 99.2733 44.0063 99.1538 43.9212 99.0633L43.2918 98.4339C43.2011 98.3474 43.0805 98.2991 42.9552 98.2991C42.8298 98.2991 42.7092 98.3474 42.6185 98.4339L42.1306 98.9218C41.7401 98.6777 41.3112 98.5012 40.862 98.3997V97.7118C40.862 97.5824 40.8106 97.4583 40.7191 97.3668C40.6276 97.2753 40.5035 97.2239 40.3741 97.2239H39.4861C39.3567 97.2239 39.2326 97.2753 39.1411 97.3668C39.0496 97.4583 38.9982 97.5824 38.9982 97.7118V98.3997C38.5509 98.5021 38.1237 98.6786 37.7346 98.9218L37.2466 98.4339C37.1562 98.3488 37.0366 98.3014 36.9124 98.3014C36.7882 98.3014 36.6687 98.3488 36.5782 98.4339L35.9732 99.0438C35.8881 99.1343 35.8408 99.2538 35.8408 99.378C35.8408 99.5022 35.8881 99.6217 35.9732 99.7122L36.4611 100.2C36.2179 100.589 36.0414 101.016 35.9391 101.464H35.2706C35.1412 101.464 35.0171 101.515 34.9256 101.607C34.8341 101.698 34.7827 101.822 34.7827 101.952V102.84C34.7827 102.969 34.8341 103.093 34.9256 103.185C35.0171 103.276 35.1412 103.328 35.2706 103.328H35.9586C36.0601 103.777 36.2366 104.206 36.4806 104.596L35.9927 105.084C35.9076 105.175 35.8603 105.294 35.8603 105.418C35.8603 105.542 35.9076 105.662 35.9927 105.752L36.6221 106.382C36.7126 106.467 36.8321 106.514 36.9563 106.514C37.0805 106.514 37.2001 106.467 37.2906 106.382L37.7785 105.894C38.1677 106.137 38.5948 106.314 39.0421 106.416V107.104C39.0421 107.233 39.0935 107.357 39.185 107.449C39.2765 107.54 39.4006 107.592 39.53 107.592H40.418C40.5474 107.592 40.6715 107.54 40.763 107.449C40.8545 107.357 40.9059 107.233 40.9059 107.104V106.416C41.3551 106.315 41.784 106.138 42.1745 105.894L42.6624 106.382C42.7531 106.468 42.8737 106.517 42.9991 106.517C43.1244 106.517 43.245 106.468 43.3357 106.382L43.9651 105.752C44.0502 105.662 44.0976 105.542 44.0976 105.418C44.0976 105.294 44.0502 105.175 43.9651 105.084L43.4772 104.596C43.7213 104.206 43.8978 103.777 43.9993 103.328H44.6872C44.8046 103.313 44.9128 103.257 44.9917 103.169C45.0707 103.081 45.1151 102.968 45.1166 102.849ZM40.1497 104.411C39.7329 104.453 39.3133 104.365 38.9485 104.159C38.5836 103.954 38.2913 103.64 38.1117 103.262C37.9321 102.883 37.8739 102.458 37.9453 102.046C38.0166 101.633 38.2139 101.252 38.5101 100.956C38.8063 100.66 39.1869 100.463 39.5997 100.391C40.0124 100.32 40.4372 100.378 40.8156 100.558C41.194 100.737 41.5076 101.03 41.7133 101.394C41.9191 101.759 42.0069 102.179 41.9647 102.596C41.9176 103.061 41.7113 103.496 41.3805 103.827C41.0498 104.157 40.615 104.364 40.1497 104.411Z" fill="white"/>
<path opacity="0.46" d="M53.4945 109.068V108.18C53.4945 108.051 53.4431 107.927 53.3516 107.835C53.2601 107.744 53.136 107.692 53.0066 107.692H52.3479C52.2447 107.243 52.0665 106.814 51.8209 106.424L52.3089 105.936C52.3954 105.845 52.4436 105.725 52.4436 105.599C52.4436 105.474 52.3954 105.353 52.3089 105.263L51.6795 104.633C51.5887 104.547 51.4682 104.498 51.3428 104.498C51.2174 104.498 51.0969 104.547 51.0061 104.633L50.5182 105.121C50.1273 104.878 49.6986 104.701 49.2497 104.599V103.921C49.2497 103.791 49.1983 103.667 49.1068 103.576C49.0153 103.484 48.8912 103.433 48.7618 103.433H47.8689C47.7395 103.433 47.6154 103.484 47.5239 103.576C47.4324 103.667 47.381 103.791 47.381 103.921V104.609C46.9321 104.711 46.5034 104.888 46.1124 105.131L45.6245 104.643C45.5338 104.556 45.4132 104.508 45.2879 104.508C45.1625 104.508 45.042 104.556 44.9512 104.643L44.3218 105.272C44.2353 105.363 44.1871 105.484 44.1871 105.609C44.1871 105.734 44.2353 105.855 44.3218 105.946L44.8097 106.434C44.5621 106.823 44.3838 107.252 44.2828 107.702H43.5997C43.4703 107.702 43.3462 107.754 43.2547 107.845C43.1632 107.937 43.1118 108.061 43.1118 108.19V109.078C43.1118 109.207 43.1632 109.332 43.2547 109.423C43.3462 109.515 43.4703 109.566 43.5997 109.566H44.2828C44.3839 110.015 44.5622 110.442 44.8097 110.83L44.3218 111.318C44.2353 111.408 44.1871 111.529 44.1871 111.654C44.1871 111.78 44.2353 111.9 44.3218 111.991L44.9512 112.615C45.042 112.702 45.1625 112.75 45.2879 112.75C45.4132 112.75 45.5338 112.702 45.6245 112.615L46.1124 112.127C46.5034 112.371 46.9321 112.547 47.381 112.65V113.337C47.381 113.467 47.4324 113.591 47.5239 113.682C47.6154 113.774 47.7395 113.825 47.8689 113.825H48.7618C48.8912 113.825 49.0153 113.774 49.1068 113.682C49.1983 113.591 49.2497 113.467 49.2497 113.337V112.65C49.6986 112.547 50.1273 112.371 50.5182 112.127L51.0061 112.615C51.0969 112.702 51.2174 112.75 51.3428 112.75C51.4682 112.75 51.5887 112.702 51.6795 112.615L52.3089 111.991C52.3954 111.9 52.4436 111.78 52.4436 111.654C52.4436 111.529 52.3954 111.408 52.3089 111.318L51.8209 110.83C52.0665 110.441 52.2447 110.014 52.3479 109.566H53.031C53.1578 109.56 53.2772 109.504 53.3637 109.411C53.4503 109.318 53.4972 109.195 53.4945 109.068ZM48.5276 110.649C48.1096 110.692 47.6884 110.605 47.3221 110.399C46.9557 110.193 46.6621 109.879 46.4816 109.499C46.301 109.12 46.2424 108.694 46.3137 108.28C46.3851 107.866 46.583 107.484 46.8801 107.187C47.1773 106.889 47.5591 106.692 47.9733 106.62C48.3874 106.549 48.8134 106.608 49.1929 106.788C49.5724 106.969 49.8866 107.262 50.0925 107.629C50.2984 107.995 50.3857 108.416 50.3426 108.834C50.2946 109.299 50.088 109.733 49.7574 110.064C49.4269 110.395 48.9926 110.601 48.5276 110.649Z" fill="white"/>
<path d="M54.4457 85.0291H36.198C36.1423 85.0291 36.089 85.007 36.0496 84.9676C36.0103 84.9283 35.9882 84.8749 35.9882 84.8193C35.9881 84.7632 36.0101 84.7093 36.0493 84.6692C36.0885 84.6291 36.1419 84.6059 36.198 84.6046H54.4457C54.5026 84.6046 54.5572 84.6272 54.5975 84.6675C54.6377 84.7078 54.6603 84.7624 54.6603 84.8193C54.6591 84.8754 54.6359 84.9287 54.5958 84.9679C54.5557 85.0072 54.5018 85.0291 54.4457 85.0291Z" fill="#0A5CFF"/>
<path d="M54.4457 87.6656H36.198C36.1419 87.6643 36.0885 87.6411 36.0493 87.601C36.0101 87.5609 35.9881 87.507 35.9882 87.4509C35.9882 87.3952 36.0103 87.3419 36.0496 87.3025C36.089 87.2632 36.1423 87.2411 36.198 87.2411H54.4457C54.5018 87.2411 54.5557 87.263 54.5958 87.3022C54.6359 87.3414 54.6591 87.3948 54.6603 87.4509C54.6603 87.5078 54.6377 87.5624 54.5975 87.6027C54.5572 87.6429 54.5026 87.6656 54.4457 87.6656Z" fill="#0A5CFF"/>
<path d="M54.4457 90.2943H36.198C36.1423 90.2943 36.089 90.2722 36.0496 90.2329C36.0103 90.1936 35.9882 90.1402 35.9882 90.0846C35.9881 90.0285 36.0101 89.9746 36.0493 89.9344C36.0885 89.8943 36.1419 89.8711 36.198 89.8699H54.4457C54.5026 89.8699 54.5572 89.8925 54.5975 89.9328C54.6377 89.973 54.6603 90.0276 54.6603 90.0846C54.6591 90.1406 54.6359 90.194 54.5958 90.2332C54.5557 90.2724 54.5018 90.2944 54.4457 90.2943Z" fill="#0A5CFF"/>
<path d="M54.4457 92.9289H36.198C36.1419 92.9276 36.0885 92.9044 36.0493 92.8643C36.0101 92.8242 35.9881 92.7703 35.9882 92.7142C35.9882 92.6585 36.0103 92.6052 36.0496 92.5658C36.089 92.5265 36.1423 92.5044 36.198 92.5044H54.4457C54.5018 92.5044 54.5557 92.5263 54.5958 92.5655C54.6359 92.6047 54.6591 92.6581 54.6603 92.7142C54.6603 92.7711 54.6377 92.8257 54.5975 92.866C54.5572 92.9063 54.5026 92.9289 54.4457 92.9289Z" fill="#0A5CFF"/>
<path d="M130.983 53.2765H34.1827C33.1156 53.2765 32.2505 54.1415 32.2505 55.2086V55.4282C32.2505 56.4952 33.1156 57.3603 34.1827 57.3603H130.983C132.05 57.3603 132.915 56.4952 132.915 55.4282V55.2086C132.915 54.1415 132.05 53.2765 130.983 53.2765Z" fill="#B5CDFF"/>
<path d="M130.983 66.7429H34.1827C33.1156 66.7429 32.2505 67.608 32.2505 68.675V68.8946C32.2505 69.9617 33.1156 70.8267 34.1827 70.8267H130.983C132.05 70.8267 132.915 69.9617 132.915 68.8946V68.675C132.915 67.608 132.05 66.7429 130.983 66.7429Z" fill="#B5CDFF"/>
<path d="M77.3673 137.479L77.5771 133.034H71.2196L70.7952 137.479H77.3673Z" fill="#0A5CFF"/>
<path d="M77.6016 137.723H70.527L71.0149 132.79H77.8456L77.6016 137.723ZM71.0637 137.235H77.1332L77.3235 133.278H71.4394L71.0637 137.235Z" fill="white"/>
<path d="M90.5116 137.479L90.2969 133.034H83.9346L83.9395 137.479H90.5116Z" fill="#0A5CFF"/>
<path d="M90.7704 137.723H83.6958V132.79H90.5265L90.7704 137.723ZM84.1837 137.235H90.2533L90.063 133.278H84.1788L84.1837 137.235Z" fill="white"/>
<path d="M124.738 142.228H131.54L129.944 137.481H123.372L124.738 142.228Z" fill="#0A5CFF"/>
<path d="M131.876 142.466H124.558L123.045 137.231H130.12L131.876 142.466ZM124.923 141.978H131.198L129.768 137.719H123.694L124.923 141.978Z" fill="white"/>
<path d="M70.7952 137.479L71.2197 133.034H64.8574L64.2231 137.479H70.7952Z" fill="#0A5CFF"/>
<path d="M71.02 137.723H63.9454L64.648 132.79H71.4787L71.02 137.723ZM64.5065 137.235H70.576L70.9517 133.278H65.0968L64.5065 137.235Z" fill="white"/>
<path d="M57.651 137.479L58.4999 133.034H52.1376L51.0789 137.479H57.651Z" fill="#0A5CFF"/>
<path d="M57.8562 137.723H50.7718L51.9476 132.79H58.7783L57.8562 137.723ZM51.3914 137.235H57.4512L58.2026 133.278H52.3477L51.3914 137.235Z" fill="white"/>
<path d="M116.8 137.479L115.731 133.034H109.374L110.228 137.479H116.8Z" fill="#0A5CFF"/>
<path d="M117.107 137.723H110.023L109.076 132.79H115.907L117.107 137.723ZM110.428 137.235H116.488L115.541 133.278H109.686L110.428 137.235Z" fill="white"/>
<path d="M123.372 137.479L122.089 133.034H115.732L116.8 137.479H123.372Z" fill="#0A5CFF"/>
<path d="M123.694 137.723H116.605L115.424 132.79H122.255L123.694 137.723ZM116.99 137.235H123.045L121.908 133.278H116.053L116.99 137.235Z" fill="white"/>
<path d="M51.0789 137.479L52.1376 133.034H45.7802L44.5068 137.479H51.0789Z" fill="#0A5CFF"/>
<path d="M51.2739 137.723H44.1846L45.5946 132.79H52.4497L51.2739 137.723ZM44.8335 137.235H50.8835L51.8252 133.278H45.9703L44.8335 137.235Z" fill="white"/>
<path d="M97.0841 137.479L96.6547 133.034H90.2973L90.512 137.479H97.0841Z" fill="#0A5CFF"/>
<path d="M97.3523 137.723H90.2776L90.0386 132.79H96.8693L97.3523 137.723ZM90.746 137.235H96.8156L96.435 133.278H90.5509L90.746 137.235Z" fill="white"/>
<path d="M129.944 137.479L128.451 133.034H122.089L123.372 137.479H129.944Z" fill="#0A5CFF"/>
<path d="M130.281 137.723H123.186L121.767 132.79H128.627L130.281 137.723ZM123.552 137.235H129.602L128.275 133.278H122.42L123.552 137.235Z" fill="white"/>
<path d="M110.228 137.479L109.375 133.034H103.012L103.656 137.479H110.228Z" fill="#0A5CFF"/>
<path d="M110.521 137.723H103.446L102.734 132.79H109.564L110.521 137.723ZM103.866 137.235H109.92L109.159 133.278H103.304L103.866 137.235Z" fill="white"/>
<path d="M103.656 137.479L103.012 133.034H96.6543L97.0837 137.479H103.656Z" fill="#0A5CFF"/>
<path d="M103.939 137.723H96.8645L96.3766 132.79H103.207L103.939 137.723ZM97.3036 137.235H103.373L102.802 133.278H96.923L97.3036 137.235Z" fill="white"/>
<path d="M83.9394 137.479L83.9345 133.034H77.5771L77.3672 137.479H83.9394Z" fill="#0A5CFF"/>
<path d="M84.1831 137.723H77.1133L77.3426 132.79H84.1733L84.1831 137.723ZM77.6256 137.235H83.6951V133.278H77.811L77.6256 137.235Z" fill="white"/>
<path d="M37.9396 137.481H31.3675L29.5525 142.228H36.349L37.9396 137.481Z" fill="#0A5CFF"/>
<path d="M36.5252 142.466H29.2066L31.207 137.231H38.2865L36.5252 142.466ZM29.9043 141.978H36.1739L37.5986 137.719H31.5339L29.9043 141.978Z" fill="white"/>
<path d="M39.4226 133.034H33.0603L31.3673 137.479H37.9394L39.4226 133.034Z" fill="#0A5CFF"/>
<path d="M38.11 137.723H31.011L32.8943 132.79H39.7591L38.11 137.723ZM31.7184 137.235H37.7587L39.081 133.278H33.2261L31.7184 137.235Z" fill="white"/>
<path d="M44.5066 137.479L45.78 133.034H39.4226L37.9394 137.479H44.5066Z" fill="#0A5CFF"/>
<path d="M44.6924 137.723H37.5983L39.2474 132.79H46.0781L44.6924 137.723ZM38.2765 137.235H44.3265L45.4584 133.278H39.6036L38.2765 137.235Z" fill="white"/>
<path d="M27.6056 147.316L25.5173 152.785H32.8213L34.6509 147.316H27.6056Z" fill="#0A5CFF"/>
<path d="M32.9968 153.029H25.161L27.4639 147.071H35.0118L32.9968 153.029ZM25.8685 152.541H32.6455L34.2946 147.559H27.7762L25.8685 152.541Z" fill="white"/>
<path d="M36.3493 142.227H29.5527L27.606 147.316H34.6514L36.3493 142.227Z" fill="#0A5CFF"/>
<path d="M34.8269 147.56H27.2497L29.3818 141.979H36.7004L34.8269 147.56ZM27.962 147.072H34.4756L36.0125 142.471H29.7185L27.962 147.072Z" fill="white"/>
<path d="M34.6516 147.316L32.822 152.785H40.1259L41.6921 147.316H34.6516Z" fill="#0A5CFF"/>
<path d="M40.311 153.029H32.5045L34.4952 147.071H42.0333L40.311 153.029ZM33.1583 152.541H39.9402L41.3698 147.559H34.8269L33.1583 152.541Z" fill="white"/>
<path d="M64.223 137.479L64.8573 133.034H58.4999L57.6509 137.479H64.223Z" fill="#0A5CFF"/>
<path d="M64.4377 137.723H57.3582L58.2949 132.79H65.1256L64.4377 137.723ZM57.9485 137.235H64.0132L64.5743 133.278H58.6901L57.9485 137.235Z" fill="white"/>
<path d="M63.5453 142.228L64.2235 137.481H57.6514L56.7488 142.228H63.5453Z" fill="#0A5CFF"/>
<path d="M63.7594 142.466H56.4408L57.441 137.231H64.4961L63.7594 142.466ZM57.0409 141.978H63.3349L63.9448 137.719H57.8557L57.0409 141.978Z" fill="white"/>
<path d="M56.7487 142.228L57.6514 137.481H51.0793L49.9473 142.228H56.7487Z" fill="#0A5CFF"/>
<path d="M56.9485 142.467H49.6299L50.8838 137.236H57.9438L56.9485 142.467ZM50.2593 141.979H56.5435L57.3583 137.719H51.2741L50.2593 141.979Z" fill="white"/>
<path d="M70.346 142.228L70.7948 137.481H64.2227L63.5446 142.228H70.346Z" fill="#0A5CFF"/>
<path d="M70.5655 142.466H63.2469L63.9934 137.231H71.0437L70.5655 142.466ZM63.8276 141.978H70.1216L70.5265 137.719H64.4374L63.8276 141.978Z" fill="white"/>
<path d="M44.507 137.481H37.9398L36.3492 142.228H43.1506L44.507 137.481Z" fill="#0A5CFF"/>
<path d="M43.3304 142.466H36.0118L37.7585 137.231H44.8332L43.3304 142.466ZM36.69 141.978H42.9645L44.1843 137.719H38.1098L36.69 141.978Z" fill="white"/>
<path d="M126.207 147.316H133.248L131.54 142.227H124.739L126.207 147.316Z" fill="#0A5CFF"/>
<path d="M133.589 147.56H126.022L124.416 141.979H131.735L133.589 147.56ZM126.387 147.072H132.911L131.389 142.466H125.046L126.387 147.072Z" fill="white"/>
<path d="M49.9472 142.228L51.0791 137.481H44.507L43.1506 142.228H49.9472Z" fill="#0A5CFF"/>
<path d="M50.1423 142.466H42.8237L44.3264 137.231H51.3718L50.1423 142.466ZM43.4726 141.978H49.7568L50.7717 137.719H44.6924L43.4726 141.978Z" fill="white"/>
<path d="M36.3489 142.227L34.651 147.316H41.6915L43.1503 142.227H36.3489Z" fill="#0A5CFF"/>
<path d="M41.8767 147.56H34.2947L36.1731 141.979H43.4917L41.8767 147.56ZM34.9875 147.072H41.5059L42.8233 142.471H36.5244L34.9875 147.072Z" fill="white"/>
<path d="M111.14 142.228L110.228 137.481H103.656L104.344 142.228H111.14Z" fill="#0A5CFF"/>
<path d="M111.438 142.466H104.119L103.363 137.231H110.408L111.438 142.466ZM104.553 141.978H110.847L110.023 137.719H103.939L104.553 141.978Z" fill="white"/>
<path d="M104.344 142.228L103.656 137.481H97.0836L97.5422 142.228H104.344Z" fill="#0A5CFF"/>
<path d="M104.622 142.466H97.3033L96.8154 137.231H103.866L104.622 142.466ZM97.7619 141.978H104.066L103.451 137.719H97.3521L97.7619 141.978Z" fill="white"/>
<path d="M124.738 142.228L123.372 137.481H116.8L117.942 142.228H124.738Z" fill="#0A5CFF"/>
<path d="M125.046 142.466H117.727L116.468 137.231H123.533L125.046 142.466ZM118.112 141.978H124.397L123.167 137.719H117.107L118.112 141.978Z" fill="white"/>
<path d="M83.9441 142.228L83.9392 137.481H77.3671L77.1426 142.228H83.9441Z" fill="#0A5CFF"/>
<path d="M84.1884 142.466H76.8698L77.1137 137.231H84.164L84.1884 142.466ZM77.4016 141.978H83.7004V137.719H77.6016L77.4016 141.978Z" fill="white"/>
<path d="M97.5422 142.228L97.0836 137.481H90.5115L90.7408 142.228H97.5422Z" fill="#0A5CFF"/>
<path d="M97.811 142.466H90.4924L90.2338 137.231H97.284L97.811 142.466ZM90.9803 141.978H97.2791L96.8693 137.719H90.7705L90.9803 141.978Z" fill="white"/>
<path d="M90.7408 142.228L90.5114 137.481H83.9393L83.9442 142.228H90.7408Z" fill="#0A5CFF"/>
<path d="M90.9993 142.467H83.6807V137.236H90.7456L90.9993 142.467ZM84.1686 141.979H90.4674L90.2577 137.719H84.1832L84.1686 141.979Z" fill="white"/>
<path d="M77.1435 142.228L77.3679 137.481H70.7958L70.3469 142.228H77.1435Z" fill="#0A5CFF"/>
<path d="M77.3774 142.466H70.0588L70.5467 137.231H77.597L77.3774 142.466ZM70.6151 141.978H76.9139L77.114 137.719H71.02L70.6151 141.978Z" fill="white"/>
<path d="M97.5422 142.227L98.035 147.316H105.076L104.344 142.227H97.5422Z" fill="#0A5CFF"/>
<path d="M105.359 147.56H97.8107L97.274 141.979H104.554L105.359 147.56ZM98.2547 147.072H104.798L104.129 142.466H97.8107L98.2547 147.072Z" fill="white"/>
<path d="M104.344 142.227L105.076 147.316H112.121L111.14 142.227H104.344Z" fill="#0A5CFF"/>
<path d="M112.413 147.56H104.865L104.065 141.979H111.345L112.413 147.56ZM105.29 147.072H111.823L110.94 142.466H104.621L105.29 147.072Z" fill="white"/>
<path d="M43.151 142.227L41.6922 147.316H48.7327L49.9476 142.227H43.151Z" fill="#0A5CFF"/>
<path d="M48.9325 147.56H41.37L42.9655 141.979H50.2597L48.9325 147.56ZM42.0189 147.072H48.5422L49.64 142.471H43.3314L42.0189 147.072Z" fill="white"/>
<path d="M111.14 142.227L112.121 147.316H119.162L117.942 142.227H111.14Z" fill="#0A5CFF"/>
<path d="M119.474 147.56H111.921L110.848 141.979H118.132L119.474 147.56ZM112.321 147.072H118.854L117.727 142.466H111.438L112.321 147.072Z" fill="white"/>
<path d="M83.9441 142.227L83.949 147.316H90.9895L90.7406 142.227H83.9441Z" fill="#0A5CFF"/>
<path d="M91.2483 147.56H83.7053V141.979H90.9799L91.2483 147.56ZM84.1932 147.072H90.736L90.5116 142.471H84.1688L84.1932 147.072Z" fill="white"/>
<path d="M117.942 142.227L119.162 147.316H126.207L124.738 142.227H117.942Z" fill="#0A5CFF"/>
<path d="M126.509 147.56H118.971L117.629 141.979H124.923L126.509 147.56ZM119.337 147.072H125.86L124.557 142.466H118.249L119.337 147.072Z" fill="white"/>
<path d="M90.7408 142.227L90.9896 147.316H98.035L97.5422 142.227H90.7408Z" fill="#0A5CFF"/>
<path d="M98.3031 147.56H90.76L90.4868 141.979H97.7615L98.3031 147.56ZM91.2235 147.072H97.7664L97.3224 142.471H90.9796L91.2235 147.072Z" fill="white"/>
<path d="M56.7483 142.227L55.7774 147.316H62.8228L63.5449 142.227H56.7483Z" fill="#0A5CFF"/>
<path d="M63.0325 147.56H55.4846L56.5433 141.979H63.8278L63.0325 147.56ZM56.0701 147.072H62.5934L63.252 142.471H56.9483L56.0701 147.072Z" fill="white"/>
<path d="M49.9464 142.227L48.7315 147.316H55.7769L56.7478 142.227H49.9464Z" fill="#0A5CFF"/>
<path d="M55.9776 147.56H48.4443L49.7568 141.979H57.0413L55.9776 147.56ZM49.0445 147.072H55.5775L56.4509 142.471H50.1422L49.0445 147.072Z" fill="white"/>
<path d="M77.1428 142.227L76.9086 147.316H83.9491L83.9442 142.227H77.1428Z" fill="#0A5CFF"/>
<path d="M84.1929 147.561H76.6499L76.9134 141.984H84.1881L84.1929 147.561ZM77.1622 147.073H83.705V142.467H77.3622L77.1622 147.073Z" fill="white"/>
<path d="M70.3466 142.227L69.8636 147.316H76.909L77.1432 142.227H70.3466Z" fill="#0A5CFF"/>
<path d="M77.1375 147.56H69.5945L70.1214 141.979H77.401L77.1375 147.56ZM70.1312 147.072H76.674L76.8887 142.471H70.5459L70.1312 147.072Z" fill="white"/>
<path d="M63.5455 142.227L62.8234 147.316H69.8639L70.3469 142.227H63.5455Z" fill="#0A5CFF"/>
<path d="M70.083 147.56H62.54L63.3353 141.979H70.6148L70.083 147.56ZM63.1011 147.072H69.639L70.0781 142.471H63.7353L63.1011 147.072Z" fill="white"/>
<path d="M117.942 142.228L116.8 137.481H110.228L111.14 142.228H117.942Z" fill="#0A5CFF"/>
<path d="M118.249 142.467H110.931L109.921 137.236H116.981L118.249 142.467ZM111.341 141.979H117.63L116.605 137.719H110.521L111.341 141.979Z" fill="white"/>
<path d="M39.4231 133.035L40.9405 128.488H34.7977L33.0608 133.035H39.4231Z" fill="#0A5CFF"/>
<path d="M39.5985 133.278H32.7092L34.6316 128.243H41.2818L39.5985 133.278ZM33.4167 132.79H39.2716L40.628 128.731H34.9682L33.4167 132.79Z" fill="white"/>
<path d="M33.061 133.034H27.1915L25.2984 137.479H31.368L33.061 133.034Z" fill="#0A5CFF"/>
<path d="M31.533 137.723H24.9317L27.0297 132.79H33.4164L31.533 137.723ZM25.6782 137.235H31.2062L32.7187 133.278H27.3517L25.6782 137.235Z" fill="white"/>
<path d="M34.7974 128.488H29.1279L27.1909 133.035H33.0604L34.7974 128.488Z" fill="#0A5CFF"/>
<path d="M33.2313 133.278H26.8251L28.967 128.243H35.1537L33.2313 133.278ZM27.5618 132.79H32.8947L34.4462 128.731H29.2939L27.5618 132.79Z" fill="white"/>
<path d="M31.3676 137.481H25.298L23.2732 142.228H29.5526L31.3676 137.481Z" fill="#0A5CFF"/>
<path d="M29.7182 142.466H22.8875L25.1173 137.231H31.6991L29.7182 142.466ZM23.6438 141.978H29.3816L31.0112 137.719H25.4588L23.6438 141.978Z" fill="white"/>
<path d="M29.5525 142.227H23.2732L21.1069 147.316H27.6058L29.5525 142.227Z" fill="#0A5CFF"/>
<path d="M27.7768 147.56H20.7363L23.1124 141.979H29.9041L27.7768 147.56ZM21.4731 147.072H27.4646L29.221 142.471H23.4345L21.4731 147.072Z" fill="white"/>
<path d="M27.6057 147.316H21.1068L18.7746 152.785H25.5175L27.6057 147.316Z" fill="#0A5CFF"/>
<path d="M25.6837 153.029H18.4041L20.9461 147.071H27.9524L25.6837 153.029ZM19.1457 152.541H25.347L27.2499 147.559H21.2681L19.1457 152.541Z" fill="white"/>
<path d="M136.516 137.481L138.336 142.228H144.352L142.327 137.481H136.516Z" fill="#0A5CFF"/>
<path d="M144.723 142.466H138.17L136.16 137.231H142.503L144.723 142.466ZM138.507 141.978H143.981L142.166 137.719H136.867L138.507 141.978Z" fill="white"/>
<path d="M140.292 147.316H146.523L144.352 142.227H138.336L140.292 147.316Z" fill="#0A5CFF"/>
<path d="M146.889 147.56H140.122L137.985 141.979H144.513L146.889 147.56ZM140.459 147.072H146.153L144.201 142.471H138.707L140.459 147.072Z" fill="white"/>
<path d="M142.391 152.785H148.85L146.523 147.316H140.293L142.391 152.785Z" fill="#0A5CFF"/>
<path d="M149.221 153.029H142.225L139.936 147.071H146.684L149.221 153.029ZM142.556 152.541H148.465L146.342 147.559H140.658L142.556 152.541Z" fill="white"/>
<path d="M90.2971 133.035L90.0726 128.488H83.9299L83.9348 133.035H90.2971Z" fill="#0A5CFF"/>
<path d="M90.551 133.278H83.691V128.243H90.307L90.551 133.278ZM84.1789 132.79H90.0338L89.8338 128.731H84.1741L84.1789 132.79Z" fill="white"/>
<path d="M136.516 137.479H142.327L140.434 133.034H134.808L136.516 137.479Z" fill="#0A5CFF"/>
<path d="M142.697 137.723H136.355L134.462 132.79H140.604L142.697 137.723ZM136.682 137.235H141.956L140.273 133.278H135.164L136.682 137.235Z" fill="white"/>
<path d="M133.247 147.316H140.292L138.336 142.227H131.539L133.247 147.316Z" fill="#0A5CFF"/>
<path d="M140.658 147.56H133.071L131.198 141.979H138.516L140.658 147.56ZM133.432 147.072H139.946L138.17 142.466H131.876L133.432 147.072Z" fill="white"/>
<path d="M45.7799 133.035L47.0826 128.488H40.9399L39.4225 133.035H45.7799Z" fill="#0A5CFF"/>
<path d="M45.9657 133.278H39.0814L40.7646 128.243H47.405L45.9657 133.278ZM39.7595 132.79H45.6144L46.7805 128.731H41.1257L39.7595 132.79Z" fill="white"/>
<path d="M128.451 133.034L129.944 137.479H136.517L134.809 133.034H128.451Z" fill="#0A5CFF"/>
<path d="M136.867 137.723H129.768L128.109 132.79H134.974L136.867 137.723ZM130.12 137.235H136.16L134.642 133.278H128.788L130.12 137.235Z" fill="white"/>
<path d="M140.434 133.035L138.497 128.488H133.062L134.809 133.035H140.434Z" fill="#0A5CFF"/>
<path d="M140.805 133.278H134.643L132.691 128.243H138.658L140.805 133.278ZM134.975 132.79H140.064L138.336 128.731H133.418L134.975 132.79Z" fill="white"/>
<path d="M134.808 133.035L133.062 128.488H126.924L128.451 133.035H134.808Z" fill="#0A5CFF"/>
<path d="M135.165 133.278H128.276L126.583 128.243H133.233L135.165 133.278ZM128.627 132.79H134.453L132.896 128.731H127.261L128.627 132.79Z" fill="white"/>
<path d="M112.121 147.316L113.175 152.785H120.479L119.162 147.316H112.121Z" fill="#0A5CFF"/>
<path d="M120.786 153.029H112.98L111.833 147.071H119.366L120.786 153.029ZM113.375 152.541H120.167L118.971 147.559H112.414L113.375 152.541Z" fill="white"/>
<path d="M135.087 152.785H142.391L140.293 147.316H133.248L135.087 152.785Z" fill="#0A5CFF"/>
<path d="M142.747 153.029H134.912L132.911 147.071H140.459L142.747 153.029ZM135.263 152.541H142.035L140.122 147.559H133.589L135.263 152.541Z" fill="white"/>
<path d="M128.451 133.035L126.924 128.488H120.781L122.089 133.035H128.451Z" fill="#0A5CFF"/>
<path d="M128.788 133.278H121.908L120.445 128.243H127.09L128.788 133.278ZM122.274 132.79H128.129L126.768 128.731H121.103L122.274 132.79Z" fill="white"/>
<path d="M126.206 147.316L127.782 152.785H135.086L133.247 147.316H126.206Z" fill="#0A5CFF"/>
<path d="M135.423 153.029H127.617L125.899 147.071H133.442L135.423 153.029ZM127.963 152.541H134.745L133.072 147.559H126.509L127.963 152.541Z" fill="white"/>
<path d="M119.161 147.316L120.479 152.785H127.783L126.207 147.316H119.161Z" fill="#0A5CFF"/>
<path d="M128.105 153.029H120.298L118.869 147.071H126.402L128.105 153.029ZM120.669 152.541H127.456L126.021 147.559H119.474L120.669 152.541Z" fill="white"/>
<path d="M131.54 142.228H138.336L136.516 137.481H129.944L131.54 142.228Z" fill="#0A5CFF"/>
<path d="M138.708 142.466H131.389L129.628 137.231H136.707L138.708 142.466ZM131.73 141.978H138L136.361 137.719H130.281L131.73 141.978Z" fill="white"/>
<path d="M71.2194 133.035L71.6487 128.488H65.506L64.8571 133.035H71.2194Z" fill="#0A5CFF"/>
<path d="M71.4395 133.278H64.5746L65.2967 128.243H71.9176L71.4395 133.278ZM65.1406 132.79H70.9955L71.3809 128.731H65.7212L65.1406 132.79Z" fill="white"/>
<path d="M122.089 133.035L120.781 128.488H114.638L115.731 133.035H122.089Z" fill="#0A5CFF"/>
<path d="M122.415 133.278H115.541L114.311 128.243H120.942L122.415 133.278ZM115.921 132.79H121.776L120.605 128.731H114.95L115.921 132.79Z" fill="white"/>
<path d="M64.8575 133.035L65.5064 128.488H59.3637L58.5001 133.035H64.8575Z" fill="#0A5CFF"/>
<path d="M65.0722 133.278H58.2025L59.1783 128.243H65.8041L65.0722 133.278ZM58.7929 132.79H64.6478L65.2284 128.731H59.5687L58.7929 132.79Z" fill="white"/>
<path d="M83.9351 133.035L83.9302 128.488H77.7923L77.5776 133.035H83.9351Z" fill="#0A5CFF"/>
<path d="M84.1788 133.278H77.3237L77.5579 128.243H84.1739L84.1788 133.278ZM77.836 132.79H83.6909V128.731H78.0214L77.836 132.79Z" fill="white"/>
<path d="M58.4997 133.035L59.3633 128.488H53.2254L52.1374 133.035H58.4997Z" fill="#0A5CFF"/>
<path d="M58.6904 133.278H51.8304L53.0306 128.243H59.6662L58.6904 133.278ZM52.4403 132.79H58.2951L59.0709 128.731H53.4161L52.4403 132.79Z" fill="white"/>
<path d="M52.1379 133.035L53.2259 128.488H47.0832L45.7805 133.035H52.1379Z" fill="#0A5CFF"/>
<path d="M52.3475 133.278H45.4583L46.922 128.243H53.5575L52.3475 133.278ZM46.1169 132.79H51.9718L52.9476 128.731H47.2684L46.1169 132.79Z" fill="white"/>
<path d="M77.5772 133.035L77.7918 128.488H71.6491L71.2197 133.035H77.5772Z" fill="#0A5CFF"/>
<path d="M77.8115 133.278H70.9515L71.4394 128.243H78.0603L77.8115 133.278ZM71.4687 132.79H77.3236L77.5139 128.731H71.8639L71.4687 132.79Z" fill="white"/>
<path d="M115.731 133.035L114.638 128.488H108.495L109.374 133.035H115.731Z" fill="#0A5CFF"/>
<path d="M116.039 133.278H109.169L108.193 128.243H114.824L116.039 133.278ZM109.574 132.79H115.429L114.453 128.731H108.793L109.574 132.79Z" fill="white"/>
<path d="M109.374 133.035L108.496 128.488H102.358L103.012 133.035H109.374Z" fill="#0A5CFF"/>
<path d="M109.667 133.278H102.802L102.075 128.243H108.701L109.667 133.278ZM103.226 132.79H109.081L108.301 128.731H102.641L103.226 132.79Z" fill="white"/>
<path d="M96.6545 133.035L96.2154 128.488H90.0727L90.2971 133.035H96.6545Z" fill="#0A5CFF"/>
<path d="M96.9226 133.278H90.0627L89.8187 128.243H96.4347L96.9226 133.278ZM90.5262 132.79H96.3811L95.9859 128.731H90.3262L90.5262 132.79Z" fill="white"/>
<path d="M112.121 147.316H105.076H98.0353H90.99H83.9495H76.909H69.8636H62.8231H55.7777H48.7323H41.6919L40.1257 152.785H47.4296H54.7336H62.0424H69.3464H76.6504H83.9543H91.2583H98.5623H105.866H113.175L112.121 147.316Z" fill="#0A5CFF"/>
<path d="M113.468 153.029H39.794L41.4968 147.071H112.321L113.468 153.029ZM40.4478 152.541H112.878L111.902 147.559H41.8774L40.4478 152.541Z" fill="white"/>
<path d="M103.012 133.035L102.358 128.488H96.2155L96.6546 133.035H103.012Z" fill="#0A5CFF"/>
<path d="M103.294 133.278H96.4343L95.9464 128.243H102.567L103.294 133.278ZM96.8734 132.79H102.728L102.138 128.731H96.4782L96.8734 132.79Z" fill="white"/>
<mask id="mask0_22_4177" style="mask-type:luminance" maskUnits="userSpaceOnUse" x="40" y="30" width="87" height="90">
<path d="M126.476 30.2942H40.478V119.162H126.476V30.2942Z" fill="white"/>
</mask>
<g mask="url(#mask0_22_4177)">
<path d="M91.9268 89.8613C99.1134 89.8613 104.939 82.4451 104.939 73.2969C104.939 64.1486 99.1134 56.7324 91.9268 56.7324C84.7402 56.7324 78.9144 64.1486 78.9144 73.2969C78.9144 82.4451 84.7402 89.8613 91.9268 89.8613Z" fill="#0A5CFF"/>
<path d="M91.9274 90.0998C84.6088 90.0998 78.6661 82.5616 78.6661 73.2963C78.6661 64.031 84.6137 56.4879 91.9274 56.4879C99.2412 56.4879 105.184 64.0261 105.184 73.2963C105.184 82.5665 99.2363 90.0998 91.9274 90.0998ZM91.9274 56.9758C84.8821 56.9758 79.154 64.2944 79.154 73.2963C79.154 82.2982 84.8821 89.6119 91.9274 89.6119C98.9728 89.6119 104.696 82.2933 104.696 73.2963C104.696 64.2993 98.9679 56.9758 91.9274 56.9758Z" fill="#0A5CFF"/>
<path d="M62.594 115.48C61.3987 115.48 60.0423 114.421 59.3202 113.767C58.3053 112.845 57.2563 111.552 57.2563 110.976C57.2563 110.152 67.0145 80.7262 68.1415 77.384C68.1542 77.345 68.1764 77.3098 68.2063 77.2817C68.2361 77.2535 68.2726 77.2333 68.3123 77.223C68.3513 77.2132 68.392 77.2129 68.4311 77.2223C68.4702 77.2316 68.5065 77.2503 68.5367 77.2767L72.2302 80.6481C72.259 80.6743 72.2811 80.7071 72.2947 80.7436C72.3083 80.7801 72.313 80.8193 72.3083 80.8579L68.6685 112.826C68.6641 112.863 68.6512 112.898 68.6309 112.929C68.6106 112.961 68.5834 112.987 68.5514 113.006C68.4001 113.099 64.8384 115.265 62.7843 115.47L62.594 115.48ZM68.488 77.911C65.4142 87.1812 57.8272 110.113 57.754 111.006C57.754 111.284 58.4956 112.372 59.6568 113.421C60.8181 114.47 61.9744 115.075 62.7453 115.002C64.5066 114.826 67.6244 113.026 68.205 112.669L71.8204 80.9555L68.488 77.911Z" fill="#0A5CFF"/>
<path d="M89.9414 73.1409L68.3564 77.4589L71.8108 119.985H113.907L119.518 75.7317L93.8251 72.9263L89.9414 73.1409Z" fill="#B5CDFF"/>
<path d="M113.908 120.228H71.811C71.75 120.228 71.6913 120.205 71.6469 120.163C71.6025 120.122 71.5756 120.065 71.5719 120.004L68.1127 77.4779C68.1079 77.4184 68.1251 77.3592 68.1611 77.3115C68.1971 77.2639 68.2493 77.231 68.3078 77.2193L89.9172 72.9013L93.8205 72.6818L119.548 75.4921C119.612 75.4991 119.672 75.5305 119.714 75.5799C119.734 75.6061 119.748 75.6359 119.757 75.6677C119.765 75.6996 119.767 75.7327 119.762 75.7653L114.152 120.023C114.142 120.081 114.112 120.134 114.068 120.171C114.023 120.209 113.966 120.229 113.908 120.228ZM72.0403 119.74H113.693L119.245 75.9507L93.8205 73.1843L89.9904 73.399L68.6347 77.673L72.0403 119.74Z" fill="#0A5CFF"/>
<mask id="mask1_22_4177" style="mask-type:luminance" maskUnits="userSpaceOnUse" x="68" y="72" width="52" height="48">
<mask id="mask2_22_4177" style="mask-type:luminance" maskUnits="userSpaceOnUse" x="68" y="72" width="52" height="48">
<path d="M89.9416 73.1462L68.3566 77.4642L71.811 119.99H113.908L119.519 75.737L93.8254 72.9315L89.9416 73.1462Z" fill="white"/>
</mask>
<g mask="url(#mask2_22_4177)">
<path d="M113.907 120.234H71.8103C71.7493 120.234 71.6906 120.211 71.6462 120.169C71.6017 120.128 71.5749 120.071 71.5712 120.01L68.1119 77.4837C68.1072 77.4242 68.1244 77.365 68.1604 77.3174C68.1963 77.2697 68.2485 77.2369 68.3071 77.2252L89.9165 72.9072L93.8197 72.6876L119.547 75.498C119.612 75.505 119.671 75.5364 119.713 75.5858C119.733 75.6119 119.748 75.6418 119.756 75.6736C119.764 75.7054 119.766 75.7386 119.762 75.7712L114.151 120.029C114.141 120.087 114.112 120.139 114.067 120.177C114.022 120.215 113.965 120.235 113.907 120.234ZM72.0396 119.746H113.692L119.245 75.9566L93.8197 73.1902L89.9897 73.4048L68.634 77.6789L72.0396 119.746Z" fill="white"/>
</g>
</mask>
<g mask="url(#mask1_22_4177)">
<path opacity="0.3" d="M71.8099 119.987H113.907L114.965 111.658L114.887 111.253L104.729 113.468L109.159 94.8206L84.7833 105.53L78.8748 111.439H82.5683L71.6977 118.591L71.8099 119.987Z" fill="#014EE9"/>
</g>
<path d="M87.6486 70.7437C87.6486 70.7437 84.1454 72.6612 83.2574 74.3835C82.3694 76.1058 78.6955 88.8987 78.6955 88.8987L84.7407 90.1966L78.9151 93.002L87.7315 118.256L101.764 117.392L110.897 90.8406L105.282 88.4694L110.248 86.3079C110.248 86.3079 105.501 77.2426 102.93 73.3589C100.359 69.4752 87.6486 70.7437 87.6486 70.7437Z" fill="#B5CDFF"/>
<path d="M87.7507 118.5C87.7005 118.5 87.6516 118.484 87.6106 118.455C87.5696 118.426 87.5384 118.386 87.5214 118.339L78.6951 93.0796C78.6763 93.023 78.6787 92.9616 78.7021 92.9067C78.7255 92.8519 78.7681 92.8075 78.822 92.782L84.0084 90.2839L78.6415 89.1373C78.6085 89.1302 78.5773 89.1167 78.5497 89.0974C78.522 89.0781 78.4985 89.0535 78.4804 89.0251C78.4633 88.9959 78.4523 88.9636 78.4482 88.93C78.444 88.8965 78.4466 88.8624 78.456 88.8299C78.6073 88.3079 82.1739 76.0029 83.0375 74.2757C83.9011 72.5485 87.3603 70.6115 87.5067 70.5285C87.5352 70.513 87.567 70.5046 87.5994 70.5041C88.1215 70.4505 100.431 69.26 103.071 73.2218C105.642 77.0714 110.39 86.1074 110.424 86.1952C110.438 86.2258 110.445 86.2591 110.445 86.2928C110.445 86.3265 110.438 86.3599 110.424 86.3904C110.414 86.4223 110.397 86.4516 110.374 86.4761C110.351 86.5005 110.323 86.5196 110.292 86.5319L105.847 88.4835L110.936 90.6352C110.993 90.66 111.039 90.7054 111.064 90.7623C111.089 90.8192 111.092 90.8835 111.073 90.9426L101.973 117.494C101.957 117.539 101.928 117.579 101.89 117.607C101.852 117.636 101.806 117.653 101.758 117.655L87.7263 118.519L87.7507 118.5ZM79.2318 93.1284L87.9214 118.012L101.583 117.172L110.555 90.9865L105.154 88.7031C105.11 88.6848 105.072 88.6537 105.045 88.6137C105.018 88.5738 105.003 88.5268 105.003 88.4786C105.004 88.4312 105.018 88.3848 105.043 88.345C105.069 88.3053 105.106 88.2737 105.149 88.2542L109.877 86.2001C109.116 84.7364 104.998 76.9884 102.671 73.5145C100.27 69.9138 88.5655 70.9286 87.7019 71.0067C87.3018 71.2311 84.2475 72.9583 83.4766 74.5196C82.7057 76.0809 79.5294 86.9417 79.0025 88.7421L84.794 89.9814C84.8436 89.9922 84.8886 90.0182 84.9227 90.0558C84.9568 90.0934 84.9783 90.1408 84.9842 90.1912C84.9889 90.2415 84.9783 90.2922 84.954 90.3365C84.9297 90.3808 84.8926 90.4169 84.8476 90.44L79.2318 93.1284Z" fill="#0A5CFF"/>
<path d="M87.1018 120.418L86.9213 75.9502L98.5774 74.8671L101.998 119.984L87.1018 120.418Z" fill="white"/>
<path d="M87.1023 120.662C87.0388 120.661 86.9779 120.637 86.9315 120.594C86.8857 120.547 86.8595 120.484 86.8583 120.418L86.6778 75.9503C86.6764 75.8893 86.6983 75.83 86.7391 75.7847C86.7799 75.7393 86.8365 75.7113 86.8974 75.7063L98.5535 74.6476C98.5856 74.6429 98.6185 74.6453 98.6496 74.6546C98.6808 74.6638 98.7096 74.6798 98.734 74.7013C98.7845 74.7445 98.816 74.8058 98.8218 74.872L102.237 119.989C102.239 120.022 102.234 120.054 102.223 120.085C102.213 120.116 102.196 120.145 102.174 120.169C102.152 120.194 102.125 120.214 102.094 120.227C102.064 120.241 102.031 120.247 101.998 120.247L87.1072 120.682L87.1023 120.662ZM87.1657 76.1699L87.3462 120.164L101.735 119.75L98.3534 75.1355L87.1657 76.1699Z" fill="#0A5CFF"/>
<path d="M85.1946 64.2892C85.1946 64.2892 86.7023 72.7105 86.9218 74.867C87.1414 77.0235 92.7133 92.3585 94.3819 89.8555C96.2018 87.1281 98.3632 78.5409 98.7731 76.5942C99.1829 74.6474 99.2073 66.2359 99.2073 66.2359C99.2073 66.2359 93.611 70.1197 85.1946 64.2892Z" fill="white"/>
<path d="M93.9426 90.3778C93.8801 90.3765 93.8179 90.3684 93.7572 90.3534C91.464 89.7825 86.8875 76.975 86.6777 74.8916C86.4679 72.8083 84.97 64.4211 84.9505 64.3333C84.9416 64.2856 84.9471 64.2363 84.9664 64.1918C84.9857 64.1472 85.0178 64.1094 85.0586 64.0833C85.0995 64.0571 85.1473 64.0436 85.1958 64.0447C85.2443 64.0458 85.2914 64.0614 85.331 64.0894C93.5181 69.7588 99.0315 66.0703 99.0851 66.041C99.1235 66.0182 99.1673 66.0062 99.212 66.0062C99.2566 66.0062 99.3004 66.0182 99.3388 66.041C99.3783 66.0626 99.4113 66.0944 99.4344 66.1329C99.4576 66.1715 99.4701 66.2156 99.4706 66.2606C99.4706 66.6021 99.4706 74.7257 99.0315 76.6725C98.5436 78.79 96.4309 87.2503 94.5866 90.0167C94.5184 90.1263 94.4236 90.2168 94.311 90.28C94.1984 90.3431 94.0717 90.3767 93.9426 90.3778ZM85.5262 64.8164C85.8677 66.768 86.9899 73.0034 87.1509 74.8428C87.3607 76.9457 91.9861 89.4117 93.8645 89.8801C93.9524 89.8801 94.0548 89.8801 94.1719 89.724C95.9528 87.0454 98.1093 78.5021 98.5631 76.5505C98.929 74.9063 98.9827 68.3927 98.9876 66.6655C97.5824 67.3827 92.5082 69.3978 85.5262 64.8164Z" fill="#0A5CFF"/>
<mask id="mask3_22_4177" style="mask-type:luminance" maskUnits="userSpaceOnUse" x="85" y="64" width="15" height="27">
<mask id="mask4_22_4177" style="mask-type:luminance" maskUnits="userSpaceOnUse" x="85" y="64" width="15" height="27">
<path d="M85.1915 64.293C85.1915 64.293 86.6991 72.7142 86.9186 74.8708C87.1382 77.0273 92.7101 92.3622 94.3787 89.8593C96.1986 87.1319 98.3601 78.5447 98.7699 76.598C99.1797 74.6512 99.2041 66.2397 99.2041 66.2397C99.2041 66.2397 93.6079 70.1235 85.1915 64.293Z" fill="white"/>
</mask>
<g mask="url(#mask4_22_4177)">
<path d="M93.94 90.3806C93.8775 90.3793 93.8153 90.3712 93.7546 90.3562C91.4614 89.7853 86.8848 76.9778 86.675 74.8944C86.4652 72.8111 84.9674 64.424 84.9479 64.3361C84.939 64.2884 84.9445 64.2391 84.9638 64.1946C84.983 64.15 85.0152 64.1123 85.056 64.0861C85.0969 64.0599 85.1446 64.0465 85.1932 64.0475C85.2417 64.0486 85.2888 64.0642 85.3284 64.0922C93.5155 69.7617 99.0288 66.0731 99.0825 66.0438C99.1209 66.021 99.1647 66.009 99.2094 66.009C99.254 66.009 99.2978 66.021 99.3362 66.0438C99.3757 66.0654 99.4087 66.0972 99.4318 66.1357C99.455 66.1743 99.4674 66.2184 99.4679 66.2634C99.4679 66.6049 99.468 74.7285 99.0288 76.6753C98.5409 78.7928 96.4283 87.2531 94.584 90.0195C94.5158 90.1291 94.421 90.2197 94.3084 90.2828C94.1958 90.3459 94.069 90.3795 93.94 90.3806ZM85.5236 64.8192C85.8651 66.7708 86.9873 73.0062 87.1483 74.8456C87.3581 76.9485 91.9835 89.4145 93.8619 89.8829C93.9497 89.8829 94.0522 89.8829 94.1693 89.7268C95.9501 87.0482 98.1067 78.5049 98.5604 76.5533C98.9264 74.9091 98.98 68.3955 98.9849 66.6683C97.5798 67.3855 92.5055 69.4006 85.5236 64.8192Z" fill="white"/>
</g>
</mask>
<g mask="url(#mask3_22_4177)">
<path d="M99.1369 71.8315C99.2248 69.0699 99.2248 66.2352 99.2248 66.2352C99.2248 66.2352 93.609 70.1385 85.1926 64.2836C85.1926 64.2836 85.8122 67.7526 86.3147 70.8069C87.4662 72.2706 89.6569 74.5979 92.3599 75.0322C95.1361 75.481 97.3805 74.0076 99.1369 71.8315Z" fill="#B5CDFF"/>
<path opacity="0.5" d="M99.1369 71.8315C99.2248 69.0699 99.2248 66.2352 99.2248 66.2352C99.2248 66.2352 93.609 70.1385 85.1926 64.2836C85.1926 64.2836 85.8122 67.7526 86.3147 70.8069C87.4662 72.2706 89.6569 74.5979 92.3599 75.0322C95.1361 75.481 97.3805 74.0076 99.1369 71.8315Z" fill="white"/>
</g>
<path d="M103.759 55.8733C103.759 55.8733 106.13 52.8483 106.13 56.3027C106.13 59.757 103.759 60.2059 103.759 60.2059V55.8733Z" fill="white"/>
<path d="M103.759 60.4347C103.702 60.4355 103.646 60.4146 103.603 60.3761C103.575 60.3544 103.552 60.3263 103.537 60.2941C103.521 60.2618 103.514 60.2264 103.515 60.1907V55.8728C103.514 55.8183 103.531 55.7651 103.564 55.7215C103.774 55.458 104.847 54.1602 105.667 54.4432C106.155 54.6091 106.374 55.219 106.374 56.3021C106.374 59.9175 103.827 60.4249 103.803 60.4298L103.759 60.4347ZM104.003 55.9557V59.859C104.593 59.6248 105.886 58.8197 105.886 56.3021C105.886 55.1604 105.623 54.9457 105.511 54.9067C105.15 54.7847 104.423 55.4434 104.003 55.9557Z" fill="#0A5CFF"/>
<path d="M80.2269 48.7489C80.2269 48.7489 83.0324 61.4686 83.0324 63.2104C83.0324 66.8746 89.9411 70.9828 92.9613 71.8464C95.9814 72.7099 103.324 66.0159 103.759 64.2887C104.193 62.5615 104.403 47.451 103.539 44.4309C102.676 41.4107 97.7233 39.464 94.4738 39.464C91.2243 39.464 81.7394 41.1912 80.2269 48.7489Z" fill="white"/>
<path d="M93.5567 72.1697C93.334 72.1719 93.1122 72.1423 92.898 72.0818C89.9705 71.2426 82.7886 67.0954 82.7886 63.2117C82.7886 61.5187 80.0172 48.9307 79.988 48.8038C79.9831 48.7698 79.9831 48.7353 79.988 48.7013C81.5346 40.9631 91.2098 39.2213 94.4739 39.2213C97.738 39.2213 102.866 41.1729 103.773 44.3638C104.681 47.5548 104.417 62.6555 103.993 64.368C103.676 65.6415 100.119 69.1593 96.9183 71.0084C95.562 71.7744 94.4349 72.1697 93.5567 72.1697ZM80.4759 48.7501C80.6954 49.7503 83.2765 61.5089 83.2765 63.2166C83.2765 66.71 90.0535 70.7645 93.0346 71.6183C93.8396 71.8476 95.0984 71.4866 96.6793 70.5742C99.8506 68.7445 103.261 65.2853 103.51 64.2314C103.915 62.6067 104.159 47.5157 103.295 44.5005C102.461 41.573 97.5087 39.7092 94.4642 39.7092C91.3172 39.7092 81.9933 41.373 80.4759 48.7453V48.7501Z" fill="#0A5CFF"/>
<mask id="mask5_22_4177" style="mask-type:luminance" maskUnits="userSpaceOnUse" x="80" y="39" width="25" height="33">
<mask id="mask6_22_4177" style="mask-type:luminance" maskUnits="userSpaceOnUse" x="80" y="39" width="25" height="33">
<path d="M80.2249 48.7487C80.2249 48.7487 83.0304 61.4685 83.0304 63.2103C83.0304 66.8745 89.9391 70.9826 92.9593 71.8462C95.9794 72.7098 103.322 66.0158 103.757 64.2886C104.191 62.5614 104.401 47.4509 103.537 44.4308C102.674 41.4106 97.7212 39.4639 94.4718 39.4639C91.2223 39.4639 81.7374 41.1911 80.2249 48.7487Z" fill="white"/>
</mask>
<g mask="url(#mask6_22_4177)">
<path d="M93.5551 72.1677C93.3325 72.1699 93.1107 72.1404 92.8964 72.0799C89.969 71.2407 82.787 67.0935 82.787 63.2097C82.787 61.5167 80.0157 48.9287 79.9864 48.8018C79.9816 48.7679 79.9816 48.7334 79.9864 48.6994C81.5331 40.9612 91.2083 39.2194 94.4724 39.2194C97.7365 39.2194 102.864 41.171 103.772 44.3619C104.679 47.5528 104.416 62.6535 103.991 64.3661C103.674 65.6395 100.117 69.1573 96.9168 71.0065C95.5604 71.7725 94.4334 72.1677 93.5551 72.1677ZM80.4743 48.7482C80.6939 49.7484 83.2749 61.5069 83.2749 63.2146C83.2749 66.708 90.052 70.7625 93.0331 71.6164C93.8381 71.8457 95.0969 71.4846 96.6777 70.5722C99.8491 68.7426 103.26 65.2833 103.508 64.2295C103.913 62.6047 104.157 47.5138 103.294 44.4985C102.459 41.5711 97.5072 39.7073 94.4626 39.7073C91.3156 39.7073 81.9917 41.371 80.4743 48.7433V48.7482Z" fill="white"/>
</g>
</mask>
<g mask="url(#mask5_22_4177)">
<path d="M94.4728 39.4639C91.2379 39.4639 81.7384 41.1911 80.2259 48.7341C80.2259 48.7341 81.9043 56.3454 82.6654 60.6C82.6654 58.6484 83.007 54.911 85.105 53.2814C88.0031 51.0273 92.8383 50.7004 95.5754 49.4123C98.3126 48.1242 98.9566 44.743 98.9566 44.743C98.9566 44.743 99.1176 50.7004 100.42 52.1543C101.723 53.6083 103.001 54.5939 103.162 57.1456C103.323 59.6974 103.806 62.2979 102.518 64.3959C101.23 66.4939 95.9121 70.5142 93.497 71.3193C93.1261 71.4462 92.7651 71.5535 92.4236 71.656C92.6138 71.7243 92.7993 71.7877 92.97 71.8365C95.995 72.7001 103.333 66.006 103.767 64.2788C104.202 62.5516 104.411 47.4411 103.548 44.421C102.684 41.4009 97.7222 39.4639 94.4728 39.4639Z" fill="#B5CDFF"/>
<path d="M89.9894 70.5682C88.8135 69.3826 85.5982 66.0989 84.1345 64.4059C83.7116 63.9236 83.3328 63.4043 83.0026 62.8544C83.0026 62.9959 83.0026 63.1227 83.0026 63.2105C83.0318 65.9184 86.7985 68.8654 89.9894 70.5682Z" fill="#B5CDFF"/>
<g opacity="0.5">
<path d="M94.4723 39.4639C91.2375 39.4639 81.7379 41.1911 80.2254 48.7341C80.2254 48.7341 81.9038 56.3454 82.6649 60.6C82.6649 58.6484 83.0065 54.911 85.1045 53.2814C88.0026 51.0273 92.8378 50.7004 95.575 49.4123C98.3121 48.1242 98.9561 44.743 98.9561 44.743C98.9561 44.743 99.1171 50.7004 100.42 52.1543C101.723 53.6083 103.001 54.5939 103.162 57.1456C103.323 59.6974 103.806 62.2979 102.518 64.3959C101.23 66.4939 95.9116 70.5143 93.4965 71.3193C93.1257 71.4462 92.7646 71.5535 92.4231 71.656C92.6134 71.7243 92.7988 71.7877 92.9695 71.8365C95.9946 72.7001 103.333 66.006 103.767 64.2788C104.201 62.5516 104.411 47.4411 103.547 44.421C102.684 41.4009 97.7217 39.4639 94.4723 39.4639Z" fill="white"/>
<path d="M89.9889 70.5681C88.813 69.3824 85.5977 66.0988 84.134 64.4058C83.7111 63.9235 83.3323 63.4042 83.0021 62.8542C83.0021 62.9957 83.0021 63.1226 83.0021 63.2104C83.0313 65.9183 86.798 68.8653 89.9889 70.5681Z" fill="white"/>
</g>
</g>
<path d="M91.4047 56.5612C91.4047 57.1662 91.1364 57.6541 90.7997 57.6541C90.463 57.6541 90.1898 57.1662 90.1898 56.5612C90.1898 55.9562 90.463 55.4683 90.7997 55.4683C91.1364 55.4683 91.4047 55.9562 91.4047 56.5612Z" fill="#0A5CFF"/>
<path d="M98.5143 56.5612C98.5143 57.1662 98.241 57.6541 97.9044 57.6541C97.5677 57.6541 97.2945 57.1662 97.2945 56.5612C97.2945 55.9562 97.5677 55.4683 97.9044 55.4683C98.241 55.4683 98.5143 55.9562 98.5143 56.5612Z" fill="#0A5CFF"/>
<path d="M95.2104 61.1813C95.1614 61.1821 95.1133 61.1674 95.0731 61.1394C95.0328 61.1114 95.0024 61.0715 94.986 61.0252C94.9617 60.9657 94.9619 60.8989 94.9866 60.8395C95.0113 60.7802 95.0584 60.7329 95.1177 60.7081C96.0936 60.3275 97.4694 59.5761 97.5573 59.1077C97.5963 58.9272 97.5231 58.8638 96.9035 58.7272C96.4532 58.6658 96.0291 58.4799 95.6788 58.1905C94.9518 57.4635 95.5471 55.4241 95.6203 55.1947C95.639 55.13 95.6827 55.0754 95.7418 55.043C95.771 55.0269 95.8031 55.0167 95.8362 55.013C95.8694 55.0093 95.9029 55.0122 95.935 55.0215C95.967 55.0308 95.9969 55.0463 96.0229 55.0672C96.049 55.088 96.0707 55.1138 96.0868 55.143C96.1028 55.1722 96.113 55.2043 96.1167 55.2375C96.1204 55.2706 96.1175 55.3042 96.1082 55.3362C95.874 56.0974 95.6496 57.4537 96.0448 57.849C96.3302 58.064 96.6663 58.2018 97.0206 58.249C97.5085 58.3612 98.1867 58.5125 98.0452 59.2248C97.8695 60.1226 95.7325 61.0155 95.308 61.1765C95.2762 61.1852 95.2429 61.1869 95.2104 61.1813Z" fill="#0A5CFF"/>
<path d="M93.0496 64.43C92.5487 64.4593 92.0487 64.3593 91.5976 64.1398C91.1465 63.9202 90.7594 63.5884 90.4734 63.1761C90.4553 63.1497 90.4426 63.1199 90.4363 63.0885C90.4299 63.0571 90.4299 63.0247 90.4362 62.9933C90.4426 62.9619 90.4552 62.9321 90.4733 62.9057C90.4915 62.8792 90.5147 62.8567 90.5417 62.8395C90.5955 62.8042 90.661 62.7915 90.7241 62.8043C90.7871 62.8171 90.8426 62.8543 90.8784 62.9078C92.0493 64.6691 94.7816 63.6347 94.7816 63.625C94.8418 63.601 94.909 63.602 94.9685 63.6276C95.028 63.6532 95.0748 63.7014 95.0988 63.7616C95.1227 63.8218 95.1218 63.889 95.0961 63.9485C95.0705 64.0079 95.0223 64.0548 94.9621 64.0787C94.3483 64.3004 93.7021 64.4191 93.0496 64.43Z" fill="#0A5CFF"/>
<path d="M88.5708 54.8624C88.5417 54.8671 88.5121 54.8671 88.483 54.8624C88.4527 54.8511 88.425 54.8338 88.4015 54.8117C88.378 54.7895 88.3591 54.7629 88.3459 54.7334C88.3328 54.7039 88.3256 54.6721 88.3248 54.6398C88.3241 54.6075 88.3297 54.5754 88.3415 54.5453C88.5943 53.948 89.0604 53.4662 89.6491 53.1938C90.0098 53.054 90.3951 52.9888 90.7817 53.0022C91.1683 53.0156 91.5482 53.1074 91.8983 53.2719C91.9585 53.2958 92.0067 53.3427 92.0323 53.4021C92.0579 53.4616 92.0589 53.5288 92.0349 53.589C92.011 53.6492 91.9641 53.6974 91.9047 53.723C91.8452 53.7486 91.778 53.7496 91.7178 53.7256C91.4276 53.5854 91.112 53.5054 90.79 53.4903C90.468 53.4752 90.1463 53.5254 89.8442 53.6378C89.3762 53.8616 89.0039 54.2459 88.7952 54.7209C88.7765 54.7645 88.7451 54.8013 88.705 54.8265C88.6649 54.8518 88.6181 54.8643 88.5708 54.8624Z" fill="#0A5CFF"/>
<path d="M98.9967 54.0618C98.9594 54.0614 98.9226 54.0529 98.8889 54.0369C98.8553 54.0209 98.8254 53.9978 98.8015 53.9691C98.3136 53.3593 97.8696 53.0616 97.4305 53.0812C97.2183 53.1172 97.0161 53.1975 96.8371 53.3169C96.658 53.4362 96.5061 53.592 96.3912 53.774C96.3562 53.8281 96.3015 53.8664 96.2387 53.881C96.1759 53.8956 96.1099 53.8852 96.0546 53.8521C96.0268 53.8356 96.0027 53.8137 95.9836 53.7876C95.9645 53.7615 95.9509 53.7319 95.9436 53.7004C95.9363 53.6689 95.9355 53.6363 95.9411 53.6045C95.9468 53.5727 95.9588 53.5424 95.9765 53.5154C96.1316 53.2664 96.3397 53.0547 96.586 52.8953C96.8322 52.7359 97.1106 52.6328 97.4012 52.5933C98.0257 52.5591 98.6161 52.925 99.187 53.6715C99.2263 53.7227 99.2438 53.7873 99.2355 53.8514C99.2273 53.9154 99.1941 53.9735 99.1431 54.0131C99.101 54.0451 99.0495 54.0622 98.9967 54.0618Z" fill="#0A5CFF"/>
<path d="M104.622 41.1912C102.485 38.7516 100.231 38.898 98.8844 39.4249C97.0597 36.3511 91.0291 33.9116 83.2714 36.8732C74.2061 40.3276 75.2844 49.6124 75.7186 51.3396C76.1528 53.0668 79.173 57.5995 81.1149 57.8142C81.1149 57.8142 82.8421 56.3016 82.8421 54.794C82.8421 53.2864 86.9453 50.2614 91.0438 48.9635C93.6248 48.1487 96.4595 46.6508 98.0989 44.7382C98.0686 45.9941 98.3914 47.2333 99.0308 48.3146C100.329 50.2662 102.27 51.3396 102.27 51.9885C102.27 52.6375 103.349 55.0087 104.222 55.0087C105.095 55.0087 105.086 51.5543 105.3 50.0418C105.515 48.5293 107.642 44.6455 104.622 41.1912Z" fill="#0A5CFF"/>
<path d="M81.0909 58.0587H81.0617C78.9393 57.8196 75.8947 53.1357 75.4556 51.3988C75.4312 51.2915 73.0454 40.5038 83.1645 36.6494C90.6344 33.8 96.8259 35.7858 98.9874 39.1279C100.09 38.7571 102.5 38.3961 104.803 41.0308C107.326 43.9143 106.369 47.0808 105.779 48.9788C105.66 49.3382 105.564 49.7049 105.491 50.0766C105.437 50.4425 105.398 50.9353 105.355 51.4525C105.169 53.7505 104.984 55.2533 104.169 55.2533C103.096 55.2533 101.983 52.6771 101.983 51.9892C101.983 51.7842 101.495 51.3256 101.007 50.8865C100.172 50.1673 99.4276 49.348 98.7922 48.447C98.2056 47.5101 97.8696 46.4382 97.8164 45.3341C96.2648 46.91 93.7911 48.3299 91.054 49.1935C86.9165 50.501 83.023 53.4529 83.023 54.7897C83.023 56.3901 81.2861 57.927 81.2129 57.9953C81.1792 58.0277 81.1368 58.0497 81.0909 58.0587ZM90.0392 35.7858C87.743 35.8136 85.4712 36.26 83.3353 37.1031C73.6113 40.8112 75.9045 51.1744 75.9289 51.2817C76.3582 52.9991 79.2271 57.2049 81.0129 57.5562C81.3447 57.2439 82.5742 55.9949 82.5742 54.7946C82.5742 53.1016 86.7994 50.0424 90.9467 48.7299C93.8497 47.8176 96.4454 46.2611 97.8896 44.5779C97.9229 44.5402 97.9668 44.5135 98.0156 44.5013C98.0644 44.4891 98.1157 44.492 98.1628 44.5095C98.209 44.5274 98.2487 44.5589 98.2766 44.5999C98.3045 44.6408 98.3193 44.6893 98.3189 44.7389C98.2882 45.948 98.5976 47.1415 99.2118 48.1835C99.8264 49.0495 100.546 49.8361 101.354 50.5254C102.037 51.1548 102.491 51.5696 102.491 51.9892C102.491 52.6186 103.544 54.7653 104.188 54.7653C104.618 54.7653 104.808 52.4185 104.891 51.4134C104.93 50.8865 104.974 50.3888 105.028 50.0083C105.102 49.6116 105.203 49.2205 105.33 48.8373C105.906 46.9247 106.794 44.0314 104.437 41.3528C102.271 38.8791 100.085 39.2255 98.9727 39.6549C98.9184 39.6753 98.8587 39.6757 98.8042 39.656C98.7496 39.6363 98.7039 39.5979 98.6751 39.5475C97.5285 37.6252 94.4108 35.7858 90.0392 35.7858Z" fill="#0A5CFF"/>
<path d="M79.2758 52.4231H79.2319C79.1686 52.4112 79.1125 52.3748 79.076 52.3218C79.0394 52.2688 79.0253 52.2035 79.0367 52.1401C79.1782 51.3838 79.71 50.7398 80.6663 50.1592C80.7219 50.1275 80.7877 50.119 80.8495 50.1353C80.9114 50.1517 80.9643 50.1917 80.9969 50.2467C81.0295 50.3017 81.0393 50.3674 81.024 50.4295C81.0087 50.4916 80.9696 50.5452 80.9151 50.5788C80.0906 51.0667 79.6319 51.618 79.5148 52.2328C79.5035 52.2874 79.4733 52.3364 79.4297 52.3711C79.386 52.4059 79.3316 52.4243 79.2758 52.4231Z" fill="white"/>
<path d="M82.3648 49.862C82.3154 49.8617 82.2672 49.8467 82.2263 49.8189C82.1855 49.7911 82.1539 49.7517 82.1355 49.7059C82.1132 49.6457 82.1156 49.5792 82.1421 49.5207C82.1686 49.4623 82.217 49.4166 82.2769 49.3936C83.9703 48.7931 85.7012 48.3042 87.4585 47.9299C88.7661 47.6274 90.0054 47.3347 91.0349 47.0078C94.8991 45.7782 97.0654 42.4117 97.0898 42.3824C97.1063 42.3546 97.1282 42.3305 97.1543 42.3114C97.1803 42.2923 97.21 42.2787 97.2414 42.2714C97.2729 42.2641 97.3055 42.2633 97.3373 42.269C97.3691 42.2746 97.3994 42.2867 97.4265 42.3044C97.4807 42.3394 97.5189 42.3944 97.5326 42.4576C97.5464 42.5207 97.5345 42.5866 97.4996 42.641C95.9602 44.8927 93.736 46.5883 91.1569 47.4762C90.1127 47.8079 88.8637 48.1007 87.5464 48.4081C85.8116 48.769 84.102 49.2416 82.4282 49.823C82.4089 49.8388 82.3876 49.8519 82.3648 49.862Z" fill="white"/>
<path d="M78.549 45.5088C78.5 45.5092 78.4521 45.4938 78.4124 45.4649C78.3589 45.4291 78.3217 45.3737 78.3089 45.3106C78.2962 45.2476 78.3088 45.182 78.3441 45.1282C78.832 44.372 80.1493 44.4257 82.1156 44.5037C83.7101 44.593 85.3087 44.5833 86.902 44.4744C91.3371 44.1183 95.2989 41.4494 95.3379 41.4201C95.3917 41.3848 95.4572 41.3722 95.5203 41.385C95.5833 41.3978 95.6388 41.435 95.6745 41.4885C95.6929 41.5146 95.7058 41.5441 95.7126 41.5753C95.7194 41.6065 95.7198 41.6388 95.7139 41.6702C95.708 41.7015 95.6958 41.7314 95.6782 41.758C95.6605 41.7847 95.6377 41.8075 95.6111 41.8251C95.4452 41.9373 91.5029 44.5964 86.941 44.9624C85.3282 45.0736 83.7101 45.0834 82.0961 44.9916C80.3592 44.9233 79.1052 44.8696 78.7491 45.4015C78.7272 45.4345 78.6975 45.4617 78.6626 45.4804C78.6277 45.4991 78.5886 45.5089 78.549 45.5088Z" fill="white"/>
<path d="M104.759 48.0578C104.727 48.0565 104.695 48.0489 104.666 48.0355C104.637 48.0221 104.611 48.003 104.589 47.9795C104.567 47.9559 104.55 47.9283 104.539 47.8982C104.528 47.8681 104.523 47.8361 104.524 47.8041C104.546 47.2009 104.502 46.5972 104.393 46.0037C104.386 45.9722 104.385 45.9397 104.391 45.908C104.397 45.8763 104.409 45.8461 104.426 45.8192C104.444 45.7923 104.467 45.7693 104.494 45.7515C104.521 45.7337 104.551 45.7216 104.583 45.7158C104.615 45.7095 104.647 45.7095 104.679 45.7159C104.711 45.7223 104.741 45.7349 104.768 45.7531C104.795 45.7713 104.818 45.7946 104.835 45.8217C104.853 45.8488 104.865 45.8791 104.871 45.911C104.986 46.5416 105.034 47.1828 105.012 47.8236C105.011 47.8556 105.004 47.8871 104.99 47.9162C104.977 47.9453 104.958 47.9715 104.934 47.9933C104.91 48.015 104.883 48.0319 104.853 48.043C104.823 48.054 104.791 48.0591 104.759 48.0578Z" fill="white"/>
<path d="M104.359 45.2225C104.308 45.2228 104.259 45.2069 104.217 45.1771C104.176 45.1473 104.145 45.105 104.13 45.0566C103.815 44.1885 103.309 43.4018 102.651 42.7543C101.992 42.1068 101.197 41.6148 100.324 41.3143C100.262 41.2961 100.209 41.2543 100.177 41.1978C100.145 41.1413 100.137 41.0746 100.153 41.0118C100.162 40.9811 100.177 40.9524 100.197 40.9274C100.217 40.9024 100.242 40.8816 100.27 40.8662C100.298 40.8508 100.329 40.8411 100.361 40.8376C100.393 40.8341 100.425 40.837 100.456 40.8459C101.408 41.1609 102.275 41.6896 102.992 42.3915C103.708 43.0934 104.254 43.95 104.588 44.8956C104.599 44.926 104.604 44.9582 104.602 44.9905C104.6 45.0227 104.592 45.0542 104.578 45.0833C104.564 45.1123 104.544 45.1383 104.52 45.1597C104.496 45.181 104.468 45.1974 104.437 45.2078C104.412 45.2174 104.386 45.2224 104.359 45.2225Z" fill="white"/>
<path d="M88.6685 67.3682C88.0335 67.3929 87.4021 67.2623 86.8291 66.9876C84.9702 66.0118 81.667 61.6206 81.5304 61.4157C81.4916 61.364 81.4749 61.2989 81.4841 61.2348C81.4932 61.1708 81.5275 61.113 81.5792 61.0742C81.631 61.0354 81.696 61.0187 81.7601 61.0278C81.8241 61.037 81.8819 61.0712 81.9207 61.123C81.9549 61.1669 85.2922 65.6264 87.0584 66.5583C88.8246 67.4902 92.1375 66.1923 92.1717 66.1777C92.2018 66.1662 92.2339 66.1607 92.2661 66.1615C92.2983 66.1624 92.3301 66.1696 92.3595 66.1828C92.389 66.1959 92.4156 66.2147 92.4377 66.2381C92.4599 66.2615 92.4773 66.2891 92.4888 66.3192C92.5003 66.3493 92.5058 66.3814 92.505 66.4136C92.5041 66.4459 92.4969 66.4776 92.4837 66.5071C92.4706 66.5365 92.4518 66.5631 92.4284 66.5853C92.405 66.6074 92.3774 66.6248 92.3473 66.6363C91.1672 67.0723 89.9256 67.3193 88.6685 67.3682Z" fill="#0A5CFF"/>
<path d="M93.4687 66.4448C93.4687 66.8888 92.9222 67.2547 92.2538 67.2547C91.5853 67.2547 91.0389 66.8888 91.0389 66.4448C91.0389 66.0008 91.5805 65.6349 92.2538 65.6349C92.9271 65.6349 93.4687 65.9959 93.4687 66.4448Z" fill="#0A5CFF"/>
<path d="M79.8224 55.0929C79.8224 55.0929 75.8167 44.72 79.8224 38.5333C79.8224 38.5333 73.6309 44.9005 79.0954 56.5517L79.8224 55.0929Z" fill="white"/>
<path d="M82.5984 58.4536C82.9643 60.8931 82.3007 63.0009 81.1102 63.1814C79.9198 63.362 78.6707 61.5323 78.2999 59.0977C77.9291 56.663 78.6024 54.5504 79.788 54.3698C80.9736 54.1893 82.2519 56.019 82.5984 58.4536Z" fill="white"/>
<path d="M80.9646 63.4264C79.6912 63.4264 78.447 61.6065 78.0762 59.1279C77.8859 58.0214 77.9443 56.8865 78.247 55.8053C78.5543 54.8295 79.0959 54.2196 79.7692 54.122C81.1061 53.922 82.4673 55.8004 82.8577 58.4058C83.0455 59.5125 82.9872 60.6469 82.6869 61.7285C82.3746 62.7043 81.8379 63.3142 81.1646 63.4118C81.0984 63.4215 81.0315 63.4264 80.9646 63.4264ZM79.9888 54.5953C79.945 54.5905 79.9008 54.5905 79.8571 54.5953C79.3691 54.6636 78.9788 55.1564 78.73 55.9419C78.4509 56.9524 78.3993 58.0122 78.5787 59.045C78.9154 61.2991 80.0717 63.08 81.111 62.919C81.5989 62.8507 81.9941 62.3579 82.2429 61.5724C82.5196 60.5615 82.5712 59.5022 82.3942 58.4693C82.0478 56.3225 80.9695 54.605 79.9693 54.605L79.9888 54.5953Z" fill="#0A5CFF"/>
<path d="M80.4466 63.1079C81.5018 62.9492 82.0607 60.8484 81.695 58.4155C81.3292 55.9827 80.1773 54.1391 79.1221 54.2977C78.0669 54.4564 77.5079 56.5572 77.8737 58.99C78.2395 61.4229 79.3914 63.2665 80.4466 63.1079Z" fill="white"/>
<path d="M80.3105 63.3668C79.7543 63.3668 79.1835 62.9423 78.6907 62.1568C78.1314 61.1973 77.7697 60.1356 77.627 59.0342C77.2318 56.4239 77.8759 54.2429 79.0907 54.0624C80.3056 53.8819 81.5303 55.7798 81.945 58.3853C82.13 59.4804 82.0969 60.6013 81.8474 61.6835C81.584 62.6593 81.1009 63.2643 80.4862 63.357L80.3105 63.3668ZM79.2371 54.5357H79.1542C78.3638 54.6528 77.7392 56.4873 78.1101 58.9268C78.2401 59.9572 78.5717 60.952 79.0859 61.8543C79.5152 62.5325 79.9836 62.8886 80.3886 62.8301C80.7935 62.7715 81.1448 62.2885 81.3644 61.5127C81.5982 60.496 81.6281 59.4429 81.4522 58.4145C81.096 56.1067 80.0227 54.5357 79.2371 54.5357Z" fill="#0A5CFF"/>
<path d="M119.518 75.7313L125.144 120.204L113.907 119.984L119.518 75.7313Z" fill="#B5CDFF"/>
<path d="M125.144 120.447L113.922 120.228C113.888 120.227 113.854 120.22 113.823 120.206C113.792 120.191 113.764 120.171 113.742 120.145C113.72 120.119 113.704 120.088 113.695 120.055C113.685 120.023 113.683 119.988 113.688 119.955L119.294 75.7015C119.301 75.642 119.33 75.5872 119.375 75.5476C119.42 75.508 119.478 75.4864 119.538 75.4868C119.597 75.4876 119.654 75.5098 119.698 75.5492C119.742 75.5887 119.77 75.6428 119.777 75.7015L125.403 120.169C125.408 120.204 125.406 120.24 125.396 120.274C125.385 120.307 125.368 120.338 125.344 120.364C125.319 120.393 125.288 120.415 125.254 120.429C125.219 120.444 125.181 120.45 125.144 120.447ZM114.186 119.745L124.866 119.955L119.499 77.6726L114.186 119.745Z" fill="#0A5CFF"/>
<mask id="mask7_22_4177" style="mask-type:luminance" maskUnits="userSpaceOnUse" x="113" y="75" width="13" height="46">
<mask id="mask8_22_4177" style="mask-type:luminance" maskUnits="userSpaceOnUse" x="113" y="75" width="13" height="46">
<path d="M119.518 75.7295L125.144 120.202L113.907 119.983L119.518 75.7295Z" fill="white"/>
</mask>
<g mask="url(#mask8_22_4177)">
<path d="M125.144 120.445L113.922 120.226C113.888 120.226 113.854 120.218 113.823 120.204C113.792 120.189 113.764 120.169 113.742 120.143C113.72 120.117 113.704 120.086 113.695 120.054C113.685 120.021 113.683 119.986 113.688 119.953L119.294 75.6995C119.301 75.64 119.33 75.5853 119.375 75.5457C119.42 75.5061 119.478 75.4844 119.538 75.4849C119.597 75.4856 119.654 75.5078 119.698 75.5473C119.742 75.5868 119.77 75.6409 119.777 75.6995L125.403 120.167C125.408 120.202 125.406 120.238 125.396 120.272C125.386 120.305 125.368 120.337 125.344 120.363C125.319 120.391 125.288 120.413 125.254 120.427C125.219 120.442 125.181 120.448 125.144 120.445ZM114.186 119.743L124.866 119.953L119.499 77.6707L114.186 119.743Z" fill="white"/>
</g>
</mask>
<g mask="url(#mask7_22_4177)">
<path opacity="0.3" d="M122.582 99.9841L116.732 103.497L116.83 96.9249L113.907 119.983L125.144 120.203L124.222 112.938L119.318 113.099L123.67 108.576L123.636 108.279L117.654 110.328L123.065 103.775L122.582 99.9841Z" fill="#014EE9"/>
</g>
<path d="M79.3198 62.6164C79.3198 62.6164 80.9787 62.0358 81.3397 62.675C81.7008 63.3141 82.1204 66.0903 82.1106 66.4855C82.1008 66.8807 81.9642 67.2418 81.2129 66.9734C80.4615 66.7051 79.2612 64.2607 79.2612 64.2607L79.3198 62.6164Z" fill="white"/>
<path d="M81.6571 67.3293C81.4765 67.3244 81.2982 67.2881 81.1302 67.222C80.33 66.9243 79.2566 64.8117 79.0517 64.3872C79.0443 64.3502 79.0443 64.3121 79.0517 64.275L79.1005 62.6357C79.1015 62.5864 79.1174 62.5385 79.1461 62.4985C79.1749 62.4584 79.2151 62.428 79.2615 62.4112C79.5737 62.3039 81.135 61.8013 81.5741 62.582C81.9596 63.2602 82.3938 66.1095 82.3792 66.5194C82.3861 66.6511 82.3624 66.7827 82.3099 66.9038C82.2574 67.0248 82.1776 67.1321 82.0767 67.2171C81.952 67.2976 81.8053 67.3368 81.6571 67.3293ZM79.5152 64.2262C79.9689 65.1386 80.8276 66.5877 81.296 66.7633C81.6327 66.8853 81.7498 66.8316 81.7839 66.8121C81.8181 66.7926 81.8718 66.6706 81.8766 66.5047C81.8766 66.1681 81.4717 63.4212 81.135 62.8211C80.974 62.5283 80.1592 62.6405 79.5688 62.8211L79.5152 64.2262Z" fill="#0A5CFF"/>
<path d="M72.0598 71.4178C72.0598 71.4178 73.5967 61.5376 73.6309 60.4642C73.665 59.3908 75.0946 58.5126 75.7777 58.2491C76.4608 57.9857 80.364 58.1125 80.7787 58.1272C81.1935 58.1418 82.8621 58.054 82.8475 58.6151C82.8328 59.1762 82.6864 59.4152 81.291 59.6397C79.8956 59.8641 76.5583 60.0398 76.5583 60.0398L75.685 61.3571L79.8273 62.1475C79.8273 62.1475 80.8031 62.5769 80.6275 63.2453C80.4518 63.9137 79.9688 66.8461 79.959 67.2462C79.9493 67.6462 79.5199 67.9048 78.5295 68.5489C77.9382 68.9313 77.2734 69.1856 76.5779 69.2954C76.5779 69.2954 76.6559 71.3104 76.0899 71.5592L74.6799 72.1886L74.4847 83.7179L68.1176 82.9958L72.0598 71.4178Z" fill="white"/>
<path d="M74.4797 83.9175H74.4504L68.1076 83.1954C68.0711 83.1912 68.036 83.1789 68.0048 83.1595C67.9736 83.1401 67.947 83.1141 67.9271 83.0832C67.9115 83.0504 67.9034 83.0146 67.9034 82.9783C67.9034 82.942 67.9115 82.9061 67.9271 82.8734L71.8694 71.3393C71.9474 70.8514 73.4014 61.4592 73.4307 60.4394C73.4648 59.2099 75.031 58.2487 75.7385 57.9999C76.4459 57.7511 79.5246 57.8243 80.8273 57.8633H81.0469C81.8568 57.8633 82.6716 57.8877 82.9985 58.2195C83.0449 58.2662 83.0814 58.3219 83.1057 58.3831C83.13 58.4443 83.1417 58.5098 83.14 58.5756C83.14 59.3465 82.7399 59.6149 81.3787 59.8393C80.1199 60.0442 77.3681 60.2004 76.7436 60.2345L76.1434 61.142L79.9247 61.8641H79.9784C80.0223 61.8641 81.1201 62.3862 80.9152 63.24C80.7444 63.9572 80.2614 66.8408 80.2516 67.1969C80.2516 67.6848 79.7979 67.9922 78.8416 68.6119L78.7147 68.6948C78.1496 69.0556 77.5227 69.3086 76.8655 69.4413C76.8655 70.1049 76.8167 71.4612 76.2313 71.7247L74.9676 72.2907L74.7724 83.6638C74.7715 83.6979 74.7636 83.7315 74.7494 83.7625C74.7351 83.7935 74.7147 83.8214 74.6895 83.8443C74.6628 83.8723 74.6299 83.8935 74.5934 83.9062C74.5569 83.9189 74.5179 83.9228 74.4797 83.9175ZM68.4491 82.766L74.2406 83.4296L74.4309 72.1687C74.4326 72.1228 74.4472 72.0782 74.4731 72.0403C74.499 72.0023 74.5351 71.9724 74.5773 71.954L75.9824 71.3246C76.2264 71.2124 76.3581 70.1634 76.324 69.2901C76.3211 69.2285 76.3416 69.1681 76.3814 69.121C76.4212 69.0739 76.4774 69.0437 76.5386 69.0363C77.2011 68.9339 77.8346 68.6928 78.3976 68.3289L78.5293 68.2459C79.3636 67.6995 79.7052 67.4702 79.7149 67.2262C79.7149 66.7773 80.2467 63.8109 80.3931 63.1717C80.4907 62.7619 79.9052 62.4301 79.7539 62.3667L75.6409 61.5811C75.6012 61.5733 75.564 61.5558 75.5325 61.5303C75.501 61.5048 75.4763 61.472 75.4604 61.4348C75.4424 61.3992 75.433 61.3599 75.433 61.3201C75.433 61.2803 75.4424 61.241 75.4604 61.2054L76.3288 59.8881C76.3513 59.8568 76.3805 59.8309 76.4143 59.8123C76.448 59.7938 76.4855 59.783 76.524 59.7808C76.5533 59.7808 79.8613 59.61 81.2274 59.3856C82.5936 59.1611 82.5692 58.9513 82.5789 58.5903C82.535 58.5171 82.2716 58.3805 81.0079 58.3805H80.7444C78.7928 58.3219 76.3191 58.317 75.8361 58.4878C75.1774 58.722 73.8844 59.571 73.8503 60.4833C73.8161 61.5567 72.3426 71.0612 72.2792 71.4661C72.2792 71.4661 72.2792 71.4954 72.2792 71.5052L68.4491 82.766Z" fill="#0A5CFF"/>
<path d="M80.2957 64.0271H80.2517L75.2263 63.1245C75.1616 63.1129 75.1042 63.076 75.0667 63.022C75.0291 62.968 75.0146 62.9013 75.0263 62.8366C75.0379 62.7719 75.0748 62.7145 75.1288 62.677C75.1827 62.6395 75.2494 62.625 75.3141 62.6366L80.3396 63.5441C80.4043 63.5499 80.464 63.5812 80.5056 63.6311C80.5473 63.681 80.5674 63.7453 80.5616 63.81C80.5557 63.8747 80.5245 63.9345 80.4746 63.9761C80.4247 64.0177 80.3604 64.0378 80.2957 64.032V64.0271Z" fill="#0A5CFF"/>
<path d="M79.7241 66.2794H79.6705L75.533 65.2743C75.4683 65.2594 75.4122 65.2195 75.377 65.1632C75.3417 65.1069 75.3303 65.0389 75.3452 64.9742C75.3601 64.9095 75.4 64.8534 75.4563 64.8182C75.5126 64.783 75.5805 64.7715 75.6452 64.7864L79.7876 65.7915C79.8188 65.7983 79.8484 65.8114 79.8744 65.83C79.9004 65.8487 79.9223 65.8724 79.9387 65.8999C79.9552 65.9273 79.9658 65.9578 79.9701 65.9895C79.9743 66.0212 79.9719 66.0535 79.9632 66.0842C79.9528 66.1398 79.9232 66.1898 79.8794 66.2256C79.8356 66.2613 79.7806 66.2804 79.7241 66.2794Z" fill="#0A5CFF"/>
<path d="M76.5675 69.5138C76.5265 69.5147 76.486 69.5048 76.45 69.4851C76.4141 69.4654 76.3839 69.4366 76.3625 69.4016C76.1869 69.1284 75.7917 68.46 75.9234 68.094C75.9441 68.0358 75.9784 67.9833 76.0233 67.9409C76.0683 67.8985 76.1227 67.8674 76.182 67.8501C76.5675 67.733 77.4652 67.5037 77.4652 67.5037L77.5872 67.9916C77.5872 67.9916 76.787 68.1965 76.3821 68.3136C76.463 68.6136 76.5951 68.8975 76.7724 69.1528C76.8072 69.2072 76.8191 69.2731 76.8054 69.3362C76.7917 69.3993 76.7535 69.4544 76.6992 69.4894C76.658 69.5084 76.6127 69.5168 76.5675 69.5138Z" fill="#0A5CFF"/>
<path d="M68.6883 77.0239L75.5677 79.6196C75.5677 79.6196 70.7765 109.694 69.625 112.056C68.4736 114.417 65.7803 117.159 62.3064 117.491C58.8325 117.823 56.3198 114.076 56.2174 110.138C56.1149 106.201 68.6883 77.0239 68.6883 77.0239Z" fill="#B5CDFF"/>
<path d="M61.8624 117.754C60.6623 117.742 59.5095 117.285 58.6276 116.471C57.0468 115.066 56.0221 112.646 55.9587 110.128C55.8514 106.2 67.9515 78.1018 68.4638 76.9064C68.4895 76.8492 68.5363 76.804 68.5945 76.7804C68.6526 76.7568 68.7177 76.7565 68.776 76.7796L75.6555 79.3703C75.7083 79.389 75.7528 79.4256 75.7813 79.4738C75.8098 79.5219 75.8206 79.5786 75.8116 79.6338C75.6165 80.8633 71.0009 109.777 69.8397 112.138C68.6004 114.675 65.79 117.383 62.3113 117.715C62.1649 117.749 62.0136 117.754 61.8624 117.754ZM68.8199 77.3358C67.6782 79.9997 56.349 106.488 56.4466 110.133C56.5052 112.499 57.4663 114.787 58.9545 116.105C59.3948 116.518 59.9177 116.834 60.4887 117.03C61.0597 117.227 61.6659 117.301 62.2674 117.247C65.5558 116.934 68.2198 114.358 69.4054 111.948C70.4837 109.747 74.8797 82.3807 75.2993 79.7753L68.8199 77.3358Z" fill="#0A5CFF"/>
<mask id="mask9_22_4177" style="mask-type:luminance" maskUnits="userSpaceOnUse" x="56" y="77" width="20" height="41">
<mask id="mask10_22_4177" style="mask-type:luminance" maskUnits="userSpaceOnUse" x="56" y="77" width="20" height="41">
<path d="M68.6845 77.0295L75.564 79.6252C75.564 79.6252 70.7727 109.7 69.6213 112.061C68.4698 114.423 65.7766 117.165 62.3027 117.497C58.8288 117.828 56.316 114.081 56.2136 110.144C56.1111 106.206 68.6845 77.0295 68.6845 77.0295Z" fill="white"/>
</mask>
<g mask="url(#mask10_22_4177)">
<path d="M61.8596 117.758C60.6595 117.746 59.5067 117.289 58.6248 116.475C57.0439 115.07 56.0193 112.65 55.9559 110.132C55.8486 106.204 67.9487 78.1059 68.461 76.9106C68.4867 76.8533 68.5335 76.8082 68.5917 76.7845C68.6498 76.7609 68.7148 76.7606 68.7732 76.7837L75.6527 79.3745C75.7055 79.3932 75.75 79.4298 75.7785 79.4779C75.807 79.5261 75.8178 79.5827 75.8088 79.638C75.6137 80.8675 70.9981 109.781 69.8369 112.142C68.5976 114.679 65.7872 117.387 62.3085 117.719C62.1621 117.753 62.0108 117.758 61.8596 117.758ZM68.8171 77.3399C67.6754 80.0039 56.3462 106.492 56.4438 110.137C56.5024 112.503 57.4635 114.792 58.9517 116.109C59.392 116.522 59.9149 116.838 60.4859 117.035C61.0569 117.231 61.663 117.305 62.2645 117.251C65.553 116.938 68.217 114.362 69.4026 111.952C70.4809 109.752 74.8769 82.3849 75.2965 79.7795L68.8171 77.3399Z" fill="white"/>
</g>
</mask>
<g mask="url(#mask9_22_4177)">
<path opacity="0.3" d="M62.9939 102.205C61.3157 103.061 59.5634 103.763 57.7586 104.303C57.139 106.103 56.6657 107.631 56.412 108.723L59.6664 108.314C61.985 108.046 64.2725 107.556 66.4971 106.85C66.4971 106.85 61.1301 110.173 56.3437 110.729H56.2315C56.5486 114.427 58.9687 117.823 62.2864 117.506C65.775 117.174 68.4633 114.427 69.605 112.07C70.171 110.909 71.6152 103.073 72.9374 95.3987C69.8723 98.0119 66.5392 100.293 62.9939 102.205Z" fill="#014EE9"/>
</g>
</g>
<path d="M136.624 25.3685V24.0317C136.624 23.8427 136.549 23.6615 136.415 23.528C136.282 23.3944 136.101 23.3193 135.912 23.3193H134.882C134.726 22.6457 134.459 22.0027 134.092 21.4165L134.819 20.6846C134.952 20.5503 135.027 20.3688 135.027 20.1796C135.027 19.9905 134.952 19.809 134.819 19.6747L133.877 18.733C133.743 18.5998 133.561 18.5251 133.372 18.5251C133.183 18.5251 133.001 18.5998 132.867 18.733L132.135 19.46C131.549 19.0931 130.906 18.826 130.232 18.6696V17.6401C130.232 17.4512 130.157 17.27 130.024 17.1364C129.89 17.0028 129.709 16.9277 129.52 16.9277H128.183C127.994 16.9277 127.813 17.0028 127.679 17.1364C127.546 17.27 127.471 17.4512 127.471 17.6401V18.6696C126.797 18.826 126.154 19.0931 125.568 19.46L124.836 18.733C124.702 18.5998 124.52 18.5251 124.331 18.5251C124.142 18.5251 123.96 18.5998 123.826 18.733L122.884 19.6747C122.751 19.809 122.677 19.9905 122.677 20.1796C122.677 20.3688 122.751 20.5503 122.884 20.6846L123.611 21.4165C123.244 22.0019 122.979 22.6453 122.826 23.3193H121.792C121.603 23.3193 121.421 23.3944 121.288 23.528C121.154 23.6615 121.079 23.8427 121.079 24.0317V25.3685C121.079 25.5574 121.154 25.7386 121.288 25.8722C121.421 26.0058 121.603 26.0809 121.792 26.0809H122.826C122.979 26.7549 123.244 27.3983 123.611 27.9837L122.884 28.7156C122.751 28.8499 122.677 29.0314 122.677 29.2205C122.677 29.4097 122.751 29.5912 122.884 29.7255L123.826 30.6672C123.96 30.8004 124.142 30.8751 124.331 30.8751C124.52 30.8751 124.702 30.8004 124.836 30.6672L125.568 29.9402C126.157 30.3124 126.806 30.5814 127.485 30.7355V31.7699C127.485 31.9588 127.56 32.14 127.694 32.2736C127.828 32.4072 128.009 32.4822 128.198 32.4822H129.535C129.724 32.4822 129.905 32.4072 130.038 32.2736C130.172 32.14 130.247 31.9588 130.247 31.7699V30.7355C130.921 30.5828 131.564 30.3172 132.15 29.95L132.882 30.6769C133.016 30.8101 133.198 30.8849 133.387 30.8849C133.576 30.8849 133.757 30.8101 133.892 30.6769L134.804 29.7597C134.937 29.6254 135.012 29.4439 135.012 29.2547C135.012 29.0655 134.937 28.884 134.804 28.7497L134.077 28.0179C134.444 27.4316 134.711 26.7886 134.867 26.115H135.897C135.995 26.1171 136.092 26.0991 136.182 26.0621C136.273 26.0251 136.355 25.9699 136.423 25.8998C136.491 25.8298 136.544 25.7465 136.579 25.6551C136.613 25.5637 136.629 25.4661 136.624 25.3685ZM129.164 27.7397C128.536 27.8068 127.902 27.6774 127.35 27.3694C126.799 27.0614 126.356 26.5899 126.084 26.0199C125.811 25.4499 125.722 24.8094 125.829 24.1867C125.936 23.564 126.233 22.9897 126.68 22.543C127.127 22.0963 127.701 21.7991 128.324 21.6923C128.946 21.5856 129.587 21.6746 130.157 21.947C130.727 22.2195 131.198 22.662 131.506 23.2136C131.814 23.7652 131.944 24.3988 131.877 25.027C131.805 25.7234 131.496 26.3741 131.003 26.8704C130.509 27.3668 129.86 27.6788 129.164 27.7544V27.7397Z" fill="#0A5CFF"/>
<path d="M11.7195 83.6548V82.6497C11.7195 82.5061 11.6625 82.3683 11.5609 82.2667C11.4593 82.1652 11.3216 82.1081 11.1779 82.1081H10.3875C10.2701 81.6003 10.0689 81.1155 9.79229 80.6737L10.3436 80.1272C10.3938 80.0773 10.4336 80.018 10.4607 79.9527C10.4879 79.8874 10.5019 79.8174 10.5019 79.7467C10.5019 79.6759 10.4879 79.6059 10.4607 79.5406C10.4336 79.4753 10.3938 79.416 10.3436 79.3661L9.63128 78.6537C9.5814 78.6036 9.5221 78.5638 9.45679 78.5366C9.39148 78.5095 9.32144 78.4955 9.25071 78.4955C9.17998 78.4955 9.10994 78.5095 9.04463 78.5366C8.97932 78.5638 8.92002 78.6036 8.87014 78.6537L8.31881 79.2002C7.87761 78.9235 7.39254 78.7238 6.88436 78.6098V77.8292C6.88436 77.6868 6.82782 77.5503 6.72717 77.4497C6.62652 77.349 6.49001 77.2925 6.34767 77.2925H5.35722C5.21442 77.2925 5.0774 77.3489 4.97598 77.4494C4.87455 77.5499 4.81693 77.6864 4.81564 77.8292V78.6098C4.30747 78.7238 3.8224 78.9235 3.38119 79.2002L2.82986 78.6537C2.77998 78.6036 2.72069 78.5638 2.65538 78.5366C2.59006 78.5095 2.52003 78.4955 2.44929 78.4955C2.37856 78.4955 2.30852 78.5095 2.24321 78.5366C2.1779 78.5638 2.1186 78.6036 2.06872 78.6537L1.36126 79.3661C1.31051 79.4156 1.27018 79.4748 1.24264 79.5402C1.21511 79.6055 1.20092 79.6757 1.20092 79.7467C1.20092 79.8176 1.21511 79.8878 1.24264 79.9531C1.27018 80.0185 1.31051 80.0777 1.36126 80.1272L1.90772 80.6737C1.63111 81.1155 1.42994 81.6003 1.31247 82.1081H0.536697C0.393909 82.1094 0.257409 82.167 0.156897 82.2685C0.0563844 82.3699 -5.7944e-06 82.5069 4.46577e-10 82.6497V83.6548C4.46577e-10 83.7971 0.0565443 83.9336 0.157195 84.0343C0.257845 84.1349 0.394356 84.1915 0.536697 84.1915H1.31247C1.42817 84.6999 1.62945 85.185 1.90772 85.6259L1.36126 86.1773C1.31051 86.2268 1.27018 86.286 1.24264 86.3513C1.21511 86.4167 1.20092 86.4869 1.20092 86.5578C1.20092 86.6288 1.21511 86.699 1.24264 86.7643C1.27018 86.8297 1.31051 86.8889 1.36126 86.9384L2.09312 87.6507C2.143 87.7009 2.20229 87.7407 2.26761 87.7679C2.33292 87.795 2.40295 87.809 2.47369 87.809C2.54442 87.809 2.61446 87.795 2.67977 87.7679C2.74508 87.7407 2.80438 87.7009 2.85425 87.6507L3.40559 87.0994C3.84656 87.3777 4.33161 87.5789 4.84003 87.6946V88.4704C4.84003 88.6141 4.89709 88.7518 4.99866 88.8534C5.10022 88.9549 5.23798 89.012 5.38161 89.012H6.3867C6.52949 89.0107 6.66599 88.9531 6.7665 88.8517C6.86701 88.7502 6.9234 88.6132 6.9234 88.4704V87.6946C7.43182 87.5789 7.91688 87.3777 8.35784 87.0994L8.90918 87.6507C8.95905 87.7009 9.01835 87.7407 9.08366 87.7679C9.14897 87.795 9.21901 87.809 9.28974 87.809C9.36048 87.809 9.43051 87.795 9.49583 87.7679C9.56114 87.7407 9.62044 87.7009 9.67031 87.6507L10.3827 86.9384C10.4328 86.8885 10.4726 86.8292 10.4998 86.7639C10.5269 86.6986 10.5409 86.6286 10.5409 86.5578C10.5409 86.4871 10.5269 86.4171 10.4998 86.3517C10.4726 86.2864 10.4328 86.2271 10.3827 86.1773L9.83132 85.6259C10.1096 85.185 10.3109 84.6999 10.4266 84.1915H11.2023C11.3409 84.1852 11.4717 84.1261 11.5679 84.0262C11.6642 83.9264 11.7184 83.7934 11.7195 83.6548ZM6.09395 85.4405C5.62079 85.4894 5.1441 85.3906 4.72938 85.1576C4.31466 84.9246 3.98225 84.5689 3.77785 84.1394C3.57344 83.7098 3.50706 83.2276 3.58783 82.7588C3.6686 82.29 3.89254 81.8577 4.2289 81.5214C4.56526 81.185 4.99753 80.9611 5.4663 80.8803C5.93508 80.7995 6.41737 80.8659 6.84689 81.0703C7.27642 81.2747 7.63212 81.6071 7.8651 82.0219C8.09808 82.4366 8.19692 82.9133 8.14804 83.3864C8.09368 83.9127 7.8598 84.4041 7.48572 84.7782C7.11165 85.1523 6.62018 85.3862 6.09395 85.4405Z" fill="#0A5CFF"/>
<path d="M161.307 70.2575V69.2525C161.307 69.1088 161.25 68.9711 161.148 68.8695C161.046 68.7679 160.909 68.7109 160.765 68.7109H159.989C159.874 68.2025 159.672 67.7174 159.394 67.2764L159.945 66.73C159.995 66.6801 160.035 66.6208 160.062 66.5555C160.09 66.4902 160.104 66.4202 160.104 66.3494C160.104 66.2787 160.09 66.2086 160.062 66.1433C160.035 66.078 159.995 66.0187 159.945 65.9689L159.233 65.2565C159.183 65.2063 159.124 65.1665 159.058 65.1394C158.993 65.1122 158.923 65.0982 158.852 65.0982C158.782 65.0982 158.712 65.1122 158.646 65.1394C158.581 65.1665 158.522 65.2063 158.472 65.2565L157.92 65.803C157.479 65.5267 156.994 65.3255 156.486 65.2077V64.4027C156.486 64.3322 156.472 64.2624 156.445 64.1973C156.418 64.1322 156.379 64.073 156.329 64.0232C156.279 63.9733 156.22 63.9338 156.155 63.9068C156.09 63.8799 156.02 63.866 155.949 63.866H154.939C154.797 63.866 154.661 63.9225 154.56 64.0232C154.459 64.1238 154.403 64.2603 154.403 64.4027V65.1784C153.895 65.2963 153.41 65.4974 152.968 65.7737L152.417 65.2272C152.367 65.1771 152.308 65.1373 152.242 65.1101C152.177 65.0829 152.107 65.069 152.036 65.069C151.966 65.069 151.896 65.0829 151.83 65.1101C151.765 65.1373 151.706 65.1771 151.656 65.2272L150.948 65.9396C150.898 65.9891 150.857 66.0483 150.83 66.1137C150.802 66.179 150.788 66.2492 150.788 66.3201C150.788 66.3911 150.802 66.4613 150.83 66.5266C150.857 66.592 150.898 66.6512 150.948 66.7007L151.495 67.2472C151.216 67.6881 151.015 68.1732 150.9 68.6816H150.124C149.981 68.6829 149.844 68.7405 149.744 68.842C149.643 68.9434 149.587 69.0804 149.587 69.2232V70.2575C149.587 70.3999 149.644 70.5364 149.744 70.637C149.845 70.7377 149.981 70.7942 150.124 70.7942H150.904C151.02 71.3027 151.221 71.7877 151.5 72.2287L150.953 72.78C150.902 72.8296 150.862 72.8888 150.835 72.9541C150.807 73.0195 150.793 73.0897 150.793 73.1606C150.793 73.2315 150.807 73.3017 150.835 73.3671C150.862 73.4324 150.902 73.4916 150.953 73.5412L151.661 74.2535C151.711 74.3037 151.77 74.3435 151.835 74.3706C151.9 74.3978 151.97 74.4118 152.041 74.4118C152.112 74.4118 152.182 74.3978 152.247 74.3706C152.313 74.3435 152.372 74.3037 152.422 74.2535L152.973 73.7022C153.414 73.9804 153.899 74.1817 154.408 74.2974V75.0732C154.408 75.216 154.464 75.353 154.564 75.4544C154.665 75.5558 154.801 75.6135 154.944 75.6148H155.954C156.097 75.6135 156.234 75.5558 156.334 75.4544C156.435 75.353 156.491 75.216 156.491 75.0732V74.2974C156.999 74.1817 157.484 73.9804 157.925 73.7022L158.477 74.2535C158.527 74.3037 158.586 74.3435 158.651 74.3706C158.717 74.3978 158.787 74.4118 158.857 74.4118C158.928 74.4118 158.998 74.3978 159.063 74.3706C159.129 74.3435 159.188 74.3037 159.238 74.2535L159.95 73.5412C160 73.4913 160.04 73.432 160.067 73.3667C160.094 73.3014 160.108 73.2313 160.108 73.1606C160.108 73.0899 160.094 73.0198 160.067 72.9545C160.04 72.8892 160 72.8299 159.95 72.78L159.394 72.2092C159.672 71.7682 159.874 71.2832 159.989 70.7747H160.765C160.904 70.7749 161.039 70.7212 161.14 70.6248C161.24 70.5285 161.3 70.3969 161.307 70.2575ZM155.681 72.0433C155.208 72.0922 154.731 71.9933 154.316 71.7603C153.902 71.5274 153.569 71.1717 153.365 70.7421C153.16 70.3126 153.094 69.8303 153.175 69.3616C153.256 68.8928 153.48 68.4605 153.816 68.1241C154.152 67.7878 154.585 67.5638 155.053 67.4831C155.522 67.4023 156.004 67.4687 156.434 67.6731C156.863 67.8775 157.219 68.2099 157.452 68.6246C157.685 69.0393 157.784 69.516 157.735 69.9892C157.679 70.5137 157.444 71.0029 157.07 71.375C156.696 71.7471 156.206 71.9796 155.681 72.0335V72.0433Z" fill="#0A5CFF"/>
<path d="M79.08 4.77972V4.26254C79.08 4.22625 79.0728 4.19031 79.0587 4.15684C79.0447 4.12337 79.0241 4.09303 78.9982 4.06759C78.9724 4.04216 78.9417 4.02213 78.9079 4.00869C78.8742 3.99525 78.8382 3.98867 78.8019 3.98931H78.4067C78.3454 3.72852 78.2415 3.47961 78.0993 3.25257L78.3823 2.97447C78.4335 2.92244 78.4623 2.85234 78.4623 2.7793C78.4623 2.70627 78.4335 2.63617 78.3823 2.58414L78.0163 2.21821C77.9651 2.16727 77.8959 2.13866 77.8236 2.13866C77.7514 2.13866 77.6821 2.16727 77.6309 2.21821L77.3479 2.5012C77.1209 2.35898 76.872 2.25513 76.6112 2.19382V1.79861C76.6112 1.72569 76.5826 1.65568 76.5315 1.60367C76.4804 1.55165 76.4109 1.52179 76.3379 1.52051H75.8208C75.7479 1.52179 75.6784 1.55165 75.6273 1.60367C75.5762 1.65568 75.5475 1.72569 75.5475 1.79861V2.19382C75.2866 2.25453 75.0375 2.35842 74.8108 2.5012L74.5278 2.21821C74.4758 2.16696 74.4057 2.13823 74.3327 2.13823C74.2596 2.13823 74.1895 2.16696 74.1375 2.21821L73.7764 2.58414C73.7252 2.63617 73.6965 2.70627 73.6965 2.7793C73.6965 2.85234 73.7252 2.92244 73.7764 2.97447L74.0545 3.25257C73.914 3.47993 73.8118 3.72882 73.752 3.98931H73.352C73.2795 3.98931 73.21 4.0181 73.1588 4.06934C73.1075 4.12058 73.0787 4.19008 73.0787 4.26254V4.77972C73.0787 4.85265 73.1074 4.92265 73.1585 4.97467C73.2096 5.02669 73.2791 5.05655 73.352 5.05783H73.752C73.811 5.31704 73.9133 5.56446 74.0545 5.78969L73.7764 6.07267C73.7252 6.1247 73.6965 6.19481 73.6965 6.26784C73.6965 6.34087 73.7252 6.41097 73.7764 6.463L74.1375 6.82893C74.1895 6.88018 74.2596 6.90891 74.3327 6.90891C74.4057 6.90891 74.4758 6.88018 74.5278 6.82893L74.8108 6.54594C75.0367 6.68925 75.2861 6.79165 75.5475 6.84845V7.24853C75.5475 7.321 75.5763 7.39049 75.6276 7.44173C75.6788 7.49297 75.7483 7.52176 75.8208 7.52176H76.3379C76.4104 7.52176 76.4799 7.49297 76.5312 7.44173C76.5824 7.39049 76.6112 7.321 76.6112 7.24853V6.82893C76.8723 6.77118 77.1215 6.66884 77.3479 6.52643L77.6309 6.80941C77.6821 6.86036 77.7514 6.88896 77.8236 6.88896C77.8959 6.88896 77.9651 6.86036 78.0163 6.80941L78.3823 6.44348C78.4335 6.39146 78.4623 6.32135 78.4623 6.24832C78.4623 6.17529 78.4335 6.10519 78.3823 6.05316L78.0993 5.77017C78.2421 5.54518 78.346 5.29778 78.4067 5.03831H78.8019C78.8724 5.03849 78.9403 5.01188 78.9919 4.96388C79.0436 4.91587 79.075 4.85005 79.08 4.77972ZM76.2013 5.69699C75.9584 5.72712 75.7122 5.68101 75.4966 5.56505C75.281 5.44909 75.1068 5.269 74.9981 5.0497C74.8894 4.8304 74.8515 4.58273 74.8897 4.34095C74.9279 4.09918 75.0403 3.87526 75.2114 3.70016C75.3824 3.52507 75.6036 3.40746 75.8444 3.3636C76.0853 3.31975 76.3337 3.35182 76.5555 3.45538C76.7773 3.55894 76.9614 3.72887 77.0824 3.94165C77.2034 4.15444 77.2553 4.39956 77.2308 4.64311C77.2032 4.90914 77.0865 5.15803 76.8996 5.34936C76.7127 5.54068 76.4666 5.66319 76.2013 5.69699Z" fill="#0A5CFF"/>
<path d="M16.316 38.9421H12.9983V42.2599H16.316V38.9421ZM13.6716 39.6154H15.6232V41.5915H13.6716V39.6154Z" fill="#0A5CFF"/>
<path d="M150.334 103.78H147.002V107.098H150.32L150.334 103.78ZM147.685 104.453H149.661V106.429H147.685V104.453Z" fill="#0A5CFF"/>
<path d="M100.558 8.74182H97.2349V12.0596H100.553L100.558 8.74182ZM97.9082 9.41025H99.8842V11.3619H97.9082V9.41025Z" fill="#0A5CFF"/>
<path d="M14.3638 91.9246H11.0461V95.2472H14.3638V91.9246ZM11.7145 92.5979H13.6661V94.5495H11.7145V92.5979Z" fill="#0A5CFF"/>
<path opacity="0.9" d="M111.238 31.7114C110.843 31.7105 110.456 31.8267 110.128 32.0454C109.799 32.264 109.542 32.5754 109.39 32.9399C109.239 33.3045 109.198 33.7059 109.275 34.0933C109.351 34.4807 109.541 34.8367 109.82 35.1163C110.099 35.3959 110.454 35.5864 110.842 35.6638C111.229 35.7412 111.63 35.702 111.995 35.5511C112.36 35.4002 112.672 35.1444 112.892 34.8161C113.111 34.4879 113.228 34.1019 113.228 33.707C113.228 33.1786 113.019 32.6717 112.645 32.2976C112.272 31.9235 111.766 31.7127 111.238 31.7114ZM111.238 34.9023C111.001 34.9023 110.77 34.8322 110.573 34.7009C110.377 34.5695 110.224 34.3828 110.133 34.1644C110.043 33.946 110.019 33.7056 110.065 33.4738C110.111 33.2419 110.225 33.0289 110.392 32.8617C110.559 32.6945 110.772 32.5807 111.004 32.5346C111.236 32.4884 111.477 32.5121 111.695 32.6026C111.913 32.6931 112.1 32.8463 112.231 33.0429C112.363 33.2394 112.433 33.4705 112.433 33.707C112.428 34.0206 112.3 34.3197 112.076 34.5396C111.852 34.7596 111.551 34.8829 111.238 34.8828V34.9023Z" fill="#0A5CFF"/>
<path d="M75.7673 41.0712L71.2981 34.8845C72.1177 34.882 72.903 34.5552 73.4825 33.9757C74.0621 33.3961 74.3888 32.6108 74.3914 31.7912V14.9487C74.3875 14.1295 74.0604 13.3449 73.4811 12.7656C72.9019 12.1863 72.1173 11.8592 71.2981 11.8553H32.4607C31.6411 11.8579 30.8558 12.1846 30.2762 12.7642C29.6967 13.3438 29.3699 14.1291 29.3674 14.9487V31.7912C29.3687 32.6112 29.695 33.3973 30.2748 33.9771C30.8546 34.5569 31.6407 34.8833 32.4607 34.8845H66.0433L75.7673 41.0712Z" fill="#0A5CFF"/>
<path d="M42.2722 22.683C42.2722 22.3086 42.1612 21.9426 41.9532 21.6313C41.7452 21.3199 41.4495 21.0773 41.1036 20.934C40.7577 20.7907 40.3771 20.7532 40.0098 20.8263C39.6426 20.8993 39.3053 21.0796 39.0406 21.3444C38.7758 21.6091 38.5955 21.9465 38.5225 22.3137C38.4494 22.6809 38.4869 23.0615 38.6302 23.4074C38.7735 23.7534 39.0161 24.049 39.3274 24.257C39.6387 24.465 40.0047 24.5761 40.3792 24.5761C40.6278 24.5761 40.8739 24.5271 41.1036 24.432C41.3333 24.3368 41.542 24.1974 41.7178 24.0216C41.8936 23.8458 42.033 23.6371 42.1281 23.4074C42.2233 23.1778 42.2722 22.9316 42.2722 22.683Z" fill="#B5CDFF"/>
<path d="M53.4405 22.683C53.4405 22.3084 53.3294 21.9422 53.1211 21.6307C52.9129 21.3193 52.617 21.0767 52.2708 20.9336C51.9246 20.7904 51.5437 20.7532 51.1763 20.8267C50.809 20.9001 50.4717 21.0809 50.2071 21.3461C49.9425 21.6114 49.7626 21.9491 49.6901 22.3167C49.6176 22.6842 49.6558 23.065 49.7999 23.4108C49.9439 23.7567 50.1873 24.052 50.4992 24.2594C50.8112 24.4668 51.1777 24.577 51.5523 24.5761C51.8007 24.5761 52.0466 24.5271 52.276 24.4319C52.5054 24.3367 52.7138 24.1972 52.8892 24.0213C53.0646 23.8454 53.2036 23.6367 53.2982 23.4071C53.3928 23.1774 53.4412 22.9314 53.4405 22.683Z" fill="#B5CDFF"/>
<path d="M64.6135 22.683C64.6135 22.3086 64.5025 21.9426 64.2945 21.6313C64.0865 21.3199 63.7908 21.0773 63.4449 20.934C63.099 20.7907 62.7184 20.7532 62.3511 20.8263C61.9839 20.8993 61.6466 21.0796 61.3819 21.3444C61.1171 21.6091 60.9368 21.9465 60.8638 22.3137C60.7907 22.6809 60.8282 23.0615 60.9715 23.4074C61.1148 23.7534 61.3574 24.049 61.6687 24.257C61.98 24.465 62.3461 24.5761 62.7205 24.5761C62.9691 24.5761 63.2152 24.5271 63.4449 24.432C63.6746 24.3368 63.8833 24.1974 64.0591 24.0216C64.2349 23.8458 64.3743 23.6371 64.4694 23.4074C64.5646 23.1778 64.6135 22.9316 64.6135 22.683Z" fill="#B5CDFF"/>
</svg>
