<svg width="618" height="602" viewBox="0 0 618 602" fill="none" xmlns="http://www.w3.org/2000/svg">
<path d="M187.109 159.209C187.109 159.209 253.302 208.073 353.932 116.707C443.301 35.5668 516.274 163.587 516.783 224.895C517.445 304.311 427.414 367.855 471.107 420.017C514.797 472.179 384.458 558.316 314.213 483.771C226.828 391.039 203.155 466.384 153.347 466.384C117.599 466.384 44.2049 379.976 93.7672 315.693C135.473 261.601 112.727 243.648 101.713 224.895C85.8232 197.847 123.557 124.435 187.109 159.209Z" fill="#DDE8FF"/>
<path d="M452.852 267.19C456.41 268.476 460.297 268.562 463.997 267.734C479.495 264.275 532.789 255.111 523.529 295.285C521.512 303.254 490.301 347.893 534.749 364.185C538.008 365.395 541.451 366.056 544.937 366.137C558.624 366.412 585.743 363.268 597.093 352.03C610.806 338.452 595.825 344.89 595.825 344.89C595.825 344.89 543.698 367.018 525.284 343.541C523.236 340.929 521.931 337.135 521.559 333.869C520.91 328.207 523.494 320.724 526.889 314.209C531.486 305.392 553.548 265.731 505.645 254.178C494.611 251.622 478.583 249.327 457.918 257.79C445.863 262.727 448.533 265.628 452.852 267.19Z" fill="#B5CDFF"/>
<path d="M463.518 252.383L449.644 257.436C444.855 259.179 442.426 264.369 444.218 269.028L444.906 270.816C446.699 275.474 452.034 277.838 456.823 276.094L470.699 271.044C475.487 269.3 477.917 264.11 476.124 259.45L475.437 257.663C473.644 253.003 468.309 250.639 463.518 252.383Z" fill="#B5CDFF"/>
<path d="M378.351 267.001L332.595 283.661C330.199 284.531 328.984 287.126 329.881 289.455L330.062 289.925C330.957 292.254 333.625 293.436 336.021 292.565L381.777 275.906C384.174 275.033 385.389 272.438 384.491 270.109L384.311 269.639C383.416 267.31 380.748 266.128 378.351 267.001Z" fill="#3578FF"/>
<path d="M391.123 300.194L345.365 316.851C342.971 317.724 341.756 320.319 342.653 322.648L342.832 323.118C343.729 325.447 346.397 326.629 348.791 325.756L394.549 309.098C396.943 308.225 398.158 305.63 397.263 303.301L397.082 302.832C396.187 300.502 393.517 299.321 391.123 300.194Z" fill="#3578FF"/>
<path d="M433.369 244.349L396.284 257.85C391.493 259.593 389.064 264.786 390.856 269.444L403.52 302.353C405.312 307.011 410.648 309.375 415.436 307.631L452.523 294.131C457.312 292.387 459.741 287.197 457.949 282.537L445.288 249.627C443.495 244.969 438.16 242.606 433.369 244.349Z" fill="#3578FF"/>
<path d="M400.116 252.981L363.029 266.484C358.24 268.228 355.811 273.418 357.603 278.078L372.71 317.34C374.502 321.998 379.837 324.362 384.626 322.618L421.713 309.117C426.502 307.374 428.931 302.184 427.139 297.524L412.032 258.262C410.24 253.601 404.904 251.238 400.116 252.981Z" fill="#3578FF"/>
<path d="M405.921 245.014L405.63 245.119C402.437 246.282 400.817 249.743 402.012 252.848L423.175 307.852C424.37 310.958 427.926 312.534 431.118 311.371L431.409 311.264C434.604 310.102 436.222 306.643 435.027 303.537L413.866 248.533C412.671 245.428 409.113 243.852 405.921 245.014Z" fill="#B5CDFF"/>
<path d="M27.7668 280.18C27.7668 280.18 102.248 259.819 91.4344 306.73C89.5565 314.153 62.5247 352.371 94.7236 370.72C101.637 374.66 109.616 376.406 117.629 376.365C131.994 376.292 154.768 373.603 165 363.473C178.711 349.896 163.732 356.334 163.732 356.334C163.732 356.334 120.956 373.45 98.9495 359.806C91.4353 355.148 88.0293 346.128 90.0697 337.688C91.1128 333.498 92.7008 329.453 94.7959 325.653C99.5818 316.933 121.455 277.175 73.5518 265.622C62.5168 263.066 46.4892 260.771 25.8232 269.234C5.15718 277.698 27.7668 280.18 27.7668 280.18Z" fill="#B5CDFF"/>
<path d="M175.015 345.836L161.14 350.889C156.35 352.632 153.921 357.822 155.714 362.483L156.401 364.269C158.194 368.929 163.53 371.293 168.319 369.547L182.194 364.496C186.983 362.753 189.413 357.563 187.62 352.903L186.932 351.116C185.14 346.456 179.804 344.092 175.015 345.836Z" fill="#B5CDFF"/>
<path d="M198.456 323.63L177.894 331.117C173.104 332.861 170.674 338.051 172.467 342.711L182.382 368.481C184.175 373.142 189.511 375.505 194.3 373.761L214.863 366.274C219.653 364.531 222.082 359.341 220.29 354.68L210.374 328.91C208.582 324.25 203.246 321.887 198.456 323.63Z" fill="#3578FF"/>
<path d="M232.688 303.788L202.024 314.953C197.234 316.697 194.805 321.887 196.597 326.547L211.703 365.809C213.496 370.469 218.832 372.833 223.62 371.089L254.285 359.924C259.076 358.181 261.506 352.99 259.713 348.33L244.607 309.068C242.814 304.408 237.479 302.044 232.688 303.788Z" fill="#3578FF"/>
<path d="M239.185 295.658L238.894 295.763C235.7 296.925 234.082 300.387 235.276 303.492L256.437 358.496C257.632 361.601 261.19 363.177 264.383 362.015L264.674 361.908C267.866 360.745 269.487 357.286 268.292 354.179L247.129 299.177C245.934 296.072 242.378 294.495 239.185 295.658Z" fill="#B5CDFF"/>
<path d="M317.489 260.616C316.384 260.496 315.37 259.967 314.66 259.134C313.953 258.302 313.602 257.236 313.684 256.158L315.972 215.504C316.109 213.075 318.217 211.23 320.609 211.445L323.942 211.745C326.334 211.96 328.047 214.147 327.712 216.559L322.09 256.913C321.962 257.987 321.411 258.971 320.554 259.662C319.696 260.353 318.598 260.694 317.489 260.616Z" fill="#B5CDFF"/>
<path d="M297.733 264.121C297.389 264.219 297.029 264.252 296.672 264.215C296.317 264.177 295.971 264.071 295.658 263.904C295.343 263.739 295.067 263.514 294.842 263.241C294.617 262.971 294.45 262.658 294.348 262.326L286.178 237.036C285.94 236.318 286.006 235.535 286.359 234.864C286.714 234.19 287.327 233.682 288.067 233.45L290.182 232.828C290.545 232.725 290.927 232.697 291.302 232.745C291.676 232.792 292.036 232.914 292.36 233.105C292.684 233.294 292.964 233.547 293.182 233.847C293.4 234.147 293.553 234.488 293.628 234.849L299.684 260.76C299.854 261.455 299.746 262.188 299.384 262.813C299.022 263.434 298.434 263.902 297.733 264.121Z" fill="#B5CDFF"/>
<path d="M286.707 278.704C285.243 280.469 282.298 280.448 280.031 278.657L239.794 246.854C237.388 244.954 236.681 241.81 238.233 239.94L240.398 237.332C241.952 235.46 245.14 235.614 247.415 237.669L285.49 272.082C287.635 274.018 288.171 276.941 286.707 278.704Z" fill="#B5CDFF"/>
<path d="M305.308 360.848C306.344 361.239 307.184 362.004 307.652 362.984C308.121 363.965 308.179 365.084 307.817 366.105L294.931 404.841C294.161 407.155 291.639 408.414 289.382 407.612L286.235 406.495C283.98 405.693 282.898 403.151 283.854 400.906L299.885 363.287C300.293 362.279 301.082 361.464 302.094 361.009C303.103 360.555 304.254 360.497 305.308 360.848Z" fill="#B5CDFF"/>
<path d="M325.329 362.369C325.686 362.358 326.043 362.418 326.378 362.543C326.711 362.667 327.018 362.854 327.278 363.094C327.538 363.332 327.747 363.619 327.893 363.937C328.038 364.254 328.12 364.597 328.129 364.947L329.39 391.427C329.43 392.182 329.163 392.919 328.642 393.481C328.124 394.045 327.397 394.384 326.623 394.425L324.414 394.5C324.035 394.509 323.66 394.442 323.309 394.303C322.959 394.163 322.644 393.955 322.379 393.691C322.117 393.428 321.912 393.115 321.779 392.769C321.649 392.424 321.592 392.057 321.612 391.691L322.56 365.136C322.58 364.419 322.877 363.737 323.389 363.225C323.902 362.712 324.595 362.408 325.329 362.369Z" fill="#B5CDFF"/>
<path d="M339.818 351.007C341.696 349.664 344.538 350.417 346.258 352.712L376.815 393.456C378.638 395.89 378.499 399.105 376.506 400.529L373.728 402.512C371.735 403.936 368.69 402.995 367.03 400.443L339.251 357.713C337.69 355.309 337.94 352.349 339.818 351.007Z" fill="#B5CDFF"/>
</svg>
