<svg width="170" height="20" viewBox="0 0 170 20" fill="none" xmlns="http://www.w3.org/2000/svg">
<path fill-rule="evenodd" clip-rule="evenodd" d="M150.241 0.404373C150.318 0.192081 150.513 0.0518799 150.731 0.0518799H166.864C168.385 0.268748 171.054 1.76514 169.561 6.01575C168.067 10.2664 166.172 14.8712 165.411 16.6423C164.996 17.7266 163.005 19.8953 158.357 19.8953H143.108L150.241 0.404373ZM163.233 6.77479C163.534 4.35928 157.932 4.4189 154.438 4.68775C154.234 4.70341 154.059 4.84247 153.988 5.0425L150.64 14.471C150.511 14.8354 150.774 15.2215 151.146 15.214C152.668 15.1834 155.282 15.1604 157.839 15.2326C160.909 15.3194 162.836 9.95173 163.233 6.77479Z" fill="url(#paint0_linear_262_346)"/>
<path d="M105.348 0.160373C95.3488 0.160373 93.639 11.9494 90.9269 18.9182C90.7854 19.2819 91.0342 19.6863 91.4098 19.6933L96.0608 19.7801C96.2809 19.7842 96.4793 19.6463 96.5587 19.4316C97.6188 16.5662 99.7743 10.744 100.888 7.75075C101.914 4.9915 104.744 4.56862 106.486 4.73193C106.814 4.76261 106.999 5.1182 106.878 5.43733L101.693 19.0354C101.556 19.3956 101.81 19.7869 102.18 19.7869H106.756C106.971 19.7869 107.164 19.6501 107.244 19.4415L112.686 5.16842C112.765 4.95987 112.958 4.82303 113.172 4.82303H115.618C117.527 4.82303 117.243 6.77485 116.863 7.75075L112.488 19.0324C112.348 19.393 112.602 19.7869 112.974 19.7869H117.558C117.766 19.7869 117.954 19.6595 118.037 19.4604C119.377 16.2575 122.139 9.34691 123.502 4.82303C125.265 -1.0324 118.004 0.160373 105.348 0.160373Z" fill="url(#paint1_linear_262_346)"/>
<path d="M50.5316 0.1604H46.0584C45.8432 0.1604 45.6497 0.297846 45.5705 0.507083L38.5168 19.1452C38.3806 19.5052 38.6343 19.8954 39.0047 19.8954H43.4779C43.6931 19.8954 43.8865 19.7579 43.9657 19.5487L51.0195 0.91058C51.1557 0.550617 50.9019 0.1604 50.5316 0.1604Z" fill="url(#paint2_linear_262_346)"/>
<path d="M52.9327 0.498774L51.5997 3.85915C51.4577 4.21722 51.7062 4.61212 52.077 4.61758L57.9083 4.70344C58.2755 4.70884 58.5239 5.09669 58.3888 5.4536L53.2471 19.0367C53.1109 19.3967 53.3646 19.7869 53.735 19.7869H58.5096C58.7297 19.7869 58.9264 19.6434 59.0022 19.4274L64.0403 5.07415C64.1161 4.85819 64.3127 4.71463 64.5328 4.71463H72.0955C72.3172 4.71463 72.515 4.56893 72.5896 4.35065L73.7708 0.893289C73.8928 0.536126 73.6395 0.1604 73.2767 0.1604H53.4173C53.2052 0.1604 53.0139 0.293936 52.9327 0.498774Z" fill="url(#paint3_linear_262_346)"/>
<path d="M95.4072 0.1604H79.3117C73.0876 0.70257 70.4942 12.305 69.2494 16.1002C68.2536 19.1363 71.6699 19.8954 73.5025 19.8954H88.1631C88.3902 19.8954 88.5916 19.7425 88.662 19.5167L89.7726 15.9509C89.883 15.5965 89.6296 15.2328 89.273 15.2354C80.8024 15.2971 74.1995 16.3669 75.951 12.593C76.0337 12.415 76.213 12.305 76.4023 12.305H91.3982C91.6159 12.305 91.811 12.1645 91.8885 11.9518L93.1485 8.49445C93.2793 8.13548 93.0257 7.75078 92.6582 7.75078H78.4132C78.1543 7.75078 77.9254 7.54942 77.9338 7.27887C78.0451 3.68248 86.4279 4.88676 93.9214 4.72272C94.1224 4.71832 94.302 4.59299 94.3849 4.40147L95.8852 0.934877C96.0423 0.571853 95.7883 0.1604 95.4072 0.1604Z" fill="url(#paint4_linear_262_346)"/>
<path d="M147.764 0.1604H131.668C125.444 0.70257 122.851 12.305 121.606 16.1002C120.61 19.1363 124.027 19.8954 125.859 19.8954H140.52C140.747 19.8954 140.948 19.7425 141.019 19.5167L142.118 15.9881C142.231 15.6232 141.953 15.2526 141.586 15.27C129.721 15.8321 127.508 15.2292 128.329 12.6525C128.396 12.4409 128.592 12.305 128.805 12.305H143.755C143.973 12.305 144.168 12.1645 144.245 11.9518L145.505 8.49445C145.636 8.13548 145.382 7.75078 145.015 7.75078H130.77C130.511 7.75078 130.281 7.54905 130.299 7.27907C130.55 3.67212 140.6 4.47097 146.258 4.70102C146.471 4.70967 146.663 4.58221 146.751 4.37946L148.242 0.934877C148.399 0.571854 148.145 0.1604 147.764 0.1604Z" fill="url(#paint5_linear_262_346)"/>
<path d="M14.2642 18.5942H0.541319C0.268448 18.5942 0.0411303 18.8129 0.0184697 19.0971L0.00184791 19.3056C-0.0235217 19.6238 0.215545 19.8974 0.521029 19.8996L14.2605 20C14.5517 20.0021 14.7888 19.756 14.7888 19.4516V19.1427C14.7888 18.8398 14.5539 18.5942 14.2642 18.5942Z" fill="url(#paint6_linear_262_346)"/>
<path fill-rule="evenodd" clip-rule="evenodd" d="M9.79618 5.35168C9.07778 4.89214 8.34573 4.42387 7.94256 3.9556C7.6499 3.6157 7.05809 2.71893 6.49028 1.77934L1.34912 5.47368C2.338 6.7548 3.24474 8.47018 3.37825 9.3773C3.39847 9.56221 3.41737 9.73696 3.43525 9.90213C3.71083 12.449 3.73999 12.7186 4.51933 12.8472C7.58288 13.3528 11.1229 16.4237 12.5905 18.0234C12.6647 18.1044 12.7802 18.126 12.8762 18.0759C13.0091 18.0064 13.0512 17.8293 12.9648 17.7029L8.14271 10.6461C8.02119 10.4683 7.80926 10.3928 7.60019 10.3932C6.41987 10.3952 6.09765 8.87769 7.21642 8.29296C8.11051 7.82567 8.61929 8.80832 8.5435 9.50521C8.52217 9.70138 8.52628 9.91233 8.63154 10.0763L13.4255 17.5418C13.4934 17.6475 13.6258 17.6841 13.7348 17.6271C13.8574 17.563 13.9069 17.4041 13.8538 17.272C13.8036 17.1473 13.7459 16.9934 13.6797 16.8166C13.4462 16.1936 13.106 15.2858 12.6106 14.3653C11.9429 13.1245 11.8864 10.3218 11.8507 8.55466C11.8365 7.8508 11.8256 7.31126 11.7807 7.10019C11.6629 6.54572 10.7413 5.95626 9.79618 5.35168ZM1.08827 5.14838L6.28281 1.43227C6.04932 1.03729 5.82702 0.645874 5.6397 0.295881C5.48175 0.000765152 5.11105 -0.0935343 4.8488 0.104456L0.47523 3.40625C0.149828 3.65191 0.180988 4.21253 0.479112 4.49348C0.679131 4.68198 0.884156 4.90382 1.08827 5.14838Z" fill="url(#paint7_linear_262_346)"/>
<path d="M40.595 7.75071H35.8533C35.5636 7.75071 35.3306 7.50489 35.3598 7.20354C35.4178 6.60559 35.5362 5.93233 35.5362 5.4736C35.5362 4.60613 32.5279 4.60613 29.7271 4.60613C27.4864 4.60613 26.373 5.69047 26.0963 6.23264C25.2665 8.22059 23.5237 12.4567 23.1918 13.4977C22.8598 14.5387 23.6759 14.7989 24.1254 14.7989H31.0756C32.3066 14.7989 33.1533 13.478 33.5328 12.565C33.6228 12.3485 33.8213 12.1965 34.0471 12.1965H38.5301C38.8231 12.1965 39.0611 12.4486 39.0384 12.754C38.6639 17.7899 34.3157 19.5427 32.1129 19.7869C29.5196 19.7507 23.278 19.4616 19.0424 19.4616C15.3079 19.4616 18.005 9.59409 20.7021 4.93143C22.8598 1.2013 25.1973 0.268769 26.0963 0.268769C29.485 0.19648 37.0507 0.0952745 40.2042 0.268769C43.2249 0.434954 42.1085 4.92563 41.067 7.43204C40.9855 7.62808 40.7994 7.75071 40.595 7.75071Z" fill="url(#paint8_linear_262_346)"/>
<defs>
<linearGradient id="paint0_linear_262_346" x1="156.554" y1="0.0518799" x2="156.554" y2="19.8953" gradientUnits="userSpaceOnUse">
<stop stop-color="#4D7482"/>
<stop offset="1" stop-color="#1C466A"/>
</linearGradient>
<linearGradient id="paint1_linear_262_346" x1="107.191" y1="0.0604248" x2="107.191" y2="19.7869" gradientUnits="userSpaceOnUse">
<stop stop-color="#4D7482"/>
<stop offset="1" stop-color="#1C466A"/>
</linearGradient>
<linearGradient id="paint2_linear_262_346" x1="67.2265" y1="0.1604" x2="67.2265" y2="19.8954" gradientUnits="userSpaceOnUse">
<stop stop-color="#4D7482"/>
<stop offset="1" stop-color="#1C466A"/>
</linearGradient>
<linearGradient id="paint3_linear_262_346" x1="67.2265" y1="0.1604" x2="67.2265" y2="19.8954" gradientUnits="userSpaceOnUse">
<stop stop-color="#4D7482"/>
<stop offset="1" stop-color="#1C466A"/>
</linearGradient>
<linearGradient id="paint4_linear_262_346" x1="67.2265" y1="0.1604" x2="67.2265" y2="19.8954" gradientUnits="userSpaceOnUse">
<stop stop-color="#4D7482"/>
<stop offset="1" stop-color="#1C466A"/>
</linearGradient>
<linearGradient id="paint5_linear_262_346" x1="135.002" y1="0.1604" x2="135.002" y2="19.8954" gradientUnits="userSpaceOnUse">
<stop stop-color="#4D7482"/>
<stop offset="1" stop-color="#1C466A"/>
</linearGradient>
<linearGradient id="paint6_linear_262_346" x1="7.37192" y1="18.5942" x2="7.37192" y2="20.0039" gradientUnits="userSpaceOnUse">
<stop stop-color="#4D7482"/>
<stop offset="1" stop-color="#1C466A"/>
</linearGradient>
<linearGradient id="paint7_linear_262_346" x1="6.85338" y1="-0.273312" x2="6.85338" y2="18.1605" gradientUnits="userSpaceOnUse">
<stop stop-color="#4D7482"/>
<stop offset="1" stop-color="#1C466A"/>
</linearGradient>
<linearGradient id="paint8_linear_262_346" x1="29.6847" y1="0.172974" x2="29.6847" y2="19.7869" gradientUnits="userSpaceOnUse">
<stop stop-color="#4D7482"/>
<stop offset="1" stop-color="#1C466A"/>
</linearGradient>
</defs>
</svg>
