<svg xmlns="http://www.w3.org/2000/svg" viewBox="0 0 1079.72 252.13"><defs><style>.cls-1{fill:#5c869f;}.cls-1,.cls-2,.cls-3{fill-rule:evenodd;}.cls-2{fill:#236186;}.cls-3{fill:#4e7889;}.cls-4{font-size:49.88px;fill:#134660;font-family:Massilia-LightOblique, Massilia LightOblique;font-weight:300;font-style:oblique;letter-spacing:0.4em;}.cls-5{letter-spacing:0.4em;}.cls-6{letter-spacing:0.32em;}.cls-7{letter-spacing:0.4em;}.cls-8{letter-spacing:0.41em;}</style></defs><g id="Layer_2" data-name="Layer 2"><g id="Design"><path class="cls-1" d="M168.13,40.17c-28.53-10-55.32-16.63-77-12.84L78,129.37c93.26,6,156.81,36.7,186.77,95.5q-64-79.68-207.37-79.85L74,11.5c34.49.23,66.22,8.66,94.13,28.67Z"/><path class="cls-2" d="M12.65,199.49c7.81-1.55,15.52-2.89,23.22-4l-1.16,24c96.1-26.27,171.36-16.75,236.7,13.26-91-23.74-183.18-17.2-263.1,19.43Z"/><path class="cls-3" d="M271.41,232.7C173.3,182.35,84.3,178,0,197.36L15.23,50a427.35,427.35,0,0,1,46.58,1.5L60.09,65.74c-5.48.62-22.45,1-25.94,1.69l-10,106.41c97-15.12,176.55-1.21,247.31,58.86Z"/><path d="M260.18,47.45c13.35,0,29.79,3.64,44.56,9l7.86-44.3A139.42,139.42,0,0,0,258.28,1c-60,0-97.21,42.85-97.21,102.17a98.15,98.15,0,0,0,3.07,25.71c31.09,2.91,54.29,21.9,80.36,39.05a149.48,149.48,0,0,0,45.23-10.53l7.62-44.06c-20.73,6.54-37.17,9-49.08,9-25.49,0-34.07-10.9-34.07-30C214.2,65.13,231.12,47.45,260.18,47.45Z"/><path d="M347.85,46.24c7.87,0,16.2-1.45,25.26-3.39L351.9,164.64H302.58L323.79,42.85C331.17,44.55,339.27,46.24,347.85,46.24ZM355.72,1.7c16.19,0,21.2,5.08,21.2,13.07,0,15.74-9.3,22.76-27.4,22.76-14.3,0-21.21-3.63-21.21-13.32C328.31,9,337.13,1.7,355.72,1.7Z"/><path d="M386.91,109l4.29-24.69H374.77L379.06,60c13.81-11.86,27.16-25.66,43.84-42.85h29.54l-4.53,26.39h30.26L471,84.26h-30.5L436.23,109c-1.43,8-4.05,24.7,12.87,24.7,3.81,0,11.68-1,15.73-2.67l-5.72,33.18c-5,2.18-16,4.35-29.79,4.35C376.67,168.51,381.92,138.25,386.91,109Z"/><path d="M473.16,116.46c0-44.55,29.06-77,76.71-77,35.26,0,56.23,17.91,48.37,62l-2.86,16H521.05c-1.67,9.93,5.72,16.7,26.68,16.7a116.55,116.55,0,0,0,42.65-8.23l-6,34.14c-10.48,4.36-27.87,8.47-49.8,8.47C494.6,168.51,473.16,154.71,473.16,116.46Zm86-27.12c1.66-10.16-1.91-17-13.82-17-9.3,0-17.15,4.36-19.3,17Z"/><path d="M631.35,4.84h58.37c3.33,16.23,8.58,45.52,10.24,63,1,9.93,1,17,0,29.06h1.43c3.82-13.08,5.48-18.64,10-28.58,6.43-14,18.82-38.49,32.16-63.43h58.37L774.3,164.64H723.55c6.19-36.07,6-39.47,16.2-74.33h-1.43c-12.63,30.26-22.87,49.39-34.54,74.33H674.23c-2.62-22.28-6.67-43.09-8.81-74.33H664c-1.67,34.62-3.81,41.4-9.53,74.33H603.71Z"/><path d="M796.92,116.46c0-44.55,29.06-77,76.72-77,35.26,0,56.23,17.91,48.36,62l-2.86,16H844.81c-1.67,9.93,5.72,16.7,26.68,16.7a116.55,116.55,0,0,0,42.65-8.23l-6,34.14c-10.48,4.36-27.87,8.47-49.79,8.47C818.36,168.51,796.92,154.71,796.92,116.46Zm86-27.12c1.67-10.16-1.91-17-13.82-17-9.29,0-17.15,4.36-19.3,17Z"/><path d="M927.71,122.51c0-45.51,24.54-83,60-83,13.34,0,24.54,5.32,31.21,19.36h1.19L1030.4,0h49.32l-28.6,164.64h-46.93l2.62-14.77h-1.19c-12.63,11.14-26,18.64-42.88,18.64C941.05,168.51,927.71,156.16,927.71,122.51Zm61.47,10.9c15.72,0,24.3-20.59,24.3-39,0-12.84-4.05-19.62-12.86-19.62-15.49,0-24.31,20.1-24.31,39C976.31,126.38,980.13,133.41,989.18,133.41Z"/></g><g id="Editable_Text" data-name="Editable Text"><text class="cls-4" transform="translate(303.06 230.81) scale(0.98 1)">LITE<tspan class="cls-5" x="164.59" y="0">R</tspan><tspan class="cls-6" x="211.63" y="0">A</tspan><tspan class="cls-7" x="258.26" y="0">TURE R</tspan><tspan class="cls-8" x="523.81" y="0">E</tspan><tspan class="cls-7" x="568.74" y="0">VI</tspan><tspan class="cls-8" x="648.4" y="0">E</tspan><tspan x="693.34" y="0">W</tspan></text></g></g></svg>