<svg xmlns="http://www.w3.org/2000/svg" viewBox="0 0 1464.4 341.96"><defs><style>.cls-1,.cls-3{fill:#da446c;}.cls-1{fill-rule:evenodd;}.cls-2{fill:#6c6ca9;}.cls-3{font-size:67.65px;font-family:Massilia-LightOblique, Massilia LightOblique;font-weight:300;font-style:oblique;letter-spacing:0.4em;}.cls-4{letter-spacing:0.4em;}.cls-5{letter-spacing:0.32em;}.cls-6{letter-spacing:0.41em;}.cls-7{letter-spacing:0.4em;}</style></defs><g id="Layer_2" data-name="Layer 2"><g id="Layer_1-2" data-name="Layer 1"><path class="cls-1" d="M228,54.48c-38.7-13.56-75-22.55-104.42-17.42l-17.83,138.4c126.48,8.15,212.67,49.78,253.3,129.52Q272.29,196.92,77.83,196.68L100.36,15.59c46.78.32,89.82,11.75,127.67,38.89Z"/><path class="cls-1" d="M17.16,270.57c10.59-2.11,21.05-3.92,31.48-5.48l-1.56,32.53c130.34-35.63,232.41-22.72,321,18C244.71,283.41,119.67,292.28,11.27,342Z"/><path class="cls-1" d="M368.12,315.61C235,247.31,114.34,241.39,0,267.67L20.66,67.74c16.39-.65,49.1.46,63.17,2.05L81.5,89.16c-7.44.85-30.45,1.3-35.18,2.29L32.69,235.77c131.57-20.5,239.44-1.63,335.43,79.84Z"/><path class="cls-2" d="M352.88,64.36c18.1,0,40.4,4.93,60.43,12.15L424,16.42C399.09,5.58,372.27,1.31,350.3,1.31c-81.43,0-131.84,58.12-131.84,138.58a132.82,132.82,0,0,0,4.17,34.87c42.16,4,73.63,29.7,109,53,23.09-1.88,44-7,61.33-14.28l10.34-59.76c-28.11,8.87-50.41,12.15-66.56,12.15-34.58,0-46.21-14.77-46.21-40.72C290.52,88.33,313.46,64.36,352.88,64.36Z"/><path class="cls-2" d="M471.79,62.72c10.66,0,22-2,34.25-4.6L477.28,223.3H410.39L439.15,58.12C449.17,60.42,460.15,62.72,471.79,62.72ZM482.45,2.3c22,0,28.76,6.89,28.76,17.73,0,21.34-12.61,30.87-37.16,30.87-19.39,0-28.76-4.93-28.76-18.06C445.29,12.15,457.24,2.3,482.45,2.3Z"/><path class="cls-2" d="M524.77,147.77l5.81-33.49H508.29l5.82-32.84C532.85,65.35,551,46.63,573.57,23.32h40.06l-6.14,35.79h41l-9.69,55.17H597.47l-5.81,33.49c-1.94,10.84-5.5,33.5,17.45,33.5,5.17,0,15.83-1.32,21.33-3.62l-7.76,45c-6.78,3-21.65,5.91-40.39,5.91C510.87,228.55,518,187.51,524.77,147.77Z"/><path class="cls-2" d="M641.74,158c0-60.43,39.42-104.42,104-104.42,47.83,0,76.27,24.29,65.6,84.06l-3.87,21.67H706.69c-2.27,13.47,7.76,22.66,36.18,22.66a158.05,158.05,0,0,0,57.85-11.16l-8.08,46.3c-14.21,5.91-37.8,11.49-67.54,11.49C670.82,228.55,641.74,209.84,641.74,158Zm116.65-36.78c2.26-13.79-2.58-23-18.74-23-12.61,0-23.27,5.91-26.17,23Z"/><path class="cls-2" d="M856.28,6.57h79.17c4.53,22,11.64,61.73,13.9,85.37,1.29,13.47,1.29,23,0,39.41h1.94c5.17-17.73,7.43-25.28,13.57-38.75,8.72-19,25.53-52.21,43.62-86h79.17L1050.17,223.3H981.34c8.4-48.93,8.08-53.53,22-100.82h-1.94c-17.13,41.05-31,67-46.86,100.82H914.45c-3.55-30.21-9.05-58.45-12-100.82h-1.94c-2.25,47-5.16,56.16-12.92,100.82H818.8Z"/><path class="cls-2" d="M1080.85,158c0-60.43,39.42-104.42,104.05-104.42,47.83,0,76.26,24.29,65.6,84.06l-3.88,21.67H1145.8c-2.26,13.47,7.76,22.66,36.19,22.66a158,158,0,0,0,57.84-11.16l-8.07,46.3c-14.22,5.91-37.81,11.49-67.54,11.49C1109.93,228.55,1080.85,209.84,1080.85,158Zm116.65-36.78c2.27-13.79-2.58-23-18.74-23-12.6,0-23.27,5.91-26.17,23Z"/><path class="cls-2" d="M1258.24,166.16c0-61.73,33.28-112.63,81.43-112.63,18.09,0,33.28,7.22,42.33,26.27h1.62L1397.51,0h66.89l-38.78,223.3H1362l3.55-20h-1.61c-17.13,15.1-35.23,25.28-58.17,25.28C1276.34,228.55,1258.24,211.8,1258.24,166.16Zm83.37,14.78c21.33,0,33-27.92,33-52.87,0-17.41-5.5-26.61-17.45-26.61-21,0-33,27.27-33,52.88C1324.16,171.41,1329.33,180.94,1341.61,180.94Z"/><text class="cls-3" transform="translate(411.04 313.05) scale(0.98 1)">LITE<tspan class="cls-4" x="223.24" y="0">R</tspan><tspan class="cls-5" x="287.03" y="0">A</tspan><tspan x="350.28" y="0">TURE R</tspan><tspan class="cls-6" x="710.43" y="0">E</tspan><tspan x="771.38" y="0">VI</tspan><tspan class="cls-6" x="879.41" y="0">E</tspan><tspan class="cls-7" x="940.36" y="0">W</tspan></text></g></g></svg>