<svg width="255" height="30" viewBox="0 0 255 30" fill="none" xmlns="http://www.w3.org/2000/svg">
<g clip-path="url(#clip0_125_31)">
<path fill-rule="evenodd" clip-rule="evenodd" d="M225.362 0.60662C225.477 0.288182 225.77 0.0778809 226.097 0.0778809H250.296C252.578 0.403183 256.581 2.64777 254.342 9.02368C252.101 15.3997 249.258 22.3069 248.117 24.9635C247.494 26.5899 244.508 29.843 237.536 29.843H214.662L225.362 0.60662ZM244.85 10.1622C245.301 6.53898 236.898 6.62841 231.657 7.03168C231.351 7.05517 231.089 7.26376 230.982 7.56381L225.96 21.7066C225.767 22.2532 226.161 22.8323 226.719 22.8211C229.002 22.7752 232.923 22.7407 236.759 22.849C241.364 22.9792 244.254 14.9276 244.85 10.1622Z" fill="url(#paint0_linear_125_31)"/>
<path d="M158.022 0.240499C143.023 0.240499 140.459 17.924 136.39 28.3772C136.178 28.9228 136.551 29.5294 137.115 29.5399L144.091 29.6701C144.421 29.6762 144.719 29.4694 144.838 29.1473C146.428 24.8492 149.661 16.1159 151.332 11.6261C152.871 7.48719 157.116 6.85287 159.729 7.09783C160.221 7.14385 160.499 7.67724 160.317 8.15593L152.54 28.553C152.334 29.0933 152.715 29.6803 153.27 29.6803H160.134C160.457 29.6803 160.746 29.4751 160.866 29.1622L169.029 7.75257C169.148 7.43974 169.437 7.23448 169.758 7.23448H173.427C176.291 7.23448 175.865 10.1622 175.295 11.6261L168.732 28.5485C168.522 29.0894 168.903 29.6803 169.461 29.6803H176.337C176.649 29.6803 176.931 29.4892 177.056 29.1905C179.066 24.3862 183.209 14.0203 185.253 7.23448C187.898 -1.54866 177.006 0.240499 158.022 0.240499Z" fill="url(#paint1_linear_125_31)"/>
<path d="M75.7974 0.240601H69.0876C68.7648 0.240601 68.4746 0.44677 68.3558 0.760625L57.7752 28.7178C57.5709 29.2578 57.9515 29.8431 58.5071 29.8431H65.2169C65.5397 29.8431 65.8298 29.6368 65.9486 29.323L76.5293 1.36587C76.7336 0.825926 76.3529 0.240601 75.7974 0.240601Z" fill="url(#paint2_linear_125_31)"/>
<path d="M79.3991 0.748162L77.3996 5.78873C77.1866 6.32583 77.5593 6.91818 78.1155 6.92637L86.8625 7.05516C87.4133 7.06326 87.7859 7.64504 87.5832 8.1804L79.8707 28.5551C79.6664 29.0951 80.0469 29.6804 80.6025 29.6804H87.7644C88.0946 29.6804 88.3896 29.4651 88.5033 29.1411L96.0605 7.61123C96.1742 7.28729 96.4691 7.07195 96.7992 7.07195H108.143C108.476 7.07195 108.773 6.8534 108.884 6.52598L110.656 1.33993C110.839 0.80419 110.459 0.240601 109.915 0.240601H80.126C79.8078 0.240601 79.5209 0.440905 79.3991 0.748162Z" fill="url(#paint3_linear_125_31)"/>
<path d="M143.111 0.240601H118.968C109.631 1.05386 105.741 18.4575 103.874 24.1503C102.38 28.7044 107.505 29.8431 110.254 29.8431H132.245C132.585 29.8431 132.887 29.6137 132.993 29.275L134.659 23.9263C134.824 23.3947 134.444 22.8492 133.91 22.8531C121.204 22.9456 111.299 24.5503 113.926 18.8895C114.051 18.6225 114.319 18.4575 114.603 18.4575H137.097C137.424 18.4575 137.716 18.2467 137.833 17.9277L139.723 12.7417C139.919 12.2032 139.539 11.6262 138.987 11.6262H117.62C117.231 11.6262 116.888 11.3241 116.901 10.9183C117.068 5.52372 129.642 7.33014 140.882 7.08408C141.184 7.07748 141.453 6.88948 141.577 6.6022L143.828 1.40232C144.063 0.85778 143.682 0.240601 143.111 0.240601Z" fill="url(#paint4_linear_125_31)"/>
<path d="M221.646 0.240601H197.502C188.166 1.05386 184.277 18.4575 182.409 24.1503C180.915 28.7044 186.041 29.8431 188.789 29.8431H210.78C211.121 29.8431 211.422 29.6137 211.529 29.275L213.177 23.9821C213.347 23.4348 212.93 22.8789 212.379 22.905C194.582 23.7481 191.262 22.8438 192.494 18.9787C192.594 18.6613 192.888 18.4575 193.208 18.4575H215.633C215.96 18.4575 216.252 18.2467 216.368 17.9277L218.258 12.7417C218.454 12.2032 218.073 11.6262 217.523 11.6262H196.155C195.767 11.6262 195.422 11.3236 195.449 10.9186C195.825 5.50818 210.9 6.70645 219.387 7.05153C219.707 7.0645 219.995 6.87331 220.127 6.56919L222.363 1.40232C222.599 0.857781 222.218 0.240601 221.646 0.240601Z" fill="url(#paint5_linear_125_31)"/>
<path d="M21.3963 27.8914H0.811979C0.402672 27.8914 0.0616955 28.2194 0.0277046 28.6457L0.00277186 28.9585C-0.0352826 29.4358 0.323317 29.8462 0.781544 29.8495L21.3908 30.0001C21.8276 30.0032 22.1832 29.6341 22.1832 29.1775V28.7141C22.1832 28.2598 21.8309 27.8914 21.3963 27.8914Z" fill="url(#paint6_linear_125_31)"/>
<path fill-rule="evenodd" clip-rule="evenodd" d="M14.6943 8.02752C13.6167 7.33821 12.5186 6.63581 11.9139 5.9334C11.4749 5.42355 10.5872 4.0784 9.73545 2.66901L2.02371 8.21052C3.50703 10.1322 4.86714 12.7053 5.06741 14.066C5.09774 14.3433 5.12609 14.6054 5.15291 14.8532C5.56628 18.6735 5.61002 19.0779 6.77903 19.2708C11.3744 20.0292 16.6844 24.6355 18.8858 27.0351C18.9971 27.1566 19.1703 27.189 19.3143 27.1138C19.5137 27.0096 19.5768 26.7439 19.4472 26.5543L12.2141 15.9692C12.0318 15.7024 11.7139 15.5892 11.4003 15.5898C9.62984 15.5928 9.14651 13.3165 10.8247 12.4394C12.1658 11.7385 12.929 13.2125 12.8153 14.2578C12.7833 14.5521 12.7895 14.8685 12.9473 15.1144L20.1383 26.3127C20.2401 26.4712 20.4387 26.5261 20.6022 26.4407C20.7861 26.3445 20.8604 26.1061 20.7807 25.908C20.7054 25.7209 20.6189 25.4901 20.5196 25.2249C20.1693 24.2904 19.659 22.9287 18.9159 21.548C17.9144 19.6868 17.8296 15.4827 17.7761 12.832C17.7548 11.7762 17.7384 10.9669 17.6711 10.6503C17.4944 9.81858 16.112 8.93439 14.6943 8.02752ZM1.63244 7.72257L9.42425 2.14841C9.07401 1.55594 8.74056 0.968811 8.45958 0.443822C8.22266 0.00114785 7.66661 -0.140301 7.27323 0.156684L0.712875 5.10938C0.224772 5.47787 0.271512 6.3188 0.718698 6.74022C1.01873 7.02297 1.32626 7.35573 1.63244 7.72257Z" fill="url(#paint7_linear_125_31)"/>
<path d="M60.8925 11.6261H53.7799C53.3454 11.6261 52.9959 11.2574 53.0397 10.8054C53.1267 9.90844 53.3043 8.89855 53.3043 8.21046C53.3043 6.90925 48.7918 6.90925 44.5906 6.90925C41.2296 6.90925 39.5595 8.53576 39.1444 9.34902C37.8997 12.3309 35.2855 18.6851 34.7877 20.2466C34.2897 21.8081 35.5138 22.1984 36.1881 22.1984H46.6134C48.4599 22.1984 49.7299 20.217 50.2992 18.8475C50.4342 18.5228 50.7319 18.2948 51.0706 18.2948H57.7951C58.2346 18.2948 58.5916 18.673 58.5576 19.1311C57.9958 26.6849 51.4735 29.3141 48.1693 29.6804C44.2794 29.6261 34.917 29.1924 28.5636 29.1924C22.9618 29.1924 27.0075 14.3912 31.0531 7.3972C34.2897 1.80201 37.7959 0.403214 39.1444 0.403214C44.2275 0.294781 55.576 0.142973 60.3063 0.403214C64.8373 0.652492 63.1627 7.3885 61.6005 11.1481C61.4782 11.4422 61.1991 11.6261 60.8925 11.6261Z" fill="url(#paint8_linear_125_31)"/>
</g>
<defs>
<linearGradient id="paint0_linear_125_31" x1="234.831" y1="0.0778809" x2="234.831" y2="29.843" gradientUnits="userSpaceOnUse">
<stop stop-color="#EE316B"/>
<stop offset="1" stop-color="#EE316B"/>
</linearGradient>
<linearGradient id="paint1_linear_125_31" x1="160.787" y1="0.0905766" x2="160.787" y2="29.6803" gradientUnits="userSpaceOnUse">
<stop stop-color="#EE316B"/>
<stop offset="1" stop-color="#EE316B"/>
</linearGradient>
<linearGradient id="paint2_linear_125_31" x1="100.84" y1="0.240601" x2="100.84" y2="29.8431" gradientUnits="userSpaceOnUse">
<stop stop-color="#6D6BAF"/>
<stop offset="1" stop-color="#6D6BAF"/>
</linearGradient>
<linearGradient id="paint3_linear_125_31" x1="100.84" y1="0.240601" x2="100.84" y2="29.8431" gradientUnits="userSpaceOnUse">
<stop stop-color="#6D6BAF"/>
<stop offset="1" stop-color="#6D6BAF"/>
</linearGradient>
<linearGradient id="paint4_linear_125_31" x1="100.84" y1="0.240601" x2="100.84" y2="29.8431" gradientUnits="userSpaceOnUse">
<stop stop-color="#6D6BAF"/>
<stop offset="1" stop-color="#6D6BAF"/>
</linearGradient>
<linearGradient id="paint5_linear_125_31" x1="202.503" y1="0.240601" x2="202.503" y2="29.8431" gradientUnits="userSpaceOnUse">
<stop stop-color="#EE316B"/>
<stop offset="1" stop-color="#EE316B"/>
</linearGradient>
<linearGradient id="paint6_linear_125_31" x1="11.0579" y1="27.8914" x2="11.0579" y2="30.0059" gradientUnits="userSpaceOnUse">
<stop stop-color="#6D6BAF"/>
<stop offset="1" stop-color="#6D6BAF"/>
</linearGradient>
<linearGradient id="paint7_linear_125_31" x1="10.2801" y1="-0.409968" x2="10.2801" y2="27.2407" gradientUnits="userSpaceOnUse">
<stop stop-color="#6D6BAF"/>
<stop offset="1" stop-color="#6D6BAF"/>
</linearGradient>
<linearGradient id="paint8_linear_125_31" x1="44.527" y1="0.259522" x2="44.527" y2="29.6804" gradientUnits="userSpaceOnUse">
<stop stop-color="#6D6BAF"/>
<stop offset="1" stop-color="#6D6BAF"/>
</linearGradient>
<clipPath id="clip0_125_31">
<rect width="255" height="30" fill="white"/>
</clipPath>
</defs>
</svg>
