<svg width="661" height="643" viewBox="0 0 661 643" fill="none" xmlns="http://www.w3.org/2000/svg">
<path d="M199.613 169.674C199.613 169.674 270.491 221.996 378.243 124.163C473.937 37.2809 552.074 174.362 552.62 240.009C553.328 325.046 456.926 393.087 503.71 448.94C550.493 504.794 410.93 597.028 335.712 517.206C242.143 417.911 216.795 498.589 163.462 498.589C125.184 498.589 46.5949 406.066 99.6649 337.233C144.323 279.312 119.967 260.089 108.173 240.009C91.1588 211.047 131.563 132.438 199.613 169.674Z" fill="#6D6BAF"/>
<path d="M484.164 285.297C487.974 286.675 492.136 286.766 496.097 285.88C512.693 282.176 569.758 272.363 559.843 315.38C557.683 323.914 524.263 371.711 571.857 389.157C575.346 390.453 579.034 391.16 582.766 391.247C597.421 391.541 626.46 388.174 638.613 376.141C653.297 361.603 637.256 368.496 637.256 368.496C637.256 368.496 581.439 392.191 561.723 367.052C559.529 364.255 558.132 360.192 557.733 356.695C557.039 350.632 559.806 342.62 563.441 335.644C568.363 326.203 591.987 283.735 540.693 271.364C528.878 268.627 511.716 266.17 489.589 275.232C476.68 280.518 479.539 283.625 484.164 285.297Z" fill="#EC5687"/>
<path d="M495.585 269.442L480.729 274.853C475.601 276.72 473 282.277 474.919 287.265L475.656 289.18C477.575 294.168 483.288 296.699 488.415 294.832L503.274 289.424C508.401 287.557 511.003 281.999 509.083 277.009L508.347 275.096C506.427 270.106 500.715 267.575 495.585 269.442Z" fill="#17A2B8"/>
<path d="M404.39 285.095L355.396 302.933C352.83 303.866 351.529 306.644 352.49 309.138L352.684 309.641C353.642 312.135 356.499 313.401 359.065 312.468L408.059 294.629C410.625 293.695 411.926 290.916 410.965 288.422L410.771 287.919C409.813 285.425 406.956 284.16 404.39 285.095Z" fill="white"/>
<path d="M418.066 320.636L369.069 338.473C366.506 339.407 365.205 342.186 366.166 344.68L366.357 345.183C367.318 347.677 370.174 348.942 372.738 348.008L421.735 330.171C424.298 329.237 425.599 326.458 424.641 323.964L424.447 323.461C423.489 320.967 420.63 319.702 418.066 320.636Z" fill="white"/>
<path d="M463.302 260.84L423.592 275.296C418.463 277.163 415.861 282.722 417.78 287.71L431.34 322.949C433.26 327.937 438.972 330.468 444.1 328.601L483.812 314.145C488.939 312.278 491.541 306.72 489.622 301.73L476.064 266.491C474.145 261.503 468.432 258.973 463.302 260.84Z" fill="#EE316B"/>
<path d="M427.695 270.083L387.983 284.541C382.856 286.408 380.254 291.966 382.174 296.956L398.349 338.997C400.269 343.984 405.981 346.515 411.109 344.648L450.821 330.192C455.948 328.325 458.55 322.768 456.631 317.777L440.455 275.737C438.536 270.747 432.823 268.216 427.695 270.083Z" fill="#EE316B"/>
<path d="M433.911 261.552L433.599 261.664C430.181 262.909 428.446 266.615 429.725 269.94L452.386 328.837C453.665 332.162 457.473 333.85 460.892 332.605L461.203 332.491C464.624 331.246 466.357 327.542 465.077 324.217L442.419 265.32C441.14 261.995 437.329 260.307 433.911 261.552Z" fill="#17A2B8"/>
<path d="M28.9934 299.206C28.9934 299.206 108.746 277.404 97.167 327.636C95.1562 335.584 66.2112 376.506 100.689 396.154C108.092 400.373 116.636 402.242 125.215 402.199C140.598 402.121 164.983 399.241 175.939 388.395C190.621 373.856 174.581 380.75 174.581 380.75C174.581 380.75 128.778 399.078 105.214 384.468C97.1679 379.48 93.5209 369.821 95.7057 360.785C96.8226 356.298 98.523 351.967 100.766 347.897C105.891 338.56 129.312 295.989 78.0188 283.618C66.2027 280.881 49.0408 278.423 26.9122 287.485C4.78355 296.549 28.9934 299.206 28.9934 299.206Z" fill="#EE316B" fill-opacity="0.79"/>
<path d="M186.663 369.509L171.806 374.92C166.678 376.787 164.076 382.344 165.996 387.334L166.732 389.247C168.651 394.237 174.365 396.768 179.493 394.899L194.35 389.49C199.478 387.623 202.08 382.066 200.161 377.076L199.424 375.163C197.505 370.173 191.791 367.642 186.663 369.509Z" fill="#17A2B8"/>
<path d="M211.763 345.732L189.745 353.749C184.617 355.616 182.015 361.173 183.935 366.163L194.552 393.757C196.471 398.747 202.184 401.278 207.313 399.411L229.331 391.394C234.46 389.527 237.06 383.97 235.142 378.98L224.525 351.386C222.605 346.396 216.892 343.865 211.763 345.732Z" fill="#EE316B"/>
<path d="M248.418 324.485L215.583 336.44C210.455 338.307 207.853 343.865 209.773 348.855L225.948 390.896C227.867 395.886 233.581 398.417 238.708 396.55L271.544 384.594C276.673 382.727 279.275 377.17 277.356 372.18L261.18 330.139C259.261 325.149 253.548 322.618 248.418 324.485Z" fill="#EE316B"/>
<path d="M255.375 315.78L255.063 315.892C251.643 317.137 249.91 320.843 251.189 324.169L273.848 383.065C275.127 386.39 278.937 388.078 282.356 386.834L282.667 386.719C286.086 385.474 287.821 381.77 286.541 378.442L263.881 319.548C262.601 316.223 258.793 314.535 255.375 315.78Z" fill="#17A2B8"/>
<path d="M339.221 278.258C338.038 278.13 336.952 277.562 336.192 276.671C335.434 275.78 335.059 274.639 335.146 273.484L337.596 229.953C337.743 227.353 340 225.377 342.561 225.607L346.13 225.928C348.692 226.158 350.526 228.5 350.167 231.083L344.147 274.292C344.01 275.443 343.42 276.497 342.502 277.236C341.584 277.976 340.408 278.341 339.221 278.258Z" fill="#17A2B8"/>
<path d="M318.066 282.011C317.698 282.116 317.313 282.151 316.931 282.112C316.55 282.07 316.18 281.958 315.845 281.779C315.507 281.602 315.212 281.361 314.971 281.069C314.73 280.78 314.551 280.445 314.442 280.089L305.694 253.009C305.439 252.24 305.509 251.402 305.887 250.683C306.267 249.962 306.923 249.417 307.717 249.169L309.981 248.504C310.37 248.393 310.778 248.363 311.18 248.414C311.581 248.464 311.966 248.595 312.313 248.8C312.66 249.002 312.96 249.273 313.194 249.594C313.427 249.916 313.59 250.281 313.67 250.667L320.155 278.412C320.337 279.156 320.221 279.942 319.834 280.61C319.447 281.276 318.817 281.776 318.066 282.011Z" fill="#17A2B8"/>
<path d="M306.26 297.626C304.693 299.516 301.539 299.493 299.112 297.576L256.027 263.522C253.451 261.488 252.693 258.121 254.355 256.118L256.673 253.326C258.338 251.321 261.751 251.487 264.188 253.687L304.957 290.535C307.254 292.609 307.828 295.739 306.26 297.626Z" fill="#17A2B8"/>
<path d="M326.178 385.584C327.287 386.002 328.186 386.822 328.687 387.871C329.19 388.921 329.251 390.12 328.864 391.213L315.066 432.691C314.242 435.169 311.541 436.517 309.124 435.658L305.755 434.461C303.34 433.603 302.181 430.881 303.205 428.477L320.37 388.195C320.807 387.116 321.652 386.243 322.736 385.756C323.817 385.27 325.049 385.208 326.178 385.584Z" fill="#17A2B8"/>
<path d="M347.615 387.212C347.998 387.201 348.38 387.265 348.739 387.398C349.095 387.531 349.423 387.731 349.702 387.988C349.981 388.243 350.205 388.551 350.361 388.891C350.516 389.231 350.604 389.598 350.613 389.973L351.964 418.327C352.006 419.135 351.72 419.925 351.163 420.526C350.609 421.13 349.83 421.493 349.001 421.537L346.635 421.617C346.229 421.626 345.828 421.555 345.453 421.406C345.077 421.257 344.74 421.034 344.457 420.752C344.176 420.469 343.956 420.134 343.814 419.764C343.675 419.394 343.614 419.002 343.635 418.609L344.65 390.175C344.671 389.408 344.99 388.677 345.538 388.129C346.088 387.58 346.829 387.254 347.615 387.212Z" fill="#17A2B8"/>
<path d="M363.13 375.046C365.141 373.608 368.184 374.414 370.025 376.872L402.745 420.499C404.697 423.106 404.549 426.548 402.414 428.073L399.44 430.197C397.306 431.722 394.046 430.714 392.268 427.981L362.523 382.227C360.852 379.653 361.118 376.483 363.13 375.046Z" fill="#17A2B8"/>
</svg>
