<svg width="20" height="20" viewBox="0 0 20 20" fill="none" xmlns="http://www.w3.org/2000/svg">
<path d="M14.1057 9.28571H10.7129V5.89285C10.7129 5.79464 10.6325 5.71428 10.5343 5.71428H9.46289C9.36467 5.71428 9.28432 5.79464 9.28432 5.89285V9.28571H5.89146C5.79325 9.28571 5.71289 9.36606 5.71289 9.46428V10.5357C5.71289 10.6339 5.79325 10.7143 5.89146 10.7143H9.28432V14.1071C9.28432 14.2053 9.36467 14.2857 9.46289 14.2857H10.5343C10.6325 14.2857 10.7129 14.2053 10.7129 14.1071V10.7143H14.1057C14.204 10.7143 14.2843 10.6339 14.2843 10.5357V9.46428C14.2843 9.36606 14.204 9.28571 14.1057 9.28571Z" fill="white"/>
<path d="M10 0C4.47768 0 0 4.47768 0 10C0 15.5223 4.47768 20 10 20C15.5223 20 20 15.5223 20 10C20 4.47768 15.5223 0 10 0ZM10 18.3036C5.41518 18.3036 1.69643 14.5848 1.69643 10C1.69643 5.41518 5.41518 1.69643 10 1.69643C14.5848 1.69643 18.3036 5.41518 18.3036 10C18.3036 14.5848 14.5848 18.3036 10 18.3036Z" fill="white"/>
</svg>
