<svg width="15" height="16" viewBox="0 0 15 16" fill="none" xmlns="http://www.w3.org/2000/svg">
<path d="M4.94177 8.92431C4.94177 9.08314 5.04766 9.22212 5.20053 9.26448C7.91791 10.0143 8.4394 10.5365 9.18994 13.2539C9.2323 13.4068 9.37128 13.5127 9.53011 13.5127C9.68894 13.5127 9.82792 13.4068 9.87028 13.2539C10.6208 10.5365 11.1423 10.015 13.8597 9.26448C14.0126 9.22212 14.1184 9.08314 14.1184 8.92431C14.1184 8.76547 14.0126 8.62649 13.8597 8.58414C11.1423 7.83364 10.6201 7.31147 9.87028 4.5947C9.82792 4.44182 9.68894 4.33594 9.53011 4.33594C9.37128 4.33594 9.2323 4.44183 9.18994 4.5947C8.44011 7.31142 7.91795 7.83359 5.20053 8.58414C5.04766 8.62649 4.94177 8.76547 4.94177 8.92431ZM9.53009 5.89059C10.131 7.60669 10.8477 8.32336 12.5645 8.92498C10.8484 9.52592 10.131 10.2426 9.53009 11.9594C8.92917 10.2433 8.21244 9.52661 6.49572 8.92498C8.21181 8.32405 8.92915 7.60732 9.53009 5.89059Z" fill="#0A5CFF"/>
<path d="M1.55979 4.723C3.21298 5.17965 3.50476 5.47152 3.96085 7.12408C4.00321 7.27696 4.14285 7.38284 4.30102 7.38284C4.45919 7.38284 4.59949 7.27695 4.64119 7.12408C5.09717 5.47153 5.38904 5.1796 7.04225 4.723C7.19513 4.68064 7.30101 4.54166 7.30101 4.38283C7.30101 4.22399 7.19512 4.08501 7.04225 4.04266C5.38906 3.58601 5.09728 3.29414 4.64119 1.64157C4.59949 1.4887 4.45985 1.38281 4.30102 1.38281C4.14219 1.38281 4.00321 1.4887 3.96085 1.64157C3.50421 3.29478 3.21234 3.58606 1.55979 4.04266C1.40691 4.08501 1.30103 4.22399 1.30103 4.38283C1.30103 4.54166 1.40691 4.68064 1.55979 4.723ZM4.30173 2.8534C4.63065 3.63501 5.04892 4.05326 5.8305 4.38218C5.04824 4.71111 4.62999 5.12938 4.30173 5.91097C3.97281 5.12936 3.55454 4.71111 2.77296 4.38218C3.55456 4.05326 3.97281 3.63499 4.30173 2.8534Z" fill="#0A5CFF"/>
<path d="M0.25876 12.6647C2.01449 13.1498 2.35198 13.4866 2.83653 15.2418C2.87889 15.3946 3.01787 15.5005 3.1767 15.5005C3.33554 15.5005 3.47452 15.3946 3.51687 15.2418C4.00132 13.486 4.33884 13.149 6.09465 12.6647C6.24752 12.6223 6.35341 12.4833 6.35341 12.3245C6.35341 12.1656 6.24685 12.0267 6.09465 11.9843C4.33891 11.4999 4.00142 11.1623 3.51687 9.4072C3.47452 9.25432 3.33554 9.14844 3.1767 9.14844C3.01787 9.14844 2.87889 9.25433 2.83653 9.4072C2.35209 11.1623 2.01456 11.4999 0.25876 11.9843C0.105883 12.0267 0 12.1656 0 12.3245C0 12.4833 0.10589 12.6223 0.25876 12.6647ZM3.17674 10.6316C3.53544 11.5098 3.99076 11.9658 4.86965 12.3245C3.99143 12.6832 3.5361 13.1385 3.17674 14.0174C2.81803 13.1392 2.36205 12.6839 1.48383 12.3245C2.36205 11.9658 2.81803 11.5105 3.17674 10.6316Z" fill="#0A5CFF"/>
</svg>
