<svg width="15" height="14" viewBox="0 0 15 14" fill="none" xmlns="http://www.w3.org/2000/svg">
<path d="M10.2379 2.74732C10.3693 2.61597 10.5252 2.51177 10.6969 2.44068C10.8685 2.3696 11.0524 2.33301 11.2382 2.33301C11.424 2.33301 11.6079 2.3696 11.7795 2.44068C11.9511 2.51177 12.1071 2.61597 12.2384 2.74732C12.3698 2.87868 12.474 3.03462 12.5451 3.20624C12.6162 3.37786 12.6528 3.56181 12.6528 3.74757C12.6528 3.93333 12.6162 4.11728 12.5451 4.2889C12.474 4.46052 12.3698 4.61646 12.2384 4.74782L5.48676 11.4995L2.73608 12.2497L3.48627 9.49899L10.2379 2.74732Z" stroke="#F78009" stroke-width="1.5" stroke-linecap="round" stroke-linejoin="round"/>
</svg>
