<svg width="16" height="16" viewBox="0 0 16 16" fill="none" xmlns="http://www.w3.org/2000/svg">
<path d="M4.94165 8.42431C4.94165 8.58314 5.04754 8.72212 5.20041 8.76448C7.91779 9.51432 8.43927 10.0365 9.18982 12.7539C9.23217 12.9068 9.37115 13.0127 9.52999 13.0127C9.68882 13.0127 9.8278 12.9068 9.87015 12.7539C10.6206 10.0365 11.1422 9.51503 13.8596 8.76448C14.0124 8.72212 14.1183 8.58314 14.1183 8.42431C14.1183 8.26547 14.0124 8.12649 13.8596 8.08414C11.1422 7.33364 10.62 6.81147 9.87015 4.0947C9.8278 3.94182 9.68882 3.83594 9.52999 3.83594C9.37115 3.83594 9.23217 3.94183 9.18982 4.0947C8.43999 6.81142 7.91782 7.33359 5.20041 8.08414C5.04753 8.12649 4.94165 8.26547 4.94165 8.42431ZM9.52997 5.39059C10.1309 7.10669 10.8476 7.82336 12.5643 8.42498C10.8483 9.02592 10.1309 9.74265 9.52997 11.4594C8.92904 9.74328 8.21232 9.02661 6.4956 8.42498C8.21169 7.82405 8.92903 7.10732 9.52997 5.39059Z" fill="#181A1E"/>
<path d="M1.55979 4.223C3.21298 4.67965 3.50476 4.97152 3.96085 6.62408C4.00321 6.77696 4.14285 6.88284 4.30102 6.88284C4.45919 6.88284 4.59949 6.77695 4.64119 6.62408C5.09717 4.97153 5.38904 4.6796 7.04225 4.223C7.19513 4.18064 7.30101 4.04166 7.30101 3.88283C7.30101 3.72399 7.19512 3.58501 7.04225 3.54266C5.38906 3.08601 5.09728 2.79414 4.64119 1.14157C4.59949 0.988696 4.45985 0.882812 4.30102 0.882812C4.14219 0.882812 4.00321 0.988703 3.96085 1.14157C3.50421 2.79478 3.21234 3.08606 1.55979 3.54266C1.40691 3.58501 1.30103 3.72399 1.30103 3.88283C1.30103 4.04166 1.40691 4.18064 1.55979 4.223ZM4.30173 2.3534C4.63065 3.13501 5.04892 3.55326 5.8305 3.88218C5.04824 4.21111 4.62999 4.62938 4.30173 5.41097C3.97281 4.62936 3.55454 4.21111 2.77296 3.88218C3.55456 3.55326 3.97281 3.13499 4.30173 2.3534Z" fill="#181A1E"/>
<path d="M0.25876 12.1647C2.01449 12.6498 2.35198 12.9866 2.83653 14.7418C2.87889 14.8946 3.01787 15.0005 3.1767 15.0005C3.33554 15.0005 3.47452 14.8946 3.51687 14.7418C4.00132 12.986 4.33884 12.649 6.09465 12.1647C6.24752 12.1223 6.35341 11.9833 6.35341 11.8245C6.35341 11.6656 6.24685 11.5267 6.09465 11.4843C4.33891 10.9999 4.00142 10.6623 3.51687 8.9072C3.47452 8.75432 3.33554 8.64844 3.1767 8.64844C3.01787 8.64844 2.87889 8.75433 2.83653 8.9072C2.35209 10.6623 2.01456 10.9999 0.25876 11.4843C0.105883 11.5267 0 11.6656 0 11.8245C0 11.9833 0.10589 12.1223 0.25876 12.1647ZM3.17674 10.1316C3.53544 11.0098 3.99076 11.4658 4.86965 11.8245C3.99143 12.1832 3.5361 12.6385 3.17674 13.5174C2.81803 12.6392 2.36205 12.1839 1.48383 11.8245C2.36205 11.4658 2.81803 11.0105 3.17674 10.1316Z" fill="#181A1E"/>
</svg>
