<svg width="23" height="23" viewBox="0 0 23 23" fill="none" xmlns="http://www.w3.org/2000/svg">
<path d="M22.5825 20.547L15.2832 13.2474C16.4947 11.5262 17.0166 9.41323 16.7458 7.32589C16.4749 5.23855 15.431 3.32873 13.8203 1.97377C12.2095 0.618805 10.1492 -0.0827264 8.0463 0.00778321C5.94341 0.0982928 3.95095 0.974259 2.46261 2.46261C0.974259 3.95095 0.0982928 5.94341 0.00778321 8.0463C-0.0827264 10.1492 0.618805 12.2095 1.97377 13.8203C3.32873 15.431 5.23855 16.4749 7.32589 16.7458C9.41323 17.0166 11.5262 16.4947 13.2474 15.2832L20.547 22.5825C20.8173 22.8506 21.1828 23.0008 21.5636 23C21.9443 22.9992 22.3092 22.8477 22.5784 22.5784C22.8477 22.3092 22.9992 21.9443 23 21.5636C23.0008 21.1828 22.8506 20.8173 22.5825 20.547ZM4.47595 12.317C3.70059 11.5417 3.17255 10.5539 2.95861 9.47848C2.74466 8.40305 2.85443 7.28834 3.27403 6.2753C3.69363 5.26226 4.4042 4.3964 5.3159 3.78721C6.2276 3.17802 7.29948 2.85287 8.39598 2.85287C9.49247 2.85287 10.5643 3.17802 11.476 3.78721C12.3877 4.3964 13.0983 5.26226 13.5179 6.2753C13.9375 7.28834 14.0473 8.40305 13.8333 9.47848C13.6194 10.5539 13.0914 11.5417 12.316 12.317C11.2755 13.3552 9.86576 13.9382 8.39598 13.9382C6.92618 13.9382 5.51641 13.3552 4.47595 12.317Z" fill="#6D6BAF"/>
</svg>
