<svg width="16" height="16" viewBox="0 0 16 16" fill="none" xmlns="http://www.w3.org/2000/svg">
<path d="M6.23529 10.7999V12.1999C6.23529 12.5712 6.38403 12.9273 6.64879 13.1899C6.91355 13.4524 7.27264 13.5999 7.64706 13.5999L12.5882 13.5999C12.9627 13.5999 13.3217 13.4524 13.5865 13.1899C13.8513 12.9273 14 12.5712 14 12.1999L14 3.7999C14 3.4286 13.8513 3.0725 13.5865 2.80995C13.3217 2.5474 12.9627 2.3999 12.5882 2.3999L7.64706 2.3999C7.27264 2.3999 6.91355 2.5474 6.64879 2.80995C6.38403 3.0725 6.23529 3.4286 6.23529 3.7999V5.1999M10.4706 7.9999L2 7.9999M2 7.9999L4.11765 10.0999M2 7.9999L4.11765 5.8999" stroke="#3C404A" stroke-width="1.2" stroke-linecap="round" stroke-linejoin="round"/>
</svg>
