<svg width="14" height="14" viewBox="0 0 14 14" fill="none" xmlns="http://www.w3.org/2000/svg">
<g id="Menu Icons">
<path id="Vector" d="M9.25186 2.74763C9.38321 2.61627 9.53915 2.51208 9.71077 2.44099C9.8824 2.3699 10.0663 2.33331 10.2521 2.33331C10.4379 2.33331 10.6218 2.3699 10.7934 2.44099C10.9651 2.51208 11.121 2.61627 11.2524 2.74763C11.3837 2.87898 11.4879 3.03492 11.559 3.20655C11.6301 3.37817 11.6667 3.56211 11.6667 3.74788C11.6667 3.93364 11.6301 4.11758 11.559 4.28921C11.4879 4.46083 11.3837 4.61677 11.2524 4.74812L4.50068 11.4998L1.75 12.25L2.50019 9.4993L9.25186 2.74763Z" stroke="#4A505C" stroke-width="1.5" stroke-linecap="round" stroke-linejoin="round"/>
</g>
</svg>
