<svg width="22" height="29" viewBox="0 0 22 29" fill="none" xmlns="http://www.w3.org/2000/svg">
<path d="M13.0076 9.89946H15.5923C15.7888 9.89946 15.9499 9.73862 15.9499 9.54187V6.9572C15.9499 6.7607 15.789 6.59961 15.5923 6.59961H13.0076C12.8111 6.59961 12.65 6.76045 12.65 6.9572V9.54187C12.65 9.73862 12.8109 9.89946 13.0076 9.89946Z" fill="#6D6BAF"/>
<path d="M8.9922 6.60059H6.40728C6.21078 6.60059 6.04968 6.76142 6.04968 6.95818V9.54285C6.04968 9.73935 6.21052 9.90044 6.40728 9.90044H8.9922C9.1887 9.90044 9.34979 9.7396 9.34979 9.54285V6.95818C9.34979 6.76143 9.18895 6.60059 8.9922 6.60059Z" fill="#6D6BAF"/>
<path d="M13.0076 15.3997H15.5923C15.7888 15.3997 15.9499 15.2389 15.9499 15.0421V12.4572C15.9499 12.2607 15.789 12.0996 15.5923 12.0996H13.0076C12.8111 12.0996 12.65 12.2604 12.65 12.4572V15.0421C12.65 15.2389 12.8109 15.3997 13.0076 15.3997Z" fill="#6D6BAF"/>
<path d="M8.9922 12.1001H6.40728C6.21078 12.1001 6.04968 12.2609 6.04968 12.4577V15.0426C6.04968 15.2391 6.21052 15.4002 6.40728 15.4002H8.9922C9.1887 15.4002 9.34979 15.2394 9.34979 15.0426V12.4577C9.34979 12.2609 9.18895 12.1001 8.9922 12.1001Z" fill="#6D6BAF"/>
<path d="M8.9922 17.5996H6.40728C6.21078 17.5996 6.04968 17.7604 6.04968 17.9572V20.5421C6.04968 20.7386 6.21052 20.8997 6.40728 20.8997H8.9922C9.1887 20.8997 9.34979 20.7389 9.34979 20.5421V17.9572C9.34979 17.761 9.18895 17.5996 8.9922 17.5996Z" fill="#6D6BAF"/>
<path d="M21.6423 25.2997H20.8997L20.8999 1.45756C20.8999 1.26106 20.7391 1.09996 20.5424 1.09996H17.5998V0.357594C17.5998 0.161095 17.439 0 17.2422 0H4.75745C4.56095 0 4.39986 0.160839 4.39986 0.357594V1.10022H1.45757C1.26107 1.10022 1.09998 1.26106 1.09998 1.45781L1.10047 25.3H0.357595C0.161095 25.3 0 25.4608 0 25.6576V28.242C0 28.4385 0.16084 28.5996 0.357595 28.5996H21.6424C21.8389 28.5996 22 28.4387 22 28.242V25.6573C22 25.4608 21.8387 25.3 21.6424 25.3L21.6423 25.2997ZM3.2998 3.29992H18.6994V25.2991H15.9496L15.9494 19.0846C15.9494 18.8726 15.7761 18.6993 15.5641 18.6993H13.0353C12.8234 18.6993 12.65 18.8726 12.65 19.0846V25.2988H3.29971L3.2998 3.29992Z" fill="#6D6BAF"/>
</svg>
