<svg width="22" height="22" viewBox="0 0 22 22" fill="none" xmlns="http://www.w3.org/2000/svg">
<path d="M20.9 8.80009C21.5075 8.80009 22 9.29251 22 9.90004V20.9C22 21.5076 21.5075 22 20.9 22H9.89995C9.29242 22 8.79999 21.5076 8.79999 20.9V9.90004C8.79999 9.29251 9.29242 8.80009 9.89995 8.80009H20.9ZM5.25549 8.80009C5.86302 8.80009 6.35562 9.29251 6.35562 9.90004V20.9C6.35562 21.5076 5.86302 22 5.25549 22H1.09996C0.492426 22 0 21.5076 0 20.9V9.90004C0 9.29251 0.492426 8.80009 1.09996 8.80009H5.25549ZM4.15553 11H2.19992V19.8H4.15553V11ZM20.9 0C21.5076 0 22 0.492425 22 1.09996V5.25547C22 5.863 21.5076 6.3556 20.9 6.3556H1.09996C0.492426 6.3556 0 5.863 0 5.25547V1.09996C0 0.492425 0.492426 0 1.09996 0H20.9ZM19.8001 2.19991H2.20001V4.15551H19.8001V2.19991Z" fill="#6D6BAF"/>
</svg>
