<svg width="12" height="14" viewBox="0 0 12 14" fill="none" xmlns="http://www.w3.org/2000/svg">
<g id="Group 4620">
<path id="Vector" d="M0.75 3.5H1.91667H11.25" stroke="#F04438" stroke-width="1.5" stroke-linecap="round" stroke-linejoin="round"/>
<path id="Vector_2" d="M3.66667 3.50002V2.33335C3.66667 2.02393 3.78958 1.72719 4.00838 1.5084C4.22717 1.2896 4.52392 1.16669 4.83333 1.16669H7.16667C7.47609 1.16669 7.77283 1.2896 7.99163 1.5084C8.21042 1.72719 8.33333 2.02393 8.33333 2.33335V3.50002M10.0833 3.50002V11.6667C10.0833 11.9761 9.96042 12.2729 9.74163 12.4916C9.52283 12.7104 9.22609 12.8334 8.91667 12.8334H3.08333C2.77392 12.8334 2.47717 12.7104 2.25838 12.4916C2.03958 12.2729 1.91667 11.9761 1.91667 11.6667V3.50002H10.0833Z" stroke="#F04438" stroke-width="1.5" stroke-linecap="round" stroke-linejoin="round"/>
</g>
</svg>
