<svg width="142" height="114" viewBox="0 0 142 114" fill="none" xmlns="http://www.w3.org/2000/svg">
<path d="M8.61 1.1368C6.3025 -0.688983 2.95218 -0.265936 1.13281 2.04969C-0.686565 4.36531 -0.265003 7.72742 2.0425 9.55321L133.393 112.866C135.7 114.691 139.05 114.268 140.87 111.953C142.689 109.637 142.267 106.275 139.96 104.449L108.565 79.7567L128.644 59.6063C141.18 47.0263 141.18 26.6532 128.644 14.0731C117.551 2.94031 100.067 1.49305 87.3091 10.6442L86.9541 10.8891C83.7591 13.1825 83.0269 17.6356 85.3122 20.8196C87.5975 24.0036 92.035 24.7606 95.2078 22.4673L95.5628 22.2223C102.685 17.1235 112.425 17.9251 118.593 24.1372C125.582 31.1509 125.582 42.5063 118.593 49.52L97.2934 70.895L90.2156 65.3286C95.6072 53.3497 93.2109 38.9884 83.6481 29.3919C72.0662 17.747 53.8059 16.8786 41.2034 26.7868L8.61 1.1368ZM53.0294 36.0716C59.7078 32.754 68.0503 33.8673 73.6194 39.4782C78.0569 43.9313 79.7209 50.2325 78.4341 56.0661L53.0294 36.0716ZM90.2156 92.7153L49.0134 60.1184C48.5475 68.9802 51.7203 77.9532 58.3766 84.6106C67.0075 93.272 79.3216 95.9661 90.2378 92.693L90.2156 92.7153ZM25.8719 41.8384L13.3581 54.3962C0.822186 66.9762 0.822186 87.3493 13.3581 99.9294C24.4519 111.062 41.9356 112.509 54.6934 103.358L55.0484 103.113C58.2434 100.82 58.9756 96.3669 56.6903 93.1829C54.405 89.9989 49.9675 89.2419 46.7947 91.5352L46.4397 91.7802C39.3175 96.879 29.5772 96.0774 23.4091 89.8653C16.42 82.8294 16.42 71.4739 23.4091 64.4602L37.1209 50.7001L25.8941 41.8161L25.8719 41.8384Z" fill="#4A505C"/>
</svg>
