<svg width="22" height="22" viewBox="0 0 22 22" fill="none" xmlns="http://www.w3.org/2000/svg">
<path fill-rule="evenodd" clip-rule="evenodd" d="M6.06816 0.000285914C5.93598 0.0126272 5.83528 0.123877 5.83582 0.256594V2.53222C5.83582 2.67388 5.95065 2.78871 6.09213 2.78871L10.5874 2.77261C10.7291 2.77261 10.8439 2.65796 10.8439 2.5163V1.82714L11.6533 4.35122C11.6647 4.43367 11.7155 4.50539 11.7894 4.54349C11.8625 4.58069 11.9487 4.58069 12.0219 4.54349L16.2206 3.19741C16.3029 3.18596 16.3746 3.13516 16.4129 3.06112V3.05307C16.4156 3.05325 16.4183 3.05325 16.4209 3.05307C16.4528 2.98117 16.4499 2.89835 16.4129 2.82878L15.5796 0.20846C15.5465 0.0956013 15.4408 0.0195838 15.3231 0.0242359C15.2984 0.0260244 15.2741 0.0313904 15.251 0.0403333L10.9802 1.41059V1.41041C10.9253 1.42651 10.8774 1.46031 10.8439 1.50664V0.256577C10.8439 0.1151 10.7291 0.000268273 10.5874 0.000268273H6.09215C6.08428 -8.94243e-05 6.07623 -8.94243e-05 6.06819 0.000268273L6.06816 0.000285914Z" fill="#6D6BAF"/>
<path fill-rule="evenodd" clip-rule="evenodd" d="M16.5746 3.92113C16.5364 3.9222 16.4988 3.93168 16.4646 3.94921L12.267 5.29318C12.1849 5.30517 12.1139 5.35614 12.0759 5.42983C12.0749 5.4318 12.0736 5.43395 12.0725 5.43609C12.0724 5.43645 12.0722 5.43681 12.072 5.43735C12.0359 5.50996 12.0364 5.59546 12.0734 5.6679L12.5866 7.26618V7.266C12.5988 7.34738 12.6492 7.41785 12.7222 7.45559C12.7245 7.45702 12.7268 7.45827 12.7293 7.45953C12.8021 7.49601 12.888 7.49566 12.9606 7.45881L17.1561 6.11736V6.11718C17.2378 6.10519 17.3087 6.05458 17.3466 5.98124C17.3478 5.9791 17.3491 5.97677 17.3502 5.97444C17.3868 5.90165 17.3867 5.8158 17.3496 5.74318L16.839 4.14275C16.827 4.06065 16.7759 3.98946 16.702 3.95154C16.7002 3.95065 16.6986 3.94958 16.6968 3.94868C16.6959 3.94832 16.6952 3.94797 16.6945 3.94761C16.6573 3.92919 16.6161 3.92006 16.5746 3.92096L16.5746 3.92113Z" fill="#6D6BAF"/>
<path fill-rule="evenodd" clip-rule="evenodd" d="M17.5001 6.81877C17.4618 6.81984 17.4241 6.8295 17.3901 6.84703L13.1949 8.19082C13.1137 8.2028 13.0433 8.25288 13.0052 8.3255C12.9644 8.39991 12.9631 8.48969 13.0016 8.56535L17.2223 21.7542C17.2431 21.8189 17.2887 21.8729 17.3491 21.904C17.4096 21.9352 17.4801 21.9409 17.5448 21.9203L21.8217 20.5512V20.551C21.9566 20.5079 22.031 20.3635 21.9877 20.2287L17.7646 7.03987C17.7525 6.95831 17.7022 6.88766 17.6291 6.84974C17.6266 6.84831 17.6242 6.84706 17.6217 6.84563C17.584 6.82667 17.5423 6.81737 17.5001 6.81844L17.5001 6.81877Z" fill="#6D6BAF"/>
<path fill-rule="evenodd" clip-rule="evenodd" d="M0.26133 0.00146484C0.119854 0.00146484 0.00502168 0.116292 0.00484311 0.257952V3.16747V3.16729C-0.00857144 3.24939 0.0184362 3.33273 0.0774585 3.39122C0.0787105 3.39265 0.0799625 3.3939 0.0812145 3.39515L0.0833608 3.3973C0.141489 3.45329 0.222515 3.47868 0.302283 3.4658H4.70939C4.79077 3.47922 4.87376 3.45257 4.93207 3.39426C4.93404 3.39247 4.93583 3.39068 4.9378 3.38889V3.38872C4.99485 3.33041 5.02079 3.24831 5.00737 3.16782V0.257943C5.00737 0.116467 4.89254 0.0016348 4.75106 0.0016348H0.261307L0.26133 0.00146484Z" fill="#6D6BAF"/>
<path fill-rule="evenodd" clip-rule="evenodd" d="M0.261313 4.56303C0.192452 4.56178 0.126096 4.58807 0.0769104 4.63636C0.0277248 4.68466 0 4.75048 0 4.81934C0 4.8882 0.0277235 4.9542 0.0769104 5.00249C0.126096 5.05061 0.192452 5.07708 0.261313 5.07583H4.75107C4.81993 5.07708 4.88646 5.05061 4.93565 5.00249C4.98483 4.9542 5.01238 4.8882 5.01238 4.81934C5.01238 4.75048 4.98484 4.68466 4.93565 4.63636C4.88646 4.58807 4.81993 4.56178 4.75107 4.56303H0.261313Z" fill="#6D6BAF"/>
<path fill-rule="evenodd" clip-rule="evenodd" d="M0.261324 6.14259C0.192999 6.14205 0.127358 6.16888 0.0788862 6.21699C0.0304149 6.2651 0.00305176 6.33057 0.00305176 6.39889C0.00305176 6.46722 0.0304177 6.53286 0.0788862 6.58097C0.127355 6.62909 0.192999 6.65592 0.261324 6.65538H4.75108C4.8194 6.65592 4.88522 6.62909 4.9337 6.58097C4.98217 6.53286 5.00935 6.46722 5.00935 6.39889C5.00935 6.33057 4.98217 6.26511 4.9337 6.21699C4.88522 6.16888 4.8194 6.14205 4.75108 6.14259H0.261324Z" fill="#6D6BAF"/>
<path fill-rule="evenodd" clip-rule="evenodd" d="M0.257815 7.74938C0.19128 7.75045 0.127786 7.77728 0.0807432 7.82432C0.0787757 7.82611 0.0769871 7.82789 0.0750196 7.82968C0.0750196 7.82986 0.0748408 7.82986 0.0748408 7.83004C0.0179628 7.88817 -0.00779304 7.96991 0.00508716 8.05022V21.2812V21.281C0.00526601 21.4226 0.120093 21.5375 0.261574 21.5375H4.75151C4.89317 21.5375 5.00782 21.4226 5.00782 21.281V8.05095C5.02124 7.96958 4.99476 7.88676 4.93663 7.82827C4.93485 7.82649 4.93288 7.82452 4.93109 7.82255C4.93091 7.82237 4.93091 7.82237 4.93073 7.82237C4.8726 7.76549 4.79068 7.73956 4.71038 7.7528H0.303452C0.288428 7.75011 0.273046 7.74886 0.257843 7.74904L0.257815 7.74938Z" fill="#6D6BAF"/>
<path fill-rule="evenodd" clip-rule="evenodd" d="M6.11532 3.4478C6.04646 3.44654 5.97992 3.47284 5.93074 3.52113C5.88155 3.56942 5.854 3.63524 5.854 3.7041C5.854 3.77297 5.88155 3.83896 5.93074 3.88726C5.97992 3.93537 6.04646 3.96184 6.11532 3.96059H10.5384C10.6072 3.96184 10.6736 3.93537 10.7228 3.88726C10.7719 3.83896 10.7997 3.77297 10.7997 3.7041C10.7997 3.63524 10.7719 3.56942 10.7228 3.52113C10.6736 3.47284 10.6072 3.44655 10.5384 3.4478H6.11532Z" fill="#6D6BAF"/>
<path fill-rule="evenodd" clip-rule="evenodd" d="M6.0947 8.89942C6.02637 8.89889 5.96073 8.92571 5.91208 8.97383C5.86361 9.02194 5.83643 9.08758 5.83643 9.15591C5.83643 9.22423 5.86361 9.2897 5.91208 9.33781C5.96073 9.38592 6.02637 9.41275 6.0947 9.41222H10.5845C10.6528 9.41275 10.7184 9.38592 10.7669 9.33781C10.8154 9.2897 10.8427 9.22423 10.8427 9.15591C10.8427 9.08758 10.8154 9.02194 10.7669 8.97383C10.7184 8.92571 10.6528 8.89889 10.5845 8.89942H6.0947Z" fill="#6D6BAF"/>
<path fill-rule="evenodd" clip-rule="evenodd" d="M6.09104 4.6416C6.02504 4.64285 5.96191 4.66933 5.91486 4.71583C5.91272 4.71798 5.91039 4.72012 5.90825 4.72227C5.85119 4.78057 5.82526 4.86249 5.83849 4.94316V7.47529V7.47511C5.82508 7.55667 5.85173 7.63948 5.90986 7.69797C5.91183 7.69994 5.91361 7.7019 5.9154 7.70369V7.70387C5.97371 7.76075 6.05563 7.78668 6.13594 7.77363H10.5429C10.6242 7.78704 10.7071 7.76039 10.7655 7.70208C10.7673 7.70047 10.7693 7.69868 10.7711 7.69672H10.7714C10.7714 7.69654 10.7716 7.69636 10.7718 7.69618C10.8285 7.63787 10.8543 7.55631 10.8412 7.47618V4.94355C10.8546 4.86163 10.8276 4.7781 10.7688 4.71962C10.7673 4.71836 10.7661 4.71693 10.7648 4.71568C10.7646 4.7155 10.7645 4.71532 10.7643 4.71514L10.7629 4.71371C10.7047 4.65755 10.6233 4.63216 10.5434 4.64521H6.13684C6.12164 4.64271 6.10643 4.64145 6.09105 4.64163L6.09104 4.6416Z" fill="#6D6BAF"/>
<path fill-rule="evenodd" clip-rule="evenodd" d="M6.09103 10.5112C6.02503 10.5123 5.96189 10.5388 5.91485 10.5853C5.9127 10.5874 5.91038 10.5896 5.90823 10.5917C5.85118 10.65 5.82524 10.7321 5.83848 10.8126V21.2816C5.83848 21.4233 5.95331 21.5381 6.09497 21.5381H10.5847C10.6527 21.5381 10.718 21.5111 10.7661 21.463C10.8142 21.4149 10.8412 21.3496 10.8412 21.2816V10.8131C10.8546 10.7312 10.8276 10.6476 10.7686 10.5891C10.7673 10.5879 10.7661 10.5865 10.7648 10.5852H10.7643H10.7629C10.7046 10.5289 10.6232 10.5035 10.5434 10.5165H6.13684C6.12164 10.514 6.10644 10.5128 6.09105 10.5129L6.09103 10.5112Z" fill="#6D6BAF"/>
</svg>
