<svg width="16" height="16" viewBox="0 0 16 16" fill="none" xmlns="http://www.w3.org/2000/svg">
<path d="M8.66601 8.3335C8.66601 7.78121 8.2183 7.3335 7.66602 7.3335C7.11373 7.3335 6.66602 7.78121 6.66602 8.3335C6.66602 8.88578 7.11373 9.3335 7.66602 9.3335C8.2183 9.3335 8.66602 8.88578 8.66601 8.3335Z" fill="#181A1E"/>
<path d="M4 8.3335C4 7.78121 3.55228 7.3335 3 7.3335C2.44772 7.3335 2 7.78121 2 8.3335C2 8.88578 2.44772 9.3335 3 9.3335C3.55228 9.3335 4 8.88578 4 8.3335Z" fill="#181A1E"/>
<path d="M13.334 8.3335C13.334 7.78121 12.8863 7.3335 12.334 7.3335C11.7817 7.3335 11.334 7.78121 11.334 8.3335C11.334 8.88578 11.7817 9.3335 12.334 9.3335C12.8863 9.3335 13.334 8.88578 13.334 8.3335Z" fill="#181A1E"/>
</svg>
