<svg width="17" height="16" viewBox="0 0 17 16" fill="none" xmlns="http://www.w3.org/2000/svg">
<g id="Menu Icons">
<path id="Icon" d="M5.84376 10.5227H3.9762C2.79273 10.5227 1.83334 9.70563 1.83334 8.50762C1.83334 7.3096 2.79273 6.33841 3.9762 6.33841C4.05668 6.33841 4.13612 6.3429 4.2143 6.35165V6.33841H4.24377C4.22432 6.1805 4.2143 6.01961 4.2143 5.85637C4.2143 3.72655 5.91988 2 8.02382 2C9.44855 2 10.6906 2.79173 11.3441 3.96428C11.5038 3.9405 11.6671 3.92818 11.8333 3.92818C13.6743 3.92818 15.1667 5.43892 15.1667 7.3025C15.1667 9.00242 13.9249 10.2546 12.3095 10.4885H10.5833M8.26192 6.57943V14M8.26192 14L6.57293 12.3339M8.26192 14L9.90626 12.3339" stroke="#3578FF" stroke-width="1.2" stroke-linecap="round" stroke-linejoin="round"/>
</g>
</svg>
