<svg width="14" height="14" viewBox="0 0 14 14" fill="none" xmlns="http://www.w3.org/2000/svg">
<g id="Menu Icons">
<path id="Vector" d="M9.25186 2.74769C9.38321 2.61634 9.53915 2.51214 9.71077 2.44105C9.8824 2.36996 10.0663 2.33337 10.2521 2.33337C10.4379 2.33337 10.6218 2.36996 10.7934 2.44105C10.9651 2.51214 11.121 2.61634 11.2524 2.74769C11.3837 2.87904 11.4879 3.03498 11.559 3.20661C11.6301 3.37823 11.6667 3.56217 11.6667 3.74794C11.6667 3.9337 11.6301 4.11764 11.559 4.28927C11.4879 4.46089 11.3837 4.61683 11.2524 4.74819L4.50068 11.4999L1.75 12.25L2.50019 9.49936L9.25186 2.74769Z" stroke="#9BA5B9" stroke-width="1.2" stroke-linecap="round" stroke-linejoin="round"/>
</g>
</svg>
