<svg width="89" height="89" viewBox="0 0 89 89" fill="none" xmlns="http://www.w3.org/2000/svg">
<path d="M73.6562 7.07341e-05C73.5516 0.00501157 73.4474 0.0154148 73.3438 0.0312597C72.668 0.112417 72.0399 0.420973 71.5625 0.90626L26.3125 46.1563C25.8273 46.6336 25.5187 47.2617 25.4375 47.9375L24.0312 60.6563C23.9817 61.1033 24.0333 61.5559 24.1823 61.9803C24.3312 62.4047 24.5737 62.7902 24.8918 63.1083C25.2099 63.4264 25.5954 63.6688 26.0198 63.8178C26.4443 63.9667 26.8968 64.0183 27.3438 63.9688L40.0625 62.5625C40.7454 62.4967 41.3851 62.1989 41.875 61.7188L87.125 16.4688C87.4047 16.19 87.6266 15.8588 87.778 15.4942C87.9293 15.1295 88.0073 14.7386 88.0073 14.3438C88.0073 13.9489 87.9293 13.558 87.778 13.1933C87.6266 12.8287 87.4047 12.4975 87.125 12.2188L75.8125 0.90626C75.5321 0.618516 75.1967 0.389998 74.8263 0.234324C74.4559 0.0786489 74.058 -0.000950662 73.6562 7.07341e-05ZM73.6872 7.25007L80.7497 14.3438L79.3435 15.7501L72.2809 8.68757L73.6872 7.25007ZM2.68724 10.0313C1.94701 10.109 1.26206 10.459 0.765459 11.0134C0.268858 11.5678 -0.00394522 12.287 4.31215e-05 13.0313V85.0313C0.000122672 85.8269 0.316219 86.5899 0.878811 87.1525C1.4414 87.7151 2.20442 88.0312 3.00004 88.0313H75C75.7957 88.0312 76.5587 87.7151 77.1213 87.1525C77.6839 86.5899 78 85.8269 78 85.0313V36.0313C78.0057 35.6338 77.9322 35.2391 77.784 34.8702C77.6357 34.5013 77.4157 34.1655 77.1365 33.8824C76.8574 33.5993 76.5248 33.3745 76.158 33.221C75.7912 33.0676 75.3976 32.9885 75 32.9885C74.6025 32.9885 74.2089 33.0676 73.8421 33.221C73.4753 33.3745 73.1427 33.5993 72.8636 33.8824C72.5844 34.1655 72.3643 34.5013 72.2161 34.8702C72.0679 35.2391 71.9944 35.6338 72 36.0313V82.0313H6.00004V16.0313H52C52.3976 16.0369 52.7923 15.9635 53.1612 15.8153C53.5301 15.667 53.8658 15.4469 54.1489 15.1678C54.4321 14.8887 54.6569 14.5561 54.8103 14.1893C54.9638 13.8225 55.0428 13.4289 55.0428 13.0313C55.0428 12.6337 54.9638 12.2401 54.8103 11.8734C54.6569 11.5066 54.4321 11.1739 54.1489 10.8948C53.8658 10.6157 53.5301 10.3956 53.1612 10.2474C52.7923 10.0991 52.3976 10.0257 52 10.0313H3.00004C2.89595 10.0259 2.79134 10.0259 2.68724 10.0313ZM68.0309 12.9063L75.0935 20.0001L40.4372 54.6563L33.3747 47.5626L68.0309 12.9063ZM30.8435 53.5001L34.4997 57.1563L30.4059 57.6251L30.8435 53.5001Z" fill="#17A2B8"/>
</svg>
