<svg width="22" height="23" viewBox="0 0 22 23" fill="none" xmlns="http://www.w3.org/2000/svg">
<path fill-rule="evenodd" clip-rule="evenodd" d="M2.5984 0.808594H3.86878V1.96347C3.86878 2.88737 4.61942 3.69572 5.54327 3.69572C6.52493 3.69572 7.27552 2.88733 7.27552 1.96347V0.808594H14.7245V1.96347C14.7245 2.88737 15.5329 3.69572 16.4567 3.69572C17.3806 3.69572 18.1312 2.88733 18.1312 1.96347V0.808594H19.4016C20.8451 0.808594 22 1.96347 22 3.40699V20.2102C22 21.6537 20.8451 22.8086 19.4016 22.8086H2.5984C1.15492 22.8086 0 21.6537 0 20.2102V3.40699C0 1.96351 1.15487 0.808594 2.5984 0.808594ZM2.5984 5.71686H19.4016C20.0367 5.71686 20.5565 6.17873 20.5565 6.81402V20.2102C20.5565 20.8454 20.0369 21.3651 19.4016 21.3651H2.5984C1.96327 21.3651 1.44352 20.8455 1.44352 20.2102V6.81402C1.44352 6.17889 1.96314 5.71686 2.5984 5.71686Z" fill="#6D6BAF"/>
<path d="M6.29411 0.404269V1.96326C6.29411 2.36753 5.94759 2.7139 5.54347 2.7139C5.1392 2.7139 4.85059 2.36738 4.85059 1.96326V0.404269C4.85059 0.173258 5.02384 0 5.1971 0H5.88998C6.121 0 6.29425 0.173258 6.29425 0.404269H6.29411Z" fill="#6D6BAF"/>
<path d="M17.1497 0.404269V1.96326C17.1497 2.36753 16.8609 2.7139 16.4568 2.7139C16.0525 2.7139 15.7062 2.36738 15.7062 1.96326V0.404269C15.7062 0.173258 15.8794 0 16.1104 0H16.8033C16.9766 0 17.1498 0.173258 17.1498 0.404269H17.1497Z" fill="#6D6BAF"/>
<path d="M7.21791 14.3779C6.92915 14.0892 6.92915 13.6273 7.21791 13.3385C7.50668 13.0497 7.96855 13.0497 8.25732 13.3385L9.81631 14.8975L13.7428 10.971C14.0316 10.6822 14.4935 10.6822 14.7822 10.971C15.071 11.2597 15.071 11.7216 14.7822 12.0104L10.3363 16.4564C10.0475 16.7451 9.58562 16.8029 9.29685 16.4564L7.21808 14.3776L7.21791 14.3779Z" fill="#6D6BAF"/>
</svg>
