<svg width="16" height="16" viewBox="0 0 16 16" fill="none" xmlns="http://www.w3.org/2000/svg">
<path d="M14.1796 6.11955C13.9863 5.81288 13.7796 5.52621 13.5663 5.25955C13.3196 4.94621 12.853 4.91955 12.573 5.19955L10.573 7.19955C10.7196 7.63955 10.7463 8.14621 10.613 8.67288C10.3796 9.61288 9.61964 10.3729 8.67964 10.6062C8.15297 10.7395 7.64631 10.7129 7.20631 10.5662C7.20631 10.5662 6.25297 11.5195 5.56631 12.2062C5.23297 12.5395 5.33964 13.1262 5.78631 13.2995C6.49964 13.5729 7.23964 13.7129 7.99964 13.7129C9.18631 13.7129 10.3396 13.3662 11.393 12.7195C12.4663 12.0529 13.433 11.0729 14.213 9.82621C14.8463 8.81954 14.813 7.12621 14.1796 6.11955Z" fill="#3C404A"/>
<path d="M9.34708 6.65375L6.65375 9.34708C6.31375 9.00042 6.09375 8.52042 6.09375 8.00042C6.09375 6.95375 6.94708 6.09375 8.00042 6.09375C8.52042 6.09375 9.00042 6.31375 9.34708 6.65375Z" fill="#3C404A"/>
<path d="M12.1673 3.83378L9.90732 6.09378C9.42065 5.60044 8.74732 5.30711 8.00065 5.30711C6.50732 5.30711 5.30732 6.51378 5.30732 8.00044C5.30732 8.74711 5.60732 9.42044 6.09398 9.90711L3.84065 12.1671H3.83398C3.09398 11.5671 2.41398 10.8004 1.83398 9.89378C1.16732 8.84711 1.16732 7.14711 1.83398 6.10044C2.60732 4.88711 3.55398 3.93378 4.60732 3.28044C5.66065 2.64044 6.81398 2.28711 8.00065 2.28711C9.48732 2.28711 10.9273 2.83378 12.1673 3.83378Z" fill="#3C404A"/>
<path d="M9.90672 8.00005C9.90672 9.04672 9.05339 9.90672 8.00005 9.90672C7.96005 9.90672 7.92672 9.90672 7.88672 9.89339L9.89339 7.88672C9.90672 7.92672 9.90672 7.96005 9.90672 8.00005Z" fill="#3C404A"/>
<path d="M14.5126 1.48691C14.3126 1.28691 13.9859 1.28691 13.7859 1.48691L1.48594 13.7936C1.28594 13.9936 1.28594 14.3202 1.48594 14.5202C1.58594 14.6136 1.7126 14.6669 1.84594 14.6669C1.97927 14.6669 2.10594 14.6136 2.20594 14.5136L14.5126 2.20691C14.7193 2.00691 14.7193 1.68691 14.5126 1.48691Z" fill="#3C404A"/>
</svg>
