<svg width="18" height="18" viewBox="0 0 18 18" fill="none" xmlns="http://www.w3.org/2000/svg">
<path d="M15.5158 7.13088L15.5157 7.1307C13.8528 4.51765 11.4615 3.07227 9 3.07227C7.76539 3.07227 6.55791 3.4323 5.44506 4.11528C4.33171 4.80607 3.31865 5.82172 2.48422 7.13088H15.5158ZM15.5158 7.13088C15.8286 7.62196 16 8.29757 16 8.99883C16 9.70023 15.8285 10.3733 15.5166 10.8599L15.5159 10.861C14.6814 12.1702 13.6683 13.1859 12.5549 13.8768C11.4421 14.5597 10.2346 14.9198 9 14.9198C6.53787 14.9198 4.14701 13.4813 2.48467 10.8619L2.48422 10.8612M15.5158 7.13088L2.48422 10.8612M2.48422 10.8612C2.1713 10.3699 2 9.69603 2 8.99602M2.48422 10.8612L2 8.99602M2 8.99602C2 8.29606 2.17127 7.62228 2.48414 7.131L2 8.99602ZM5.47 8.99977C5.47 10.9476 7.04305 12.5298 9 12.5298C10.9569 12.5298 12.53 10.9476 12.53 8.99977C12.53 7.05193 10.9569 5.46977 9 5.46977C7.04305 5.46977 5.47 7.05193 5.47 8.99977Z" fill="white" stroke="white"/>
<path d="M7.36328 8.99998C7.36328 8.08998 8.10056 7.35498 9.00078 7.35498C9.90214 7.35498 10.6458 8.09862 10.6458 8.99998C10.6458 9.89906 9.90442 10.6375 9.00078 10.6375C8.09942 10.6375 7.36328 9.90134 7.36328 8.99998Z" fill="white" stroke="white"/>
</svg>
