<svg width="16" height="16" viewBox="0 0 16 16" fill="none" xmlns="http://www.w3.org/2000/svg">
<path d="M14.1673 6.10044C12.6273 3.68044 10.374 2.28711 8.00065 2.28711C6.81398 2.28711 5.66065 2.63378 4.60732 3.28044C3.55398 3.93378 2.60732 4.88711 1.83398 6.10044C1.16732 7.14711 1.16732 8.84711 1.83398 9.89378C3.37398 12.3204 5.62732 13.7071 8.00065 13.7071C9.18732 13.7071 10.3407 13.3604 11.394 12.7138C12.4473 12.0604 13.394 11.1071 14.1673 9.89378C14.834 8.85378 14.834 7.14711 14.1673 6.10044ZM8.00065 10.6938C6.50732 10.6938 5.30732 9.48711 5.30732 8.00044C5.30732 6.51378 6.50732 5.30711 8.00065 5.30711C9.49398 5.30711 10.694 6.51378 10.694 8.00044C10.694 9.48711 9.49398 10.6938 8.00065 10.6938Z" fill="#3C404A"/>
<path d="M7.99961 6.09375C6.95294 6.09375 6.09961 6.94708 6.09961 8.00042C6.09961 9.04708 6.95294 9.90042 7.99961 9.90042C9.04628 9.90042 9.90628 9.04708 9.90628 8.00042C9.90628 6.95375 9.04628 6.09375 7.99961 6.09375Z" fill="#3C404A"/>
</svg>
