<svg width="125" height="141" viewBox="0 0 125 141" fill="none" xmlns="http://www.w3.org/2000/svg">
<g id="Group 134">
<g id="Graphics">
<g id="Group">
<path id="Vector" d="M62.6863 123.627C96.5489 123.627 124 96.1762 124 62.3136C124 28.451 96.5489 1 62.6863 1C28.8237 1 1.37268 28.451 1.37268 62.3136C1.37268 96.1762 28.8237 123.627 62.6863 123.627Z" fill="white"/>
<path id="Vector_2" d="M25.4136 83.9316C24.4818 92.8771 30.0727 117.291 43.3046 98.0953L42.5591 94.7407L29.3273 84.118H25.4136V83.9316Z" fill="#E58000"/>
<path id="Vector_3" d="M87.0999 76.6641C99.3999 76.6641 106.854 81.5095 110.768 98.2822C98.0954 128.1 38.8317 118.223 38.8317 118.223C38.8317 118.223 35.8499 90.8277 53.7408 76.6641H87.0999Z" fill="#FFAB00"/>
<g id="Group_2">
<path id="Vector_4" d="M102.009 108.718C101.636 103.686 99.3999 98.6544 97.1636 94.1816C100.145 98.468 102.941 103.127 103.873 108.532L102.009 108.718Z" fill="#E58000"/>
</g>
<path id="Vector_5" d="M93.9955 119.714C93.9955 136.487 81.3228 127.728 65.4819 127.728C49.641 127.728 36.9683 136.487 36.9683 119.714C36.9683 102.941 49.8274 89.1504 65.4819 89.1504C81.1364 89.1504 93.9955 102.941 93.9955 119.714Z" fill="#FFE5BF"/>
<path id="Vector_6" d="M62.6863 123.627C96.5489 123.627 124 96.1762 124 62.3136C124 28.451 96.5489 1 62.6863 1C28.8237 1 1.37268 28.451 1.37268 62.3136C1.37268 96.1762 28.8237 123.627 62.6863 123.627Z" stroke="#EE316B" stroke-width="2" stroke-miterlimit="10"/>
<g id="Group_3">
<g id="Group_4">
<path id="Vector_7" d="M85.6089 17.9589C85.6089 17.9589 85.7953 17.9589 85.9816 17.9589C86.9134 14.6043 90.0816 12.368 93.2498 12.7407C95.6725 12.927 97.7225 14.6043 98.6544 16.8407C101.45 15.5361 104.245 15.7225 104.618 15.7225C103.127 10.877 99.2134 7.14977 94.1816 6.59068C89.1498 6.03159 84.4907 8.64068 82.068 12.927C83.3725 14.2316 85.4225 16.468 85.6089 17.9589Z" fill="#FFAB00"/>
<path id="Vector_8" d="M104.804 15.7227L103.127 27.0908L84.3045 31.3772C84.3045 31.3772 83.1863 30.8181 81.509 29.6999C82.8136 31.5636 84.6772 32.6817 87.659 33.0545C94.7408 33.7999 104.618 29.3272 105.55 21.6863C105.55 19.6363 105.364 17.5863 104.804 15.7227Z" fill="#FFAB00"/>
<path id="Vector_9" d="M93.4363 12.7407C90.0817 12.368 87.0999 14.6043 86.1681 17.9589C87.4726 17.9589 91.3863 18.518 94.3681 20.9407C95.6726 18.8907 97.3499 17.5861 99.0272 16.6543C97.7226 14.6043 95.859 12.9271 93.4363 12.7407Z" fill="#FFE8C8"/>
<path id="Vector_10" d="M103.127 26.904L104.804 15.5358C104.432 15.5358 101.636 15.3495 98.8407 16.654C99.3998 17.9586 99.5862 19.2631 99.5862 20.754C99.2134 24.854 93.8089 27.2768 89.8953 26.904C86.168 26.5313 85.4225 23.3631 85.7953 19.2631C85.7953 18.704 85.9816 18.3313 86.168 17.7722C85.9816 17.7722 85.7953 17.7722 85.7953 17.7722C85.6089 16.2813 83.5589 14.2313 82.068 12.9268C80.9498 14.604 80.2044 16.654 80.018 18.8904C79.6453 23.3631 79.8316 27.0904 81.5089 29.6995C83.1862 30.6313 84.3044 31.3768 84.3044 31.3768L103.127 26.904Z" fill="#E47F00"/>
<path id="Vector_11" d="M94.1816 20.9408C91.1998 18.5181 87.2862 17.959 85.9816 17.959C85.7953 18.3317 85.7953 18.8908 85.6089 19.4499C85.2362 23.5499 85.9816 26.5317 89.7089 27.0908C93.4362 27.4635 98.8407 25.0408 99.3998 20.9408C99.5862 19.4499 99.2135 18.1454 98.6544 16.8408C97.1635 17.5863 95.4862 18.7045 94.1816 20.9408Z" fill="#F4C8A4"/>
</g>
<path id="Vector_12" d="M119.154 31.1907C118.409 35.8498 114.309 39.0179 109.65 40.6952C106.668 41.8134 103.5 42.1861 100.704 41.627C93.809 40.5088 92.6908 34.7316 93.809 27.277C94.1818 25.4134 94.7408 23.7361 95.6727 22.2452C98.2818 17.5861 103.314 14.7907 108.718 15.7225C115.614 16.6543 120.273 23.7361 119.154 31.1907Z" fill="#FFAB00"/>
<g id="Group_5">
<path id="Vector_13" d="M107.6 21.6861C104.618 21.127 101.636 22.9906 100.332 25.7861C102.754 28.0225 105.55 31.1906 107.6 35.2906C110.395 34.5452 112.818 32.6816 113.191 30.0725C113.75 25.9725 111.327 22.2452 107.6 21.6861Z" fill="#FFE8C8"/>
<path id="Vector_14" d="M103.314 35.6631C99.5863 35.104 99.0272 31.9359 99.5863 27.8359C99.7727 27.0904 99.959 26.345 100.332 25.7859C97.909 23.5495 95.859 22.245 95.6727 22.0586C94.7408 23.5495 94.1818 25.2268 93.809 27.0904C92.6908 34.545 93.809 40.5086 100.704 41.4404C103.5 41.8131 106.668 41.4404 109.65 40.5086C109.091 38.645 108.532 36.7813 107.6 35.104C106.109 35.6631 104.618 35.8495 103.314 35.6631Z" fill="#E47F00"/>
<path id="Vector_15" d="M100.332 25.7861C99.959 26.3452 99.7727 27.0907 99.5863 27.8361C99.0272 31.9361 99.5863 34.9179 103.314 35.6634C104.618 35.8498 106.109 35.6634 107.6 35.2907C105.55 31.1907 102.754 28.0225 100.332 25.7861Z" fill="#F4C8A4"/>
</g>
<path id="Vector_16" d="M109.277 50.9454C109.277 69.209 94.5546 83.9317 76.2909 83.9317C58.0273 83.9317 32.6818 73.6817 43.1182 50.9454C52.25 31.0044 57.8409 17.959 76.1045 17.959C94.3682 17.959 109.277 32.6817 109.277 50.9454Z" fill="#FFAB00"/>
<path id="Vector_17" d="M84.3044 52.995C87.3922 52.995 89.8953 50.1581 89.8953 46.6586C89.8953 43.1592 87.3922 40.3223 84.3044 40.3223C81.2166 40.3223 78.7135 43.1592 78.7135 46.6586C78.7135 50.1581 81.2166 52.995 84.3044 52.995Z" fill="#070707"/>
<path id="Vector_18" d="M70.0326 44.3064C71.1629 40.9945 69.7102 37.5012 66.788 36.5038C63.8657 35.5065 60.5804 37.3828 59.4501 40.6947C58.3198 44.0066 59.7724 47.4999 62.6947 48.4973C65.6169 49.4946 68.9022 47.6183 70.0326 44.3064Z" fill="#070707"/>
<path id="Vector_19" d="M107.786 60.2638C107.041 68.4638 96.6044 90.082 67.9044 85.2366C39.2044 80.2048 27.0908 58.9593 38.6454 46.1002C50.1999 33.2411 63.9908 48.1502 63.9908 48.1502C63.9908 48.1502 68.4635 49.2684 69.5817 50.9457C69.5817 50.9457 76.8499 49.6411 81.509 50.9457C91.1999 47.4048 106.109 47.9638 107.6 57.282C107.973 58.2138 107.973 59.1457 107.786 60.2638Z" fill="#FFE5BF"/>
<path id="Vector_20" d="M107.786 57.282C103.313 47.4048 87.0998 50.9457 81.5089 53.5548C77.5952 51.5048 72.1907 52.9957 72.1907 52.9957C72.1907 52.9957 67.5316 51.5048 62.3134 49.8275C56.3498 40.5093 46.0998 43.3048 39.0179 46.1002C50.3861 33.2411 63.9907 48.1502 63.9907 48.1502C63.9907 48.1502 68.4634 49.2684 69.5816 50.9457C69.5816 50.9457 76.8498 49.6411 81.5089 50.9457C91.3861 47.4048 106.295 47.9638 107.786 57.282Z" fill="#FFF1E5"/>
<path id="Vector_21" d="M62.4999 54.6729C62.4999 54.6729 59.5181 64.9229 60.0772 66.2274C60.8226 67.7183 68.8362 69.3956 69.9544 69.3956C71.0726 69.3956 75.7317 58.0274 75.7317 58.0274C75.7317 58.0274 73.309 55.232 71.8181 53.5547C67.5317 54.4865 62.4999 54.6729 62.4999 54.6729Z" fill="white" stroke="#D59960" stroke-miterlimit="10"/>
<g id="Group_6">
<path id="Vector_22" d="M73.8681 50.9452C73.3091 57.4679 80.0181 59.3315 85.4227 58.5861C87.2863 58.3997 89.3363 57.6542 90.6409 55.977C89.5227 57.8406 87.4727 58.9588 85.6091 59.5179C78.5272 61.5679 70.5136 59.1452 70.1409 50.7588L73.8681 50.9452Z" fill="#D59960"/>
</g>
<g id="Group_7">
<path id="Vector_23" d="M72.9362 54.4863C66.4135 57.0953 57.6544 56.5363 55.6044 48.709C57.0953 51.5044 59.7044 53.7408 62.8726 53.7408C65.8544 53.7408 68.8362 52.6226 71.2589 51.1317C71.2589 51.3181 72.9362 54.4863 72.9362 54.4863Z" fill="#D59960"/>
</g>
<path id="Vector_24" d="M72.9363 44.7956C76.85 45.7274 80.5772 51.3183 72.0045 52.9956C64.3636 47.0319 69.2091 43.8637 72.9363 44.7956Z" fill="#FF4D28"/>
<path id="Vector_25" d="M70.6999 53.5547C70.6999 53.5547 66.4135 62.3138 64.9226 68.4638" stroke="#D59960" stroke-miterlimit="10"/>
<path id="Vector_26" d="M82.2544 46.6592C83.1807 46.6592 83.9317 45.9083 83.9317 44.982C83.9317 44.0556 83.1807 43.3047 82.2544 43.3047C81.3281 43.3047 80.5771 44.0556 80.5771 44.982C80.5771 45.9083 81.3281 46.6592 82.2544 46.6592Z" fill="white"/>
<path id="Vector_27" d="M63.8045 42.5586C64.7308 42.5586 65.4817 41.8077 65.4817 40.8814C65.4817 39.955 64.7308 39.2041 63.8045 39.2041C62.8781 39.2041 62.1272 39.955 62.1272 40.8814C62.1272 41.8077 62.8781 42.5586 63.8045 42.5586Z" fill="white"/>
<g id="Group_8">
<path id="Vector_28" d="M84.3044 35.6633C87.4726 31.7496 92.1317 36.7814 92.6908 40.3224C90.4544 37.7133 88.0317 33.6133 84.3044 35.6633Z" fill="#070707"/>
</g>
<g id="Group_9">
<path id="Vector_29" d="M69.5817 33.241C66.5999 30.0728 63.059 33.0546 60.0771 34.9183C61.7544 31.7501 67.7181 28.3956 69.5817 33.241Z" fill="#070707"/>
</g>
<path id="Vector_30" d="M67.3455 8.26758C67.3455 8.26758 81.3227 10.3176 83.1864 20.9403L72.5636 20.3812C72.5636 20.3812 70.8864 16.2812 68.4636 16.4676C71.8182 14.4176 75.3591 19.263 75.3591 19.263C75.3591 19.263 74.2409 12.9267 67.3455 8.26758Z" fill="#FFAB00"/>
<path id="Vector_31" d="M50.5728 22.9911C48.7092 17.2139 52.2501 14.6048 58.4001 12.3684C64.1773 9.94567 68.091 10.8775 68.091 10.8775C68.091 10.8775 85.0501 6.40477 95.6728 13.3002C105.923 19.8229 121.018 39.3911 110.768 55.0457C110.396 55.4184 109.65 55.9775 109.091 54.6729C109.091 54.6729 104.246 30.0729 77.4092 19.8229L50.5728 22.9911Z" fill="#FBEF0A"/>
<path id="Vector_32" d="M55.6044 27.836C55.6044 27.836 77.409 19.0769 90.8271 29.886C104.245 40.695 108.904 54.8587 108.904 54.8587C108.904 54.8587 105.55 35.2905 90.8271 21.4996C76.1044 7.70868 53.1817 12.7405 50.9453 19.8223C48.709 26.9041 55.6044 27.836 55.6044 27.836Z" fill="#F1C308"/>
<path id="Vector_33" d="M94.9271 12.9272C94.9271 12.9272 96.0453 11.6227 100.518 15.35C108.904 22.4318 106.295 23.55 106.295 23.55L98.2817 22.0591L94.9271 12.9272Z" fill="#FBEF0A"/>
<path id="Vector_34" d="M94.9273 12.9269C90.6409 14.0451 87.4727 16.6542 87.4727 16.6542L85.9818 15.9088C85.9818 15.9088 88.7773 12.9269 93.4364 11.9951L94.9273 12.9269Z" fill="#F1C308"/>
<path id="Vector_35" d="M106.295 23.7363C106.295 23.7363 102.195 23.7363 97.9091 25.9727C99.5863 27.8363 99.5863 27.8363 99.5863 27.8363C99.5863 27.8363 102.755 24.6681 107.227 24.8545L106.295 23.7363Z" fill="#F1C308"/>
</g>
<g id="Group_10">
<path id="Vector_36" d="M27.0815 64.7815L17.7743 71.6299L51.243 117.115L60.5502 110.267L27.0815 64.7815Z" fill="#9B998C"/>
<path id="Vector_37" d="M28.7751 71.171L23.371 75.1475L49.6599 110.875L55.0641 106.899L28.7751 71.171Z" fill="#CAC7B5"/>
<g id="Group_11">
<path id="Vector_38" d="M29.3273 53.5547L30.2591 62.1274C30.4455 64.5501 29.5136 66.7865 27.65 68.0911L20.7545 73.1229C18.8909 74.6138 16.2818 74.8001 14.2318 73.8683L6.40454 70.5138C4.16818 69.582 2.67727 67.532 2.49091 65.1092L1 52.8092L3.05 51.3183L13.4864 65.482L22.4318 58.7729L12.1818 44.7956L14.2318 43.3047L15.1636 43.6774L25.6 48.3365C27.65 49.082 29.1409 51.132 29.3273 53.5547Z" fill="#CAC7B5"/>
<path id="Vector_39" d="M14.4182 42.9316L26.7182 59.518L13.3 69.3953L1 52.8089L3.05 51.318L13.4864 65.4816L22.6182 58.9589L12.1818 44.7953L14.4182 42.9316Z" fill="#E6ECDF"/>
</g>
<g id="Group_12">
<path id="Vector_40" d="M49.0819 128.473L48.1501 119.9C47.9637 117.478 48.8956 115.241 50.7592 113.937L57.6547 108.905C59.5183 107.414 62.1274 107.228 64.1774 108.159L72.0047 111.514C74.241 112.446 75.7319 114.496 75.9183 116.918L77.2228 129.218L75.1728 130.709L64.7365 116.546L55.791 123.255L66.2274 137.419L64.3637 138.723L63.4319 138.35L52.9956 133.878C50.7592 132.946 49.2683 130.896 49.0819 128.473Z" fill="#CAC7B5"/>
<path id="Vector_41" d="M63.991 139.095L51.8773 122.509L65.2955 112.632L77.4091 129.218L75.3591 130.709L64.9228 116.359L55.791 123.068L66.4137 137.232L63.991 139.095Z" fill="#E6ECDF"/>
</g>
</g>
<path id="Vector_42" d="M119.155 140.027H6.03177C3.42268 140.027 1.37268 137.977 1.37268 135.368V113.377C1.37268 110.768 3.42268 108.718 6.03177 108.718H119.155C121.764 108.718 123.814 110.768 123.814 113.377V135.368C124 137.791 121.764 140.027 119.155 140.027Z" fill="#6D6BAF"/>
<path id="Vector_43" d="M24.2955 82.4413C23.9228 77.9686 26.5319 75.7322 30.8182 76.8504C29.141 78.1549 28.9546 79.4595 28.9546 79.4595C28.9546 79.4595 30.0728 78.5276 31.7501 79.4595L30.8182 81.1367C30.8182 81.1367 33.8001 81.5095 34.5455 82.4413C34.5455 82.4413 31.3773 84.1186 31.7501 88.7776C25.6001 90.4549 24.2955 82.4413 24.2955 82.4413Z" fill="#FFAB00"/>
</g>
</g>
<g id="Outlined_Text">
<g id="Group_13">
<path id="Vector_44" d="M25.8702 132.448C24.0145 132.448 22.6649 132.111 21.3153 131.436C20.1345 130.761 19.291 129.749 18.6162 128.568C17.9414 127.387 17.7727 125.869 17.7727 124.013C17.7727 122.326 18.1101 120.808 18.7849 119.627C19.4597 118.446 20.3032 117.434 21.484 116.759C22.6649 116.084 24.0145 115.747 25.7015 115.747C26.8824 115.747 27.8945 115.916 28.738 116.253C29.5815 116.591 30.425 117.097 31.0998 117.771L30.425 119.29C29.9189 118.784 29.4128 118.446 28.9067 118.278C28.4006 118.109 27.8945 117.771 27.3884 117.771C27.0511 117.434 26.3763 117.434 25.7015 117.434C23.8458 117.434 22.3275 117.94 21.3153 119.121C20.3032 120.302 19.7971 121.989 19.7971 124.013C19.7971 126.206 20.3032 127.725 21.3153 128.905C22.3275 130.086 23.8458 130.592 25.8702 130.592C26.7137 130.592 27.3884 130.592 28.0632 130.424C28.738 130.255 29.4128 130.086 30.0876 129.749L29.7502 130.93V125.194H25.5328V123.676H31.2685V131.267C30.5937 131.605 29.7502 131.942 28.738 132.111C27.8945 132.279 26.8824 132.448 25.8702 132.448Z" fill="white"/>
<path id="Vector_45" d="M40.2095 132.448C38.3538 132.448 37.0042 131.942 35.992 130.93C34.9798 129.918 34.4738 128.4 34.4738 126.544C34.4738 125.363 34.6425 124.351 35.1485 123.339C35.6546 122.327 36.3294 121.821 37.1729 121.314C38.0164 120.808 39.0286 120.64 40.0408 120.64C41.0529 120.64 42.0651 120.808 42.7399 121.314C43.4147 121.821 44.0895 122.327 44.4269 123.17C44.7643 124.014 44.933 125.026 44.933 126.038V126.713H35.8233V125.532H43.5834L43.246 125.869C43.246 124.688 42.9086 123.676 42.4025 123.001C41.8964 122.327 41.0529 121.989 39.8721 121.989C38.6912 121.989 37.8477 122.327 37.1729 123.17C36.4981 124.014 36.1607 125.026 36.1607 126.375V126.544C36.1607 128.062 36.4981 129.075 37.1729 129.918C37.8477 130.761 38.8599 131.099 40.2095 131.099C40.8842 131.099 41.559 130.93 42.2338 130.761C42.9086 130.593 43.4147 130.255 43.9208 129.749L44.5956 131.099C44.0895 131.605 43.4147 131.942 42.7399 132.28C41.8964 132.28 41.0529 132.448 40.2095 132.448Z" fill="white"/>
<path id="Vector_46" d="M51.6809 132.448C50.5 132.448 49.6565 132.11 49.1504 131.436C48.4756 130.761 48.307 129.749 48.307 128.399V121.989H45.9452V120.47H48.1383V117.434L49.9939 116.928V120.639H53.3679V122.157H49.9939V128.399C49.9939 129.243 50.1626 129.917 50.5 130.424C50.8374 130.761 51.3435 130.93 51.8496 130.93C52.187 130.93 52.3557 130.93 52.6931 130.93C52.8618 130.93 53.1992 130.761 53.3679 130.761V132.279C53.1992 132.448 52.8618 132.448 52.5244 132.448C52.3557 132.448 52.0183 132.448 51.6809 132.448Z" fill="white"/>
<path id="Vector_47" d="M61.9716 132.111V115.747H63.8272V123.001H73.6117V115.747H75.4673V132.111H73.6117V124.688H63.8272V132.111H61.9716Z" fill="white"/>
<path id="Vector_48" d="M84.5769 132.448C82.7212 132.448 81.3716 131.942 80.3595 130.93C79.3473 129.918 78.8412 128.4 78.8412 126.544C78.8412 125.363 79.0099 124.351 79.516 123.339C80.0221 122.495 80.6969 121.821 81.3716 121.314C82.2151 120.808 83.2273 120.64 84.2395 120.64C85.2517 120.64 86.2639 120.808 86.9387 121.314C87.6134 121.821 88.2882 122.327 88.6256 123.17C88.963 124.014 89.1317 125.026 89.1317 126.038V126.713H80.1908V125.532H87.9508L87.6134 125.869C87.6134 124.688 87.276 123.676 86.77 123.001C86.2639 122.327 85.4204 121.989 84.2395 121.989C83.0586 121.989 82.2151 122.327 81.5403 123.17C80.8656 124.014 80.5282 125.026 80.5282 126.375V126.544C80.5282 128.062 80.8656 129.075 81.5403 129.918C82.2151 130.593 83.2273 131.099 84.5769 131.099C85.2517 131.099 85.9265 130.93 86.6013 130.761C87.276 130.593 87.7821 130.255 88.2882 129.749L88.963 131.099C88.4569 131.605 87.7821 131.942 87.1074 132.28C86.2639 132.28 85.4204 132.448 84.5769 132.448Z" fill="white"/>
<path id="Vector_49" d="M91.9995 132.111V115.241H93.8552V132.28H91.9995V132.111Z" fill="white"/>
<path id="Vector_50" d="M97.3978 137.171V123.338C97.3978 122.832 97.3978 122.495 97.3978 121.989C97.3978 121.483 97.3978 121.145 97.2291 120.639H99.0848L99.4222 123.338H99.0848C99.2535 122.495 99.7596 121.651 100.603 121.145C101.278 120.639 102.29 120.302 103.302 120.302C104.314 120.302 105.327 120.47 106.001 120.977C106.845 121.483 107.351 122.157 107.857 123.001C108.363 123.844 108.532 125.025 108.532 126.206C108.532 127.387 108.363 128.568 107.857 129.411C107.351 130.255 106.845 130.93 106.001 131.436C105.158 131.942 104.314 132.111 103.302 132.111C102.29 132.111 101.447 131.773 100.603 131.267C99.9283 130.761 99.4222 130.086 99.0848 129.074H99.4222V136.834H97.3978V137.171ZM102.965 130.93C104.146 130.93 104.989 130.592 105.664 129.749C106.339 128.905 106.676 127.893 106.676 126.375C106.676 124.857 106.339 123.844 105.664 123.001C104.989 122.157 104.146 121.82 102.965 121.82C101.953 121.82 100.94 122.157 100.266 123.001C99.5909 123.844 99.2535 124.857 99.2535 126.375C99.2535 127.893 99.5909 128.905 100.266 129.749C100.94 130.592 101.784 130.93 102.965 130.93Z" fill="white"/>
</g>
</g>
</g>
</svg>
