<svg width="16" height="16" viewBox="0 0 16 16" fill="none" xmlns="http://www.w3.org/2000/svg">
<g id="help-circle" clip-path="url(#clip0_56_4996)">
<path id="Icon" d="M6.05967 5.99992C6.21641 5.55436 6.52578 5.17866 6.93298 4.93934C7.34018 4.70002 7.81894 4.61254 8.28446 4.69239C8.74998 4.77224 9.17222 5.01427 9.47639 5.3756C9.78057 5.73694 9.94705 6.19427 9.94634 6.66659C9.94634 7.99992 7.94634 8.66659 7.94634 8.66659M7.99967 11.3333H8.00634M14.6663 7.99992C14.6663 11.6818 11.6816 14.6666 7.99967 14.6666C4.31778 14.6666 1.33301 11.6818 1.33301 7.99992C1.33301 4.31802 4.31778 1.33325 7.99967 1.33325C11.6816 1.33325 14.6663 4.31802 14.6663 7.99992Z" stroke="#98A2B3" stroke-width="1.33333" stroke-linecap="round" stroke-linejoin="round"/>
</g>
<defs>
<clipPath id="clip0_56_4996">
<rect width="16" height="16" fill="white"/>
</clipPath>
</defs>
</svg>
