<svg width="21" height="28" viewBox="0 0 21 28" fill="none" xmlns="http://www.w3.org/2000/svg">
<path fill-rule="evenodd" clip-rule="evenodd" d="M13.2652 8.63982C12.7549 8.63982 12.3419 8.22637 12.3419 7.71648V0.000495929H1.13101C0.50619 0.000495929 0 0.506283 0 1.13216V26.6383C0 27.2634 0.508157 27.77 1.1353 27.77H19.8462C20.4731 27.77 20.9815 27.2601 20.9815 26.6353V8.6396L13.2652 8.63982ZM15.4001 19.5636C15.2324 19.6482 14.9806 19.7328 14.6448 19.7328C13.9733 19.7328 12.9663 19.5636 12.1271 19.1407C10.7003 19.3099 9.60939 19.4791 8.76996 19.8176C8.68603 19.8176 8.68603 19.8176 8.60208 19.9022C7.59505 21.6787 6.75585 22.5248 6.08436 22.5248C5.91648 22.5248 5.83254 22.5248 5.7486 22.4402L5.32912 22.1864V22.1018C5.24518 21.9327 5.24518 21.8481 5.24518 21.6787C5.32912 21.2558 5.83253 20.4943 6.83979 19.9022C7.00767 19.8176 7.25927 19.6482 7.59502 19.4791C7.84684 19.0561 8.09865 18.5484 8.43417 17.9563C8.85387 17.1103 9.10571 16.2642 9.35751 15.5027C9.02175 14.4875 8.85388 13.8954 9.18963 12.7108C9.27357 12.3724 9.52539 12.0341 9.86095 12.0341H10.0288C10.1967 12.0341 10.3646 12.1187 10.5325 12.2033C11.12 12.7956 10.8682 14.1491 10.5325 15.249V15.3335C10.8682 16.2642 11.3716 17.0257 11.8753 17.5332C12.1271 17.7024 12.295 17.8717 12.6305 18.0409C13.0502 18.0409 13.386 17.9563 13.7217 17.9563C14.7288 17.9563 15.4001 18.1255 15.6519 18.5484C15.7358 18.7176 15.7358 18.887 15.7358 19.0561C15.6519 19.1407 15.5679 19.3945 15.4001 19.5636H15.4001ZM9.94488 16.2642C9.77722 16.8565 9.44147 17.5331 9.10573 18.2947C8.93785 18.633 8.76997 18.887 8.6021 19.2253H8.76998C9.86098 18.8024 10.8682 18.5484 11.5396 18.4639C11.3717 18.3793 11.2877 18.2947 11.2038 18.2101C10.7843 17.7024 10.2807 17.0257 9.94491 16.2643L9.94488 16.2642ZM15.0645 18.887C14.9806 18.8024 14.6448 18.5484 13.4699 18.5484H13.302V18.633C13.8896 18.887 14.477 19.0561 14.8966 19.0561H15.1485V18.9716C15.1485 18.9716 15.0645 18.9716 15.0645 18.887ZM7.34302 20.1559C7.17515 20.2405 7.00749 20.3251 6.92354 20.4097C6.33597 20.9174 5.91629 21.5095 5.83232 21.7633C6.33595 21.6787 6.83957 21.1712 7.34301 20.1559L7.34302 20.1559ZM9.86075 14.3183C9.94468 13.9799 10.0286 13.8108 10.0286 13.5568V13.3876C10.1126 12.9647 10.1126 12.6262 10.0286 12.5416V12.457L9.94469 12.3724C9.94469 12.3724 9.94469 12.457 9.86075 12.457C9.69309 12.9647 9.69309 13.5568 9.86075 14.3183L9.86075 14.3183ZM20.9807 7.40562H14.1942C13.8527 7.40562 13.5756 7.12883 13.5756 6.78703V0L20.9807 7.40562Z" fill="#EE316B"/>
</svg>
