<svg width="20" height="18" viewBox="0 0 20 18" fill="none" xmlns="http://www.w3.org/2000/svg">
<path d="M6.78571 0C5.80261 0 5 0.708845 5 1.5771V6.30841H1.37486C0.617971 6.30841 0 6.85925 0 7.52882V12.6581C0 13.3277 0.617971 13.8785 1.37486 13.8785H5V16.0864C5 16.9547 5.80261 17.6636 6.78571 17.6636H18.2143C19.1974 17.6636 20 16.9547 20 16.0864V5.04673C20 4.75948 19.8677 4.48851 19.6456 4.28775L15.2553 0.317885C15.0256 0.110183 14.7116 0 14.3903 0H6.78571ZM6.78571 0.630841H14.2857V3.78505C14.2857 4.47856 14.929 5.04673 15.7143 5.04673H19.2857V16.0864C19.2857 16.6161 18.814 17.0327 18.2143 17.0327H6.78571C6.18596 17.0327 5.71429 16.6161 5.71429 16.0864V13.8785H12.9109C13.6677 13.8785 14.2857 13.3277 14.2857 12.6581V7.52882C14.2857 6.85925 13.6677 6.30841 12.9109 6.30841H5.71429V1.5771C5.71429 1.04742 6.18596 0.630841 6.78571 0.630841ZM15 0.990002L18.7891 4.41589H15.7143C15.3124 4.41589 15 4.13999 15 3.78505V0.990002ZM1.37486 6.93925H12.9109C13.2818 6.93925 13.5714 7.19551 13.5714 7.52882V12.6581C13.5714 12.9914 13.2818 13.2477 12.9109 13.2477H1.37486C1.00396 13.2477 0.714286 12.9914 0.714286 12.6581V7.52882C0.714286 7.19551 1.00396 6.93925 1.37486 6.93925Z" fill="#6D6BAF"/>
<path d="M2.49972 8.20092C2.30249 8.20094 2.1426 8.34215 2.14258 8.51634C2.14258 9.56774 2.14258 10.6191 2.14258 11.6705C2.14258 11.8447 2.30248 11.986 2.49972 11.986C2.69696 11.986 2.85686 11.8447 2.85686 11.6705V10.7243H3.57115C4.3564 10.7243 4.99972 10.1561 4.99972 9.46261C4.99972 8.76909 4.3564 8.20092 3.57115 8.20092H2.49972ZM2.85686 8.83176H3.57115C3.97304 8.83176 4.28544 9.10766 4.28544 9.46261C4.28544 9.81755 3.97304 10.0934 3.57115 10.0934H2.85686V8.83176Z" fill="#6D6BAF"/>
<path d="M6.07101 8.20092C5.97629 8.20093 5.88546 8.23417 5.81848 8.29332C5.75151 8.35247 5.71388 8.43269 5.71387 8.51634V11.6705C5.71388 11.7542 5.75151 11.8344 5.81848 11.8936C5.88546 11.9527 5.97629 11.986 6.07101 11.986H6.37723C7.58114 11.986 8.57101 11.1413 8.57101 10.0934C8.57101 9.04561 7.58114 8.20092 6.37723 8.20092H6.07101ZM6.42815 8.84039C7.23312 8.86425 7.85672 9.40916 7.85672 10.0934C7.85672 10.7777 7.23312 11.3226 6.42815 11.3465V8.84039Z" fill="#6D6BAF"/>
<path d="M9.64328 8.20092C9.44604 8.20094 9.28615 8.34215 9.28613 8.51634C9.28613 9.56774 9.28613 10.6191 9.28613 11.6705C9.28613 11.8447 9.44603 11.986 9.64328 11.986C9.84052 11.986 10.0004 11.8447 10.0004 11.6705V10.3676H11.7861C11.9834 10.3676 12.1433 10.2264 12.1433 10.0522C12.1433 9.87797 11.9834 9.73675 11.7861 9.73675H10.0004V8.83176H11.7861C11.9834 8.83176 12.1433 8.69054 12.1433 8.51634C12.1433 8.34214 11.9834 8.20092 11.7861 8.20092H9.64328Z" fill="#6D6BAF"/>
</svg>
