<svg width="27" height="27" viewBox="0 0 27 27" fill="none" xmlns="http://www.w3.org/2000/svg">
<path d="M19.0428 12.5358H14.4624V7.95543C14.4624 7.82284 14.3539 7.71436 14.2213 7.71436H12.7749C12.6423 7.71436 12.5338 7.82284 12.5338 7.95543V12.5358H7.95347C7.82088 12.5358 7.7124 12.6443 7.7124 12.7769V14.2233C7.7124 14.3559 7.82088 14.4644 7.95347 14.4644H12.5338V19.0447C12.5338 19.1773 12.6423 19.2858 12.7749 19.2858H14.2213C14.3539 19.2858 14.4624 19.1773 14.4624 19.0447V14.4644H19.0428C19.1753 14.4644 19.2838 14.3559 19.2838 14.2233V12.7769C19.2838 12.6443 19.1753 12.5358 19.0428 12.5358Z" fill="#17A2B8" fill-opacity="0.7"/>
<path d="M13.5 0C6.04487 0 0 6.04487 0 13.5C0 20.9551 6.04487 27 13.5 27C20.9551 27 27 20.9551 27 13.5C27 6.04487 20.9551 0 13.5 0ZM13.5 24.7098C7.31049 24.7098 2.29018 19.6895 2.29018 13.5C2.29018 7.31049 7.31049 2.29018 13.5 2.29018C19.6895 2.29018 24.7098 7.31049 24.7098 13.5C24.7098 19.6895 19.6895 24.7098 13.5 24.7098Z" fill="#17A2B8" fill-opacity="0.7"/>
</svg>
