<svg width="60" height="60" viewBox="0 0 60 60" fill="none" xmlns="http://www.w3.org/2000/svg">
<circle cx="30" cy="30" r="30" fill="#0A5CFF"/>
<path d="M20.6875 49.7997L29.4527 41.0345H42.6005C44.9201 41.0345 46.8005 39.1541 46.8005 36.8345V20.3997C46.8005 18.0801 44.9201 16.1997 42.6005 16.1997H17.4005C15.0809 16.1997 13.2005 18.0801 13.2005 20.3997V36.8345C13.2005 39.1541 15.0809 41.0345 17.4005 41.0345H20.6875V49.7997Z" fill="#F5F8FF"/>
<path d="M30.0024 33.8005V27.5005M29.9993 23.5005L30.0024 24.0005M29.4527 41.0345L20.6875 49.7997V41.0345H17.4005C15.0809 41.0345 13.2005 39.1541 13.2005 36.8345V20.3997C13.2005 18.0801 15.0809 16.1997 17.4005 16.1997H42.6005C44.9201 16.1997 46.8005 18.0801 46.8005 20.3997V36.8345C46.8005 39.1541 44.9201 41.0345 42.6005 41.0345H29.4527Z" stroke="#0A5CFF" stroke-width="2" stroke-linecap="round" stroke-linejoin="round"/>
</svg>
