<svg width="22" height="24" viewBox="0 0 22 24" fill="none" xmlns="http://www.w3.org/2000/svg">
<path d="M20.7782 23.6296H1.22215C0.898045 23.6296 0.587241 23.4914 0.358073 23.245C0.128701 22.9989 0 22.665 0 22.317V1.31266C0 0.964553 0.128701 0.630731 0.358073 0.384591C0.587241 0.138232 0.898071 0 1.22215 0H7.01552C7.74802 0 8.45066 0.31251 8.96876 0.868944C9.48664 1.42539 9.77779 2.17987 9.77779 2.96684V3.93824H20.7778C21.102 3.93824 21.4128 4.07647 21.6419 4.32283C21.8713 4.56897 22 4.90282 22 5.2509V22.317C22 22.6651 21.8713 22.9989 21.6419 23.245C21.4128 23.4914 21.1019 23.6296 20.7778 23.6296H20.7782ZM2.44473 21.0041H19.5556V6.56424H8.55552C8.23142 6.56424 7.92061 6.42579 7.69145 6.17965C7.46207 5.93351 7.33337 5.59966 7.33337 5.25135V2.96729C7.33337 2.77872 7.19117 2.62599 7.01561 2.62599H2.44451L2.44473 21.0041Z" fill="#6D6BAF"/>
<path d="M8.5554 10.5025H4.88872C4.45207 10.5025 4.04857 10.2522 3.83025 9.84607C3.61192 9.43994 3.61192 8.93955 3.83025 8.5334C4.04857 8.12726 4.45207 7.87695 4.88872 7.87695H8.5554C8.99204 7.87695 9.39554 8.12727 9.61387 8.5334C9.83219 8.93953 9.83219 9.43993 9.61387 9.84607C9.39554 10.2522 8.99205 10.5025 8.5554 10.5025Z" fill="#6D6BAF"/>
<path d="M11 14.441H4.88872C4.45207 14.441 4.04857 14.1907 3.83025 13.7845C3.61192 13.3784 3.61192 12.878 3.83025 12.4719C4.04857 12.0657 4.45207 11.8154 4.88872 11.8154H11C11.4367 11.8154 11.8402 12.0657 12.0585 12.4719C12.2768 12.878 12.2768 13.3784 12.0585 13.7845C11.8402 14.1907 11.4367 14.441 11 14.441Z" fill="#6D6BAF"/>
<path d="M17.1114 18.379H4.88872C4.45207 18.379 4.04857 18.1287 3.83025 17.7225C3.61192 17.3164 3.61192 16.816 3.83025 16.4099C4.04857 16.0037 4.45207 15.7534 4.88872 15.7534H17.1114C17.548 15.7534 17.9515 16.0037 18.1698 16.4099C18.3881 16.816 18.3881 17.3164 18.1698 17.7225C17.9515 18.1287 17.548 18.379 17.1114 18.379Z" fill="#6D6BAF"/>
<path d="M9.77789 6.56453H4.88884C4.45219 6.56453 4.04869 6.31422 3.83037 5.90808C3.61204 5.50195 3.61204 5.00156 3.83037 4.59541C4.04869 4.18927 4.45219 3.93896 4.88884 3.93896H9.77789C10.2145 3.93896 10.618 4.18928 10.8364 4.59541C11.0547 5.00155 11.0547 5.50194 10.8364 5.90808C10.618 6.31423 10.2145 6.56453 9.77789 6.56453Z" fill="#6D6BAF"/>
</svg>
