<svg width="14" height="14" viewBox="0 0 14 14" fill="none" xmlns="http://www.w3.org/2000/svg">
<path d="M7 0C3.14026 0 0 2.96209 0 6.60284C0 10.2436 3.14026 13.2057 7 13.2057C10.8597 13.2057 14 10.2436 14 6.60284C14 2.96209 10.8597 0 7 0ZM7 12.4719C3.56939 12.4719 0.777913 9.8388 0.777913 6.60284C0.777913 3.36687 3.56939 0.733776 7 0.733776C10.4306 0.733776 13.2221 3.36687 13.2221 6.60284C13.2221 9.8388 10.4306 12.4719 7 12.4719Z" fill="#FF3D78"/>
<path d="M7.38896 6.23584L6.61104 6.23592L3.5 6.23584V6.96962H6.61104H7.38896H10.5V6.23584H7.38896Z" fill="#FF3D78"/>
</svg>
