<svg width="22" height="27" viewBox="0 0 22 27" fill="none" xmlns="http://www.w3.org/2000/svg">
<path d="M19.0535 0H2.94647C1.31892 0 0 1.31887 0 2.94647V23.7117C0 25.3392 1.31887 26.6581 2.94647 26.6581H19.0535C20.6811 26.6581 22 25.3393 22 23.7117L21.9998 2.94647C21.9998 1.31892 20.6809 0 19.0533 0H19.0535ZM20.0358 23.7116C20.0358 24.2448 19.5868 24.6939 19.0535 24.6939H2.94647C2.41325 24.6939 1.96423 24.2448 1.96423 23.7116V2.94642C1.96423 2.4132 2.41325 1.96418 2.94647 1.96418H19.0535C19.5867 1.96418 20.0358 2.4132 20.0358 2.94642V23.7116Z" fill="#6D6BAF"/>
<path d="M15.7981 19.8115H6.20123C5.66802 19.8115 5.21899 20.2605 5.21899 20.7938C5.21899 21.327 5.66802 21.776 6.20123 21.776H15.7981C16.3313 21.776 16.7804 21.327 16.7804 20.7938C16.7804 20.2606 16.3313 19.8115 15.7983 19.8115H15.7981Z" fill="#6D6BAF"/>
<path d="M15.7981 15.3774H6.20123C5.66802 15.3774 5.21899 15.8265 5.21899 16.3597C5.21899 16.8929 5.66802 17.3419 6.20123 17.3419H15.7981C16.3313 17.3419 16.7804 16.8929 16.7804 16.3597C16.7804 15.8265 16.3313 15.3774 15.7983 15.3774H15.7981Z" fill="#6D6BAF"/>
<path d="M16.5843 7.99716H14.4797C14.1148 7.99716 13.8062 8.19368 13.6378 8.50215L12.7398 10.0735L10.102 5.38732C9.93363 5.07864 9.59697 4.88232 9.26009 4.88232C8.89523 4.88232 8.58657 5.07885 8.4182 5.38732L6.93117 7.99711H5.38776C4.85454 7.99711 4.40552 8.44613 4.40552 8.97934C4.40552 9.51256 4.85454 9.96158 5.38776 9.96158H7.49234C7.85719 9.96158 8.16585 9.76506 8.33422 9.45658L9.23228 7.88521L11.8701 12.5714C12.0384 12.8801 12.3751 13.0764 12.712 13.0764C13.0768 13.0764 13.3855 12.8799 13.5538 12.5714L15.0131 9.96183H16.5565C17.0897 9.96183 17.5387 9.51281 17.5387 8.97959C17.5383 8.44603 17.1173 7.99721 16.5843 7.99721V7.99716Z" fill="#6D6BAF"/>
</svg>
