<svg width="20" height="21" viewBox="0 0 20 21" fill="none" xmlns="http://www.w3.org/2000/svg">
<path d="M7.48863 15.0192C9.29121 15.0192 10.9928 14.381 12.3471 13.2189L18.9324 19.8212C19.0546 19.9434 19.2152 20.0046 19.3749 20.0046C19.5344 20.0046 19.6939 19.9434 19.8163 19.8223C20.0607 19.578 20.0618 19.183 19.8174 18.9387L13.2263 12.332C15.6941 9.38549 15.5492 4.97274 12.7861 2.20187C11.3718 0.781761 9.49007 9.53674e-06 7.48824 9.53674e-06C5.48661 9.53674e-06 3.60504 0.781761 2.19041 2.20075C-0.729965 5.12792 -0.729965 9.8917 2.19041 12.8197C3.60485 14.2385 5.48681 15.0192 7.48863 15.0192ZM3.07579 3.08321C4.25475 1.90081 5.82189 1.25013 7.48863 1.25013C9.15538 1.25013 10.7225 1.90081 11.9015 3.08321C14.3365 5.52375 14.3365 9.4954 11.9015 11.936C10.7225 13.1184 9.15538 13.7691 7.48863 13.7691C5.82189 13.7691 4.25475 13.1184 3.07579 11.936C0.640927 9.4955 0.640927 5.52385 3.07579 3.08321Z" fill="#BAC1C8"/>
</svg>
