<svg width="36" height="30" viewBox="0 0 36 30" fill="none" xmlns="http://www.w3.org/2000/svg">
<path id="Vector" d="M13.7306 22.5H15.8436V16.0714H22.1828V13.9286H15.8436V7.5H13.7306V13.9286H7.39145V16.0714H13.7306V22.5ZM3.41258 30C2.44058 30 1.62846 29.67 0.976233 29.01C0.324005 28.35 -0.00140414 27.5264 4.55399e-06 26.5393V3.46071C4.55399e-06 2.475 0.325414 1.65214 0.976233 0.992142C1.62705 0.330714 2.43846 0 3.41046 0H26.168C27.14 0 27.9514 0.330714 28.6022 0.992142C29.253 1.65357 29.5792 2.47643 29.5806 3.46071V13.4336L36 6.92357V23.0764L29.5806 16.5664V26.5393C29.5806 27.525 29.2545 28.3479 28.6022 29.0079C27.9514 29.6693 27.1393 30 26.1659 30H3.41258Z" fill="#6D6BAF"/>
</svg>
