<svg width="24" height="25" viewBox="0 0 24 25" fill="none" xmlns="http://www.w3.org/2000/svg">
<g id="Type=TXT">
<path id="Vector" d="M16.5159 0H5.97742C4.52987 0 3.3623 1.14252 3.3623 2.59007V10.388H17.2294C18.9383 10.388 20.3359 11.7676 20.3359 13.4765V19.2878C20.3359 20.9967 18.9383 22.4018 17.2294 22.4018H3.36914C3.41091 23.8071 4.55654 24.9368 5.97742 24.9368H21.3758C22.8233 24.9368 24.0006 23.7496 24.0006 22.3021V7.49066L16.5159 0ZM12.198 7.41216H6.66344C6.35778 7.41216 6.11001 7.15254 6.11001 6.84688C6.11001 6.6939 6.1719 6.55006 6.272 6.44993C6.37214 6.34982 6.51049 6.28242 6.66344 6.28242H12.198C12.5037 6.28242 12.7514 6.54166 12.7514 6.84729C12.7514 7.15298 12.5037 7.41216 12.198 7.41216ZM12.2231 4.07806H6.6886C6.38294 4.07806 6.13514 3.82514 6.13514 3.51945C6.13514 3.3665 6.19703 3.23308 6.29716 3.13295C6.39727 3.03284 6.53565 2.97589 6.6886 2.97589H12.2231C12.5288 2.97589 12.7766 3.22134 12.7766 3.52698C12.7766 3.83261 12.5288 4.07806 12.2231 4.07806ZM16.0098 7.96325V1.85398L22.135 7.96325H16.0098Z" fill="#292D32"/>
<path id="Vector_2" d="M18.985 13.7035C18.985 12.6027 18.0927 11.7104 16.992 11.7104H1.99302C0.892297 11.7104 0 12.6027 0 13.7035V19.086C0 20.1867 0.892297 21.079 1.99302 21.079H16.992C18.0927 21.079 18.985 20.1867 18.985 19.086V13.7035ZM7.66015 15.1548H6.4202V18.3511H5.70378V15.1548H4.46383V14.4935H7.66015V15.1548ZM11.5453 18.3511H10.7379L9.75142 16.9017L8.76497 18.3511H7.93569V18.3139L9.28311 16.3851L7.9908 14.5114V14.4935H8.78702L9.75142 15.9318L10.7158 14.4935H11.5178V14.5114L10.2062 16.3851L11.5453 18.3139V18.3511ZM14.9345 15.1548H13.6946V18.3511H12.9782V15.1548H11.7382V14.4935H14.9345V15.1548Z" fill="#292D32"/>
</g>
</svg>
