<svg width="26" height="26" viewBox="0 0 26 26" fill="none" xmlns="http://www.w3.org/2000/svg">
<path d="M4.6131 25.8493H18.033C18.6388 25.8493 19.2387 25.727 19.7984 25.4893C20.3581 25.2516 20.8666 24.9032 21.295 24.464C21.7233 24.0249 22.0631 23.5035 22.295 22.9297C22.5268 22.3558 22.6461 21.7408 22.6461 21.1197V15.9602H20.1299V21.1197C20.1299 21.6899 19.909 22.2367 19.5157 22.6399C19.1225 23.043 18.5891 23.2695 18.033 23.2695H4.6131C4.05698 23.2695 3.52363 23.043 3.13039 22.6399C2.73716 22.2367 2.51624 21.6899 2.51624 21.1197V7.36094C2.51624 6.79078 2.73716 6.24397 3.13039 5.8408C3.52363 5.43763 4.05698 5.21113 4.6131 5.21113H9.64557V2.63136H4.6131C3.38963 2.63136 2.21627 3.12966 1.35115 4.01662C0.486021 4.90359 0 6.10658 0 7.36094V21.1197C0 21.7408 0.119322 22.3558 0.351152 22.9297C0.582982 23.5035 0.922779 24.0249 1.35115 24.464C1.77951 24.9032 2.28806 25.2516 2.84774 25.4893C3.40743 25.727 4.0073 25.8493 4.6131 25.8493Z" fill="#16A2B8"/>
<path d="M20.5996 12.1421L25.6321 6.98258C25.8677 6.74073 26.0001 6.41288 26.0001 6.07106C26.0001 5.72924 25.8677 5.4014 25.6321 5.15954L20.5996 0L18.8215 1.82304L21.7068 4.78118H18.4525C15.8943 4.78118 13.4409 5.82306 11.632 7.67763C9.82311 9.53221 8.80688 12.0475 8.80688 14.6703V18.9699H11.3231V14.6703C11.3231 12.7317 12.0742 10.8726 13.4113 9.50181C14.7483 8.13104 16.5616 7.36095 18.4525 7.36095H21.7068L18.8215 10.3191L20.5996 12.1421Z" fill="#16A2B8"/>
</svg>
