<svg width="15" height="14" viewBox="0 0 15 14" fill="none" xmlns="http://www.w3.org/2000/svg">
<path d="M2.85919 14H10.0859C10.4121 14 10.7352 13.9337 11.0366 13.805C11.338 13.6763 11.6118 13.4876 11.8425 13.2497C12.0732 13.0119 12.2562 12.7295 12.381 12.4187C12.5058 12.1079 12.5701 11.7749 12.5701 11.4385V8.64406H11.2151V11.4385C11.2151 11.7473 11.0961 12.0434 10.8844 12.2618C10.6726 12.4801 10.3854 12.6028 10.0859 12.6028H2.85919C2.55971 12.6028 2.2725 12.4801 2.06074 12.2618C1.84898 12.0434 1.73001 11.7473 1.73001 11.4385V3.98671C1.73001 3.67791 1.84898 3.38176 2.06074 3.1634C2.2725 2.94505 2.55971 2.82237 2.85919 2.82237H5.56921V1.42517H2.85919C2.20034 1.42517 1.56848 1.69505 1.1026 2.17543C0.636726 2.65581 0.375 3.30735 0.375 3.98671V11.4385C0.375 11.7749 0.439256 12.1079 0.564098 12.4187C0.68894 12.7295 0.871923 13.0119 1.1026 13.2497C1.33328 13.4876 1.60713 13.6763 1.90853 13.805C2.20992 13.9337 2.53296 14 2.85919 14Z" fill="white"/>
<path d="M11.4667 6.57617L14.1767 3.78176C14.3036 3.65078 14.3749 3.47322 14.3749 3.28809C14.3749 3.10296 14.3036 2.9254 14.1767 2.79441L11.4667 0L10.5092 0.987358L12.0629 2.58948H10.3104C8.93283 2.58948 7.61166 3.15377 6.63756 4.15821C5.66346 5.16264 5.11621 6.52495 5.11621 7.94543V10.2741H6.47122V7.94543C6.47122 6.89551 6.87571 5.88859 7.5957 5.14618C8.31569 4.40377 9.2922 3.98669 10.3104 3.98669H12.0629L10.5092 5.58882L11.4667 6.57617Z" fill="white"/>
</svg>
