<svg width="10" height="15" viewBox="0 0 10 15" fill="none" xmlns="http://www.w3.org/2000/svg">
<path d="M4.95787 11.5239C2.97627 11.5239 0.986422 11.0155 0.0463594 9.91831C0.0185438 10.0404 0 10.1656 0 10.2985V12.2955C0 14.0649 2.56933 14.87 4.95787 14.87C7.3464 14.87 9.91573 14.0649 9.91573 12.2955V10.2985C9.91573 10.1656 9.89719 10.0409 9.86937 9.91883C8.9288 11.016 6.93947 11.5249 4.95735 11.5249L4.95787 11.5239ZM4.95787 7.66319C2.97627 7.66319 0.986422 7.15478 0.0468744 6.05761C0.0171412 6.18183 0.00158864 6.30901 0.000515066 6.43673V8.43378C0.000515066 10.2026 2.56933 11.0078 4.95787 11.0078C7.3464 11.0078 9.91573 10.2026 9.91573 8.43327V6.4357C9.91573 6.30332 9.89719 6.17815 9.86937 6.05607C8.9288 7.15324 6.93947 7.66216 4.95735 7.66216L4.95787 7.66319ZM4.95787 0C2.56933 0 0 0.806137 0 2.57552V4.57257C0 6.34195 2.56933 7.14706 4.95787 7.14706C7.3464 7.14706 9.91573 6.34247 9.91573 4.57309V2.57603C9.91573 0.806652 7.3464 0.000515127 4.95787 0.000515127V0ZM4.95787 4.12083C2.78928 4.12083 1.03021 3.42904 1.03021 2.57552C1.03021 1.72251 2.78877 1.03021 4.95787 1.03021C7.12697 1.03021 8.88553 1.72251 8.88553 2.57552C8.88553 3.42956 7.12697 4.12083 4.95787 4.12083Z" fill="#6C6CAA"/>
</svg>
