<svg width="9" height="13" viewBox="0 0 9 13" fill="none" xmlns="http://www.w3.org/2000/svg">
<path d="M4.29104 9.97395C2.57596 9.97395 0.853749 9.53393 0.0401241 8.58431C0.0160497 8.68998 0 8.79834 0 8.91336V10.6418C0 12.1732 2.22376 12.87 4.29104 12.87C6.35832 12.87 8.58207 12.1732 8.58207 10.6418V8.91336C8.58207 8.79834 8.56603 8.69041 8.54195 8.58476C7.72789 9.53436 6.00612 9.97481 4.29059 9.97481L4.29104 9.97395ZM4.29104 6.6325C2.57596 6.6325 0.853749 6.19247 0.0405698 5.24287C0.0148357 5.35038 0.00137497 5.46045 0.00044579 5.571V7.29944C0.00044579 8.83036 2.22376 9.52726 4.29104 9.52726C6.35832 9.52726 8.58207 8.83036 8.58207 7.299V5.5701C8.58207 5.45553 8.56603 5.34719 8.54195 5.24153C7.72789 6.19114 6.00612 6.63161 4.29059 6.63161L4.29104 6.6325ZM4.29104 0C2.22376 0 0 0.697712 0 2.22912V3.95756C0 5.48896 2.22376 6.18579 4.29104 6.18579C6.35832 6.18579 8.58207 5.48941 8.58207 3.95801V2.22956C8.58207 0.698158 6.35832 0 4.29104 0ZM4.29104 3.56658C2.41412 3.56658 0.891648 2.96784 0.891648 2.22912C0.891648 1.49083 2.41368 0.891648 4.29104 0.891648C6.1684 0.891648 7.69043 1.49083 7.69043 2.22912C7.69043 2.96829 6.1684 3.56658 4.29104 3.56658Z" fill="#4382FF"/>
</svg>
